  0
SECTION
  2
HEADER
  9
$ACADVER
  1
AC1009
  9
$EXTMIN
 10
0.0
 20
0.0
 30
0.0
  9
$EXTMAX
 10
1000.0
 20
1000.0
 30
0.0
  9
$FILLMODE
 70
 0
  9
$SPLFRAME
 70
 1
  0
ENDSEC
  0
SECTION
  2
TABLES
  0
TABLE
  2
LAYER
 70
1
  0
LAYER
  2
0
 70
     0
 62
     7
  6
CONTINUOUS
  0
ENDTAB
  0
ENDSEC
  0
SECTION
  2
ENTITIES
  0
LINE
  8
0
 62
     0
 10
0.0937066
 20
38.1868
 30
0.0
 11
38.1938
 21
38.1868
 31
0.0
  0
LINE
  8
0
 62
     0
 10
38.1938
 20
38.1868
 30
0.0
 11
38.1938
 21
0.0868165
 31
0.0
  0
LINE
  8
0
 62
     0
 10
38.1938
 20
0.0868165
 30
0.0
 11
0.0937066
 21
0.0868165
 31
0.0
  0
LINE
  8
0
 62
     0
 10
0.0937066
 20
0.0868165
 30
0.0
 11
0.0937066
 21
38.1868
 31
0.0
  0
LINE
  8
0
 62
     0
 10
2.61827
 20
16.6122
 30
0.0
 11
2.61827
 21
15.6118
 31
0.0
  0
LINE
  8
0
 62
     0
 10
2.61827
 20
15.6118
 30
0.0
 11
1.81901
 21
15.6118
 31
0.0
  0
LINE
  8
0
 62
     0
 10
1.81901
 20
15.6118
 30
0.0
 11
1.81901
 21
12.5112
 31
0.0
  0
LINE
  8
0
 62
     0
 10
1.81901
 20
12.5112
 30
0.0
 11
2.61827
 21
12.5112
 31
0.0
  0
LINE
  8
0
 62
     0
 10
2.61827
 20
12.5112
 30
0.0
 11
2.61827
 21
6.71382
 31
0.0
  0
LINE
  8
0
 62
     0
 10
2.61827
 20
6.71382
 30
0.0
 11
1.81901
 21
6.71382
 31
0.0
  0
LINE
  8
0
 62
     0
 10
1.81901
 20
6.71382
 30
0.0
 11
1.81901
 21
3.61322
 31
0.0
  0
LINE
  8
0
 62
     0
 10
1.81901
 20
3.61322
 30
0.0
 11
2.61827
 21
3.61322
 31
0.0
  0
LINE
  8
0
 62
     0
 10
2.61827
 20
3.61322
 30
0.0
 11
2.61827
 21
2.61276
 31
0.0
  0
LINE
  8
0
 62
     0
 10
2.61827
 20
2.61276
 30
0.0
 11
16.6192
 21
2.61276
 31
0.0
  0
LINE
  8
0
 62
     0
 10
16.6192
 20
2.61276
 30
0.0
 11
16.6192
 21
3.61322
 31
0.0
  0
LINE
  8
0
 62
     0
 10
16.6192
 20
3.61322
 30
0.0
 11
17.4184
 21
3.61322
 31
0.0
  0
LINE
  8
0
 62
     0
 10
17.4184
 20
3.61322
 30
0.0
 11
17.4184
 21
6.71382
 31
0.0
  0
LINE
  8
0
 62
     0
 10
17.4184
 20
6.71382
 30
0.0
 11
16.6192
 21
6.71382
 31
0.0
  0
LINE
  8
0
 62
     0
 10
16.6192
 20
6.71382
 30
0.0
 11
16.6192
 21
12.5112
 31
0.0
  0
LINE
  8
0
 62
     0
 10
16.6192
 20
12.5112
 30
0.0
 11
17.4184
 21
12.5112
 31
0.0
  0
LINE
  8
0
 62
     0
 10
17.4184
 20
12.5112
 30
0.0
 11
17.4184
 21
15.6118
 31
0.0
  0
LINE
  8
0
 62
     0
 10
17.4184
 20
15.6118
 30
0.0
 11
16.6192
 21
15.6118
 31
0.0
  0
LINE
  8
0
 62
     0
 10
16.6192
 20
15.6118
 30
0.0
 11
16.6192
 21
16.6122
 31
0.0
  0
LINE
  8
0
 62
     0
 10
16.6192
 20
16.6122
 30
0.0
 11
2.61827
 21
16.6122
 31
0.0
  0
LINE
  8
0
 62
     0
 10
21.6683
 20
16.6122
 30
0.0
 11
21.6683
 21
15.6118
 31
0.0
  0
LINE
  8
0
 62
     0
 10
21.6683
 20
15.6118
 30
0.0
 11
20.869
 21
15.6118
 31
0.0
  0
LINE
  8
0
 62
     0
 10
20.869
 20
15.6118
 30
0.0
 11
20.869
 21
12.5112
 31
0.0
  0
LINE
  8
0
 62
     0
 10
20.869
 20
12.5112
 30
0.0
 11
21.6683
 21
12.5112
 31
0.0
  0
LINE
  8
0
 62
     0
 10
21.6683
 20
12.5112
 30
0.0
 11
21.6683
 21
6.71382
 31
0.0
  0
LINE
  8
0
 62
     0
 10
21.6683
 20
6.71382
 30
0.0
 11
20.869
 21
6.71382
 31
0.0
  0
LINE
  8
0
 62
     0
 10
20.869
 20
6.71382
 30
0.0
 11
20.869
 21
3.61322
 31
0.0
  0
LINE
  8
0
 62
     0
 10
20.869
 20
3.61322
 30
0.0
 11
21.6683
 21
3.61322
 31
0.0
  0
LINE
  8
0
 62
     0
 10
21.6683
 20
3.61322
 30
0.0
 11
21.6683
 21
2.61276
 31
0.0
  0
LINE
  8
0
 62
     0
 10
21.6683
 20
2.61276
 30
0.0
 11
35.669
 21
2.61276
 31
0.0
  0
LINE
  8
0
 62
     0
 10
35.669
 20
2.61276
 30
0.0
 11
35.669
 21
3.61322
 31
0.0
  0
LINE
  8
0
 62
     0
 10
35.669
 20
3.61322
 30
0.0
 11
36.4684
 21
3.61322
 31
0.0
  0
LINE
  8
0
 62
     0
 10
36.4684
 20
3.61322
 30
0.0
 11
36.4684
 21
6.71382
 31
0.0
  0
LINE
  8
0
 62
     0
 10
36.4684
 20
6.71382
 30
0.0
 11
35.669
 21
6.71382
 31
0.0
  0
LINE
  8
0
 62
     0
 10
35.669
 20
6.71382
 30
0.0
 11
35.669
 21
12.5112
 31
0.0
  0
LINE
  8
0
 62
     0
 10
35.669
 20
12.5112
 30
0.0
 11
36.4684
 21
12.5112
 31
0.0
  0
LINE
  8
0
 62
     0
 10
36.4684
 20
12.5112
 30
0.0
 11
36.4684
 21
15.6118
 31
0.0
  0
LINE
  8
0
 62
     0
 10
36.4684
 20
15.6118
 30
0.0
 11
35.669
 21
15.6118
 31
0.0
  0
LINE
  8
0
 62
     0
 10
35.669
 20
15.6118
 30
0.0
 11
35.669
 21
16.6122
 31
0.0
  0
LINE
  8
0
 62
     0
 10
35.669
 20
16.6122
 30
0.0
 11
21.6683
 21
16.6122
 31
0.0
  0
LINE
  8
0
 62
     0
 10
2.61827
 20
35.6623
 30
0.0
 11
2.61827
 21
34.6618
 31
0.0
  0
LINE
  8
0
 62
     0
 10
2.61827
 20
34.6618
 30
0.0
 11
1.81901
 21
34.6618
 31
0.0
  0
LINE
  8
0
 62
     0
 10
1.81901
 20
34.6618
 30
0.0
 11
1.81901
 21
31.5612
 31
0.0
  0
LINE
  8
0
 62
     0
 10
1.81901
 20
31.5612
 30
0.0
 11
2.61827
 21
31.5612
 31
0.0
  0
LINE
  8
0
 62
     0
 10
2.61827
 20
31.5612
 30
0.0
 11
2.61827
 21
25.7638
 31
0.0
  0
LINE
  8
0
 62
     0
 10
2.61827
 20
25.7638
 30
0.0
 11
1.81901
 21
25.7638
 31
0.0
  0
LINE
  8
0
 62
     0
 10
1.81901
 20
25.7638
 30
0.0
 11
1.81901
 21
22.6632
 31
0.0
  0
LINE
  8
0
 62
     0
 10
1.81901
 20
22.6632
 30
0.0
 11
2.61827
 21
22.6632
 31
0.0
  0
LINE
  8
0
 62
     0
 10
2.61827
 20
22.6632
 30
0.0
 11
2.61827
 21
21.6628
 31
0.0
  0
LINE
  8
0
 62
     0
 10
2.61827
 20
21.6628
 30
0.0
 11
16.6192
 21
21.6628
 31
0.0
  0
LINE
  8
0
 62
     0
 10
16.6192
 20
21.6628
 30
0.0
 11
16.6192
 21
22.6632
 31
0.0
  0
LINE
  8
0
 62
     0
 10
16.6192
 20
22.6632
 30
0.0
 11
17.4184
 21
22.6632
 31
0.0
  0
LINE
  8
0
 62
     0
 10
17.4184
 20
22.6632
 30
0.0
 11
17.4184
 21
25.7638
 31
0.0
  0
LINE
  8
0
 62
     0
 10
17.4184
 20
25.7638
 30
0.0
 11
16.6192
 21
25.7638
 31
0.0
  0
LINE
  8
0
 62
     0
 10
16.6192
 20
25.7638
 30
0.0
 11
16.6192
 21
31.5612
 31
0.0
  0
LINE
  8
0
 62
     0
 10
16.6192
 20
31.5612
 30
0.0
 11
17.4184
 21
31.5612
 31
0.0
  0
LINE
  8
0
 62
     0
 10
17.4184
 20
31.5612
 30
0.0
 11
17.4184
 21
34.6618
 31
0.0
  0
LINE
  8
0
 62
     0
 10
17.4184
 20
34.6618
 30
0.0
 11
16.6192
 21
34.6618
 31
0.0
  0
LINE
  8
0
 62
     0
 10
16.6192
 20
34.6618
 30
0.0
 11
16.6192
 21
35.6623
 31
0.0
  0
LINE
  8
0
 62
     0
 10
16.6192
 20
35.6623
 30
0.0
 11
2.61827
 21
35.6623
 31
0.0
  0
LINE
  8
0
 62
     0
 10
21.6683
 20
35.6623
 30
0.0
 11
21.6683
 21
34.6618
 31
0.0
  0
LINE
  8
0
 62
     0
 10
21.6683
 20
34.6618
 30
0.0
 11
20.869
 21
34.6618
 31
0.0
  0
LINE
  8
0
 62
     0
 10
20.869
 20
34.6618
 30
0.0
 11
20.869
 21
31.5612
 31
0.0
  0
LINE
  8
0
 62
     0
 10
20.869
 20
31.5612
 30
0.0
 11
21.6683
 21
31.5612
 31
0.0
  0
LINE
  8
0
 62
     0
 10
21.6683
 20
31.5612
 30
0.0
 11
21.6683
 21
25.7638
 31
0.0
  0
LINE
  8
0
 62
     0
 10
21.6683
 20
25.7638
 30
0.0
 11
20.869
 21
25.7638
 31
0.0
  0
LINE
  8
0
 62
     0
 10
20.869
 20
25.7638
 30
0.0
 11
20.869
 21
22.6632
 31
0.0
  0
LINE
  8
0
 62
     0
 10
20.869
 20
22.6632
 30
0.0
 11
21.6683
 21
22.6632
 31
0.0
  0
LINE
  8
0
 62
     0
 10
21.6683
 20
22.6632
 30
0.0
 11
21.6683
 21
21.6628
 31
0.0
  0
LINE
  8
0
 62
     0
 10
21.6683
 20
21.6628
 30
0.0
 11
35.669
 21
21.6628
 31
0.0
  0
LINE
  8
0
 62
     0
 10
35.669
 20
21.6628
 30
0.0
 11
35.669
 21
22.6632
 31
0.0
  0
LINE
  8
0
 62
     0
 10
35.669
 20
22.6632
 30
0.0
 11
36.4684
 21
22.6632
 31
0.0
  0
LINE
  8
0
 62
     0
 10
36.4684
 20
22.6632
 30
0.0
 11
36.4684
 21
25.7638
 31
0.0
  0
LINE
  8
0
 62
     0
 10
36.4684
 20
25.7638
 30
0.0
 11
35.669
 21
25.7638
 31
0.0
  0
LINE
  8
0
 62
     0
 10
35.669
 20
25.7638
 30
0.0
 11
35.669
 21
31.5612
 31
0.0
  0
LINE
  8
0
 62
     0
 10
35.669
 20
31.5612
 30
0.0
 11
36.4684
 21
31.5612
 31
0.0
  0
LINE
  8
0
 62
     0
 10
36.4684
 20
31.5612
 30
0.0
 11
36.4684
 21
34.6618
 31
0.0
  0
LINE
  8
0
 62
     0
 10
36.4684
 20
34.6618
 30
0.0
 11
35.669
 21
34.6618
 31
0.0
  0
LINE
  8
0
 62
     0
 10
35.669
 20
34.6618
 30
0.0
 11
35.669
 21
35.6623
 31
0.0
  0
LINE
  8
0
 62
     0
 10
35.669
 20
35.6623
 30
0.0
 11
21.6683
 21
35.6623
 31
0.0
  0
ENDSEC
  0
EOF
