  0
SECTION
  2
HEADER
  9
$ACADVER
  1
AC1009
  9
$EXTMIN
 10
0.0
 20
0.0
 30
0.0
  9
$EXTMAX
 10
1000.0
 20
1000.0
 30
0.0
  9
$FILLMODE
 70
 0
  9
$SPLFRAME
 70
 1
  0
ENDSEC
  0
SECTION
  2
TABLES
  0
TABLE
  2
LAYER
 70
1
  0
LAYER
  2
0
 70
     0
 62
     7
  6
CONTINUOUS
  0
ENDTAB
  0
ENDSEC
  0
SECTION
  2
ENTITIES
  0
LINE
  8
0
 62
     0
 10
48.194
 20
67.1876
 30
0.0
 11
48.35
 21
67.1823
 31
0.0
  0
LINE
  8
0
 62
     0
 10
48.35
 20
67.1823
 30
0.0
 11
48.5055
 21
67.1643
 31
0.0
  0
LINE
  8
0
 62
     0
 10
48.5055
 20
67.1643
 30
0.0
 11
48.6601
 21
67.1326
 31
0.0
  0
LINE
  8
0
 62
     0
 10
48.6601
 20
67.1326
 30
0.0
 11
48.8114
 21
67.0913
 31
0.0
  0
LINE
  8
0
 62
     0
 10
48.8114
 20
67.0913
 30
0.0
 11
48.9589
 21
67.0359
 31
0.0
  0
LINE
  8
0
 62
     0
 10
48.9589
 20
67.0359
 30
0.0
 11
49.101
 21
66.9699
 31
0.0
  0
LINE
  8
0
 62
     0
 10
49.101
 20
66.9699
 30
0.0
 11
49.2372
 21
66.8941
 31
0.0
  0
LINE
  8
0
 62
     0
 10
49.2372
 20
66.8941
 30
0.0
 11
49.3681
 21
66.8059
 31
0.0
  0
LINE
  8
0
 62
     0
 10
49.3681
 20
66.8059
 30
0.0
 11
49.4923
 21
66.7082
 31
0.0
  0
LINE
  8
0
 62
     0
 10
49.4923
 20
66.7082
 30
0.0
 11
49.608
 21
66.602
 31
0.0
  0
LINE
  8
0
 62
     0
 10
49.608
 20
66.602
 30
0.0
 11
49.7141
 21
66.4863
 31
0.0
  0
LINE
  8
0
 62
     0
 10
49.7141
 20
66.4863
 30
0.0
 11
49.8119
 21
66.3635
 31
0.0
  0
LINE
  8
0
 62
     0
 10
49.8119
 20
66.3635
 30
0.0
 11
49.8987
 21
66.2326
 31
0.0
  0
LINE
  8
0
 62
     0
 10
49.8987
 20
66.2326
 30
0.0
 11
49.9759
 21
66.0961
 31
0.0
  0
LINE
  8
0
 62
     0
 10
49.9759
 20
66.0961
 30
0.0
 11
50.0408
 21
65.9529
 31
0.0
  0
LINE
  8
0
 62
     0
 10
50.0408
 20
65.9529
 30
0.0
 11
50.0959
 21
65.8068
 31
0.0
  0
LINE
  8
0
 62
     0
 10
50.0959
 20
65.8068
 30
0.0
 11
50.1371
 21
65.6551
 31
0.0
  0
LINE
  8
0
 62
     0
 10
50.1371
 20
65.6551
 30
0.0
 11
50.1689
 21
65.501
 31
0.0
  0
LINE
  8
0
 62
     0
 10
50.1689
 20
65.501
 30
0.0
 11
50.1869
 21
65.345
 31
0.0
  0
LINE
  8
0
 62
     0
 10
50.1869
 20
65.345
 30
0.0
 11
50.1936
 21
65.188
 31
0.0
  0
LINE
  8
0
 62
     0
 10
50.1936
 20
65.188
 30
0.0
 11
50.1936
 21
2.08773
 31
0.0
  0
LINE
  8
0
 62
     0
 10
50.1936
 20
2.08773
 30
0.0
 11
50.1869
 21
1.93201
 31
0.0
  0
LINE
  8
0
 62
     0
 10
50.1869
 20
1.93201
 30
0.0
 11
50.1689
 21
1.77491
 31
0.0
  0
LINE
  8
0
 62
     0
 10
50.1689
 20
1.77491
 30
0.0
 11
50.1371
 21
1.62195
 31
0.0
  0
LINE
  8
0
 62
     0
 10
50.1371
 20
1.62195
 30
0.0
 11
50.0959
 21
1.46899
 31
0.0
  0
LINE
  8
0
 62
     0
 10
50.0959
 20
1.46899
 30
0.0
 11
50.0408
 21
1.32292
 31
0.0
  0
LINE
  8
0
 62
     0
 10
50.0408
 20
1.32292
 30
0.0
 11
49.9759
 21
1.18098
 31
0.0
  0
LINE
  8
0
 62
     0
 10
49.9759
 20
1.18098
 30
0.0
 11
49.8987
 21
1.04317
 31
0.0
  0
LINE
  8
0
 62
     0
 10
49.8987
 20
1.04317
 30
0.0
 11
49.8119
 21
0.912262
 31
0.0
  0
LINE
  8
0
 62
     0
 10
49.8119
 20
0.912262
 30
0.0
 11
49.7141
 21
0.789615
 31
0.0
  0
LINE
  8
0
 62
     0
 10
49.7141
 20
0.789615
 30
0.0
 11
49.608
 21
0.673862
 31
0.0
  0
LINE
  8
0
 62
     0
 10
49.608
 20
0.673862
 30
0.0
 11
49.4923
 21
0.567754
 31
0.0
  0
LINE
  8
0
 62
     0
 10
49.4923
 20
0.567754
 30
0.0
 11
49.3681
 21
0.469911
 31
0.0
  0
LINE
  8
0
 62
     0
 10
49.3681
 20
0.469911
 30
0.0
 11
49.2372
 21
0.383096
 31
0.0
  0
LINE
  8
0
 62
     0
 10
49.2372
 20
0.383096
 30
0.0
 11
49.101
 21
0.305925
 31
0.0
  0
LINE
  8
0
 62
     0
 10
49.101
 20
0.305925
 30
0.0
 11
48.9589
 21
0.241157
 31
0.0
  0
LINE
  8
0
 62
     0
 10
48.9589
 20
0.241157
 30
0.0
 11
48.8114
 21
0.186035
 31
0.0
  0
LINE
  8
0
 62
     0
 10
48.8114
 20
0.186035
 30
0.0
 11
48.6601
 21
0.143316
 31
0.0
  0
LINE
  8
0
 62
     0
 10
48.6601
 20
0.143316
 30
0.0
 11
48.5055
 21
0.112999
 31
0.0
  0
LINE
  8
0
 62
     0
 10
48.5055
 20
0.112999
 30
0.0
 11
48.35
 21
0.0950846
 31
0.0
  0
LINE
  8
0
 62
     0
 10
48.35
 20
0.0950846
 30
0.0
 11
48.1926
 21
0.0881944
 31
0.0
  0
LINE
  8
0
 62
     0
 10
48.1926
 20
0.0881944
 30
0.0
 11
2.09324
 21
0.0881944
 31
0.0
  0
LINE
  8
0
 62
     0
 10
2.09324
 20
0.0881944
 30
0.0
 11
1.93614
 21
0.0950846
 31
0.0
  0
LINE
  8
0
 62
     0
 10
1.93614
 20
0.0950846
 30
0.0
 11
1.78043
 21
0.112999
 31
0.0
  0
LINE
  8
0
 62
     0
 10
1.78043
 20
0.112999
 30
0.0
 11
1.62609
 21
0.143316
 31
0.0
  0
LINE
  8
0
 62
     0
 10
1.62609
 20
0.143316
 30
0.0
 11
1.4745
 21
0.186035
 31
0.0
  0
LINE
  8
0
 62
     0
 10
1.4745
 20
0.186035
 30
0.0
 11
1.32843
 21
0.241157
 31
0.0
  0
LINE
  8
0
 62
     0
 10
1.32843
 20
0.241157
 30
0.0
 11
1.18511
 21
0.305925
 31
0.0
  0
LINE
  8
0
 62
     0
 10
1.18511
 20
0.305925
 30
0.0
 11
1.04869
 21
0.383096
 31
0.0
  0
LINE
  8
0
 62
     0
 10
1.04869
 20
0.383096
 30
0.0
 11
0.917773
 21
0.469911
 31
0.0
  0
LINE
  8
0
 62
     0
 10
0.917773
 20
0.469911
 30
0.0
 11
0.795129
 21
0.567754
 31
0.0
  0
LINE
  8
0
 62
     0
 10
0.795129
 20
0.567754
 30
0.0
 11
0.679372
 21
0.673862
 31
0.0
  0
LINE
  8
0
 62
     0
 10
0.679372
 20
0.673862
 30
0.0
 11
0.573264
 21
0.789615
 31
0.0
  0
LINE
  8
0
 62
     0
 10
0.573264
 20
0.789615
 30
0.0
 11
0.475424
 21
0.912262
 31
0.0
  0
LINE
  8
0
 62
     0
 10
0.475424
 20
0.912262
 30
0.0
 11
0.38723
 21
1.04317
 31
0.0
  0
LINE
  8
0
 62
     0
 10
0.38723
 20
1.04317
 30
0.0
 11
0.311437
 21
1.18098
 31
0.0
  0
LINE
  8
0
 62
     0
 10
0.311437
 20
1.18098
 30
0.0
 11
0.245291
 21
1.32292
 31
0.0
  0
LINE
  8
0
 62
     0
 10
0.245291
 20
1.32292
 30
0.0
 11
0.190169
 21
1.46899
 31
0.0
  0
LINE
  8
0
 62
     0
 10
0.190169
 20
1.46899
 30
0.0
 11
0.148828
 21
1.62195
 31
0.0
  0
LINE
  8
0
 62
     0
 10
0.148828
 20
1.62195
 30
0.0
 11
0.117133
 21
1.77491
 31
0.0
  0
LINE
  8
0
 62
     0
 10
0.117133
 20
1.77491
 30
0.0
 11
0.0992188
 21
1.93201
 31
0.0
  0
LINE
  8
0
 62
     0
 10
0.0992188
 20
1.93201
 30
0.0
 11
0.0923286
 21
2.08773
 31
0.0
  0
LINE
  8
0
 62
     0
 10
0.0923286
 20
2.08773
 30
0.0
 11
0.0937066
 21
65.188
 31
0.0
  0
LINE
  8
0
 62
     0
 10
0.0937066
 20
65.188
 30
0.0
 11
0.0992188
 21
65.345
 31
0.0
  0
LINE
  8
0
 62
     0
 10
0.0992188
 20
65.345
 30
0.0
 11
0.117133
 21
65.501
 31
0.0
  0
LINE
  8
0
 62
     0
 10
0.117133
 20
65.501
 30
0.0
 11
0.148828
 21
65.6551
 31
0.0
  0
LINE
  8
0
 62
     0
 10
0.148828
 20
65.6551
 30
0.0
 11
0.190169
 21
65.8068
 31
0.0
  0
LINE
  8
0
 62
     0
 10
0.190169
 20
65.8068
 30
0.0
 11
0.245291
 21
65.9529
 31
0.0
  0
LINE
  8
0
 62
     0
 10
0.245291
 20
65.9529
 30
0.0
 11
0.311437
 21
66.0961
 31
0.0
  0
LINE
  8
0
 62
     0
 10
0.311437
 20
66.0961
 30
0.0
 11
0.38723
 21
66.2326
 31
0.0
  0
LINE
  8
0
 62
     0
 10
0.38723
 20
66.2326
 30
0.0
 11
0.475424
 21
66.3635
 31
0.0
  0
LINE
  8
0
 62
     0
 10
0.475424
 20
66.3635
 30
0.0
 11
0.573264
 21
66.4863
 31
0.0
  0
LINE
  8
0
 62
     0
 10
0.573264
 20
66.4863
 30
0.0
 11
0.679372
 21
66.602
 31
0.0
  0
LINE
  8
0
 62
     0
 10
0.679372
 20
66.602
 30
0.0
 11
0.795129
 21
66.7082
 31
0.0
  0
LINE
  8
0
 62
     0
 10
0.795129
 20
66.7082
 30
0.0
 11
0.917773
 21
66.8059
 31
0.0
  0
LINE
  8
0
 62
     0
 10
0.917773
 20
66.8059
 30
0.0
 11
1.04869
 21
66.8941
 31
0.0
  0
LINE
  8
0
 62
     0
 10
1.04869
 20
66.8941
 30
0.0
 11
1.18511
 21
66.9699
 31
0.0
  0
LINE
  8
0
 62
     0
 10
1.18511
 20
66.9699
 30
0.0
 11
1.32843
 21
67.0359
 31
0.0
  0
LINE
  8
0
 62
     0
 10
1.32843
 20
67.0359
 30
0.0
 11
1.4745
 21
67.0913
 31
0.0
  0
LINE
  8
0
 62
     0
 10
1.4745
 20
67.0913
 30
0.0
 11
1.62609
 21
67.1326
 31
0.0
  0
LINE
  8
0
 62
     0
 10
1.62609
 20
67.1326
 30
0.0
 11
1.78043
 21
67.1643
 31
0.0
  0
LINE
  8
0
 62
     0
 10
1.78043
 20
67.1643
 30
0.0
 11
1.93614
 21
67.1823
 31
0.0
  0
LINE
  8
0
 62
     0
 10
1.93614
 20
67.1823
 30
0.0
 11
2.09324
 21
67.189
 31
0.0
  0
LINE
  8
0
 62
     0
 10
2.09324
 20
67.189
 30
0.0
 11
48.194
 21
67.1876
 31
0.0
  0
LINE
  8
0
 62
     0
 10
2.28341
 20
3.5402
 30
0.0
 11
2.00642
 21
3.39824
 31
0.0
  0
LINE
  8
0
 62
     0
 10
2.00642
 20
3.39824
 30
0.0
 11
1.78318
 21
3.175
 31
0.0
  0
LINE
  8
0
 62
     0
 10
1.78318
 20
3.175
 30
0.0
 11
1.64124
 21
2.89801
 31
0.0
  0
LINE
  8
0
 62
     0
 10
1.64124
 20
2.89801
 30
0.0
 11
1.59301
 21
2.58796
 31
0.0
  0
LINE
  8
0
 62
     0
 10
1.59301
 20
2.58796
 30
0.0
 11
1.64124
 21
2.27928
 31
0.0
  0
LINE
  8
0
 62
     0
 10
1.64124
 20
2.27928
 30
0.0
 11
1.78318
 21
2.00091
 31
0.0
  0
LINE
  8
0
 62
     0
 10
1.78318
 20
2.00091
 30
0.0
 11
2.00642
 21
1.77905
 31
0.0
  0
LINE
  8
0
 62
     0
 10
2.00642
 20
1.77905
 30
0.0
 11
2.28341
 21
1.63711
 31
0.0
  0
LINE
  8
0
 62
     0
 10
2.28341
 20
1.63711
 30
0.0
 11
2.59209
 21
1.5875
 31
0.0
  0
LINE
  8
0
 62
     0
 10
2.59209
 20
1.5875
 30
0.0
 11
2.90215
 21
1.63711
 31
0.0
  0
LINE
  8
0
 62
     0
 10
2.90215
 20
1.63711
 30
0.0
 11
3.18051
 21
1.77905
 31
0.0
  0
LINE
  8
0
 62
     0
 10
3.18051
 20
1.77905
 30
0.0
 11
3.40238
 21
2.00091
 31
0.0
  0
LINE
  8
0
 62
     0
 10
3.40238
 20
2.00091
 30
0.0
 11
3.54432
 21
2.27928
 31
0.0
  0
LINE
  8
0
 62
     0
 10
3.54432
 20
2.27928
 30
0.0
 11
3.59392
 21
2.58796
 31
0.0
  0
LINE
  8
0
 62
     0
 10
3.59392
 20
2.58796
 30
0.0
 11
3.54432
 21
2.89801
 31
0.0
  0
LINE
  8
0
 62
     0
 10
3.54432
 20
2.89801
 30
0.0
 11
3.40238
 21
3.175
 31
0.0
  0
LINE
  8
0
 62
     0
 10
3.40238
 20
3.175
 30
0.0
 11
3.18051
 21
3.39824
 31
0.0
  0
LINE
  8
0
 62
     0
 10
3.18051
 20
3.39824
 30
0.0
 11
2.90215
 21
3.5402
 31
0.0
  0
LINE
  8
0
 62
     0
 10
2.90215
 20
3.5402
 30
0.0
 11
2.59347
 21
3.58704
 31
0.0
  0
LINE
  8
0
 62
     0
 10
2.59347
 20
3.58704
 30
0.0
 11
2.28341
 21
3.5402
 31
0.0
  0
LINE
  8
0
 62
     0
 10
47.3837
 20
3.5402
 30
0.0
 11
47.1054
 21
3.39824
 31
0.0
  0
LINE
  8
0
 62
     0
 10
47.1054
 20
3.39824
 30
0.0
 11
46.8835
 21
3.175
 31
0.0
  0
LINE
  8
0
 62
     0
 10
46.8835
 20
3.175
 30
0.0
 11
46.7416
 21
2.89801
 31
0.0
  0
LINE
  8
0
 62
     0
 10
46.7416
 20
2.89801
 30
0.0
 11
46.6933
 21
2.58796
 31
0.0
  0
LINE
  8
0
 62
     0
 10
46.6933
 20
2.58796
 30
0.0
 11
46.7416
 21
2.27928
 31
0.0
  0
LINE
  8
0
 62
     0
 10
46.7416
 20
2.27928
 30
0.0
 11
46.8835
 21
2.00091
 31
0.0
  0
LINE
  8
0
 62
     0
 10
46.8835
 20
2.00091
 30
0.0
 11
47.1054
 21
1.77905
 31
0.0
  0
LINE
  8
0
 62
     0
 10
47.1054
 20
1.77905
 30
0.0
 11
47.3837
 21
1.63711
 31
0.0
  0
LINE
  8
0
 62
     0
 10
47.3837
 20
1.63711
 30
0.0
 11
47.6938
 21
1.5875
 31
0.0
  0
LINE
  8
0
 62
     0
 10
47.6938
 20
1.5875
 30
0.0
 11
48.0025
 21
1.63711
 31
0.0
  0
LINE
  8
0
 62
     0
 10
48.0025
 20
1.63711
 30
0.0
 11
48.2808
 21
1.77905
 31
0.0
  0
LINE
  8
0
 62
     0
 10
48.2808
 20
1.77905
 30
0.0
 11
48.5027
 21
2.00091
 31
0.0
  0
LINE
  8
0
 62
     0
 10
48.5027
 20
2.00091
 30
0.0
 11
48.6449
 21
2.27928
 31
0.0
  0
LINE
  8
0
 62
     0
 10
48.6449
 20
2.27928
 30
0.0
 11
48.6943
 21
2.58796
 31
0.0
  0
LINE
  8
0
 62
     0
 10
48.6943
 20
2.58796
 30
0.0
 11
48.6449
 21
2.89801
 31
0.0
  0
LINE
  8
0
 62
     0
 10
48.6449
 20
2.89801
 30
0.0
 11
48.5027
 21
3.175
 31
0.0
  0
LINE
  8
0
 62
     0
 10
48.5027
 20
3.175
 30
0.0
 11
48.2808
 21
3.39824
 31
0.0
  0
LINE
  8
0
 62
     0
 10
48.2808
 20
3.39824
 30
0.0
 11
48.0025
 21
3.5402
 31
0.0
  0
LINE
  8
0
 62
     0
 10
48.0025
 20
3.5402
 30
0.0
 11
47.6938
 21
3.58704
 31
0.0
  0
LINE
  8
0
 62
     0
 10
47.6938
 20
3.58704
 30
0.0
 11
47.3837
 21
3.5402
 31
0.0
  0
LINE
  8
0
 62
     0
 10
8.61826
 20
43.6122
 30
0.0
 11
8.61826
 21
42.6131
 31
0.0
  0
LINE
  8
0
 62
     0
 10
8.61826
 20
42.6131
 30
0.0
 11
7.81763
 21
42.6131
 31
0.0
  0
LINE
  8
0
 62
     0
 10
7.81763
 20
42.6131
 30
0.0
 11
7.81763
 21
39.5139
 31
0.0
  0
LINE
  8
0
 62
     0
 10
7.81763
 20
39.5139
 30
0.0
 11
8.61826
 21
39.5139
 31
0.0
  0
LINE
  8
0
 62
     0
 10
8.61826
 20
39.5139
 30
0.0
 11
8.61826
 21
33.7123
 31
0.0
  0
LINE
  8
0
 62
     0
 10
8.61826
 20
33.7123
 30
0.0
 11
7.81763
 21
33.7123
 31
0.0
  0
LINE
  8
0
 62
     0
 10
7.81763
 20
33.7123
 30
0.0
 11
7.81763
 21
30.6131
 31
0.0
  0
LINE
  8
0
 62
     0
 10
7.81763
 20
30.6131
 30
0.0
 11
8.61826
 21
30.6131
 31
0.0
  0
LINE
  8
0
 62
     0
 10
8.61826
 20
30.6131
 30
0.0
 11
8.61826
 21
29.6127
 31
0.0
  0
LINE
  8
0
 62
     0
 10
8.61826
 20
29.6127
 30
0.0
 11
22.6191
 21
29.6127
 31
0.0
  0
LINE
  8
0
 62
     0
 10
22.6191
 20
29.6127
 30
0.0
 11
22.6191
 21
30.6131
 31
0.0
  0
LINE
  8
0
 62
     0
 10
22.6191
 20
30.6131
 30
0.0
 11
23.4184
 21
30.6131
 31
0.0
  0
LINE
  8
0
 62
     0
 10
23.4184
 20
30.6131
 30
0.0
 11
23.4184
 21
33.7123
 31
0.0
  0
LINE
  8
0
 62
     0
 10
23.4184
 20
33.7123
 30
0.0
 11
22.6191
 21
33.7123
 31
0.0
  0
LINE
  8
0
 62
     0
 10
22.6191
 20
33.7123
 30
0.0
 11
22.6191
 21
39.5139
 31
0.0
  0
LINE
  8
0
 62
     0
 10
22.6191
 20
39.5139
 30
0.0
 11
23.4184
 21
39.5139
 31
0.0
  0
LINE
  8
0
 62
     0
 10
23.4184
 20
39.5139
 30
0.0
 11
23.4184
 21
42.6131
 31
0.0
  0
LINE
  8
0
 62
     0
 10
23.4184
 20
42.6131
 30
0.0
 11
22.6191
 21
42.6131
 31
0.0
  0
LINE
  8
0
 62
     0
 10
22.6191
 20
42.6131
 30
0.0
 11
22.6191
 21
43.6122
 31
0.0
  0
LINE
  8
0
 62
     0
 10
22.6191
 20
43.6122
 30
0.0
 11
8.61826
 21
43.6122
 31
0.0
  0
LINE
  8
0
 62
     0
 10
27.6683
 20
43.6122
 30
0.0
 11
27.6683
 21
42.6131
 31
0.0
  0
LINE
  8
0
 62
     0
 10
27.6683
 20
42.6131
 30
0.0
 11
26.869
 21
42.6131
 31
0.0
  0
LINE
  8
0
 62
     0
 10
26.869
 20
42.6131
 30
0.0
 11
26.869
 21
39.5139
 31
0.0
  0
LINE
  8
0
 62
     0
 10
26.869
 20
39.5139
 30
0.0
 11
27.6683
 21
39.5139
 31
0.0
  0
LINE
  8
0
 62
     0
 10
27.6683
 20
39.5139
 30
0.0
 11
27.6683
 21
33.7123
 31
0.0
  0
LINE
  8
0
 62
     0
 10
27.6683
 20
33.7123
 30
0.0
 11
26.869
 21
33.7123
 31
0.0
  0
LINE
  8
0
 62
     0
 10
26.869
 20
33.7123
 30
0.0
 11
26.869
 21
30.6131
 31
0.0
  0
LINE
  8
0
 62
     0
 10
26.869
 20
30.6131
 30
0.0
 11
27.6683
 21
30.6131
 31
0.0
  0
LINE
  8
0
 62
     0
 10
27.6683
 20
30.6131
 30
0.0
 11
27.6683
 21
29.6127
 31
0.0
  0
LINE
  8
0
 62
     0
 10
27.6683
 20
29.6127
 30
0.0
 11
41.6691
 21
29.6127
 31
0.0
  0
LINE
  8
0
 62
     0
 10
41.6691
 20
29.6127
 30
0.0
 11
41.6691
 21
30.6131
 31
0.0
  0
LINE
  8
0
 62
     0
 10
41.6691
 20
30.6131
 30
0.0
 11
42.4684
 21
30.6131
 31
0.0
  0
LINE
  8
0
 62
     0
 10
42.4684
 20
30.6131
 30
0.0
 11
42.4684
 21
33.7123
 31
0.0
  0
LINE
  8
0
 62
     0
 10
42.4684
 20
33.7123
 30
0.0
 11
41.6691
 21
33.7123
 31
0.0
  0
LINE
  8
0
 62
     0
 10
41.6691
 20
33.7123
 30
0.0
 11
41.6691
 21
39.5139
 31
0.0
  0
LINE
  8
0
 62
     0
 10
41.6691
 20
39.5139
 30
0.0
 11
42.4684
 21
39.5139
 31
0.0
  0
LINE
  8
0
 62
     0
 10
42.4684
 20
39.5139
 30
0.0
 11
42.4684
 21
42.6131
 31
0.0
  0
LINE
  8
0
 62
     0
 10
42.4684
 20
42.6131
 30
0.0
 11
41.6691
 21
42.6131
 31
0.0
  0
LINE
  8
0
 62
     0
 10
41.6691
 20
42.6131
 30
0.0
 11
41.6691
 21
43.6122
 31
0.0
  0
LINE
  8
0
 62
     0
 10
41.6691
 20
43.6122
 30
0.0
 11
27.6683
 21
43.6122
 31
0.0
  0
LINE
  8
0
 62
     0
 10
8.61826
 20
62.6636
 30
0.0
 11
8.61826
 21
61.6631
 31
0.0
  0
LINE
  8
0
 62
     0
 10
8.61826
 20
61.6631
 30
0.0
 11
7.81763
 21
61.6631
 31
0.0
  0
LINE
  8
0
 62
     0
 10
7.81763
 20
61.6631
 30
0.0
 11
7.81763
 21
58.5639
 31
0.0
  0
LINE
  8
0
 62
     0
 10
7.81763
 20
58.5639
 30
0.0
 11
8.61826
 21
58.5639
 31
0.0
  0
LINE
  8
0
 62
     0
 10
8.61826
 20
58.5639
 30
0.0
 11
8.61826
 21
52.7636
 31
0.0
  0
LINE
  8
0
 62
     0
 10
8.61826
 20
52.7636
 30
0.0
 11
7.81763
 21
52.7636
 31
0.0
  0
LINE
  8
0
 62
     0
 10
7.81763
 20
52.7636
 30
0.0
 11
7.81763
 21
49.663
 31
0.0
  0
LINE
  8
0
 62
     0
 10
7.81763
 20
49.663
 30
0.0
 11
8.61826
 21
49.663
 31
0.0
  0
LINE
  8
0
 62
     0
 10
8.61826
 20
49.663
 30
0.0
 11
8.61826
 21
48.6625
 31
0.0
  0
LINE
  8
0
 62
     0
 10
8.61826
 20
48.6625
 30
0.0
 11
22.6191
 21
48.6625
 31
0.0
  0
LINE
  8
0
 62
     0
 10
22.6191
 20
48.6625
 30
0.0
 11
22.6191
 21
49.663
 31
0.0
  0
LINE
  8
0
 62
     0
 10
22.6191
 20
49.663
 30
0.0
 11
23.4184
 21
49.663
 31
0.0
  0
LINE
  8
0
 62
     0
 10
23.4184
 20
49.663
 30
0.0
 11
23.4184
 21
52.7636
 31
0.0
  0
LINE
  8
0
 62
     0
 10
23.4184
 20
52.7636
 30
0.0
 11
22.6191
 21
52.7636
 31
0.0
  0
LINE
  8
0
 62
     0
 10
22.6191
 20
52.7636
 30
0.0
 11
22.6191
 21
58.5639
 31
0.0
  0
LINE
  8
0
 62
     0
 10
22.6191
 20
58.5639
 30
0.0
 11
23.4184
 21
58.5639
 31
0.0
  0
LINE
  8
0
 62
     0
 10
23.4184
 20
58.5639
 30
0.0
 11
23.4184
 21
61.6631
 31
0.0
  0
LINE
  8
0
 62
     0
 10
23.4184
 20
61.6631
 30
0.0
 11
22.6191
 21
61.6631
 31
0.0
  0
LINE
  8
0
 62
     0
 10
22.6191
 20
61.6631
 30
0.0
 11
22.6191
 21
62.6636
 31
0.0
  0
LINE
  8
0
 62
     0
 10
22.6191
 20
62.6636
 30
0.0
 11
8.61826
 21
62.6636
 31
0.0
  0
LINE
  8
0
 62
     0
 10
27.6683
 20
62.6636
 30
0.0
 11
27.6683
 21
61.6631
 31
0.0
  0
LINE
  8
0
 62
     0
 10
27.6683
 20
61.6631
 30
0.0
 11
26.869
 21
61.6631
 31
0.0
  0
LINE
  8
0
 62
     0
 10
26.869
 20
61.6631
 30
0.0
 11
26.869
 21
58.5639
 31
0.0
  0
LINE
  8
0
 62
     0
 10
26.869
 20
58.5639
 30
0.0
 11
27.6683
 21
58.5639
 31
0.0
  0
LINE
  8
0
 62
     0
 10
27.6683
 20
58.5639
 30
0.0
 11
27.6683
 21
52.7636
 31
0.0
  0
LINE
  8
0
 62
     0
 10
27.6683
 20
52.7636
 30
0.0
 11
26.869
 21
52.7636
 31
0.0
  0
LINE
  8
0
 62
     0
 10
26.869
 20
52.7636
 30
0.0
 11
26.869
 21
49.663
 31
0.0
  0
LINE
  8
0
 62
     0
 10
26.869
 20
49.663
 30
0.0
 11
27.6683
 21
49.663
 31
0.0
  0
LINE
  8
0
 62
     0
 10
27.6683
 20
49.663
 30
0.0
 11
27.6683
 21
48.6625
 31
0.0
  0
LINE
  8
0
 62
     0
 10
27.6683
 20
48.6625
 30
0.0
 11
41.6691
 21
48.6625
 31
0.0
  0
LINE
  8
0
 62
     0
 10
41.6691
 20
48.6625
 30
0.0
 11
41.6691
 21
49.663
 31
0.0
  0
LINE
  8
0
 62
     0
 10
41.6691
 20
49.663
 30
0.0
 11
42.4684
 21
49.663
 31
0.0
  0
LINE
  8
0
 62
     0
 10
42.4684
 20
49.663
 30
0.0
 11
42.4684
 21
52.7636
 31
0.0
  0
LINE
  8
0
 62
     0
 10
42.4684
 20
52.7636
 30
0.0
 11
41.6691
 21
52.7636
 31
0.0
  0
LINE
  8
0
 62
     0
 10
41.6691
 20
52.7636
 30
0.0
 11
41.6691
 21
58.5639
 31
0.0
  0
LINE
  8
0
 62
     0
 10
41.6691
 20
58.5639
 30
0.0
 11
42.4684
 21
58.5639
 31
0.0
  0
LINE
  8
0
 62
     0
 10
42.4684
 20
58.5639
 30
0.0
 11
42.4684
 21
61.6631
 31
0.0
  0
LINE
  8
0
 62
     0
 10
42.4684
 20
61.6631
 30
0.0
 11
41.6691
 21
61.6631
 31
0.0
  0
LINE
  8
0
 62
     0
 10
41.6691
 20
61.6631
 30
0.0
 11
41.6691
 21
62.6636
 31
0.0
  0
LINE
  8
0
 62
     0
 10
41.6691
 20
62.6636
 30
0.0
 11
27.6683
 21
62.6636
 31
0.0
  0
LINE
  8
0
 62
     0
 10
2.28341
 20
65.6399
 30
0.0
 11
2.00642
 21
65.4981
 31
0.0
  0
LINE
  8
0
 62
     0
 10
2.00642
 20
65.4981
 30
0.0
 11
1.78318
 21
65.2748
 31
0.0
  0
LINE
  8
0
 62
     0
 10
1.78318
 20
65.2748
 30
0.0
 11
1.64124
 21
64.9979
 31
0.0
  0
LINE
  8
0
 62
     0
 10
1.64124
 20
64.9979
 30
0.0
 11
1.59301
 21
64.6892
 31
0.0
  0
LINE
  8
0
 62
     0
 10
1.59301
 20
64.6892
 30
0.0
 11
1.64124
 21
64.3791
 31
0.0
  0
LINE
  8
0
 62
     0
 10
1.64124
 20
64.3791
 30
0.0
 11
1.78318
 21
64.1008
 31
0.0
  0
LINE
  8
0
 62
     0
 10
1.78318
 20
64.1008
 30
0.0
 11
2.00642
 21
63.8789
 31
0.0
  0
LINE
  8
0
 62
     0
 10
2.00642
 20
63.8789
 30
0.0
 11
2.28341
 21
63.7371
 31
0.0
  0
LINE
  8
0
 62
     0
 10
2.28341
 20
63.7371
 30
0.0
 11
2.59209
 21
63.6873
 31
0.0
  0
LINE
  8
0
 62
     0
 10
2.59209
 20
63.6873
 30
0.0
 11
2.90215
 21
63.7371
 31
0.0
  0
LINE
  8
0
 62
     0
 10
2.90215
 20
63.7371
 30
0.0
 11
3.18051
 21
63.8789
 31
0.0
  0
LINE
  8
0
 62
     0
 10
3.18051
 20
63.8789
 30
0.0
 11
3.40238
 21
64.1008
 31
0.0
  0
LINE
  8
0
 62
     0
 10
3.40238
 20
64.1008
 30
0.0
 11
3.54432
 21
64.3791
 31
0.0
  0
LINE
  8
0
 62
     0
 10
3.54432
 20
64.3791
 30
0.0
 11
3.59392
 21
64.6878
 31
0.0
  0
LINE
  8
0
 62
     0
 10
3.59392
 20
64.6878
 30
0.0
 11
3.54432
 21
64.9979
 31
0.0
  0
LINE
  8
0
 62
     0
 10
3.54432
 20
64.9979
 30
0.0
 11
3.40238
 21
65.2748
 31
0.0
  0
LINE
  8
0
 62
     0
 10
3.40238
 20
65.2748
 30
0.0
 11
3.18051
 21
65.4981
 31
0.0
  0
LINE
  8
0
 62
     0
 10
3.18051
 20
65.4981
 30
0.0
 11
2.90215
 21
65.6399
 31
0.0
  0
LINE
  8
0
 62
     0
 10
2.90215
 20
65.6399
 30
0.0
 11
2.59347
 21
65.6869
 31
0.0
  0
LINE
  8
0
 62
     0
 10
2.59347
 20
65.6869
 30
0.0
 11
2.28341
 21
65.6399
 31
0.0
  0
LINE
  8
0
 62
     0
 10
47.3837
 20
65.6399
 30
0.0
 11
47.1054
 21
65.4981
 31
0.0
  0
LINE
  8
0
 62
     0
 10
47.1054
 20
65.4981
 30
0.0
 11
46.8835
 21
65.2748
 31
0.0
  0
LINE
  8
0
 62
     0
 10
46.8835
 20
65.2748
 30
0.0
 11
46.7416
 21
64.9979
 31
0.0
  0
LINE
  8
0
 62
     0
 10
46.7416
 20
64.9979
 30
0.0
 11
46.6933
 21
64.6892
 31
0.0
  0
LINE
  8
0
 62
     0
 10
46.6933
 20
64.6892
 30
0.0
 11
46.7416
 21
64.3791
 31
0.0
  0
LINE
  8
0
 62
     0
 10
46.7416
 20
64.3791
 30
0.0
 11
46.8835
 21
64.1008
 31
0.0
  0
LINE
  8
0
 62
     0
 10
46.8835
 20
64.1008
 30
0.0
 11
47.1054
 21
63.8789
 31
0.0
  0
LINE
  8
0
 62
     0
 10
47.1054
 20
63.8789
 30
0.0
 11
47.3837
 21
63.7371
 31
0.0
  0
LINE
  8
0
 62
     0
 10
47.3837
 20
63.7371
 30
0.0
 11
47.6938
 21
63.6873
 31
0.0
  0
LINE
  8
0
 62
     0
 10
47.6938
 20
63.6873
 30
0.0
 11
48.0025
 21
63.7371
 31
0.0
  0
LINE
  8
0
 62
     0
 10
48.0025
 20
63.7371
 30
0.0
 11
48.2808
 21
63.8789
 31
0.0
  0
LINE
  8
0
 62
     0
 10
48.2808
 20
63.8789
 30
0.0
 11
48.5027
 21
64.1008
 31
0.0
  0
LINE
  8
0
 62
     0
 10
48.5027
 20
64.1008
 30
0.0
 11
48.6449
 21
64.3791
 31
0.0
  0
LINE
  8
0
 62
     0
 10
48.6449
 20
64.3791
 30
0.0
 11
48.6943
 21
64.6878
 31
0.0
  0
LINE
  8
0
 62
     0
 10
48.6943
 20
64.6878
 30
0.0
 11
48.6449
 21
64.9979
 31
0.0
  0
LINE
  8
0
 62
     0
 10
48.6449
 20
64.9979
 30
0.0
 11
48.5027
 21
65.2748
 31
0.0
  0
LINE
  8
0
 62
     0
 10
48.5027
 20
65.2748
 30
0.0
 11
48.2808
 21
65.4981
 31
0.0
  0
LINE
  8
0
 62
     0
 10
48.2808
 20
65.4981
 30
0.0
 11
48.0025
 21
65.6399
 31
0.0
  0
LINE
  8
0
 62
     0
 10
48.0025
 20
65.6399
 30
0.0
 11
47.6938
 21
65.6869
 31
0.0
  0
LINE
  8
0
 62
     0
 10
47.6938
 20
65.6869
 30
0.0
 11
47.3837
 21
65.6399
 31
0.0
  0
ENDSEC
  0
EOF
