<?xml version="1.0"?>
<!-- Generated by SVGo -->
<svg width="343.850mm" height="125.250mm"
     viewBox="0.000 0.000 343.850 125.250"
     xmlns="http://www.w3.org/2000/svg" 
     xmlns:xlink="http://www.w3.org/1999/xlink">
<polygon points="335.850,5.000 336.085,5.009 336.319,5.036 336.550,5.082 336.777,5.146 336.998,5.228 337.211,5.326 337.417,5.442 337.613,5.572 337.798,5.718 337.971,5.878 338.131,6.051 338.277,6.236 338.407,6.432 338.523,6.638 338.621,6.851 338.703,7.072 338.767,7.299 338.813,7.530 338.840,7.764 338.850,8.000 338.850,117.250 338.840,117.485 338.813,117.719 338.767,117.950 338.703,118.177 338.621,118.398 338.523,118.611 338.407,118.817 338.277,119.013 338.131,119.198 337.971,119.371 337.798,119.531 337.613,119.677 337.417,119.807 337.211,119.923 336.998,120.021 336.777,120.103 336.550,120.167 336.319,120.213 336.085,120.240 335.850,120.250 8.000,120.250 7.764,120.240 7.530,120.213 7.299,120.167 7.072,120.103 6.851,120.021 6.638,119.923 6.432,119.807 6.236,119.677 6.051,119.531 5.878,119.371 5.718,119.198 5.572,119.013 5.442,118.817 5.326,118.611 5.228,118.398 5.146,118.177 5.082,117.950 5.036,117.719 5.009,117.485 4.999,117.249 5.000,8.000 5.009,7.764 5.036,7.530 5.082,7.299 5.146,7.072 5.228,6.851 5.326,6.638 5.442,6.432 5.572,6.236 5.718,6.051 5.878,5.878 6.051,5.718 6.236,5.572 6.432,5.442 6.638,5.326 6.851,5.228 7.072,5.146 7.299,5.082 7.530,5.036 7.764,5.009 8.000,4.999" style="fill:none;stroke-width:0.2;stroke:black"/>
<polygon points="7.727,114.372 7.030,114.727 6.477,115.280 6.122,115.977 5.999,116.750 6.122,117.522 6.477,118.219 7.030,118.772 7.727,119.127 8.500,119.250 9.272,119.127 9.969,118.772 10.522,118.219 10.877,117.522 11.000,116.750 10.877,115.977 10.522,115.280 9.969,114.727 9.272,114.372 8.500,114.250" style="fill:none;stroke-width:0.2;stroke:black"/>
<polygon points="171.152,114.372 170.455,114.727 169.902,115.280 169.547,115.977 169.425,116.750 169.547,117.522 169.902,118.219 170.455,118.772 171.152,119.127 171.925,119.250 172.697,119.127 173.394,118.772 173.947,118.219 174.302,117.522 174.425,116.750 174.302,115.977 173.947,115.280 173.394,114.727 172.697,114.372 171.925,114.250" style="fill:none;stroke-width:0.2;stroke:black"/>
<polygon points="334.577,114.372 333.880,114.727 333.327,115.280 332.972,115.977 332.850,116.750 332.972,117.522 333.327,118.219 333.880,118.772 334.577,119.127 335.350,119.250 336.122,119.127 336.819,118.772 337.372,118.219 337.727,117.522 337.850,116.750 337.727,115.977 337.372,115.280 336.819,114.727 336.122,114.372 335.350,114.250" style="fill:none;stroke-width:0.2;stroke:black"/>
<polygon points="10.000,12.000 10.000,113.250 333.850,113.250 333.850,12.000" style="fill:none;stroke-width:0.2;stroke:black"/>
<polygon points="7.727,6.122 7.030,6.477 6.477,7.030 6.122,7.727 5.999,8.500 6.122,9.272 6.477,9.969 7.030,10.522 7.727,10.877 8.500,11.000 9.272,10.877 9.969,10.522 10.522,9.969 10.877,9.272 11.000,8.500 10.877,7.727 10.522,7.030 9.969,6.477 9.272,6.122 8.500,6.000" style="fill:none;stroke-width:0.2;stroke:black"/>
<polygon points="171.152,6.122 170.455,6.477 169.902,7.030 169.547,7.727 169.425,8.500 169.547,9.272 169.902,9.969 170.455,10.522 171.152,10.877 171.925,11.000 172.697,10.877 173.394,10.522 173.947,9.969 174.302,9.272 174.425,8.500 174.302,7.727 173.947,7.030 173.394,6.477 172.697,6.122 171.925,6.000" style="fill:none;stroke-width:0.2;stroke:black"/>
<polygon points="334.577,6.122 333.880,6.477 333.327,7.030 332.972,7.727 332.850,8.500 332.972,9.272 333.327,9.969 333.880,10.522 334.577,10.877 335.350,11.000 336.122,10.877 336.819,10.522 337.372,9.969 337.727,9.272 337.850,8.500 337.727,7.727 337.372,7.030 336.819,6.477 336.122,6.122 335.350,6.000" style="fill:none;stroke-width:0.2;stroke:black"/>
</svg>
