<?xml version="1.0"?>
<!-- Generated by SVGo -->
<svg width="343.850mm" height="125.250mm"
     viewBox="0.000 0.000 343.850 125.250"
     xmlns="http://www.w3.org/2000/svg" 
     xmlns:xlink="http://www.w3.org/1999/xlink">
<polygon points="335.850,5.000 336.085,5.009 336.319,5.036 336.550,5.082 336.777,5.146 336.998,5.228 337.211,5.326 337.417,5.442 337.613,5.572 337.798,5.718 337.971,5.878 338.131,6.051 338.277,6.236 338.407,6.432 338.523,6.638 338.621,6.851 338.703,7.072 338.767,7.299 338.813,7.530 338.840,7.764 338.850,8.000 338.850,117.250 338.840,117.485 338.813,117.719 338.767,117.950 338.703,118.177 338.621,118.398 338.523,118.611 338.407,118.817 338.277,119.013 338.131,119.198 337.971,119.371 337.798,119.531 337.613,119.677 337.417,119.807 337.211,119.923 336.998,120.021 336.777,120.103 336.550,120.167 336.319,120.213 336.085,120.240 335.850,120.250 8.000,120.250 7.764,120.240 7.530,120.213 7.299,120.167 7.072,120.103 6.851,120.021 6.638,119.923 6.432,119.807 6.236,119.677 6.051,119.531 5.878,119.371 5.718,119.198 5.572,119.013 5.442,118.817 5.326,118.611 5.228,118.398 5.146,118.177 5.082,117.950 5.036,117.719 5.009,117.485 4.999,117.249 5.000,8.000 5.009,7.764 5.036,7.530 5.082,7.299 5.146,7.072 5.228,6.851 5.326,6.638 5.442,6.432 5.572,6.236 5.718,6.051 5.878,5.878 6.051,5.718 6.236,5.572 6.432,5.442 6.638,5.326 6.851,5.228 7.072,5.146 7.299,5.082 7.530,5.036 7.764,5.009 8.000,4.999" style="fill:none;stroke-width:0.2;stroke:black"/>
<polygon points="7.727,114.372 7.030,114.727 6.477,115.280 6.122,115.977 5.999,116.750 6.122,117.522 6.477,118.219 7.030,118.772 7.727,119.127 8.500,119.250 9.272,119.127 9.969,118.772 10.522,118.219 10.877,117.522 11.000,116.750 10.877,115.977 10.522,115.280 9.969,114.727 9.272,114.372 8.500,114.250" style="fill:none;stroke-width:0.2;stroke:black"/>
<polygon points="171.152,114.372 170.455,114.727 169.902,115.280 169.547,115.977 169.425,116.750 169.547,117.522 169.902,118.219 170.455,118.772 171.152,119.127 171.925,119.250 172.697,119.127 173.394,118.772 173.947,118.219 174.302,117.522 174.425,116.750 174.302,115.977 173.947,115.280 173.394,114.727 172.697,114.372 171.925,114.250" style="fill:none;stroke-width:0.2;stroke:black"/>
<polygon points="334.577,114.372 333.880,114.727 333.327,115.280 332.972,115.977 332.850,116.750 332.972,117.522 333.327,118.219 333.880,118.772 334.577,119.127 335.350,119.250 336.122,119.127 336.819,118.772 337.372,118.219 337.727,117.522 337.850,116.750 337.727,115.977 337.372,115.280 336.819,114.727 336.122,114.372 335.350,114.250" style="fill:none;stroke-width:0.2;stroke:black"/>
<polygon points="153.018,93.725 153.018,94.725 152.218,94.725 152.218,97.824 153.018,97.824 153.018,98.425 113.343,98.425 113.343,95.195 111.668,95.195 111.668,94.274 108.368,94.274 108.368,95.195 106.693,95.195 106.693,98.425 105.818,98.425 105.818,101.225 106.693,101.225 106.693,107.494 108.368,107.494 108.368,108.475 111.668,108.475 111.668,107.494 113.343,107.494 113.343,103.024 153.018,103.024 153.018,103.625 152.218,103.625 152.218,106.725 153.018,106.725 153.018,107.725 167.018,107.725 167.018,106.725 167.818,106.725 167.818,103.625 167.018,103.625 167.018,103.024 206.693,103.024 206.693,107.494 208.368,107.494 208.368,108.475 211.668,108.475 211.668,107.494 213.343,107.494 213.343,101.225 214.218,101.225 214.218,98.425 213.343,98.425 213.343,95.195 211.668,95.195 211.668,94.274 208.368,94.274 208.368,95.195 206.693,95.195 206.693,98.425 167.018,98.425 167.018,97.824 167.818,97.824 167.818,94.725 167.018,94.725 167.018,93.725" style="fill:none;stroke-width:0.2;stroke:black"/>
<polygon points="12.524,93.725 12.524,94.725 11.724,94.725 11.724,97.824 12.524,97.824 12.524,103.625 11.724,103.625 11.724,106.725 12.524,106.725 12.524,107.725 26.525,107.725 26.525,106.725 27.325,106.725 27.325,103.625 26.525,103.625 26.525,97.824 27.325,97.824 27.325,94.725 26.525,94.725 26.525,93.725" style="fill:none;stroke-width:0.2;stroke:black"/>
<polygon points="33.956,93.725 33.956,94.725 33.156,94.725 33.156,97.824 33.956,97.824 33.956,103.625 33.156,103.625 33.156,106.725 33.956,106.725 33.956,107.725 47.956,107.725 47.956,106.725 48.756,106.725 48.756,103.625 47.956,103.625 47.956,97.824 48.756,97.824 48.756,94.725 47.956,94.725 47.956,93.725" style="fill:none;stroke-width:0.2;stroke:black"/>
<polygon points="57.768,93.725 57.768,94.725 56.968,94.725 56.968,97.824 57.768,97.824 57.768,103.625 56.968,103.625 56.968,106.725 57.768,106.725 57.768,107.725 71.768,107.725 71.768,106.725 72.568,106.725 72.568,103.625 71.768,103.625 71.768,97.824 72.568,97.824 72.568,94.725 71.768,94.725 71.768,93.725" style="fill:none;stroke-width:0.2;stroke:black"/>
<polygon points="81.581,93.725 81.581,94.725 80.781,94.725 80.781,97.824 81.581,97.824 81.581,103.625 80.781,103.625 80.781,106.725 81.581,106.725 81.581,107.725 95.581,107.725 95.581,106.725 96.381,106.725 96.381,103.625 95.581,103.625 95.581,97.824 96.381,97.824 96.381,94.725 95.581,94.725 95.581,93.725" style="fill:none;stroke-width:0.2;stroke:black"/>
<polygon points="222.075,93.725 222.075,94.725 221.275,94.725 221.275,97.824 222.075,97.824 222.075,103.625 221.275,103.625 221.275,106.725 222.075,106.725 222.075,107.725 236.075,107.725 236.075,106.725 236.875,106.725 236.875,103.625 236.075,103.625 236.075,97.824 236.875,97.824 236.875,94.725 236.075,94.725 236.075,93.725" style="fill:none;stroke-width:0.2;stroke:black"/>
<polygon points="241.125,93.725 241.125,94.725 240.325,94.725 240.325,97.824 241.125,97.824 241.125,103.625 240.325,103.625 240.325,106.725 241.125,106.725 241.125,107.725 255.125,107.725 255.125,106.725 255.925,106.725 255.925,103.625 255.125,103.625 255.125,97.824 255.925,97.824 255.925,94.725 255.125,94.725 255.125,93.725" style="fill:none;stroke-width:0.2;stroke:black"/>
<polygon points="260.175,93.725 260.175,94.725 259.375,94.725 259.375,97.824 260.175,97.824 260.175,103.625 259.375,103.625 259.375,106.725 260.175,106.725 260.175,107.725 274.175,107.725 274.175,106.725 274.975,106.725 274.975,103.625 274.175,103.625 274.175,97.824 274.975,97.824 274.975,94.725 274.175,94.725 274.175,93.725" style="fill:none;stroke-width:0.2;stroke:black"/>
<polygon points="279.225,93.725 279.225,94.725 278.425,94.725 278.425,97.824 279.225,97.824 279.225,103.625 278.425,103.625 278.425,106.725 279.225,106.725 279.225,107.725 293.225,107.725 293.225,106.725 294.025,106.725 294.025,103.625 293.225,103.625 293.225,97.824 294.025,97.824 294.025,94.725 293.225,94.725 293.225,93.725" style="fill:none;stroke-width:0.2;stroke:black"/>
<polygon points="298.275,93.725 298.275,94.725 297.475,94.725 297.475,97.824 298.275,97.824 298.275,103.625 297.475,103.625 297.475,106.725 298.275,106.725 298.275,107.725 312.275,107.725 312.275,106.725 313.075,106.725 313.075,103.625 312.275,103.625 312.275,97.824 313.075,97.824 313.075,94.725 312.275,94.725 312.275,93.725" style="fill:none;stroke-width:0.2;stroke:black"/>
<polygon points="317.325,93.725 317.325,94.725 316.525,94.725 316.525,97.824 317.325,97.824 317.325,103.625 316.525,103.625 316.525,106.725 317.325,106.725 317.325,107.725 331.325,107.725 331.325,106.725 332.125,106.725 332.125,103.625 331.325,103.625 331.325,97.824 332.125,97.824 332.125,94.725 331.325,94.725 331.325,93.725" style="fill:none;stroke-width:0.2;stroke:black"/>
<polygon points="43.481,74.675 43.481,75.675 42.681,75.675 42.681,78.774 43.481,78.774 43.481,79.375 41.856,79.375 41.856,76.145 40.181,76.145 40.181,75.225 36.881,75.225 36.881,76.145 35.206,76.145 35.206,79.375 34.331,79.375 34.331,82.175 35.206,82.175 35.206,88.445 36.881,88.445 36.881,89.425 40.181,89.425 40.181,88.445 41.856,88.445 41.856,83.975 43.481,83.975 43.481,84.575 42.681,84.575 42.681,87.675 43.481,87.675 43.481,88.675 57.481,88.675 57.481,87.675 58.281,87.675 58.281,84.575 57.481,84.575 57.481,83.975 59.106,83.975 59.106,88.445 60.781,88.445 60.781,89.425 64.081,89.425 64.081,88.445 65.756,88.445 65.756,82.175 66.631,82.175 66.631,79.375 65.756,79.375 65.756,76.145 64.081,76.145 64.081,75.225 60.781,75.225 60.781,76.145 59.106,76.145 59.106,79.375 57.481,79.375 57.481,78.774 58.281,78.774 58.281,75.675 57.481,75.675 57.481,74.675" style="fill:none;stroke-width:0.2;stroke:black"/>
<polygon points="12.524,74.675 12.524,75.675 11.724,75.675 11.724,78.774 12.524,78.774 12.524,84.575 11.724,84.575 11.724,87.675 12.524,87.675 12.524,88.675 26.525,88.675 26.525,87.675 27.325,87.675 27.325,84.575 26.525,84.575 26.525,78.774 27.325,78.774 27.325,75.675 26.525,75.675 26.525,74.675" style="fill:none;stroke-width:0.2;stroke:black"/>
<polygon points="74.437,74.675 74.437,75.675 73.637,75.675 73.637,78.774 74.437,78.774 74.437,84.575 73.637,84.575 73.637,87.675 74.437,87.675 74.437,88.675 88.437,88.675 88.437,87.675 89.237,87.675 89.237,84.575 88.437,84.575 88.437,78.774 89.237,78.774 89.237,75.675 88.437,75.675 88.437,74.675" style="fill:none;stroke-width:0.2;stroke:black"/>
<polygon points="93.487,74.675 93.487,75.675 92.687,75.675 92.687,78.774 93.487,78.774 93.487,84.575 92.687,84.575 92.687,87.675 93.487,87.675 93.487,88.675 107.487,88.675 107.487,87.675 108.287,87.675 108.287,84.575 107.487,84.575 107.487,78.774 108.287,78.774 108.287,75.675 107.487,75.675 107.487,74.675" style="fill:none;stroke-width:0.2;stroke:black"/>
<polygon points="112.537,74.675 112.537,75.675 111.737,75.675 111.737,78.774 112.537,78.774 112.537,84.575 111.737,84.575 111.737,87.675 112.537,87.675 112.537,88.675 126.537,88.675 126.537,87.675 127.337,87.675 127.337,84.575 126.537,84.575 126.537,78.774 127.337,78.774 127.337,75.675 126.537,75.675 126.537,74.675" style="fill:none;stroke-width:0.2;stroke:black"/>
<polygon points="131.587,74.675 131.587,75.675 130.787,75.675 130.787,78.774 131.587,78.774 131.587,84.575 130.787,84.575 130.787,87.675 131.587,87.675 131.587,88.675 145.587,88.675 145.587,87.675 146.387,87.675 146.387,84.575 145.587,84.575 145.587,78.774 146.387,78.774 146.387,75.675 145.587,75.675 145.587,74.675" style="fill:none;stroke-width:0.2;stroke:black"/>
<polygon points="150.637,74.675 150.637,75.675 149.837,75.675 149.837,78.774 150.637,78.774 150.637,84.575 149.837,84.575 149.837,87.675 150.637,87.675 150.637,88.675 164.637,88.675 164.637,87.675 165.437,87.675 165.437,84.575 164.637,84.575 164.637,78.774 165.437,78.774 165.437,75.675 164.637,75.675 164.637,74.675" style="fill:none;stroke-width:0.2;stroke:black"/>
<polygon points="169.687,74.675 169.687,75.675 168.887,75.675 168.887,78.774 169.687,78.774 169.687,84.575 168.887,84.575 168.887,87.675 169.687,87.675 169.687,88.675 183.687,88.675 183.687,87.675 184.487,87.675 184.487,84.575 183.687,84.575 183.687,78.774 184.487,78.774 184.487,75.675 183.687,75.675 183.687,74.675" style="fill:none;stroke-width:0.2;stroke:black"/>
<polygon points="188.737,74.675 188.737,75.675 187.937,75.675 187.937,78.774 188.737,78.774 188.737,84.575 187.937,84.575 187.937,87.675 188.737,87.675 188.737,88.675 202.737,88.675 202.737,87.675 203.537,87.675 203.537,84.575 202.737,84.575 202.737,78.774 203.537,78.774 203.537,75.675 202.737,75.675 202.737,74.675" style="fill:none;stroke-width:0.2;stroke:black"/>
<polygon points="207.787,74.675 207.787,75.675 206.987,75.675 206.987,78.774 207.787,78.774 207.787,84.575 206.987,84.575 206.987,87.675 207.787,87.675 207.787,88.675 221.787,88.675 221.787,87.675 222.587,87.675 222.587,84.575 221.787,84.575 221.787,78.774 222.587,78.774 222.587,75.675 221.787,75.675 221.787,74.675" style="fill:none;stroke-width:0.2;stroke:black"/>
<polygon points="226.837,74.675 226.837,75.675 226.037,75.675 226.037,78.774 226.837,78.774 226.837,84.575 226.037,84.575 226.037,87.675 226.837,87.675 226.837,88.675 240.837,88.675 240.837,87.675 241.637,87.675 241.637,84.575 240.837,84.575 240.837,78.774 241.637,78.774 241.637,75.675 240.837,75.675 240.837,74.675" style="fill:none;stroke-width:0.2;stroke:black"/>
<polygon points="245.887,74.675 245.887,75.675 245.087,75.675 245.087,78.774 245.887,78.774 245.887,84.575 245.087,84.575 245.087,87.675 245.887,87.675 245.887,88.675 259.887,88.675 259.887,87.675 260.687,87.675 260.687,84.575 259.887,84.575 259.887,78.774 260.687,78.774 260.687,75.675 259.887,75.675 259.887,74.675" style="fill:none;stroke-width:0.2;stroke:black"/>
<polygon points="272.081,74.675 272.081,75.675 271.281,75.675 271.281,78.774 272.081,78.774 272.081,84.575 271.281,84.575 271.281,87.675 272.081,87.675 272.081,88.675 286.081,88.675 286.081,87.675 286.881,87.675 286.881,84.575 286.081,84.575 286.081,78.774 286.881,78.774 286.881,75.675 286.081,75.675 286.081,74.675" style="fill:none;stroke-width:0.2;stroke:black"/>
<polygon points="298.275,74.675 298.275,75.675 297.475,75.675 297.475,78.774 298.275,78.774 298.275,84.575 297.475,84.575 297.475,87.675 298.275,87.675 298.275,88.675 312.275,88.675 312.275,87.675 313.075,87.675 313.075,84.575 312.275,84.575 312.275,78.774 313.075,78.774 313.075,75.675 312.275,75.675 312.275,74.675" style="fill:none;stroke-width:0.2;stroke:black"/>
<polygon points="317.325,74.675 317.325,75.675 316.525,75.675 316.525,78.774 317.325,78.774 317.325,84.575 316.525,84.575 316.525,87.675 317.325,87.675 317.325,88.675 331.325,88.675 331.325,87.675 332.125,87.675 332.125,84.575 331.325,84.575 331.325,78.774 332.125,78.774 332.125,75.675 331.325,75.675 331.325,74.675" style="fill:none;stroke-width:0.2;stroke:black"/>
<polygon points="286.368,55.625 286.368,56.625 285.568,56.625 285.568,59.725 286.368,59.725 286.368,60.325 284.743,60.325 284.743,57.095 283.068,57.095 283.068,56.175 279.768,56.175 279.768,57.095 278.093,57.095 278.093,60.325 277.218,60.325 277.218,63.125 278.093,63.125 278.093,69.395 279.768,69.395 279.768,70.375 283.068,70.375 283.068,69.395 284.743,69.395 284.743,64.925 286.368,64.925 286.368,65.525 285.568,65.525 285.568,68.625 286.368,68.625 286.368,69.625 300.368,69.625 300.368,68.625 301.168,68.625 301.168,65.525 300.368,65.525 300.368,64.925 301.993,64.925 301.993,69.395 303.668,69.395 303.668,70.375 306.968,70.375 306.968,69.395 308.643,69.395 308.643,63.125 309.518,63.125 309.518,60.325 308.643,60.325 308.643,57.095 306.968,57.095 306.968,56.175 303.668,56.175 303.668,57.095 301.993,57.095 301.993,60.325 300.368,60.325 300.368,59.725 301.168,59.725 301.168,56.625 300.368,56.625 300.368,55.625" style="fill:none;stroke-width:0.2;stroke:black"/>
<polygon points="12.524,55.625 12.524,56.625 11.724,56.625 11.724,59.725 12.524,59.725 12.524,65.525 11.724,65.525 11.724,68.625 12.524,68.625 12.524,69.625 26.525,69.625 26.525,68.625 27.325,68.625 27.325,65.525 26.525,65.525 26.525,59.725 27.325,59.725 27.325,56.625 26.525,56.625 26.525,55.625" style="fill:none;stroke-width:0.2;stroke:black"/>
<polygon points="38.718,55.625 38.718,56.625 37.918,56.625 37.918,59.725 38.718,59.725 38.718,65.525 37.918,65.525 37.918,68.625 38.718,68.625 38.718,69.625 52.718,69.625 52.718,68.625 53.518,68.625 53.518,65.525 52.718,65.525 52.718,59.725 53.518,59.725 53.518,56.625 52.718,56.625 52.718,55.625" style="fill:none;stroke-width:0.2;stroke:black"/>
<polygon points="64.912,55.625 64.912,56.625 64.111,56.625 64.111,59.725 64.912,59.725 64.912,65.525 64.111,65.525 64.111,68.625 64.912,68.625 64.912,69.625 78.912,69.625 78.912,68.625 79.712,68.625 79.712,65.525 78.912,65.525 78.912,59.725 79.712,59.725 79.712,56.625 78.912,56.625 78.912,55.625" style="fill:none;stroke-width:0.2;stroke:black"/>
<polygon points="83.962,55.625 83.962,56.625 83.162,56.625 83.162,59.725 83.962,59.725 83.962,65.525 83.162,65.525 83.162,68.625 83.962,68.625 83.962,69.625 97.962,69.625 97.962,68.625 98.762,68.625 98.762,65.525 97.962,65.525 97.962,59.725 98.762,59.725 98.762,56.625 97.962,56.625 97.962,55.625" style="fill:none;stroke-width:0.2;stroke:black"/>
<polygon points="103.012,55.625 103.012,56.625 102.212,56.625 102.212,59.725 103.012,59.725 103.012,65.525 102.212,65.525 102.212,68.625 103.012,68.625 103.012,69.625 117.012,69.625 117.012,68.625 117.812,68.625 117.812,65.525 117.012,65.525 117.012,59.725 117.812,59.725 117.812,56.625 117.012,56.625 117.012,55.625" style="fill:none;stroke-width:0.2;stroke:black"/>
<polygon points="122.062,55.625 122.062,56.625 121.262,56.625 121.262,59.725 122.062,59.725 122.062,65.525 121.262,65.525 121.262,68.625 122.062,68.625 122.062,69.625 136.062,69.625 136.062,68.625 136.862,68.625 136.862,65.525 136.062,65.525 136.062,59.725 136.862,59.725 136.862,56.625 136.062,56.625 136.062,55.625" style="fill:none;stroke-width:0.2;stroke:black"/>
<polygon points="141.112,55.625 141.112,56.625 140.312,56.625 140.312,59.725 141.112,59.725 141.112,65.525 140.312,65.525 140.312,68.625 141.112,68.625 141.112,69.625 155.112,69.625 155.112,68.625 155.912,68.625 155.912,65.525 155.112,65.525 155.112,59.725 155.912,59.725 155.912,56.625 155.112,56.625 155.112,55.625" style="fill:none;stroke-width:0.2;stroke:black"/>
<polygon points="160.162,55.625 160.162,56.625 159.362,56.625 159.362,59.725 160.162,59.725 160.162,65.525 159.362,65.525 159.362,68.625 160.162,68.625 160.162,69.625 174.162,69.625 174.162,68.625 174.962,68.625 174.962,65.525 174.162,65.525 174.162,59.725 174.962,59.725 174.962,56.625 174.162,56.625 174.162,55.625" style="fill:none;stroke-width:0.2;stroke:black"/>
<polygon points="179.212,55.625 179.212,56.625 178.412,56.625 178.412,59.725 179.212,59.725 179.212,65.525 178.412,65.525 178.412,68.625 179.212,68.625 179.212,69.625 193.212,69.625 193.212,68.625 194.012,68.625 194.012,65.525 193.212,65.525 193.212,59.725 194.012,59.725 194.012,56.625 193.212,56.625 193.212,55.625" style="fill:none;stroke-width:0.2;stroke:black"/>
<polygon points="198.262,55.625 198.262,56.625 197.462,56.625 197.462,59.725 198.262,59.725 198.262,65.525 197.462,65.525 197.462,68.625 198.262,68.625 198.262,69.625 212.262,69.625 212.262,68.625 213.062,68.625 213.062,65.525 212.262,65.525 212.262,59.725 213.062,59.725 213.062,56.625 212.262,56.625 212.262,55.625" style="fill:none;stroke-width:0.2;stroke:black"/>
<polygon points="217.312,55.625 217.312,56.625 216.512,56.625 216.512,59.725 217.312,59.725 217.312,65.525 216.512,65.525 216.512,68.625 217.312,68.625 217.312,69.625 231.312,69.625 231.312,68.625 232.112,68.625 232.112,65.525 231.312,65.525 231.312,59.725 232.112,59.725 232.112,56.625 231.312,56.625 231.312,55.625" style="fill:none;stroke-width:0.2;stroke:black"/>
<polygon points="236.362,55.625 236.362,56.625 235.562,56.625 235.562,59.725 236.362,59.725 236.362,65.525 235.562,65.525 235.562,68.625 236.362,68.625 236.362,69.625 250.362,69.625 250.362,68.625 251.162,68.625 251.162,65.525 250.362,65.525 250.362,59.725 251.162,59.725 251.162,56.625 250.362,56.625 250.362,55.625" style="fill:none;stroke-width:0.2;stroke:black"/>
<polygon points="255.412,55.625 255.412,56.625 254.612,56.625 254.612,59.725 255.412,59.725 255.412,65.525 254.612,65.525 254.612,68.625 255.412,68.625 255.412,69.625 269.412,69.625 269.412,68.625 270.212,68.625 270.212,65.525 269.412,65.525 269.412,59.725 270.212,59.725 270.212,56.625 269.412,56.625 269.412,55.625" style="fill:none;stroke-width:0.2;stroke:black"/>
<polygon points="317.325,55.625 317.325,56.625 316.525,56.625 316.525,59.725 317.325,59.725 317.325,65.525 316.525,65.525 316.525,68.625 317.325,68.625 317.325,69.625 331.325,69.625 331.325,68.625 332.125,68.625 332.125,65.525 331.325,65.525 331.325,59.725 332.125,59.725 332.125,56.625 331.325,56.625 331.325,55.625" style="fill:none;stroke-width:0.2;stroke:black"/>
<polygon points="12.524,36.575 12.524,37.575 11.724,37.575 11.724,40.675 12.524,40.675 12.524,46.475 11.724,46.475 11.724,49.575 12.524,49.575 12.524,50.575 26.525,50.575 26.525,49.575 27.325,49.575 27.325,46.475 26.525,46.475 26.525,40.675 27.325,40.675 27.325,37.575 26.525,37.575 26.525,36.575" style="fill:none;stroke-width:0.2;stroke:black"/>
<polygon points="36.337,36.575 36.337,37.575 35.537,37.575 35.537,40.675 36.337,40.675 36.337,46.475 35.537,46.475 35.537,49.575 36.337,49.575 36.337,50.575 50.337,50.575 50.337,49.575 51.137,49.575 51.137,46.475 50.337,46.475 50.337,40.675 51.137,40.675 51.137,37.575 50.337,37.575 50.337,36.575" style="fill:none;stroke-width:0.2;stroke:black"/>
<polygon points="60.150,36.575 60.150,37.575 59.350,37.575 59.350,40.675 60.150,40.675 60.150,46.475 59.350,46.475 59.350,49.575 60.150,49.575 60.150,50.575 74.150,50.575 74.150,49.575 74.950,49.575 74.950,46.475 74.150,46.475 74.150,40.675 74.950,40.675 74.950,37.575 74.150,37.575 74.150,36.575" style="fill:none;stroke-width:0.2;stroke:black"/>
<polygon points="79.200,36.575 79.200,37.575 78.400,37.575 78.400,40.675 79.200,40.675 79.200,46.475 78.400,46.475 78.400,49.575 79.200,49.575 79.200,50.575 93.200,50.575 93.200,49.575 94.000,49.575 94.000,46.475 93.200,46.475 93.200,40.675 94.000,40.675 94.000,37.575 93.200,37.575 93.200,36.575" style="fill:none;stroke-width:0.2;stroke:black"/>
<polygon points="98.250,36.575 98.250,37.575 97.450,37.575 97.450,40.675 98.250,40.675 98.250,46.475 97.450,46.475 97.450,49.575 98.250,49.575 98.250,50.575 112.250,50.575 112.250,49.575 113.050,49.575 113.050,46.475 112.250,46.475 112.250,40.675 113.050,40.675 113.050,37.575 112.250,37.575 112.250,36.575" style="fill:none;stroke-width:0.2;stroke:black"/>
<polygon points="117.300,36.575 117.300,37.575 116.500,37.575 116.500,40.675 117.300,40.675 117.300,46.475 116.500,46.475 116.500,49.575 117.300,49.575 117.300,50.575 131.300,50.575 131.300,49.575 132.100,49.575 132.100,46.475 131.300,46.475 131.300,40.675 132.100,40.675 132.100,37.575 131.300,37.575 131.300,36.575" style="fill:none;stroke-width:0.2;stroke:black"/>
<polygon points="136.350,36.575 136.350,37.575 135.549,37.575 135.549,40.675 136.350,40.675 136.350,46.475 135.549,46.475 135.549,49.575 136.350,49.575 136.350,50.575 150.350,50.575 150.350,49.575 151.150,49.575 151.150,46.475 150.350,46.475 150.350,40.675 151.150,40.675 151.150,37.575 150.350,37.575 150.350,36.575" style="fill:none;stroke-width:0.2;stroke:black"/>
<polygon points="155.400,36.575 155.400,37.575 154.600,37.575 154.600,40.675 155.400,40.675 155.400,46.475 154.600,46.475 154.600,49.575 155.400,49.575 155.400,50.575 169.400,50.575 169.400,49.575 170.200,49.575 170.200,46.475 169.400,46.475 169.400,40.675 170.200,40.675 170.200,37.575 169.400,37.575 169.400,36.575" style="fill:none;stroke-width:0.2;stroke:black"/>
<polygon points="174.450,36.575 174.450,37.575 173.650,37.575 173.650,40.675 174.450,40.675 174.450,46.475 173.650,46.475 173.650,49.575 174.450,49.575 174.450,50.575 188.450,50.575 188.450,49.575 189.250,49.575 189.250,46.475 188.450,46.475 188.450,40.675 189.250,40.675 189.250,37.575 188.450,37.575 188.450,36.575" style="fill:none;stroke-width:0.2;stroke:black"/>
<polygon points="193.500,36.575 193.500,37.575 192.700,37.575 192.700,40.675 193.500,40.675 193.500,46.475 192.700,46.475 192.700,49.575 193.500,49.575 193.500,50.575 207.500,50.575 207.500,49.575 208.300,49.575 208.300,46.475 207.500,46.475 207.500,40.675 208.300,40.675 208.300,37.575 207.500,37.575 207.500,36.575" style="fill:none;stroke-width:0.2;stroke:black"/>
<polygon points="212.550,36.575 212.550,37.575 211.750,37.575 211.750,40.675 212.550,40.675 212.550,46.475 211.750,46.475 211.750,49.575 212.550,49.575 212.550,50.575 226.550,50.575 226.550,49.575 227.350,49.575 227.350,46.475 226.550,46.475 226.550,40.675 227.350,40.675 227.350,37.575 226.550,37.575 226.550,36.575" style="fill:none;stroke-width:0.2;stroke:black"/>
<polygon points="231.600,36.575 231.600,37.575 230.800,37.575 230.800,40.675 231.600,40.675 231.600,46.475 230.800,46.475 230.800,49.575 231.600,49.575 231.600,50.575 245.600,50.575 245.600,49.575 246.400,49.575 246.400,46.475 245.600,46.475 245.600,40.675 246.400,40.675 246.400,37.575 245.600,37.575 245.600,36.575" style="fill:none;stroke-width:0.2;stroke:black"/>
<polygon points="250.650,36.575 250.650,37.575 249.850,37.575 249.850,40.675 250.650,40.675 250.650,46.475 249.850,46.475 249.850,49.575 250.650,49.575 250.650,50.575 264.650,50.575 264.650,49.575 265.450,49.575 265.450,46.475 264.650,46.475 264.650,40.675 265.450,40.675 265.450,37.575 264.650,37.575 264.650,36.575" style="fill:none;stroke-width:0.2;stroke:black"/>
<polygon points="269.700,36.575 269.700,37.575 268.900,37.575 268.900,40.675 269.700,40.675 269.700,46.475 268.900,46.475 268.900,49.575 269.700,49.575 269.700,50.575 283.700,50.575 283.700,49.575 284.500,49.575 284.500,46.475 283.700,46.475 283.700,40.675 284.500,40.675 284.500,37.575 283.700,37.575 283.700,36.575" style="fill:none;stroke-width:0.2;stroke:black"/>
<polygon points="293.512,36.575 293.512,37.575 292.712,37.575 292.712,40.675 293.512,40.675 293.512,46.475 292.712,46.475 292.712,49.575 293.512,49.575 293.512,50.575 307.512,50.575 307.512,49.575 308.312,49.575 308.312,46.475 307.512,46.475 307.512,40.675 308.312,40.675 308.312,37.575 307.512,37.575 307.512,36.575" style="fill:none;stroke-width:0.2;stroke:black"/>
<polygon points="317.325,36.575 317.325,37.575 316.525,37.575 316.525,40.675 317.325,40.675 317.325,46.475 316.525,46.475 316.525,49.575 317.325,49.575 317.325,50.575 331.325,50.575 331.325,49.575 332.125,49.575 332.125,46.475 331.325,46.475 331.325,40.675 332.125,40.675 332.125,37.575 331.325,37.575 331.325,36.575" style="fill:none;stroke-width:0.2;stroke:black"/>
<polygon points="288.750,17.525 288.750,18.525 287.950,18.525 287.950,21.625 288.750,21.625 288.750,22.224 287.125,22.224 287.125,18.994 285.450,18.994 285.450,18.075 282.150,18.075 282.150,18.994 280.475,18.994 280.475,22.224 279.600,22.224 279.600,25.025 280.475,25.025 280.475,31.294 282.150,31.294 282.150,32.275 285.450,32.275 285.450,31.294 287.125,31.294 287.125,26.825 288.750,26.825 288.750,27.424 287.950,27.424 287.950,30.525 288.750,30.525 288.750,31.525 302.750,31.525 302.750,30.525 303.550,30.525 303.550,27.424 302.750,27.424 302.750,26.825 304.375,26.825 304.375,31.294 306.050,31.294 306.050,32.275 309.350,32.275 309.350,31.294 311.025,31.294 311.025,25.025 311.900,25.025 311.900,22.224 311.025,22.224 311.025,18.994 309.350,18.994 309.350,18.075 306.050,18.075 306.050,18.994 304.375,18.994 304.375,22.224 302.750,22.224 302.750,21.625 303.550,21.625 303.550,18.525 302.750,18.525 302.750,17.525" style="fill:none;stroke-width:0.2;stroke:black"/>
<polygon points="12.524,17.525 12.524,18.525 11.724,18.525 11.724,21.625 12.524,21.625 12.524,27.424 11.724,27.424 11.724,30.525 12.524,30.525 12.524,31.525 26.525,31.525 26.525,30.525 27.325,30.525 27.325,27.424 26.525,27.424 26.525,21.625 27.325,21.625 27.325,18.525 26.525,18.525 26.525,17.525" style="fill:none;stroke-width:0.2;stroke:black"/>
<polygon points="31.575,17.525 31.575,18.525 30.775,18.525 30.775,21.625 31.575,21.625 31.575,27.424 30.775,27.424 30.775,30.525 31.575,30.525 31.575,31.525 45.575,31.525 45.575,30.525 46.375,30.525 46.375,27.424 45.575,27.424 45.575,21.625 46.375,21.625 46.375,18.525 45.575,18.525 45.575,17.525" style="fill:none;stroke-width:0.2;stroke:black"/>
<polygon points="50.625,17.525 50.625,18.525 49.825,18.525 49.825,21.625 50.625,21.625 50.625,27.424 49.825,27.424 49.825,30.525 50.625,30.525 50.625,31.525 64.625,31.525 64.625,30.525 65.425,30.525 65.425,27.424 64.625,27.424 64.625,21.625 65.425,21.625 65.425,18.525 64.625,18.525 64.625,17.525" style="fill:none;stroke-width:0.2;stroke:black"/>
<polygon points="69.675,17.525 69.675,18.525 68.875,18.525 68.875,21.625 69.675,21.625 69.675,27.424 68.875,27.424 68.875,30.525 69.675,30.525 69.675,31.525 83.675,31.525 83.675,30.525 84.475,30.525 84.475,27.424 83.675,27.424 83.675,21.625 84.475,21.625 84.475,18.525 83.675,18.525 83.675,17.525" style="fill:none;stroke-width:0.2;stroke:black"/>
<polygon points="88.725,17.525 88.725,18.525 87.925,18.525 87.925,21.625 88.725,21.625 88.725,27.424 87.925,27.424 87.925,30.525 88.725,30.525 88.725,31.525 102.725,31.525 102.725,30.525 103.524,30.525 103.524,27.424 102.725,27.424 102.725,21.625 103.524,21.625 103.524,18.525 102.725,18.525 102.725,17.525" style="fill:none;stroke-width:0.2;stroke:black"/>
<polygon points="107.774,17.525 107.774,18.525 106.975,18.525 106.975,21.625 107.774,21.625 107.774,27.424 106.975,27.424 106.975,30.525 107.774,30.525 107.774,31.525 121.774,31.525 121.774,30.525 122.574,30.525 122.574,27.424 121.774,27.424 121.774,21.625 122.574,21.625 122.574,18.525 121.774,18.525 121.774,17.525" style="fill:none;stroke-width:0.2;stroke:black"/>
<polygon points="126.824,17.525 126.824,18.525 126.024,18.525 126.024,21.625 126.824,21.625 126.824,27.424 126.024,27.424 126.024,30.525 126.824,30.525 126.824,31.525 140.825,31.525 140.825,30.525 141.625,30.525 141.625,27.424 140.825,27.424 140.825,21.625 141.625,21.625 141.625,18.525 140.825,18.525 140.825,17.525" style="fill:none;stroke-width:0.2;stroke:black"/>
<polygon points="145.875,17.525 145.875,18.525 145.075,18.525 145.075,21.625 145.875,21.625 145.875,27.424 145.075,27.424 145.075,30.525 145.875,30.525 145.875,31.525 159.875,31.525 159.875,30.525 160.675,30.525 160.675,27.424 159.875,27.424 159.875,21.625 160.675,21.625 160.675,18.525 159.875,18.525 159.875,17.525" style="fill:none;stroke-width:0.2;stroke:black"/>
<polygon points="164.925,17.525 164.925,18.525 164.125,18.525 164.125,21.625 164.925,21.625 164.925,27.424 164.125,27.424 164.125,30.525 164.925,30.525 164.925,31.525 178.925,31.525 178.925,30.525 179.725,30.525 179.725,27.424 178.925,27.424 178.925,21.625 179.725,21.625 179.725,18.525 178.925,18.525 178.925,17.525" style="fill:none;stroke-width:0.2;stroke:black"/>
<polygon points="183.975,17.525 183.975,18.525 183.175,18.525 183.175,21.625 183.975,21.625 183.975,27.424 183.175,27.424 183.175,30.525 183.975,30.525 183.975,31.525 197.975,31.525 197.975,30.525 198.775,30.525 198.775,27.424 197.975,27.424 197.975,21.625 198.775,21.625 198.775,18.525 197.975,18.525 197.975,17.525" style="fill:none;stroke-width:0.2;stroke:black"/>
<polygon points="203.025,17.525 203.025,18.525 202.225,18.525 202.225,21.625 203.025,21.625 203.025,27.424 202.225,27.424 202.225,30.525 203.025,30.525 203.025,31.525 217.025,31.525 217.025,30.525 217.825,30.525 217.825,27.424 217.025,27.424 217.025,21.625 217.825,21.625 217.825,18.525 217.025,18.525 217.025,17.525" style="fill:none;stroke-width:0.2;stroke:black"/>
<polygon points="222.075,17.525 222.075,18.525 221.275,18.525 221.275,21.625 222.075,21.625 222.075,27.424 221.275,27.424 221.275,30.525 222.075,30.525 222.075,31.525 236.075,31.525 236.075,30.525 236.875,30.525 236.875,27.424 236.075,27.424 236.075,21.625 236.875,21.625 236.875,18.525 236.075,18.525 236.075,17.525" style="fill:none;stroke-width:0.2;stroke:black"/>
<polygon points="241.125,17.525 241.125,18.525 240.325,18.525 240.325,21.625 241.125,21.625 241.125,27.424 240.325,27.424 240.325,30.525 241.125,30.525 241.125,31.525 255.125,31.525 255.125,30.525 255.925,30.525 255.925,27.424 255.125,27.424 255.125,21.625 255.925,21.625 255.925,18.525 255.125,18.525 255.125,17.525" style="fill:none;stroke-width:0.2;stroke:black"/>
<polygon points="260.175,17.525 260.175,18.525 259.375,18.525 259.375,21.625 260.175,21.625 260.175,27.424 259.375,27.424 259.375,30.525 260.175,30.525 260.175,31.525 274.175,31.525 274.175,30.525 274.975,30.525 274.975,27.424 274.175,27.424 274.175,21.625 274.975,21.625 274.975,18.525 274.175,18.525 274.175,17.525" style="fill:none;stroke-width:0.2;stroke:black"/>
<polygon points="317.325,17.525 317.325,18.525 316.525,18.525 316.525,21.625 317.325,21.625 317.325,27.424 316.525,27.424 316.525,30.525 317.325,30.525 317.325,31.525 331.325,31.525 331.325,30.525 332.125,30.525 332.125,27.424 331.325,27.424 331.325,21.625 332.125,21.625 332.125,18.525 331.325,18.525 331.325,17.525" style="fill:none;stroke-width:0.2;stroke:black"/>
<polygon points="7.727,6.122 7.030,6.477 6.477,7.030 6.122,7.727 5.999,8.500 6.122,9.272 6.477,9.969 7.030,10.522 7.727,10.877 8.500,11.000 9.272,10.877 9.969,10.522 10.522,9.969 10.877,9.272 11.000,8.500 10.877,7.727 10.522,7.030 9.969,6.477 9.272,6.122 8.500,6.000" style="fill:none;stroke-width:0.2;stroke:black"/>
<polygon points="171.152,6.122 170.455,6.477 169.902,7.030 169.547,7.727 169.425,8.500 169.547,9.272 169.902,9.969 170.455,10.522 171.152,10.877 171.925,11.000 172.697,10.877 173.394,10.522 173.947,9.969 174.302,9.272 174.425,8.500 174.302,7.727 173.947,7.030 173.394,6.477 172.697,6.122 171.925,6.000" style="fill:none;stroke-width:0.2;stroke:black"/>
<polygon points="334.577,6.122 333.880,6.477 333.327,7.030 332.972,7.727 332.850,8.500 332.972,9.272 333.327,9.969 333.880,10.522 334.577,10.877 335.350,11.000 336.122,10.877 336.819,10.522 337.372,9.969 337.727,9.272 337.850,8.500 337.727,7.727 337.372,7.030 336.819,6.477 336.122,6.122 335.350,6.000" style="fill:none;stroke-width:0.2;stroke:black"/>
</svg>
