G04 #@! TF.FileFunction,Copper,L1,Top,Signal*
%FSLAX46Y46*%
G04 Gerber Fmt 4.6, Leading zero omitted, Abs format (unit mm)*
G04 Created by KiCad (PCBNEW 4.0.2-stable) date Tuesday, August 23, 2016 'PMt' 05:42:50 PM*
%MOMM*%
G01*
G04 APERTURE LIST*
%ADD10C,0.020000*%
%ADD11R,1.397000X0.889000*%
%ADD12R,0.889000X1.397000*%
%ADD13O,0.406400X1.899920*%
%ADD14O,1.899920X0.406400*%
%ADD15C,1.600000*%
%ADD16C,1.501140*%
%ADD17C,2.499360*%
%ADD18C,1.651000*%
%ADD19R,1.651000X1.651000*%
%ADD20C,1.800000*%
%ADD21C,1.000000*%
%ADD22C,0.406400*%
G04 APERTURE END LIST*
D10*
D11*
X214096600Y-182029100D03*
X214096600Y-183934100D03*
X218338400Y-182054500D03*
X218338400Y-183959500D03*
X233984800Y-195084700D03*
X233984800Y-196989700D03*
D12*
X240499900Y-189763400D03*
X238594900Y-189763400D03*
X240525300Y-193116200D03*
X238620300Y-193116200D03*
X240550700Y-196545200D03*
X238645700Y-196545200D03*
X240576100Y-199948800D03*
X238671100Y-199948800D03*
X240449100Y-186283600D03*
X238544100Y-186283600D03*
D13*
X221513400Y-201422000D03*
X222313500Y-201422000D03*
X223113600Y-201422000D03*
X223913700Y-201422000D03*
X224713800Y-201422000D03*
X225513900Y-201422000D03*
X220713300Y-201422000D03*
X219913200Y-201422000D03*
X219113100Y-201422000D03*
X218313000Y-201422000D03*
X217512900Y-201422000D03*
X221513400Y-189992000D03*
X222313500Y-189992000D03*
X223113600Y-189992000D03*
X223913700Y-189992000D03*
X224713800Y-189992000D03*
X225513900Y-189992000D03*
X220713300Y-189992000D03*
X219913200Y-189992000D03*
X219113100Y-189992000D03*
X218313000Y-189992000D03*
X217512900Y-189992000D03*
D14*
X227228400Y-195707000D03*
X215798400Y-195707000D03*
X227228400Y-194906900D03*
X215798400Y-194906900D03*
X215798400Y-194106800D03*
X227228400Y-194106800D03*
X227228400Y-193306700D03*
X215798400Y-193306700D03*
X215798400Y-192506600D03*
X227228400Y-192506600D03*
X227228400Y-191706500D03*
X215798400Y-191706500D03*
X215798400Y-196507100D03*
X227228400Y-196507100D03*
X227228400Y-197307200D03*
X215798400Y-197307200D03*
X215798400Y-198107300D03*
X227228400Y-198107300D03*
X227228400Y-198907400D03*
X215798400Y-198907400D03*
X215798400Y-199707500D03*
X227228400Y-199707500D03*
D15*
X241909600Y-167233600D03*
X241909600Y-174853600D03*
D16*
X229745540Y-183108600D03*
X224863660Y-183108600D03*
D17*
X217525600Y-166801800D03*
X211175600Y-169341800D03*
X236575600Y-166801800D03*
X230225600Y-169341800D03*
X212445600Y-157911800D03*
X218795600Y-155371800D03*
X231495600Y-157911800D03*
X237845600Y-155371800D03*
D18*
X222808800Y-168605200D03*
D19*
X222808800Y-176225200D03*
D18*
X226187000Y-168605200D03*
D19*
X226187000Y-176225200D03*
D18*
X207162400Y-149682200D03*
D19*
X207162400Y-157302200D03*
D18*
X241858800Y-149682200D03*
D19*
X241858800Y-157302200D03*
D15*
X207238600Y-175133000D03*
X207238600Y-167513000D03*
X208889600Y-162306000D03*
X216509600Y-162306000D03*
X231267000Y-162407600D03*
X238887000Y-162407600D03*
D20*
X208013300Y-195440300D03*
X208013300Y-186829700D03*
X208013300Y-192570100D03*
X207987900Y-183959500D03*
X208013300Y-189699900D03*
X207987900Y-181089300D03*
D21*
X218567000Y-174371000D03*
X228346000Y-179984400D03*
X234569000Y-162433000D03*
X229743000Y-191389000D03*
X224409000Y-196723000D03*
X231140000Y-191516000D03*
X218541600Y-196900800D03*
X236067600Y-158394400D03*
X240538000Y-160147000D03*
X238429800Y-182016400D03*
X223774000Y-166751000D03*
X222885000Y-171831000D03*
X220218000Y-174498000D03*
X212090000Y-182118000D03*
X226060000Y-161290000D03*
X226060000Y-151765000D03*
X217678000Y-191897000D03*
X222504000Y-191897000D03*
X229946200Y-196469000D03*
X231902000Y-196469000D03*
X224028000Y-203327000D03*
X218948000Y-203327000D03*
X230403400Y-193675000D03*
X223977200Y-187706000D03*
X240741200Y-204419200D03*
X232029000Y-201371200D03*
X230251000Y-154178000D03*
X212852000Y-193675000D03*
X217678000Y-194056000D03*
X213995000Y-199263000D03*
X215773000Y-201041000D03*
X218186000Y-199517000D03*
X223774000Y-199517000D03*
X233934000Y-156464000D03*
X237363000Y-152654000D03*
X214096600Y-179959000D03*
X222554800Y-180924200D03*
X224612200Y-179273200D03*
X229692200Y-181305200D03*
X211709000Y-187553600D03*
X222681800Y-187350400D03*
X220345000Y-183134000D03*
X229920800Y-195046600D03*
X231902000Y-195072000D03*
X237363000Y-172085000D03*
X232283000Y-166497000D03*
X227965000Y-166497000D03*
X225044000Y-163703000D03*
X223901000Y-165100000D03*
X226568000Y-189611000D03*
X219633800Y-195630800D03*
X225171000Y-186283600D03*
X232283000Y-188722000D03*
X214122000Y-174625000D03*
X212852000Y-196596000D03*
X229743000Y-198628000D03*
X238887000Y-165989000D03*
X236093000Y-193802000D03*
X215392000Y-202184000D03*
X219964000Y-158877000D03*
X223774000Y-151765000D03*
X212471000Y-162306000D03*
X223520000Y-147447000D03*
X223850200Y-194538600D03*
X224764600Y-193497200D03*
X227558600Y-188645800D03*
X227584000Y-186436000D03*
X222453200Y-194513200D03*
D22*
X217652600Y-171246800D02*
X217652600Y-170510200D01*
X207137000Y-157353000D02*
X207137000Y-158623000D01*
X209931000Y-161417000D02*
X207137000Y-158623000D01*
X209931000Y-161544000D02*
X209931000Y-161417000D01*
X210058000Y-161671000D02*
X209931000Y-161544000D01*
X210058000Y-161798000D02*
X210058000Y-161671000D01*
X210185000Y-161925000D02*
X210058000Y-161798000D01*
X210185000Y-163449000D02*
X210185000Y-161925000D01*
X217144600Y-170027600D02*
X210185000Y-163449000D01*
X217144600Y-170154600D02*
X217144600Y-170027600D01*
X217398600Y-170434000D02*
X217144600Y-170154600D01*
X217525600Y-170383200D02*
X217398600Y-170434000D01*
X217652600Y-170510200D02*
X217525600Y-170383200D01*
X217601800Y-173202600D02*
X217652600Y-171246800D01*
X218567000Y-174371000D02*
X217601800Y-173202600D01*
X207137000Y-157353000D02*
X207162400Y-157302200D01*
X228346000Y-179984400D02*
X228473000Y-180111400D01*
X228473000Y-180111400D02*
X228473000Y-183388000D01*
X228473000Y-183388000D02*
X228600000Y-183515000D01*
X228600000Y-183515000D02*
X228600000Y-193929000D01*
X228600000Y-193929000D02*
X227330000Y-193929000D01*
X227330000Y-193929000D02*
X227203000Y-194056000D01*
X227203000Y-194056000D02*
X227228400Y-194106800D01*
X226187000Y-176225200D02*
X226187000Y-176276000D01*
X226187000Y-176276000D02*
X227584000Y-174879000D01*
X227584000Y-174879000D02*
X227584000Y-171399200D01*
X227584000Y-171399200D02*
X227711000Y-171272200D01*
X227711000Y-171272200D02*
X227711000Y-171196000D01*
X227711000Y-171196000D02*
X228473000Y-170434000D01*
X228473000Y-170434000D02*
X228473000Y-168910000D01*
X228473000Y-168910000D02*
X228600000Y-168783000D01*
X228600000Y-168783000D02*
X228600000Y-168529000D01*
X228600000Y-168529000D02*
X228854000Y-168275000D01*
X228854000Y-168275000D02*
X228854000Y-168148000D01*
X228854000Y-168148000D02*
X234569000Y-162433000D01*
X226187000Y-176225200D02*
X226187000Y-176276000D01*
X226187000Y-176276000D02*
X231013000Y-181102000D01*
X231013000Y-181102000D02*
X231013000Y-183388000D01*
X231013000Y-183388000D02*
X230886000Y-183515000D01*
X230886000Y-183515000D02*
X230886000Y-183769000D01*
X230886000Y-183769000D02*
X229743000Y-184912000D01*
X229743000Y-184912000D02*
X229743000Y-191389000D01*
X224409000Y-196723000D02*
X222758000Y-198374000D01*
X222758000Y-198374000D02*
X222758000Y-199771000D01*
X222758000Y-199771000D02*
X222885000Y-199898000D01*
X222885000Y-199898000D02*
X222885000Y-200025000D01*
X222885000Y-200025000D02*
X223012000Y-200025000D01*
X223012000Y-200025000D02*
X223012000Y-200152000D01*
X223012000Y-200152000D02*
X223139000Y-200279000D01*
X223139000Y-200279000D02*
X223139000Y-201422000D01*
X223139000Y-201422000D02*
X223113600Y-201422000D01*
X231571800Y-173532800D02*
X231571800Y-173202600D01*
X218541600Y-194640200D02*
X220726000Y-192455800D01*
X231571800Y-173532800D02*
X231698800Y-173659800D01*
X231698800Y-173659800D02*
X231648000Y-184023000D01*
X231648000Y-184023000D02*
X231521000Y-184150000D01*
X231521000Y-184150000D02*
X231521000Y-184404000D01*
X231521000Y-184404000D02*
X231140000Y-184785000D01*
X231140000Y-184785000D02*
X231140000Y-191516000D01*
X220726000Y-189992000D02*
X220726000Y-192455800D01*
X218541600Y-196900800D02*
X218541600Y-194640200D01*
X231394000Y-171043600D02*
X231394000Y-170434000D01*
X231216200Y-171221400D02*
X231394000Y-171043600D01*
X231216200Y-172364400D02*
X231216200Y-171221400D01*
X231292400Y-172440600D02*
X231216200Y-172364400D01*
X231292400Y-172923200D02*
X231292400Y-172440600D01*
X231571800Y-173202600D02*
X231292400Y-172923200D01*
X231521000Y-170561000D02*
X231394000Y-170434000D01*
X231394000Y-170434000D02*
X230251000Y-169291000D01*
X230225600Y-169341800D02*
X230251000Y-169291000D01*
X220726000Y-189992000D02*
X220713300Y-189992000D01*
X221386400Y-173101000D02*
X221386400Y-172669200D01*
X218821000Y-155321000D02*
X218821000Y-165608000D01*
X219075000Y-165862000D02*
X218821000Y-165608000D01*
X219075000Y-165989000D02*
X219075000Y-165862000D01*
X219202000Y-166116000D02*
X219075000Y-165989000D01*
X219202000Y-169037000D02*
X219202000Y-166116000D01*
X221234000Y-171069000D02*
X219202000Y-169037000D01*
X221361000Y-184327800D02*
X221386400Y-173101000D01*
X220167200Y-185521600D02*
X221361000Y-184327800D01*
X220167200Y-185521600D02*
X220091000Y-189865000D01*
X221513400Y-171348400D02*
X221234000Y-171069000D01*
X221513400Y-171805600D02*
X221513400Y-171348400D01*
X221538800Y-171831000D02*
X221513400Y-171805600D01*
X221538800Y-172161200D02*
X221538800Y-171831000D01*
X221488000Y-172212000D02*
X221538800Y-172161200D01*
X221488000Y-172567600D02*
X221488000Y-172212000D01*
X221386400Y-172669200D02*
X221488000Y-172567600D01*
X219913200Y-189992000D02*
X219964000Y-189992000D01*
X219964000Y-189992000D02*
X220091000Y-189865000D01*
X218821000Y-155321000D02*
X218795600Y-155371800D01*
X224028000Y-203327000D02*
X235292900Y-203327000D01*
X235292900Y-203327000D02*
X238671100Y-199948800D01*
X238544100Y-186283600D02*
X238544100Y-182130700D01*
X238785400Y-158394400D02*
X236067600Y-158394400D01*
X240538000Y-160147000D02*
X238785400Y-158394400D01*
X238544100Y-182130700D02*
X238429800Y-182016400D01*
X223774000Y-166751000D02*
X224155000Y-167132000D01*
X224155000Y-167132000D02*
X224155000Y-168783000D01*
X224155000Y-168783000D02*
X224028000Y-168910000D01*
X224028000Y-168910000D02*
X224028000Y-169291000D01*
X224028000Y-169291000D02*
X222885000Y-170434000D01*
X222885000Y-170434000D02*
X222885000Y-171831000D01*
X220218000Y-174498000D02*
X217170000Y-177546000D01*
X217170000Y-177546000D02*
X217170000Y-183007000D01*
X217170000Y-183007000D02*
X217297000Y-183007000D01*
X217297000Y-183007000D02*
X218313000Y-184023000D01*
X218313000Y-184023000D02*
X218338400Y-183959500D01*
X214096600Y-183934100D02*
X214122000Y-183896000D01*
X214122000Y-183896000D02*
X213868000Y-183896000D01*
X213868000Y-183896000D02*
X212090000Y-182118000D01*
X226060000Y-161290000D02*
X226060000Y-151765000D01*
X215798400Y-191706500D02*
X215773000Y-191770000D01*
X215773000Y-191770000D02*
X217551000Y-191770000D01*
X217551000Y-191770000D02*
X217678000Y-191897000D01*
X222504000Y-191897000D02*
X223139000Y-191262000D01*
X223139000Y-191262000D02*
X223139000Y-189992000D01*
X223139000Y-189992000D02*
X223113600Y-189992000D01*
X214096600Y-183934100D02*
X214122000Y-183896000D01*
X214122000Y-183896000D02*
X215773000Y-185547000D01*
X215773000Y-185547000D02*
X215773000Y-191770000D01*
X215773000Y-191770000D02*
X215798400Y-191706500D01*
X227228400Y-196507100D02*
X227203000Y-196469000D01*
X227203000Y-196469000D02*
X229946200Y-196469000D01*
X231902000Y-196469000D02*
X233426000Y-196469000D01*
X233426000Y-196469000D02*
X233934000Y-196977000D01*
X233934000Y-196977000D02*
X233984800Y-196989700D01*
X224713800Y-201422000D02*
X224663000Y-201422000D01*
X224663000Y-201422000D02*
X224536000Y-201549000D01*
X224536000Y-201549000D02*
X224536000Y-202819000D01*
X224536000Y-202819000D02*
X224028000Y-203327000D01*
X218948000Y-203327000D02*
X218313000Y-202692000D01*
X218313000Y-202692000D02*
X218313000Y-201422000D01*
X233984800Y-196989700D02*
X233934000Y-196977000D01*
X233934000Y-196977000D02*
X238252000Y-196977000D01*
X238252000Y-196977000D02*
X238633000Y-196596000D01*
X238633000Y-196596000D02*
X238645700Y-196545200D01*
X218338400Y-183959500D02*
X218313000Y-184023000D01*
X218313000Y-184023000D02*
X214249000Y-184023000D01*
X214249000Y-184023000D02*
X214122000Y-183896000D01*
X214122000Y-183896000D02*
X214096600Y-183934100D01*
X238594900Y-189763400D02*
X238633000Y-189738000D01*
X238633000Y-189738000D02*
X238506000Y-189611000D01*
X238506000Y-189611000D02*
X238506000Y-186309000D01*
X238506000Y-186309000D02*
X238544100Y-186283600D01*
X238620300Y-193116200D02*
X238633000Y-193167000D01*
X238633000Y-193167000D02*
X238633000Y-189738000D01*
X238633000Y-189738000D02*
X238594900Y-189763400D01*
X238645700Y-196545200D02*
X238633000Y-196596000D01*
X238633000Y-196596000D02*
X238633000Y-193167000D01*
X238633000Y-193167000D02*
X238620300Y-193116200D01*
X238645700Y-196545200D02*
X238633000Y-196596000D01*
X238633000Y-196596000D02*
X238633000Y-199898000D01*
X238633000Y-199898000D02*
X238671100Y-199948800D01*
X230403400Y-193675000D02*
X229870000Y-193675000D01*
X228638100Y-194906900D02*
X227228400Y-194906900D01*
X229870000Y-193675000D02*
X228638100Y-194906900D01*
X223913700Y-189992000D02*
X223913700Y-188556900D01*
X230403400Y-193675000D02*
X230378000Y-193675000D01*
X223913700Y-188556900D02*
X223977200Y-187706000D01*
X225513900Y-201422000D02*
X231978200Y-201422000D01*
X240576100Y-204254100D02*
X240576100Y-199948800D01*
X240741200Y-204419200D02*
X240576100Y-204254100D01*
X231978200Y-201422000D02*
X232029000Y-201371200D01*
X241909600Y-167233600D02*
X241935000Y-167259000D01*
X241935000Y-167259000D02*
X241808000Y-167259000D01*
X241808000Y-167259000D02*
X233172000Y-158623000D01*
X233172000Y-158623000D02*
X233172000Y-157226000D01*
X233172000Y-157226000D02*
X233045000Y-157099000D01*
X233045000Y-157099000D02*
X233045000Y-156972000D01*
X233045000Y-156972000D02*
X230251000Y-154178000D01*
X208013300Y-186829700D02*
X208153000Y-186944000D01*
X208153000Y-186944000D02*
X212852000Y-191643000D01*
X212852000Y-191643000D02*
X212852000Y-193675000D01*
X217678000Y-194056000D02*
X217170000Y-193548000D01*
X217170000Y-193548000D02*
X217170000Y-192659000D01*
X217170000Y-192659000D02*
X215900000Y-192659000D01*
X215900000Y-192659000D02*
X215773000Y-192532000D01*
X215773000Y-192532000D02*
X215798400Y-192506600D01*
X240449100Y-186283600D02*
X240411000Y-186309000D01*
X240411000Y-186309000D02*
X240665000Y-186055000D01*
X240665000Y-186055000D02*
X240665000Y-174371000D01*
X240665000Y-174371000D02*
X240792000Y-174244000D01*
X240792000Y-174244000D02*
X240792000Y-174117000D01*
X240792000Y-174117000D02*
X241935000Y-172974000D01*
X241935000Y-172974000D02*
X241935000Y-167259000D01*
X241935000Y-167259000D02*
X241909600Y-167233600D01*
X215798400Y-192506600D02*
X215773000Y-192532000D01*
X215773000Y-192532000D02*
X214503000Y-192532000D01*
X214503000Y-192532000D02*
X213995000Y-193040000D01*
X213995000Y-193040000D02*
X213995000Y-199263000D01*
X215773000Y-201041000D02*
X216839800Y-201041000D01*
X216839800Y-201041000D02*
X217551000Y-201422000D01*
X217551000Y-201422000D02*
X217512900Y-201422000D01*
X225513900Y-201422000D02*
X227457000Y-201422000D01*
X227457000Y-201422000D02*
X228473000Y-200406000D01*
X228473000Y-200406000D02*
X228600000Y-200406000D01*
X228600000Y-200406000D02*
X228600000Y-199009000D01*
X228600000Y-199009000D02*
X227330000Y-199009000D01*
X227330000Y-199009000D02*
X227228400Y-198907400D01*
X217512900Y-201422000D02*
X217551000Y-201422000D01*
X217551000Y-201422000D02*
X217678000Y-201295000D01*
X217678000Y-201295000D02*
X217678000Y-200025000D01*
X217678000Y-200025000D02*
X218186000Y-199517000D01*
X223774000Y-199517000D02*
X224917000Y-199517000D01*
X224917000Y-199517000D02*
X225552000Y-200152000D01*
X225552000Y-200152000D02*
X225552000Y-201422000D01*
X225552000Y-201422000D02*
X225513900Y-201422000D01*
X227228400Y-198907400D02*
X227203000Y-198882000D01*
X227203000Y-198882000D02*
X226060000Y-198882000D01*
X226060000Y-198882000D02*
X225933000Y-198755000D01*
X225933000Y-198755000D02*
X225806000Y-198755000D01*
X225806000Y-198755000D02*
X225806000Y-195072000D01*
X225806000Y-195072000D02*
X227076000Y-195072000D01*
X227076000Y-195072000D02*
X227203000Y-194945000D01*
X227203000Y-194945000D02*
X227228400Y-194906900D01*
X240499900Y-189763400D02*
X240538000Y-189738000D01*
X240538000Y-189738000D02*
X240411000Y-189611000D01*
X240411000Y-189611000D02*
X240411000Y-186309000D01*
X240411000Y-186309000D02*
X240449100Y-186283600D01*
X240525300Y-193116200D02*
X240538000Y-193167000D01*
X240538000Y-193167000D02*
X240538000Y-189738000D01*
X240538000Y-189738000D02*
X240499900Y-189763400D01*
X240550700Y-196545200D02*
X240538000Y-196596000D01*
X240538000Y-196596000D02*
X240538000Y-193167000D01*
X240538000Y-193167000D02*
X240525300Y-193116200D01*
X240576100Y-199948800D02*
X240538000Y-199898000D01*
X240538000Y-199898000D02*
X240538000Y-196596000D01*
X240538000Y-196596000D02*
X240550700Y-196545200D01*
X207162400Y-149682200D02*
X207137000Y-149733000D01*
X207137000Y-149733000D02*
X208534000Y-151130000D01*
X208534000Y-151130000D02*
X208534000Y-153085800D01*
X208534000Y-153085800D02*
X208508600Y-153314400D01*
X208508600Y-153314400D02*
X208508600Y-153517600D01*
X208508600Y-153517600D02*
X209118200Y-154152600D01*
X209118200Y-154152600D02*
X209270600Y-154178000D01*
X209270600Y-154178000D02*
X212471000Y-157353000D01*
X212471000Y-157353000D02*
X212471000Y-157861000D01*
X212471000Y-157861000D02*
X212445600Y-157911800D01*
X236118400Y-154533600D02*
X235813600Y-154889200D01*
X236245400Y-154406600D02*
X236118400Y-154533600D01*
X236550200Y-153949400D02*
X236245400Y-154406600D01*
X237363000Y-152654000D02*
X236550200Y-153949400D01*
X235813600Y-154889200D02*
X233934000Y-156464000D01*
X229745540Y-183108600D02*
X229745540Y-181358540D01*
X214071200Y-179933600D02*
X212001100Y-179933600D01*
X214096600Y-179959000D02*
X214071200Y-179933600D01*
X222961200Y-180924200D02*
X222554800Y-180924200D01*
X224612200Y-179273200D02*
X222961200Y-180924200D01*
X229745540Y-181358540D02*
X229692200Y-181305200D01*
X212001100Y-179933600D02*
X214096600Y-182029100D01*
X210540600Y-179933600D02*
X212001100Y-179933600D01*
X210083400Y-180390800D02*
X210540600Y-179933600D01*
X210083400Y-185928000D02*
X210083400Y-180390800D01*
X211709000Y-187553600D02*
X210083400Y-185928000D01*
X222313500Y-187718700D02*
X222681800Y-187350400D01*
X222313500Y-189992000D02*
X222313500Y-187718700D01*
X221513400Y-189992000D02*
X221488000Y-189992000D01*
X221488000Y-189992000D02*
X221615000Y-189865000D01*
X221615000Y-189865000D02*
X221615000Y-185293000D01*
X221615000Y-185293000D02*
X224917000Y-185293000D01*
X224917000Y-185293000D02*
X224917000Y-183134000D01*
X224917000Y-183134000D02*
X224863660Y-183108600D01*
X220345000Y-183134000D02*
X219583000Y-183134000D01*
X219583000Y-183134000D02*
X219456000Y-183007000D01*
X219456000Y-183007000D02*
X219202000Y-183007000D01*
X219202000Y-183007000D02*
X218313000Y-182118000D01*
X218313000Y-182118000D02*
X218338400Y-182054500D01*
X227228400Y-195707000D02*
X228473000Y-195707000D01*
X228473000Y-195707000D02*
X229920800Y-195046600D01*
X231902000Y-195072000D02*
X233934000Y-195072000D01*
X233934000Y-195072000D02*
X233984800Y-195084700D01*
X237363000Y-172085000D02*
X236651800Y-171018200D01*
X236651800Y-171018200D02*
X236474000Y-170586400D01*
X236474000Y-170586400D02*
X236347000Y-170459400D01*
X236347000Y-170459400D02*
X236347000Y-170332400D01*
X236347000Y-170332400D02*
X235991400Y-169976800D01*
X235991400Y-169976800D02*
X235991400Y-169849800D01*
X235991400Y-169849800D02*
X232283000Y-166497000D01*
X227965000Y-166497000D02*
X227838000Y-166497000D01*
X227838000Y-166497000D02*
X225044000Y-163703000D01*
X223901000Y-165100000D02*
X224917000Y-166116000D01*
X224917000Y-166116000D02*
X224917000Y-177546000D01*
X224917000Y-177546000D02*
X226568000Y-179197000D01*
X226568000Y-179197000D02*
X226568000Y-189611000D01*
X219633800Y-195630800D02*
X219506800Y-195630800D01*
X219506800Y-195630800D02*
X219557600Y-194741800D01*
X219557600Y-194741800D02*
X221742000Y-193802000D01*
X221742000Y-193802000D02*
X221869000Y-193675000D01*
X221869000Y-193675000D02*
X221869000Y-193548000D01*
X221869000Y-193548000D02*
X221996000Y-193421000D01*
X221996000Y-193421000D02*
X221996000Y-193294000D01*
X221996000Y-193294000D02*
X222123000Y-193294000D01*
X222123000Y-193294000D02*
X222250000Y-193167000D01*
X222250000Y-193167000D02*
X222377000Y-193167000D01*
X222377000Y-193167000D02*
X222504000Y-193040000D01*
X222504000Y-193040000D02*
X222758000Y-193040000D01*
X222758000Y-193040000D02*
X223139000Y-192659000D01*
X223139000Y-192659000D02*
X223266000Y-192659000D01*
X223266000Y-192659000D02*
X223266000Y-192532000D01*
X223266000Y-192532000D02*
X224409000Y-191389000D01*
X224409000Y-191389000D02*
X224536000Y-191389000D01*
X224536000Y-191389000D02*
X224536000Y-191262000D01*
X224536000Y-191262000D02*
X224663000Y-191135000D01*
X224663000Y-191135000D02*
X224663000Y-189992000D01*
X224663000Y-189992000D02*
X224713800Y-189992000D01*
X224713800Y-189992000D02*
X224663000Y-189992000D01*
X224663000Y-189992000D02*
X224536000Y-189865000D01*
X224536000Y-189865000D02*
X225120200Y-188595000D01*
X225120200Y-188595000D02*
X225171000Y-186283600D01*
X227228400Y-197307200D02*
X227203000Y-197358000D01*
X227203000Y-197358000D02*
X228727000Y-197358000D01*
X228727000Y-197358000D02*
X228854000Y-197485000D01*
X228854000Y-197485000D02*
X230911400Y-197485000D01*
X230911400Y-197485000D02*
X230886000Y-196215000D01*
X230886000Y-196215000D02*
X230886000Y-194818000D01*
X230886000Y-194818000D02*
X231013000Y-194691000D01*
X231013000Y-194691000D02*
X231013000Y-194564000D01*
X231013000Y-194564000D02*
X231140000Y-194437000D01*
X231140000Y-194437000D02*
X231140000Y-194310000D01*
X231140000Y-194310000D02*
X232283000Y-193167000D01*
X232283000Y-193167000D02*
X232283000Y-188722000D01*
X214122000Y-174625000D02*
X212191600Y-173050200D01*
X212191600Y-173050200D02*
X212191600Y-171551600D01*
X212191600Y-171551600D02*
X212318600Y-171424600D01*
X212318600Y-171424600D02*
X212394800Y-170967400D01*
X212394800Y-170967400D02*
X212521800Y-170840400D01*
X212521800Y-170840400D02*
X212775800Y-170357800D01*
X212775800Y-170357800D02*
X212902800Y-170230800D01*
X212902800Y-170230800D02*
X212953600Y-168529000D01*
X212953600Y-168529000D02*
X212826600Y-168402000D01*
X212826600Y-168402000D02*
X212826600Y-168275000D01*
X212826600Y-168275000D02*
X208915000Y-164592000D01*
X208915000Y-164592000D02*
X208915000Y-162306000D01*
X208915000Y-162306000D02*
X208889600Y-162306000D01*
X207238600Y-175133000D02*
X207264000Y-175133000D01*
X207264000Y-175133000D02*
X206629000Y-175768000D01*
X206629000Y-175768000D02*
X206629000Y-190119000D01*
X206629000Y-190119000D02*
X206756000Y-190246000D01*
X206756000Y-190246000D02*
X206756000Y-190373000D01*
X206756000Y-190373000D02*
X206883000Y-190500000D01*
X206883000Y-190500000D02*
X206883000Y-190627000D01*
X206883000Y-190627000D02*
X207137000Y-190881000D01*
X207137000Y-190881000D02*
X207264000Y-190881000D01*
X207264000Y-190881000D02*
X207391000Y-191008000D01*
X207391000Y-191008000D02*
X208534000Y-191008000D01*
X208534000Y-191008000D02*
X212852000Y-195326000D01*
X212852000Y-195326000D02*
X212852000Y-196596000D01*
X229743000Y-198628000D02*
X229489000Y-198628000D01*
X229489000Y-198628000D02*
X229235000Y-198374000D01*
X229235000Y-198374000D02*
X228727000Y-198374000D01*
X228727000Y-198374000D02*
X228600000Y-198247000D01*
X228600000Y-198247000D02*
X227330000Y-198247000D01*
X227330000Y-198247000D02*
X227203000Y-198120000D01*
X227203000Y-198120000D02*
X227228400Y-198107300D01*
X238887000Y-165989000D02*
X240411000Y-167513000D01*
X240411000Y-167513000D02*
X240411000Y-172466000D01*
X240411000Y-172466000D02*
X240411000Y-172491400D01*
X240411000Y-172491400D02*
X240411000Y-172618400D01*
X240411000Y-172618400D02*
X236093000Y-176911000D01*
X236093000Y-176911000D02*
X236093000Y-193802000D01*
X215392000Y-202184000D02*
X214503000Y-201295000D01*
X214503000Y-201295000D02*
X214503000Y-200533000D01*
X214503000Y-200533000D02*
X214630000Y-200406000D01*
X214630000Y-200406000D02*
X214630000Y-200279000D01*
X214630000Y-200279000D02*
X215265000Y-200279000D01*
X215265000Y-200279000D02*
X215773000Y-199771000D01*
X215773000Y-199771000D02*
X215798400Y-199707500D01*
X219964000Y-158877000D02*
X223774000Y-155067000D01*
X223774000Y-155067000D02*
X223774000Y-151765000D01*
X212471000Y-162306000D02*
X217043000Y-157734000D01*
X217043000Y-157734000D02*
X217043000Y-154889200D01*
X217043000Y-154889200D02*
X217043000Y-154660600D01*
X217043000Y-154660600D02*
X217043000Y-154457400D01*
X217043000Y-154457400D02*
X217424000Y-154305000D01*
X217424000Y-154305000D02*
X217424000Y-154178000D01*
X217424000Y-154178000D02*
X218490800Y-152908000D01*
X218490800Y-152908000D02*
X218516200Y-152450800D01*
X218516200Y-152450800D02*
X218643200Y-152323800D01*
X218643200Y-152323800D02*
X218821000Y-152146000D01*
X218821000Y-152146000D02*
X223520000Y-147447000D01*
X223850200Y-194538600D02*
X225145600Y-194538600D01*
X227203000Y-193294000D02*
X225806000Y-193294000D01*
X225806000Y-193878200D02*
X225806000Y-193294000D01*
X225145600Y-194538600D02*
X225806000Y-193878200D01*
X227228400Y-193306700D02*
X227203000Y-193294000D01*
X225450400Y-192608200D02*
X227126800Y-192608200D01*
X225221800Y-192836800D02*
X225450400Y-192608200D01*
X225221800Y-193040000D02*
X225221800Y-192836800D01*
X224764600Y-193497200D02*
X225221800Y-193040000D01*
X227558600Y-186461400D02*
X227558600Y-188645800D01*
X227584000Y-186436000D02*
X227558600Y-186461400D01*
X227126800Y-192608200D02*
X227228400Y-192506600D01*
X225069400Y-191795400D02*
X225069400Y-191897000D01*
X225069400Y-191795400D02*
X227203000Y-191770000D01*
X225069400Y-191897000D02*
X222453200Y-194513200D01*
X227228400Y-191706500D02*
X227203000Y-191770000D01*
M02*
