G04 #@! TF.FileFunction,Legend,Top*
%FSLAX46Y46*%
G04 Gerber Fmt 4.6, Leading zero omitted, Abs format (unit mm)*
G04 Created by KiCad (PCBNEW 4.0.2-stable) date Tuesday, August 23, 2016 'PMt' 05:42:50 PM*
%MOMM*%
G01*
G04 APERTURE LIST*
%ADD10C,0.020000*%
%ADD11C,0.300000*%
%ADD12C,0.304800*%
%ADD13C,0.203200*%
%ADD14C,0.050000*%
%ADD15C,0.150000*%
%ADD16C,0.200000*%
G04 APERTURE END LIST*
D10*
D11*
X215112600Y-183508600D02*
X215112600Y-184632600D01*
X215112600Y-184632600D02*
X213080600Y-184632600D01*
X213080600Y-184632600D02*
X213080600Y-183508600D01*
X215112600Y-182427600D02*
X215112600Y-181330600D01*
X215112600Y-181330600D02*
X213080600Y-181330600D01*
X213080600Y-181330600D02*
X213080600Y-182427600D01*
X219354400Y-183534000D02*
X219354400Y-184658000D01*
X219354400Y-184658000D02*
X217322400Y-184658000D01*
X217322400Y-184658000D02*
X217322400Y-183534000D01*
X219354400Y-182453000D02*
X219354400Y-181356000D01*
X219354400Y-181356000D02*
X217322400Y-181356000D01*
X217322400Y-181356000D02*
X217322400Y-182453000D01*
X235000800Y-196564200D02*
X235000800Y-197688200D01*
X235000800Y-197688200D02*
X232968800Y-197688200D01*
X232968800Y-197688200D02*
X232968800Y-196564200D01*
X235000800Y-195483200D02*
X235000800Y-194386200D01*
X235000800Y-194386200D02*
X232968800Y-194386200D01*
X232968800Y-194386200D02*
X232968800Y-195483200D01*
X239020400Y-190779400D02*
X237896400Y-190779400D01*
X237896400Y-190779400D02*
X237896400Y-188747400D01*
X237896400Y-188747400D02*
X239020400Y-188747400D01*
X240101400Y-190779400D02*
X241198400Y-190779400D01*
X241198400Y-190779400D02*
X241198400Y-188747400D01*
X241198400Y-188747400D02*
X240101400Y-188747400D01*
X239045800Y-194132200D02*
X237921800Y-194132200D01*
X237921800Y-194132200D02*
X237921800Y-192100200D01*
X237921800Y-192100200D02*
X239045800Y-192100200D01*
X240126800Y-194132200D02*
X241223800Y-194132200D01*
X241223800Y-194132200D02*
X241223800Y-192100200D01*
X241223800Y-192100200D02*
X240126800Y-192100200D01*
X239071200Y-197561200D02*
X237947200Y-197561200D01*
X237947200Y-197561200D02*
X237947200Y-195529200D01*
X237947200Y-195529200D02*
X239071200Y-195529200D01*
X240152200Y-197561200D02*
X241249200Y-197561200D01*
X241249200Y-197561200D02*
X241249200Y-195529200D01*
X241249200Y-195529200D02*
X240152200Y-195529200D01*
X239096600Y-200964800D02*
X237972600Y-200964800D01*
X237972600Y-200964800D02*
X237972600Y-198932800D01*
X237972600Y-198932800D02*
X239096600Y-198932800D01*
X240177600Y-200964800D02*
X241274600Y-200964800D01*
X241274600Y-200964800D02*
X241274600Y-198932800D01*
X241274600Y-198932800D02*
X240177600Y-198932800D01*
X238969600Y-187299600D02*
X237845600Y-187299600D01*
X237845600Y-187299600D02*
X237845600Y-185267600D01*
X237845600Y-185267600D02*
X238969600Y-185267600D01*
X240050600Y-187299600D02*
X241147600Y-187299600D01*
X241147600Y-187299600D02*
X241147600Y-185267600D01*
X241147600Y-185267600D02*
X240050600Y-185267600D01*
D12*
X216509600Y-200710800D02*
X216509600Y-190703200D01*
X216509600Y-190703200D02*
X226517200Y-190703200D01*
X226517200Y-200228200D02*
X226517200Y-190703200D01*
X226034600Y-200710800D02*
X216509600Y-200710800D01*
X226517200Y-200228200D02*
X226034600Y-200710800D01*
D13*
X225958400Y-199517000D02*
G75*
G03X225958400Y-199517000I-635000J0D01*
G01*
D11*
X241909600Y-167233600D02*
X241909600Y-167741600D01*
X241909600Y-174853600D02*
X241909600Y-174345600D01*
X241909600Y-174345600D02*
X242925600Y-174345600D01*
X242925600Y-174345600D02*
X242925600Y-167741600D01*
X242925600Y-167741600D02*
X240893600Y-167741600D01*
X240893600Y-167741600D02*
X240893600Y-174345600D01*
X240893600Y-174345600D02*
X241909600Y-174345600D01*
D14*
X207985600Y-164881800D02*
X221985600Y-164881800D01*
X221985600Y-164881800D02*
X221985600Y-178881800D01*
X221985600Y-178881800D02*
X207985600Y-178881800D01*
X207985600Y-178881800D02*
X207985600Y-164881800D01*
X227035600Y-164881800D02*
X241035600Y-164881800D01*
X241035600Y-164881800D02*
X241035600Y-178881800D01*
X241035600Y-178881800D02*
X227035600Y-178881800D01*
X227035600Y-178881800D02*
X227035600Y-164881800D01*
X221985600Y-159831800D02*
X207985600Y-159831800D01*
X207985600Y-159831800D02*
X207985600Y-145831800D01*
X207985600Y-145831800D02*
X221985600Y-145831800D01*
X221985600Y-145831800D02*
X221985600Y-159831800D01*
X241035600Y-159831800D02*
X227035600Y-159831800D01*
X227035600Y-159831800D02*
X227035600Y-145831800D01*
X227035600Y-145831800D02*
X241035600Y-145831800D01*
X241035600Y-145831800D02*
X241035600Y-159831800D01*
D13*
X223951800Y-170891200D02*
X223951800Y-173939200D01*
X223951800Y-173939200D02*
X221665800Y-173939200D01*
X221665800Y-173939200D02*
X221665800Y-170891200D01*
X221665800Y-170891200D02*
X223951800Y-170891200D01*
X227330000Y-170891200D02*
X227330000Y-173939200D01*
X227330000Y-173939200D02*
X225044000Y-173939200D01*
X225044000Y-173939200D02*
X225044000Y-170891200D01*
X225044000Y-170891200D02*
X227330000Y-170891200D01*
X208305400Y-151968200D02*
X208305400Y-155016200D01*
X208305400Y-155016200D02*
X206019400Y-155016200D01*
X206019400Y-155016200D02*
X206019400Y-151968200D01*
X206019400Y-151968200D02*
X208305400Y-151968200D01*
X243001800Y-151968200D02*
X243001800Y-155016200D01*
X243001800Y-155016200D02*
X240715800Y-155016200D01*
X240715800Y-155016200D02*
X240715800Y-151968200D01*
X240715800Y-151968200D02*
X243001800Y-151968200D01*
D11*
X207238600Y-175133000D02*
X207238600Y-174625000D01*
X207238600Y-167513000D02*
X207238600Y-168021000D01*
X207238600Y-168021000D02*
X206222600Y-168021000D01*
X206222600Y-168021000D02*
X206222600Y-174625000D01*
X206222600Y-174625000D02*
X208254600Y-174625000D01*
X208254600Y-174625000D02*
X208254600Y-168021000D01*
X208254600Y-168021000D02*
X207238600Y-168021000D01*
X208889600Y-162306000D02*
X209397600Y-162306000D01*
X216509600Y-162306000D02*
X216001600Y-162306000D01*
X216001600Y-162306000D02*
X216001600Y-161290000D01*
X216001600Y-161290000D02*
X209397600Y-161290000D01*
X209397600Y-161290000D02*
X209397600Y-163322000D01*
X209397600Y-163322000D02*
X216001600Y-163322000D01*
X216001600Y-163322000D02*
X216001600Y-162306000D01*
X231267000Y-162407600D02*
X231775000Y-162407600D01*
X238887000Y-162407600D02*
X238379000Y-162407600D01*
X238379000Y-162407600D02*
X238379000Y-161391600D01*
X238379000Y-161391600D02*
X231775000Y-161391600D01*
X231775000Y-161391600D02*
X231775000Y-163423600D01*
X231775000Y-163423600D02*
X238379000Y-163423600D01*
X238379000Y-163423600D02*
X238379000Y-162407600D01*
D15*
X216160314Y-182964933D02*
X216198410Y-183003028D01*
X216236505Y-183117314D01*
X216236505Y-183193504D01*
X216198410Y-183307790D01*
X216122219Y-183383981D01*
X216046029Y-183422076D01*
X215893648Y-183460171D01*
X215779362Y-183460171D01*
X215626981Y-183422076D01*
X215550790Y-183383981D01*
X215474600Y-183307790D01*
X215436505Y-183193504D01*
X215436505Y-183117314D01*
X215474600Y-183003028D01*
X215512695Y-182964933D01*
X216236505Y-182203028D02*
X216236505Y-182660171D01*
X216236505Y-182431600D02*
X215436505Y-182431600D01*
X215550790Y-182507790D01*
X215626981Y-182583981D01*
X215665076Y-182660171D01*
X220402114Y-182990333D02*
X220440210Y-183028428D01*
X220478305Y-183142714D01*
X220478305Y-183218904D01*
X220440210Y-183333190D01*
X220364019Y-183409381D01*
X220287829Y-183447476D01*
X220135448Y-183485571D01*
X220021162Y-183485571D01*
X219868781Y-183447476D01*
X219792590Y-183409381D01*
X219716400Y-183333190D01*
X219678305Y-183218904D01*
X219678305Y-183142714D01*
X219716400Y-183028428D01*
X219754495Y-182990333D01*
X219754495Y-182685571D02*
X219716400Y-182647476D01*
X219678305Y-182571285D01*
X219678305Y-182380809D01*
X219716400Y-182304619D01*
X219754495Y-182266523D01*
X219830686Y-182228428D01*
X219906876Y-182228428D01*
X220021162Y-182266523D01*
X220478305Y-182723666D01*
X220478305Y-182228428D01*
X236048514Y-196020533D02*
X236086610Y-196058628D01*
X236124705Y-196172914D01*
X236124705Y-196249104D01*
X236086610Y-196363390D01*
X236010419Y-196439581D01*
X235934229Y-196477676D01*
X235781848Y-196515771D01*
X235667562Y-196515771D01*
X235515181Y-196477676D01*
X235438990Y-196439581D01*
X235362800Y-196363390D01*
X235324705Y-196249104D01*
X235324705Y-196172914D01*
X235362800Y-196058628D01*
X235400895Y-196020533D01*
X235324705Y-195753866D02*
X235324705Y-195258628D01*
X235629467Y-195525295D01*
X235629467Y-195411009D01*
X235667562Y-195334819D01*
X235705657Y-195296723D01*
X235781848Y-195258628D01*
X235972324Y-195258628D01*
X236048514Y-195296723D01*
X236086610Y-195334819D01*
X236124705Y-195411009D01*
X236124705Y-195639581D01*
X236086610Y-195715771D01*
X236048514Y-195753866D01*
X239564067Y-191827114D02*
X239525972Y-191865210D01*
X239411686Y-191903305D01*
X239335496Y-191903305D01*
X239221210Y-191865210D01*
X239145019Y-191789019D01*
X239106924Y-191712829D01*
X239068829Y-191560448D01*
X239068829Y-191446162D01*
X239106924Y-191293781D01*
X239145019Y-191217590D01*
X239221210Y-191141400D01*
X239335496Y-191103305D01*
X239411686Y-191103305D01*
X239525972Y-191141400D01*
X239564067Y-191179495D01*
X240249781Y-191369971D02*
X240249781Y-191903305D01*
X240059305Y-191065210D02*
X239868829Y-191636638D01*
X240364067Y-191636638D01*
X239589467Y-195179914D02*
X239551372Y-195218010D01*
X239437086Y-195256105D01*
X239360896Y-195256105D01*
X239246610Y-195218010D01*
X239170419Y-195141819D01*
X239132324Y-195065629D01*
X239094229Y-194913248D01*
X239094229Y-194798962D01*
X239132324Y-194646581D01*
X239170419Y-194570390D01*
X239246610Y-194494200D01*
X239360896Y-194456105D01*
X239437086Y-194456105D01*
X239551372Y-194494200D01*
X239589467Y-194532295D01*
X240313277Y-194456105D02*
X239932324Y-194456105D01*
X239894229Y-194837057D01*
X239932324Y-194798962D01*
X240008515Y-194760867D01*
X240198991Y-194760867D01*
X240275181Y-194798962D01*
X240313277Y-194837057D01*
X240351372Y-194913248D01*
X240351372Y-195103724D01*
X240313277Y-195179914D01*
X240275181Y-195218010D01*
X240198991Y-195256105D01*
X240008515Y-195256105D01*
X239932324Y-195218010D01*
X239894229Y-195179914D01*
X239614867Y-198608914D02*
X239576772Y-198647010D01*
X239462486Y-198685105D01*
X239386296Y-198685105D01*
X239272010Y-198647010D01*
X239195819Y-198570819D01*
X239157724Y-198494629D01*
X239119629Y-198342248D01*
X239119629Y-198227962D01*
X239157724Y-198075581D01*
X239195819Y-197999390D01*
X239272010Y-197923200D01*
X239386296Y-197885105D01*
X239462486Y-197885105D01*
X239576772Y-197923200D01*
X239614867Y-197961295D01*
X240300581Y-197885105D02*
X240148200Y-197885105D01*
X240072010Y-197923200D01*
X240033915Y-197961295D01*
X239957724Y-198075581D01*
X239919629Y-198227962D01*
X239919629Y-198532724D01*
X239957724Y-198608914D01*
X239995819Y-198647010D01*
X240072010Y-198685105D01*
X240224391Y-198685105D01*
X240300581Y-198647010D01*
X240338677Y-198608914D01*
X240376772Y-198532724D01*
X240376772Y-198342248D01*
X240338677Y-198266057D01*
X240300581Y-198227962D01*
X240224391Y-198189867D01*
X240072010Y-198189867D01*
X239995819Y-198227962D01*
X239957724Y-198266057D01*
X239919629Y-198342248D01*
X239640267Y-202012514D02*
X239602172Y-202050610D01*
X239487886Y-202088705D01*
X239411696Y-202088705D01*
X239297410Y-202050610D01*
X239221219Y-201974419D01*
X239183124Y-201898229D01*
X239145029Y-201745848D01*
X239145029Y-201631562D01*
X239183124Y-201479181D01*
X239221219Y-201402990D01*
X239297410Y-201326800D01*
X239411696Y-201288705D01*
X239487886Y-201288705D01*
X239602172Y-201326800D01*
X239640267Y-201364895D01*
X239906934Y-201288705D02*
X240440267Y-201288705D01*
X240097410Y-202088705D01*
X239513267Y-188347314D02*
X239475172Y-188385410D01*
X239360886Y-188423505D01*
X239284696Y-188423505D01*
X239170410Y-188385410D01*
X239094219Y-188309219D01*
X239056124Y-188233029D01*
X239018029Y-188080648D01*
X239018029Y-187966362D01*
X239056124Y-187813981D01*
X239094219Y-187737790D01*
X239170410Y-187661600D01*
X239284696Y-187623505D01*
X239360886Y-187623505D01*
X239475172Y-187661600D01*
X239513267Y-187699695D01*
X239970410Y-187966362D02*
X239894219Y-187928267D01*
X239856124Y-187890171D01*
X239818029Y-187813981D01*
X239818029Y-187775886D01*
X239856124Y-187699695D01*
X239894219Y-187661600D01*
X239970410Y-187623505D01*
X240122791Y-187623505D01*
X240198981Y-187661600D01*
X240237077Y-187699695D01*
X240275172Y-187775886D01*
X240275172Y-187813981D01*
X240237077Y-187890171D01*
X240198981Y-187928267D01*
X240122791Y-187966362D01*
X239970410Y-187966362D01*
X239894219Y-188004457D01*
X239856124Y-188042552D01*
X239818029Y-188118743D01*
X239818029Y-188271124D01*
X239856124Y-188347314D01*
X239894219Y-188385410D01*
X239970410Y-188423505D01*
X240122791Y-188423505D01*
X240198981Y-188385410D01*
X240237077Y-188347314D01*
X240275172Y-188271124D01*
X240275172Y-188118743D01*
X240237077Y-188042552D01*
X240198981Y-188004457D01*
X240122791Y-187966362D01*
D16*
X220537210Y-199969381D02*
X220537210Y-198969381D01*
X221584829Y-199874143D02*
X221537210Y-199921762D01*
X221394353Y-199969381D01*
X221299115Y-199969381D01*
X221156257Y-199921762D01*
X221061019Y-199826524D01*
X221013400Y-199731286D01*
X220965781Y-199540810D01*
X220965781Y-199397952D01*
X221013400Y-199207476D01*
X221061019Y-199112238D01*
X221156257Y-199017000D01*
X221299115Y-198969381D01*
X221394353Y-198969381D01*
X221537210Y-199017000D01*
X221584829Y-199064619D01*
X222537210Y-199969381D02*
X221965781Y-199969381D01*
X222251495Y-199969381D02*
X222251495Y-198969381D01*
X222156257Y-199112238D01*
X222061019Y-199207476D01*
X221965781Y-199255095D01*
D12*
X211865029Y-176308657D02*
X212082743Y-176381229D01*
X212445600Y-176381229D01*
X212590743Y-176308657D01*
X212663314Y-176236086D01*
X212735886Y-176090943D01*
X212735886Y-175945800D01*
X212663314Y-175800657D01*
X212590743Y-175728086D01*
X212445600Y-175655514D01*
X212155314Y-175582943D01*
X212010172Y-175510371D01*
X211937600Y-175437800D01*
X211865029Y-175292657D01*
X211865029Y-175147514D01*
X211937600Y-175002371D01*
X212010172Y-174929800D01*
X212155314Y-174857229D01*
X212518172Y-174857229D01*
X212735886Y-174929800D01*
X213243886Y-174857229D02*
X213606743Y-176381229D01*
X213897029Y-175292657D01*
X214187315Y-176381229D01*
X214550172Y-174857229D01*
X215421029Y-174857229D02*
X215566172Y-174857229D01*
X215711315Y-174929800D01*
X215783886Y-175002371D01*
X215856457Y-175147514D01*
X215929029Y-175437800D01*
X215929029Y-175800657D01*
X215856457Y-176090943D01*
X215783886Y-176236086D01*
X215711315Y-176308657D01*
X215566172Y-176381229D01*
X215421029Y-176381229D01*
X215275886Y-176308657D01*
X215203315Y-176236086D01*
X215130743Y-176090943D01*
X215058172Y-175800657D01*
X215058172Y-175437800D01*
X215130743Y-175147514D01*
X215203315Y-175002371D01*
X215275886Y-174929800D01*
X215421029Y-174857229D01*
X216582172Y-176236086D02*
X216654744Y-176308657D01*
X216582172Y-176381229D01*
X216509601Y-176308657D01*
X216582172Y-176236086D01*
X216582172Y-176381229D01*
X216582172Y-175437800D02*
X216654744Y-175510371D01*
X216582172Y-175582943D01*
X216509601Y-175510371D01*
X216582172Y-175437800D01*
X216582172Y-175582943D01*
X217598172Y-174857229D02*
X217743315Y-174857229D01*
X217888458Y-174929800D01*
X217961029Y-175002371D01*
X218033600Y-175147514D01*
X218106172Y-175437800D01*
X218106172Y-175800657D01*
X218033600Y-176090943D01*
X217961029Y-176236086D01*
X217888458Y-176308657D01*
X217743315Y-176381229D01*
X217598172Y-176381229D01*
X217453029Y-176308657D01*
X217380458Y-176236086D01*
X217307886Y-176090943D01*
X217235315Y-175800657D01*
X217235315Y-175437800D01*
X217307886Y-175147514D01*
X217380458Y-175002371D01*
X217453029Y-174929800D01*
X217598172Y-174857229D01*
X230915029Y-176308657D02*
X231132743Y-176381229D01*
X231495600Y-176381229D01*
X231640743Y-176308657D01*
X231713314Y-176236086D01*
X231785886Y-176090943D01*
X231785886Y-175945800D01*
X231713314Y-175800657D01*
X231640743Y-175728086D01*
X231495600Y-175655514D01*
X231205314Y-175582943D01*
X231060172Y-175510371D01*
X230987600Y-175437800D01*
X230915029Y-175292657D01*
X230915029Y-175147514D01*
X230987600Y-175002371D01*
X231060172Y-174929800D01*
X231205314Y-174857229D01*
X231568172Y-174857229D01*
X231785886Y-174929800D01*
X232293886Y-174857229D02*
X232656743Y-176381229D01*
X232947029Y-175292657D01*
X233237315Y-176381229D01*
X233600172Y-174857229D01*
X234471029Y-174857229D02*
X234616172Y-174857229D01*
X234761315Y-174929800D01*
X234833886Y-175002371D01*
X234906457Y-175147514D01*
X234979029Y-175437800D01*
X234979029Y-175800657D01*
X234906457Y-176090943D01*
X234833886Y-176236086D01*
X234761315Y-176308657D01*
X234616172Y-176381229D01*
X234471029Y-176381229D01*
X234325886Y-176308657D01*
X234253315Y-176236086D01*
X234180743Y-176090943D01*
X234108172Y-175800657D01*
X234108172Y-175437800D01*
X234180743Y-175147514D01*
X234253315Y-175002371D01*
X234325886Y-174929800D01*
X234471029Y-174857229D01*
X235632172Y-176236086D02*
X235704744Y-176308657D01*
X235632172Y-176381229D01*
X235559601Y-176308657D01*
X235632172Y-176236086D01*
X235632172Y-176381229D01*
X235632172Y-175437800D02*
X235704744Y-175510371D01*
X235632172Y-175582943D01*
X235559601Y-175510371D01*
X235632172Y-175437800D01*
X235632172Y-175582943D01*
X237156172Y-176381229D02*
X236285315Y-176381229D01*
X236720743Y-176381229D02*
X236720743Y-174857229D01*
X236575600Y-175074943D01*
X236430458Y-175220086D01*
X236285315Y-175292657D01*
X211865029Y-149638657D02*
X212082743Y-149711229D01*
X212445600Y-149711229D01*
X212590743Y-149638657D01*
X212663314Y-149566086D01*
X212735886Y-149420943D01*
X212735886Y-149275800D01*
X212663314Y-149130657D01*
X212590743Y-149058086D01*
X212445600Y-148985514D01*
X212155314Y-148912943D01*
X212010172Y-148840371D01*
X211937600Y-148767800D01*
X211865029Y-148622657D01*
X211865029Y-148477514D01*
X211937600Y-148332371D01*
X212010172Y-148259800D01*
X212155314Y-148187229D01*
X212518172Y-148187229D01*
X212735886Y-148259800D01*
X213243886Y-148187229D02*
X213606743Y-149711229D01*
X213897029Y-148622657D01*
X214187315Y-149711229D01*
X214550172Y-148187229D01*
X215929029Y-149711229D02*
X215058172Y-149711229D01*
X215493600Y-149711229D02*
X215493600Y-148187229D01*
X215348457Y-148404943D01*
X215203315Y-148550086D01*
X215058172Y-148622657D01*
X216582172Y-149566086D02*
X216654744Y-149638657D01*
X216582172Y-149711229D01*
X216509601Y-149638657D01*
X216582172Y-149566086D01*
X216582172Y-149711229D01*
X216582172Y-148767800D02*
X216654744Y-148840371D01*
X216582172Y-148912943D01*
X216509601Y-148840371D01*
X216582172Y-148767800D01*
X216582172Y-148912943D01*
X217598172Y-148187229D02*
X217743315Y-148187229D01*
X217888458Y-148259800D01*
X217961029Y-148332371D01*
X218033600Y-148477514D01*
X218106172Y-148767800D01*
X218106172Y-149130657D01*
X218033600Y-149420943D01*
X217961029Y-149566086D01*
X217888458Y-149638657D01*
X217743315Y-149711229D01*
X217598172Y-149711229D01*
X217453029Y-149638657D01*
X217380458Y-149566086D01*
X217307886Y-149420943D01*
X217235315Y-149130657D01*
X217235315Y-148767800D01*
X217307886Y-148477514D01*
X217380458Y-148332371D01*
X217453029Y-148259800D01*
X217598172Y-148187229D01*
X230915029Y-149638657D02*
X231132743Y-149711229D01*
X231495600Y-149711229D01*
X231640743Y-149638657D01*
X231713314Y-149566086D01*
X231785886Y-149420943D01*
X231785886Y-149275800D01*
X231713314Y-149130657D01*
X231640743Y-149058086D01*
X231495600Y-148985514D01*
X231205314Y-148912943D01*
X231060172Y-148840371D01*
X230987600Y-148767800D01*
X230915029Y-148622657D01*
X230915029Y-148477514D01*
X230987600Y-148332371D01*
X231060172Y-148259800D01*
X231205314Y-148187229D01*
X231568172Y-148187229D01*
X231785886Y-148259800D01*
X232293886Y-148187229D02*
X232656743Y-149711229D01*
X232947029Y-148622657D01*
X233237315Y-149711229D01*
X233600172Y-148187229D01*
X234979029Y-149711229D02*
X234108172Y-149711229D01*
X234543600Y-149711229D02*
X234543600Y-148187229D01*
X234398457Y-148404943D01*
X234253315Y-148550086D01*
X234108172Y-148622657D01*
X235632172Y-149566086D02*
X235704744Y-149638657D01*
X235632172Y-149711229D01*
X235559601Y-149638657D01*
X235632172Y-149566086D01*
X235632172Y-149711229D01*
X235632172Y-148767800D02*
X235704744Y-148840371D01*
X235632172Y-148912943D01*
X235559601Y-148840371D01*
X235632172Y-148767800D01*
X235632172Y-148912943D01*
X237156172Y-149711229D02*
X236285315Y-149711229D01*
X236720743Y-149711229D02*
X236720743Y-148187229D01*
X236575600Y-148404943D01*
X236430458Y-148550086D01*
X236285315Y-148622657D01*
D13*
X223383324Y-174628629D02*
X222113324Y-174628629D01*
X222113324Y-174265772D01*
X222173800Y-174048057D01*
X222294752Y-173902915D01*
X222415705Y-173830343D01*
X222657610Y-173757772D01*
X222839038Y-173757772D01*
X223080943Y-173830343D01*
X223201895Y-173902915D01*
X223322848Y-174048057D01*
X223383324Y-174265772D01*
X223383324Y-174628629D01*
X222113324Y-172814343D02*
X222113324Y-172669200D01*
X222173800Y-172524057D01*
X222234276Y-172451486D01*
X222355229Y-172378915D01*
X222597133Y-172306343D01*
X222899514Y-172306343D01*
X223141419Y-172378915D01*
X223262371Y-172451486D01*
X223322848Y-172524057D01*
X223383324Y-172669200D01*
X223383324Y-172814343D01*
X223322848Y-172959486D01*
X223262371Y-173032057D01*
X223141419Y-173104629D01*
X222899514Y-173177200D01*
X222597133Y-173177200D01*
X222355229Y-173104629D01*
X222234276Y-173032057D01*
X222173800Y-172959486D01*
X222113324Y-172814343D01*
X223262371Y-171653200D02*
X223322848Y-171580628D01*
X223383324Y-171653200D01*
X223322848Y-171725771D01*
X223262371Y-171653200D01*
X223383324Y-171653200D01*
X222597133Y-171653200D02*
X222657610Y-171580628D01*
X222718086Y-171653200D01*
X222657610Y-171725771D01*
X222597133Y-171653200D01*
X222718086Y-171653200D01*
X222113324Y-170637200D02*
X222113324Y-170492057D01*
X222173800Y-170346914D01*
X222234276Y-170274343D01*
X222355229Y-170201772D01*
X222597133Y-170129200D01*
X222899514Y-170129200D01*
X223141419Y-170201772D01*
X223262371Y-170274343D01*
X223322848Y-170346914D01*
X223383324Y-170492057D01*
X223383324Y-170637200D01*
X223322848Y-170782343D01*
X223262371Y-170854914D01*
X223141419Y-170927486D01*
X222899514Y-171000057D01*
X222597133Y-171000057D01*
X222355229Y-170927486D01*
X222234276Y-170854914D01*
X222173800Y-170782343D01*
X222113324Y-170637200D01*
X226761524Y-174628629D02*
X225491524Y-174628629D01*
X225491524Y-174265772D01*
X225552000Y-174048057D01*
X225672952Y-173902915D01*
X225793905Y-173830343D01*
X226035810Y-173757772D01*
X226217238Y-173757772D01*
X226459143Y-173830343D01*
X226580095Y-173902915D01*
X226701048Y-174048057D01*
X226761524Y-174265772D01*
X226761524Y-174628629D01*
X225491524Y-172814343D02*
X225491524Y-172669200D01*
X225552000Y-172524057D01*
X225612476Y-172451486D01*
X225733429Y-172378915D01*
X225975333Y-172306343D01*
X226277714Y-172306343D01*
X226519619Y-172378915D01*
X226640571Y-172451486D01*
X226701048Y-172524057D01*
X226761524Y-172669200D01*
X226761524Y-172814343D01*
X226701048Y-172959486D01*
X226640571Y-173032057D01*
X226519619Y-173104629D01*
X226277714Y-173177200D01*
X225975333Y-173177200D01*
X225733429Y-173104629D01*
X225612476Y-173032057D01*
X225552000Y-172959486D01*
X225491524Y-172814343D01*
X226640571Y-171653200D02*
X226701048Y-171580628D01*
X226761524Y-171653200D01*
X226701048Y-171725771D01*
X226640571Y-171653200D01*
X226761524Y-171653200D01*
X225975333Y-171653200D02*
X226035810Y-171580628D01*
X226096286Y-171653200D01*
X226035810Y-171725771D01*
X225975333Y-171653200D01*
X226096286Y-171653200D01*
X226761524Y-170129200D02*
X226761524Y-171000057D01*
X226761524Y-170564629D02*
X225491524Y-170564629D01*
X225672952Y-170709772D01*
X225793905Y-170854914D01*
X225854381Y-171000057D01*
X207736924Y-155705629D02*
X206466924Y-155705629D01*
X206466924Y-155342772D01*
X206527400Y-155125057D01*
X206648352Y-154979915D01*
X206769305Y-154907343D01*
X207011210Y-154834772D01*
X207192638Y-154834772D01*
X207434543Y-154907343D01*
X207555495Y-154979915D01*
X207676448Y-155125057D01*
X207736924Y-155342772D01*
X207736924Y-155705629D01*
X207736924Y-153383343D02*
X207736924Y-154254200D01*
X207736924Y-153818772D02*
X206466924Y-153818772D01*
X206648352Y-153963915D01*
X206769305Y-154109057D01*
X206829781Y-154254200D01*
X207615971Y-152730200D02*
X207676448Y-152657628D01*
X207736924Y-152730200D01*
X207676448Y-152802771D01*
X207615971Y-152730200D01*
X207736924Y-152730200D01*
X206950733Y-152730200D02*
X207011210Y-152657628D01*
X207071686Y-152730200D01*
X207011210Y-152802771D01*
X206950733Y-152730200D01*
X207071686Y-152730200D01*
X206466924Y-151714200D02*
X206466924Y-151569057D01*
X206527400Y-151423914D01*
X206587876Y-151351343D01*
X206708829Y-151278772D01*
X206950733Y-151206200D01*
X207253114Y-151206200D01*
X207495019Y-151278772D01*
X207615971Y-151351343D01*
X207676448Y-151423914D01*
X207736924Y-151569057D01*
X207736924Y-151714200D01*
X207676448Y-151859343D01*
X207615971Y-151931914D01*
X207495019Y-152004486D01*
X207253114Y-152077057D01*
X206950733Y-152077057D01*
X206708829Y-152004486D01*
X206587876Y-151931914D01*
X206527400Y-151859343D01*
X206466924Y-151714200D01*
X242433324Y-155705629D02*
X241163324Y-155705629D01*
X241163324Y-155342772D01*
X241223800Y-155125057D01*
X241344752Y-154979915D01*
X241465705Y-154907343D01*
X241707610Y-154834772D01*
X241889038Y-154834772D01*
X242130943Y-154907343D01*
X242251895Y-154979915D01*
X242372848Y-155125057D01*
X242433324Y-155342772D01*
X242433324Y-155705629D01*
X242433324Y-153383343D02*
X242433324Y-154254200D01*
X242433324Y-153818772D02*
X241163324Y-153818772D01*
X241344752Y-153963915D01*
X241465705Y-154109057D01*
X241526181Y-154254200D01*
X242312371Y-152730200D02*
X242372848Y-152657628D01*
X242433324Y-152730200D01*
X242372848Y-152802771D01*
X242312371Y-152730200D01*
X242433324Y-152730200D01*
X241647133Y-152730200D02*
X241707610Y-152657628D01*
X241768086Y-152730200D01*
X241707610Y-152802771D01*
X241647133Y-152730200D01*
X241768086Y-152730200D01*
X242433324Y-151206200D02*
X242433324Y-152077057D01*
X242433324Y-151641629D02*
X241163324Y-151641629D01*
X241344752Y-151786772D01*
X241465705Y-151931914D01*
X241526181Y-152077057D01*
M02*
