G04 #@! TF.FileFunction,Other,ECO2*
%FSLAX46Y46*%
G04 Gerber Fmt 4.6, Leading zero omitted, Abs format (unit mm)*
G04 Created by KiCad (PCBNEW 4.0.2-stable) date Tuesday, August 30, 2016 'PMt' 10:48:20 PM*
%MOMM*%
G01*
G04 APERTURE LIST*
%ADD10C,0.020000*%
%ADD11C,0.250000*%
%ADD12C,0.100000*%
G04 APERTURE END LIST*
D10*
D11*
X205476885Y-199574638D02*
X206048314Y-199574638D01*
X205762599Y-201606638D02*
X205762599Y-199574638D01*
X206762600Y-201509876D02*
X206667362Y-201606638D01*
X206476885Y-201606638D01*
X206381647Y-201509876D01*
X206334028Y-201316352D01*
X206334028Y-200542257D01*
X206381647Y-200348733D01*
X206476885Y-200251971D01*
X206667362Y-200251971D01*
X206762600Y-200348733D01*
X206810219Y-200542257D01*
X206810219Y-200735781D01*
X206334028Y-200929305D01*
X207191171Y-201509876D02*
X207286409Y-201606638D01*
X207476885Y-201606638D01*
X207572124Y-201509876D01*
X207619743Y-201316352D01*
X207619743Y-201219590D01*
X207572124Y-201026067D01*
X207476885Y-200929305D01*
X207334028Y-200929305D01*
X207238790Y-200832543D01*
X207191171Y-200639019D01*
X207191171Y-200542257D01*
X207238790Y-200348733D01*
X207334028Y-200251971D01*
X207476885Y-200251971D01*
X207572124Y-200348733D01*
X207905457Y-200251971D02*
X208286409Y-200251971D01*
X208048314Y-199574638D02*
X208048314Y-201316352D01*
X208095933Y-201509876D01*
X208191171Y-201606638D01*
X208286409Y-201606638D01*
X209714982Y-200542257D02*
X209857839Y-200639019D01*
X209905458Y-200735781D01*
X209953077Y-200929305D01*
X209953077Y-201219590D01*
X209905458Y-201413114D01*
X209857839Y-201509876D01*
X209762601Y-201606638D01*
X209381648Y-201606638D01*
X209381648Y-199574638D01*
X209714982Y-199574638D01*
X209810220Y-199671400D01*
X209857839Y-199768162D01*
X209905458Y-199961686D01*
X209905458Y-200155210D01*
X209857839Y-200348733D01*
X209810220Y-200445495D01*
X209714982Y-200542257D01*
X209381648Y-200542257D01*
X210953077Y-201606638D02*
X210619743Y-200639019D01*
X210381648Y-201606638D02*
X210381648Y-199574638D01*
X210762601Y-199574638D01*
X210857839Y-199671400D01*
X210905458Y-199768162D01*
X210953077Y-199961686D01*
X210953077Y-200251971D01*
X210905458Y-200445495D01*
X210857839Y-200542257D01*
X210762601Y-200639019D01*
X210381648Y-200639019D01*
X211381648Y-201606638D02*
X211381648Y-199574638D01*
X211619743Y-199574638D01*
X211762601Y-199671400D01*
X211857839Y-199864924D01*
X211905458Y-200058448D01*
X211953077Y-200445495D01*
X211953077Y-200735781D01*
X211905458Y-201122829D01*
X211857839Y-201316352D01*
X211762601Y-201509876D01*
X211619743Y-201606638D01*
X211381648Y-201606638D01*
X207334029Y-204701438D02*
X207000695Y-203733819D01*
X206762600Y-204701438D02*
X206762600Y-202669438D01*
X207143553Y-202669438D01*
X207238791Y-202766200D01*
X207286410Y-202862962D01*
X207334029Y-203056486D01*
X207334029Y-203346771D01*
X207286410Y-203540295D01*
X207238791Y-203637057D01*
X207143553Y-203733819D01*
X206762600Y-203733819D01*
X207762600Y-203637057D02*
X208095934Y-203637057D01*
X208238791Y-204701438D02*
X207762600Y-204701438D01*
X207762600Y-202669438D01*
X208238791Y-202669438D01*
X208524505Y-202669438D02*
X208857838Y-204701438D01*
X209191172Y-202669438D01*
X210810220Y-204701438D02*
X210238791Y-204701438D01*
X210524505Y-204701438D02*
X210524505Y-202669438D01*
X210429267Y-202959724D01*
X210334029Y-203153248D01*
X210238791Y-203250010D01*
D12*
X227027300Y-159834300D02*
X227027300Y-145833400D01*
X241028000Y-159834300D02*
X227027300Y-159834300D01*
X241028000Y-145833400D02*
X241028000Y-159834300D01*
X227027300Y-145833400D02*
X241028000Y-145833400D01*
X207977270Y-159834300D02*
X207977270Y-145833400D01*
X221978200Y-159834300D02*
X207977270Y-159834300D01*
X221978200Y-145833400D02*
X221978200Y-159834300D01*
X207977270Y-145833400D02*
X221978200Y-145833400D01*
X227027300Y-178884320D02*
X227027300Y-164883500D01*
X241028000Y-178884320D02*
X227027300Y-178884320D01*
X241028000Y-164883500D02*
X241028000Y-178884320D01*
X227027300Y-164883500D02*
X241028000Y-164883500D01*
X207977270Y-178884320D02*
X207977270Y-164883500D01*
X221978200Y-178884320D02*
X207977270Y-178884320D01*
X221978200Y-164883500D02*
X221978200Y-178884320D01*
X207977270Y-164883500D02*
X221978200Y-164883500D01*
M02*
