G04 #@! TF.FileFunction,Soldermask,Bot*
%FSLAX46Y46*%
G04 Gerber Fmt 4.6, Leading zero omitted, Abs format (unit mm)*
G04 Created by KiCad (PCBNEW 4.0.2-stable) date Tuesday, August 30, 2016 'PMt' 10:48:20 PM*
%MOMM*%
G01*
G04 APERTURE LIST*
%ADD10C,0.020000*%
%ADD11R,2.557780X4.508500*%
%ADD12R,2.557780X4.008120*%
%ADD13O,1.008400X3.008000*%
%ADD14C,1.408000*%
%ADD15R,1.508000X3.608000*%
%ADD16C,2.009140*%
%ADD17C,4.488180*%
%ADD18C,3.007360*%
%ADD19C,2.207260*%
%ADD20C,2.159000*%
%ADD21R,2.159000X2.159000*%
%ADD22C,2.308000*%
G04 APERTURE END LIST*
D10*
D11*
X229181660Y-145381980D03*
X219331540Y-145381980D03*
D12*
X219331540Y-149633940D03*
X229181660Y-149633940D03*
D13*
X224256600Y-149633900D03*
X223456500Y-149633900D03*
X222656400Y-149633900D03*
X225056700Y-149633900D03*
X225856800Y-149633900D03*
D14*
X222056600Y-147283000D03*
X226456600Y-147283000D03*
D15*
X226461300Y-163758800D03*
X222460800Y-154858800D03*
X226458800Y-154858800D03*
X222460800Y-163758800D03*
D16*
X229745540Y-183108600D03*
X224863660Y-183108600D03*
D17*
X214985600Y-171881800D03*
D18*
X217525600Y-166801800D03*
X211175600Y-169341800D03*
D19*
X209905600Y-171881800D03*
X220065600Y-171881800D03*
D17*
X234035600Y-171881800D03*
D18*
X236575600Y-166801800D03*
X230225600Y-169341800D03*
D19*
X228955600Y-171881800D03*
X239115600Y-171881800D03*
D17*
X214985600Y-152831800D03*
D18*
X212445600Y-157911800D03*
X218795600Y-155371800D03*
D19*
X220065600Y-152831800D03*
X209905600Y-152831800D03*
D17*
X234035600Y-152831800D03*
D18*
X231495600Y-157911800D03*
X237845600Y-155371800D03*
D19*
X239115600Y-152831800D03*
X228955600Y-152831800D03*
D20*
X222808800Y-168605200D03*
D21*
X222808800Y-176225200D03*
D20*
X226187000Y-168605200D03*
D21*
X226187000Y-176225200D03*
D20*
X207162400Y-149682200D03*
D21*
X207162400Y-157302200D03*
D20*
X241858800Y-149682200D03*
D21*
X241858800Y-157302200D03*
D22*
X208013300Y-195440300D03*
X208013300Y-186829700D03*
X208013300Y-192570100D03*
X207987900Y-183959500D03*
X208013300Y-189699900D03*
X207987900Y-181089300D03*
M02*
