G04 #@! TF.FileFunction,Legend,Bot*
%FSLAX46Y46*%
G04 Gerber Fmt 4.6, Leading zero omitted, Abs format (unit mm)*
G04 Created by KiCad (PCBNEW 4.0.2-stable) date Tuesday, August 23, 2016 'AMt' 11:48:37 AM*
%MOMM*%
G01*
G04 APERTURE LIST*
%ADD10C,0.020000*%
%ADD11C,0.200660*%
%ADD12C,0.381000*%
%ADD13C,0.150000*%
%ADD14C,0.304800*%
G04 APERTURE END LIST*
D10*
D11*
X226415600Y-149733000D02*
X228066600Y-149733000D01*
X228066600Y-149733000D02*
X228066600Y-141351000D01*
X228066600Y-141351000D02*
X220446600Y-141351000D01*
X220446600Y-141351000D02*
X220446600Y-149733000D01*
X220446600Y-149733000D02*
X222224600Y-149733000D01*
X225960940Y-159308800D02*
G75*
G03X225960940Y-159308800I-1501140J0D01*
G01*
D12*
X221361000Y-162107880D02*
X221361000Y-156509720D01*
X227558600Y-162107880D02*
X227558600Y-156509720D01*
X227459540Y-162407600D02*
X227459540Y-156210000D01*
X227459540Y-156210000D02*
X221460060Y-156210000D01*
X221460060Y-156210000D02*
X221460060Y-162407600D01*
X221460060Y-162407600D02*
X227459540Y-162407600D01*
D13*
X222605600Y-182107840D02*
X222404940Y-182509160D01*
X222404940Y-182509160D02*
X222303340Y-183108600D01*
X222303340Y-183108600D02*
X222404940Y-183608980D01*
X222404940Y-183608980D02*
X222803720Y-184307480D01*
X222803720Y-184307480D02*
X223405700Y-184708800D01*
X223405700Y-184708800D02*
X224005140Y-184909460D01*
X224005140Y-184909460D02*
X230604060Y-184909460D01*
X230604060Y-184909460D02*
X231305100Y-184708800D01*
X231305100Y-184708800D02*
X231703880Y-184409080D01*
X231703880Y-184409080D02*
X232105200Y-183908700D01*
X232105200Y-183908700D02*
X232305860Y-183309260D01*
X232305860Y-183309260D02*
X232305860Y-182808880D01*
X232305860Y-182808880D02*
X232105200Y-182308500D01*
X232105200Y-182308500D02*
X231604820Y-181709060D01*
X231604820Y-181709060D02*
X231104440Y-181409340D01*
X231104440Y-181409340D02*
X230604060Y-181307740D01*
X230505000Y-181307740D02*
X223903540Y-181307740D01*
X223903540Y-181307740D02*
X223504760Y-181409340D01*
X223504760Y-181409340D02*
X223004380Y-181709060D01*
X223004380Y-181709060D02*
X222504000Y-182209440D01*
X230494840Y-180779420D02*
X230954580Y-180827680D01*
X230954580Y-180827680D02*
X231353360Y-180939440D01*
X231353360Y-180939440D02*
X231785160Y-181157880D01*
X231785160Y-181157880D02*
X232074720Y-181389020D01*
X232074720Y-181389020D02*
X232404920Y-181739540D01*
X232404920Y-181739540D02*
X232694480Y-182278020D01*
X232694480Y-182278020D02*
X232824020Y-182877460D01*
X232824020Y-182877460D02*
X232824020Y-183388000D01*
X232824020Y-183388000D02*
X232653840Y-184089040D01*
X232653840Y-184089040D02*
X232255060Y-184678320D01*
X232255060Y-184678320D02*
X231795320Y-185049160D01*
X231795320Y-185049160D02*
X231373680Y-185257440D01*
X231373680Y-185257440D02*
X230924100Y-185417460D01*
X230924100Y-185417460D02*
X230484680Y-185447940D01*
X223144080Y-185229500D02*
X222765620Y-185008520D01*
X222765620Y-185008520D02*
X222445580Y-184729120D01*
X222445580Y-184729120D02*
X222194120Y-184398920D01*
X222194120Y-184398920D02*
X221894400Y-183847740D01*
X221894400Y-183847740D02*
X221785180Y-183377840D01*
X221785180Y-183377840D02*
X221764860Y-182918100D01*
X221764860Y-182918100D02*
X221853760Y-182458360D01*
X221853760Y-182458360D02*
X222044260Y-182008780D01*
X222044260Y-182008780D02*
X222404940Y-181538880D01*
X222404940Y-181538880D02*
X222755460Y-181218840D01*
X222755460Y-181218840D02*
X223144080Y-180987700D01*
X223144080Y-180987700D02*
X223573340Y-180848000D01*
X223573340Y-180848000D02*
X224015300Y-180779420D01*
X230505000Y-185437780D02*
X224053400Y-185437780D01*
X224053400Y-185437780D02*
X223634300Y-185399680D01*
X223634300Y-185399680D02*
X223144080Y-185229500D01*
X230505000Y-180779420D02*
X224053400Y-180779420D01*
D14*
X224764600Y-139173429D02*
X224764600Y-140262000D01*
X224837172Y-140479714D01*
X224982315Y-140624857D01*
X225200029Y-140697429D01*
X225345172Y-140697429D01*
X223240600Y-140697429D02*
X224111457Y-140697429D01*
X223676029Y-140697429D02*
X223676029Y-139173429D01*
X223821172Y-139391143D01*
X223966314Y-139536286D01*
X224111457Y-139608857D01*
X229676657Y-158147657D02*
X229749229Y-158365371D01*
X229749229Y-158728228D01*
X229676657Y-158873371D01*
X229604086Y-158945942D01*
X229458943Y-159018514D01*
X229313800Y-159018514D01*
X229168657Y-158945942D01*
X229096086Y-158873371D01*
X229023514Y-158728228D01*
X228950943Y-158437942D01*
X228878371Y-158292800D01*
X228805800Y-158220228D01*
X228660657Y-158147657D01*
X228515514Y-158147657D01*
X228370371Y-158220228D01*
X228297800Y-158292800D01*
X228225229Y-158437942D01*
X228225229Y-158800800D01*
X228297800Y-159018514D01*
X228225229Y-159961943D02*
X228225229Y-160107086D01*
X228297800Y-160252229D01*
X228370371Y-160324800D01*
X228515514Y-160397371D01*
X228805800Y-160469943D01*
X229168657Y-160469943D01*
X229458943Y-160397371D01*
X229604086Y-160324800D01*
X229676657Y-160252229D01*
X229749229Y-160107086D01*
X229749229Y-159961943D01*
X229676657Y-159816800D01*
X229604086Y-159744229D01*
X229458943Y-159671657D01*
X229168657Y-159599086D01*
X228805800Y-159599086D01*
X228515514Y-159671657D01*
X228370371Y-159744229D01*
X228297800Y-159816800D01*
X228225229Y-159961943D01*
D13*
X228114124Y-178750981D02*
X227447457Y-179750981D01*
X227447457Y-178750981D02*
X228114124Y-179750981D01*
X226542695Y-179750981D02*
X227114124Y-179750981D01*
X226828410Y-179750981D02*
X226828410Y-178750981D01*
X226923648Y-178893838D01*
X227018886Y-178989076D01*
X227114124Y-179036695D01*
X206515443Y-194776015D02*
X205615443Y-194776015D01*
X205615443Y-195118872D01*
X205658300Y-195204586D01*
X205701157Y-195247443D01*
X205786871Y-195290300D01*
X205915443Y-195290300D01*
X206001157Y-195247443D01*
X206044014Y-195204586D01*
X206086871Y-195118872D01*
X206086871Y-194776015D01*
X206515443Y-196147443D02*
X206515443Y-195633158D01*
X206515443Y-195890300D02*
X205615443Y-195890300D01*
X205744014Y-195804586D01*
X205829729Y-195718872D01*
X205872586Y-195633158D01*
X206515443Y-186165415D02*
X205615443Y-186165415D01*
X205615443Y-186508272D01*
X205658300Y-186593986D01*
X205701157Y-186636843D01*
X205786871Y-186679700D01*
X205915443Y-186679700D01*
X206001157Y-186636843D01*
X206044014Y-186593986D01*
X206086871Y-186508272D01*
X206086871Y-186165415D01*
X205701157Y-187022558D02*
X205658300Y-187065415D01*
X205615443Y-187151129D01*
X205615443Y-187365415D01*
X205658300Y-187451129D01*
X205701157Y-187493986D01*
X205786871Y-187536843D01*
X205872586Y-187536843D01*
X206001157Y-187493986D01*
X206515443Y-186979700D01*
X206515443Y-187536843D01*
X206515443Y-191905815D02*
X205615443Y-191905815D01*
X205615443Y-192248672D01*
X205658300Y-192334386D01*
X205701157Y-192377243D01*
X205786871Y-192420100D01*
X205915443Y-192420100D01*
X206001157Y-192377243D01*
X206044014Y-192334386D01*
X206086871Y-192248672D01*
X206086871Y-191905815D01*
X205615443Y-192720100D02*
X205615443Y-193277243D01*
X205958300Y-192977243D01*
X205958300Y-193105815D01*
X206001157Y-193191529D01*
X206044014Y-193234386D01*
X206129729Y-193277243D01*
X206344014Y-193277243D01*
X206429729Y-193234386D01*
X206472586Y-193191529D01*
X206515443Y-193105815D01*
X206515443Y-192848672D01*
X206472586Y-192762958D01*
X206429729Y-192720100D01*
X206490043Y-183295215D02*
X205590043Y-183295215D01*
X205590043Y-183638072D01*
X205632900Y-183723786D01*
X205675757Y-183766643D01*
X205761471Y-183809500D01*
X205890043Y-183809500D01*
X205975757Y-183766643D01*
X206018614Y-183723786D01*
X206061471Y-183638072D01*
X206061471Y-183295215D01*
X205890043Y-184580929D02*
X206490043Y-184580929D01*
X205547186Y-184366643D02*
X206190043Y-184152358D01*
X206190043Y-184709500D01*
X206515443Y-189035615D02*
X205615443Y-189035615D01*
X205615443Y-189378472D01*
X205658300Y-189464186D01*
X205701157Y-189507043D01*
X205786871Y-189549900D01*
X205915443Y-189549900D01*
X206001157Y-189507043D01*
X206044014Y-189464186D01*
X206086871Y-189378472D01*
X206086871Y-189035615D01*
X205615443Y-190364186D02*
X205615443Y-189935615D01*
X206044014Y-189892758D01*
X206001157Y-189935615D01*
X205958300Y-190021329D01*
X205958300Y-190235615D01*
X206001157Y-190321329D01*
X206044014Y-190364186D01*
X206129729Y-190407043D01*
X206344014Y-190407043D01*
X206429729Y-190364186D01*
X206472586Y-190321329D01*
X206515443Y-190235615D01*
X206515443Y-190021329D01*
X206472586Y-189935615D01*
X206429729Y-189892758D01*
X206490043Y-180425015D02*
X205590043Y-180425015D01*
X205590043Y-180767872D01*
X205632900Y-180853586D01*
X205675757Y-180896443D01*
X205761471Y-180939300D01*
X205890043Y-180939300D01*
X205975757Y-180896443D01*
X206018614Y-180853586D01*
X206061471Y-180767872D01*
X206061471Y-180425015D01*
X205590043Y-181710729D02*
X205590043Y-181539300D01*
X205632900Y-181453586D01*
X205675757Y-181410729D01*
X205804329Y-181325015D01*
X205975757Y-181282158D01*
X206318614Y-181282158D01*
X206404329Y-181325015D01*
X206447186Y-181367872D01*
X206490043Y-181453586D01*
X206490043Y-181625015D01*
X206447186Y-181710729D01*
X206404329Y-181753586D01*
X206318614Y-181796443D01*
X206104329Y-181796443D01*
X206018614Y-181753586D01*
X205975757Y-181710729D01*
X205932900Y-181625015D01*
X205932900Y-181453586D01*
X205975757Y-181367872D01*
X206018614Y-181325015D01*
X206104329Y-181282158D01*
M02*
