M48
INCH,TZ
T1C0.016
T2C0.032
T3C0.035
T4C0.039
T5C0.059
%
G90
G05
T1
X8.159Y-6.595
X8.335Y-7.384
X8.35Y-7.17
X8.365Y-6.39
X8.38Y-7.625
X8.38Y-7.74
X8.393Y-6.464
X8.425Y-7.845
X8.429Y-7.085
X8.48Y-7.96
X8.495Y-7.915
X8.562Y-6.264
X8.57Y-7.555
X8.57Y-7.64
X8.59Y-7.855
X8.604Y-7.752
X8.605Y-6.865
X8.62Y-8.005
X8.647Y-7.702
X8.66Y-6.255
X8.67Y-6.87
X8.675Y-7.21
X8.758Y-7.658
X8.76Y-7.555
X8.762Y-7.123
X8.767Y-7.376
X8.775Y-6.765
X8.8Y-5.805
X8.81Y-5.975
X8.81Y-6.565
X8.81Y-7.855
X8.813Y-7.659
X8.815Y-6.5
X8.818Y-7.39
X8.82Y-8.005
X8.835Y-7.745
X8.843Y-7.058
X8.849Y-7.618
X8.86Y-6.445
X8.865Y-7.334
X8.9Y-5.975
X8.9Y-6.35
X8.92Y-7.465
X8.959Y-7.427
X8.96Y-7.34
X8.975Y-6.555
X8.99Y-7.086
X9.038Y-6.491
X9.043Y-7.138
X9.045Y-7.535
X9.045Y-7.82
X9.052Y-7.679
X9.053Y-7.735
X9.065Y-6.07
X9.071Y-7.625
X9.082Y-6.3589
X9.1Y-7.54
X9.13Y-7.68
X9.13Y-7.735
X9.135Y-7.928
X9.145Y-6.555
X9.145Y-7.43
X9.21Y-6.16
X9.287Y-7.218
X9.294Y-6.236
X9.295Y-7.63
X9.345Y-6.01
X9.345Y-6.775
X9.387Y-7.166
X9.405Y-6.535
X9.47Y-6.305
X9.478Y-8.048
T2
X8.8529Y-7.209
X9.0451Y-7.209
T3
X8.1885Y-7.1295
X8.1885Y-7.2425
X8.1895Y-7.3555
X8.1895Y-7.4685
X8.1895Y-7.5815
X8.1895Y-7.6945
T4
X8.156Y-5.893
X8.156Y-6.193
X8.772Y-6.638
X8.772Y-6.938
X8.905Y-6.638
X8.905Y-6.938
X9.522Y-5.893
X9.522Y-6.193
T5
X8.314Y-6.667
X8.364Y-6.217
X8.564Y-6.567
X8.614Y-6.117
X9.064Y-6.667
X9.114Y-6.217
X9.314Y-6.567
X9.364Y-6.117
T0
M30
