  0
SECTION
  2
HEADER
  9
$ACADVER
  1
AC1009
  9
$EXTMIN
 10
0.0
 20
0.0
 30
0.0
  9
$EXTMAX
 10
1000.0
 20
1000.0
 30
0.0
  9
$FILLMODE
 70
 0
  9
$SPLFRAME
 70
 1
  0
ENDSEC
  0
SECTION
  2
TABLES
  0
TABLE
  2
LAYER
 70
1
  0
LAYER
  2
0
 70
     0
 62
     7
  6
CONTINUOUS
  0
ENDTAB
  0
ENDSEC
  0
SECTION
  2
ENTITIES
  0
LINE
  8
0
 62
     0
 10
330.944
 20
115.343
 30
0.0
 11
331.178
 21
115.334
 31
0.0
  0
LINE
  8
0
 62
     0
 10
331.178
 20
115.334
 30
0.0
 11
331.413
 21
115.307
 31
0.0
  0
LINE
  8
0
 62
     0
 10
331.413
 20
115.307
 30
0.0
 11
331.644
 21
115.261
 31
0.0
  0
LINE
  8
0
 62
     0
 10
331.644
 20
115.261
 30
0.0
 11
331.87
 21
115.197
 31
0.0
  0
LINE
  8
0
 62
     0
 10
331.87
 20
115.197
 30
0.0
 11
332.092
 21
115.116
 31
0.0
  0
LINE
  8
0
 62
     0
 10
332.092
 20
115.116
 30
0.0
 11
332.304
 21
115.018
 31
0.0
  0
LINE
  8
0
 62
     0
 10
332.304
 20
115.018
 30
0.0
 11
332.511
 21
114.901
 31
0.0
  0
LINE
  8
0
 62
     0
 10
332.511
 20
114.901
 30
0.0
 11
332.706
 21
114.771
 31
0.0
  0
LINE
  8
0
 62
     0
 10
332.706
 20
114.771
 30
0.0
 11
332.891
 21
114.625
 31
0.0
  0
LINE
  8
0
 62
     0
 10
332.891
 20
114.625
 30
0.0
 11
333.065
 21
114.465
 31
0.0
  0
LINE
  8
0
 62
     0
 10
333.065
 20
114.465
 30
0.0
 11
333.225
 21
114.292
 31
0.0
  0
LINE
  8
0
 62
     0
 10
333.225
 20
114.292
 30
0.0
 11
333.371
 21
114.107
 31
0.0
  0
LINE
  8
0
 62
     0
 10
333.371
 20
114.107
 30
0.0
 11
333.5
 21
113.913
 31
0.0
  0
LINE
  8
0
 62
     0
 10
333.5
 20
113.913
 30
0.0
 11
333.616
 21
113.705
 31
0.0
  0
LINE
  8
0
 62
     0
 10
333.616
 20
113.705
 30
0.0
 11
333.715
 21
113.492
 31
0.0
  0
LINE
  8
0
 62
     0
 10
333.715
 20
113.492
 30
0.0
 11
333.797
 21
113.271
 31
0.0
  0
LINE
  8
0
 62
     0
 10
333.797
 20
113.271
 30
0.0
 11
333.861
 21
113.046
 31
0.0
  0
LINE
  8
0
 62
     0
 10
333.861
 20
113.046
 30
0.0
 11
333.907
 21
112.813
 31
0.0
  0
LINE
  8
0
 62
     0
 10
333.907
 20
112.813
 30
0.0
 11
333.933
 21
112.579
 31
0.0
  0
LINE
  8
0
 62
     0
 10
333.933
 20
112.579
 30
0.0
 11
333.944
 21
112.343
 31
0.0
  0
LINE
  8
0
 62
     0
 10
333.944
 20
112.343
 30
0.0
 11
333.944
 21
3.0937
 31
0.0
  0
LINE
  8
0
 62
     0
 10
333.944
 20
3.0937
 30
0.0
 11
333.933
 21
2.85805
 31
0.0
  0
LINE
  8
0
 62
     0
 10
333.933
 20
2.85805
 30
0.0
 11
333.907
 21
2.62378
 31
0.0
  0
LINE
  8
0
 62
     0
 10
333.907
 20
2.62378
 30
0.0
 11
333.861
 21
2.39365
 31
0.0
  0
LINE
  8
0
 62
     0
 10
333.861
 20
2.39365
 30
0.0
 11
333.797
 21
2.16628
 31
0.0
  0
LINE
  8
0
 62
     0
 10
333.797
 20
2.16628
 30
0.0
 11
333.715
 21
1.94579
 31
0.0
  0
LINE
  8
0
 62
     0
 10
333.715
 20
1.94579
 30
0.0
 11
333.616
 21
1.7322
 31
0.0
  0
LINE
  8
0
 62
     0
 10
333.616
 20
1.7322
 30
0.0
 11
333.5
 21
1.52687
 31
0.0
  0
LINE
  8
0
 62
     0
 10
333.5
 20
1.52687
 30
0.0
 11
333.371
 21
1.32981
 31
0.0
  0
LINE
  8
0
 62
     0
 10
333.371
 20
1.32981
 30
0.0
 11
333.225
 21
1.14515
 31
0.0
  0
LINE
  8
0
 62
     0
 10
333.225
 20
1.14515
 30
0.0
 11
333.065
 21
0.971518
 31
0.0
  0
LINE
  8
0
 62
     0
 10
333.065
 20
0.971518
 30
0.0
 11
332.891
 21
0.811664
 31
0.0
  0
LINE
  8
0
 62
     0
 10
332.891
 20
0.811664
 30
0.0
 11
332.706
 21
0.665593
 31
0.0
  0
LINE
  8
0
 62
     0
 10
332.706
 20
0.665593
 30
0.0
 11
332.511
 21
0.536056
 31
0.0
  0
LINE
  8
0
 62
     0
 10
332.511
 20
0.536056
 30
0.0
 11
332.304
 21
0.421679
 31
0.0
  0
LINE
  8
0
 62
     0
 10
332.304
 20
0.421679
 30
0.0
 11
332.092
 21
0.322461
 31
0.0
  0
LINE
  8
0
 62
     0
 10
332.092
 20
0.322461
 30
0.0
 11
331.87
 21
0.239779
 31
0.0
  0
LINE
  8
0
 62
     0
 10
331.87
 20
0.239779
 30
0.0
 11
331.644
 21
0.176389
 31
0.0
  0
LINE
  8
0
 62
     0
 10
331.644
 20
0.176389
 30
0.0
 11
331.413
 21
0.130914
 31
0.0
  0
LINE
  8
0
 62
     0
 10
331.413
 20
0.130914
 30
0.0
 11
331.178
 21
0.103353
 31
0.0
  0
LINE
  8
0
 62
     0
 10
331.178
 20
0.103353
 30
0.0
 11
330.944
 21
0.0937066
 31
0.0
  0
LINE
  8
0
 62
     0
 10
330.944
 20
0.0937066
 30
0.0
 11
3.0937
 21
0.0937066
 31
0.0
  0
LINE
  8
0
 62
     0
 10
3.0937
 20
0.0937066
 30
0.0
 11
2.85805
 21
0.103353
 31
0.0
  0
LINE
  8
0
 62
     0
 10
2.85805
 20
0.103353
 30
0.0
 11
2.62378
 21
0.130914
 31
0.0
  0
LINE
  8
0
 62
     0
 10
2.62378
 20
0.130914
 30
0.0
 11
2.39227
 21
0.176389
 31
0.0
  0
LINE
  8
0
 62
     0
 10
2.39227
 20
0.176389
 30
0.0
 11
2.16628
 21
0.239779
 31
0.0
  0
LINE
  8
0
 62
     0
 10
2.16628
 20
0.239779
 30
0.0
 11
1.94441
 21
0.322461
 31
0.0
  0
LINE
  8
0
 62
     0
 10
1.94441
 20
0.322461
 30
0.0
 11
1.7322
 21
0.421679
 31
0.0
  0
LINE
  8
0
 62
     0
 10
1.7322
 20
0.421679
 30
0.0
 11
1.52549
 21
0.536056
 31
0.0
  0
LINE
  8
0
 62
     0
 10
1.52549
 20
0.536056
 30
0.0
 11
1.32981
 21
0.665593
 31
0.0
  0
LINE
  8
0
 62
     0
 10
1.32981
 20
0.665593
 30
0.0
 11
1.14515
 21
0.811664
 31
0.0
  0
LINE
  8
0
 62
     0
 10
1.14515
 20
0.811664
 30
0.0
 11
0.971518
 21
0.971518
 31
0.0
  0
LINE
  8
0
 62
     0
 10
0.971518
 20
0.971518
 30
0.0
 11
0.811664
 21
1.14515
 31
0.0
  0
LINE
  8
0
 62
     0
 10
0.811664
 20
1.14515
 30
0.0
 11
0.665593
 21
1.32981
 31
0.0
  0
LINE
  8
0
 62
     0
 10
0.665593
 20
1.32981
 30
0.0
 11
0.536056
 21
1.52687
 31
0.0
  0
LINE
  8
0
 62
     0
 10
0.536056
 20
1.52687
 30
0.0
 11
0.420303
 21
1.7322
 31
0.0
  0
LINE
  8
0
 62
     0
 10
0.420303
 20
1.7322
 30
0.0
 11
0.321083
 21
1.94579
 31
0.0
  0
LINE
  8
0
 62
     0
 10
0.321083
 20
1.94579
 30
0.0
 11
0.239779
 21
2.16628
 31
0.0
  0
LINE
  8
0
 62
     0
 10
0.239779
 20
2.16628
 30
0.0
 11
0.176389
 21
2.39365
 31
0.0
  0
LINE
  8
0
 62
     0
 10
0.176389
 20
2.39365
 30
0.0
 11
0.129536
 21
2.62378
 31
0.0
  0
LINE
  8
0
 62
     0
 10
0.129536
 20
2.62378
 30
0.0
 11
0.103353
 21
2.85805
 31
0.0
  0
LINE
  8
0
 62
     0
 10
0.103353
 20
2.85805
 30
0.0
 11
0.0923286
 21
3.0937
 31
0.0
  0
LINE
  8
0
 62
     0
 10
0.0923286
 20
3.0937
 30
0.0
 11
0.0937066
 21
112.343
 31
0.0
  0
LINE
  8
0
 62
     0
 10
0.0937066
 20
112.343
 30
0.0
 11
0.103353
 21
112.579
 31
0.0
  0
LINE
  8
0
 62
     0
 10
0.103353
 20
112.579
 30
0.0
 11
0.129536
 21
112.813
 31
0.0
  0
LINE
  8
0
 62
     0
 10
0.129536
 20
112.813
 30
0.0
 11
0.176389
 21
113.046
 31
0.0
  0
LINE
  8
0
 62
     0
 10
0.176389
 20
113.046
 30
0.0
 11
0.239779
 21
113.271
 31
0.0
  0
LINE
  8
0
 62
     0
 10
0.239779
 20
113.271
 30
0.0
 11
0.321083
 21
113.492
 31
0.0
  0
LINE
  8
0
 62
     0
 10
0.321083
 20
113.492
 30
0.0
 11
0.420303
 21
113.705
 31
0.0
  0
LINE
  8
0
 62
     0
 10
0.420303
 20
113.705
 30
0.0
 11
0.536056
 21
113.913
 31
0.0
  0
LINE
  8
0
 62
     0
 10
0.536056
 20
113.913
 30
0.0
 11
0.665593
 21
114.107
 31
0.0
  0
LINE
  8
0
 62
     0
 10
0.665593
 20
114.107
 30
0.0
 11
0.811664
 21
114.292
 31
0.0
  0
LINE
  8
0
 62
     0
 10
0.811664
 20
114.292
 30
0.0
 11
0.971518
 21
114.465
 31
0.0
  0
LINE
  8
0
 62
     0
 10
0.971518
 20
114.465
 30
0.0
 11
1.14515
 21
114.625
 31
0.0
  0
LINE
  8
0
 62
     0
 10
1.14515
 20
114.625
 30
0.0
 11
1.32981
 21
114.771
 31
0.0
  0
LINE
  8
0
 62
     0
 10
1.32981
 20
114.771
 30
0.0
 11
1.52549
 21
114.901
 31
0.0
  0
LINE
  8
0
 62
     0
 10
1.52549
 20
114.901
 30
0.0
 11
1.7322
 21
115.018
 31
0.0
  0
LINE
  8
0
 62
     0
 10
1.7322
 20
115.018
 30
0.0
 11
1.94441
 21
115.116
 31
0.0
  0
LINE
  8
0
 62
     0
 10
1.94441
 20
115.116
 30
0.0
 11
2.16628
 21
115.197
 31
0.0
  0
LINE
  8
0
 62
     0
 10
2.16628
 20
115.197
 30
0.0
 11
2.39227
 21
115.261
 31
0.0
  0
LINE
  8
0
 62
     0
 10
2.39227
 20
115.261
 30
0.0
 11
2.62378
 21
115.307
 31
0.0
  0
LINE
  8
0
 62
     0
 10
2.62378
 20
115.307
 30
0.0
 11
2.85805
 21
115.334
 31
0.0
  0
LINE
  8
0
 62
     0
 10
2.85805
 20
115.334
 30
0.0
 11
3.0937
 21
115.345
 31
0.0
  0
LINE
  8
0
 62
     0
 10
3.0937
 20
115.345
 30
0.0
 11
330.944
 21
115.343
 31
0.0
  0
LINE
  8
0
 62
     0
 10
2.82084
 20
5.97105
 30
0.0
 11
2.12356
 21
5.61552
 31
0.0
  0
LINE
  8
0
 62
     0
 10
2.12356
 20
5.61552
 30
0.0
 11
1.57097
 21
5.06293
 31
0.0
  0
LINE
  8
0
 62
     0
 10
1.57097
 20
5.06293
 30
0.0
 11
1.21543
 21
4.36563
 31
0.0
  0
LINE
  8
0
 62
     0
 10
1.21543
 20
4.36563
 30
0.0
 11
1.09279
 21
3.59255
 31
0.0
  0
LINE
  8
0
 62
     0
 10
1.09279
 20
3.59255
 30
0.0
 11
1.21543
 21
2.82084
 31
0.0
  0
LINE
  8
0
 62
     0
 10
1.21543
 20
2.82084
 30
0.0
 11
1.57097
 21
2.12356
 31
0.0
  0
LINE
  8
0
 62
     0
 10
1.57097
 20
2.12356
 30
0.0
 11
2.12356
 21
1.57097
 31
0.0
  0
LINE
  8
0
 62
     0
 10
2.12356
 20
1.57097
 30
0.0
 11
2.82084
 21
1.21819
 31
0.0
  0
LINE
  8
0
 62
     0
 10
2.82084
 20
1.21819
 30
0.0
 11
3.59392
 21
1.09279
 31
0.0
  0
LINE
  8
0
 62
     0
 10
3.59392
 20
1.09279
 30
0.0
 11
4.36563
 21
1.21819
 31
0.0
  0
LINE
  8
0
 62
     0
 10
4.36563
 20
1.21819
 30
0.0
 11
5.06293
 21
1.57097
 31
0.0
  0
LINE
  8
0
 62
     0
 10
5.06293
 20
1.57097
 30
0.0
 11
5.61552
 21
2.12356
 31
0.0
  0
LINE
  8
0
 62
     0
 10
5.61552
 20
2.12356
 30
0.0
 11
5.97105
 21
2.82084
 31
0.0
  0
LINE
  8
0
 62
     0
 10
5.97105
 20
2.82084
 30
0.0
 11
6.09367
 21
3.59255
 31
0.0
  0
LINE
  8
0
 62
     0
 10
6.09367
 20
3.59255
 30
0.0
 11
5.97105
 21
4.36563
 31
0.0
  0
LINE
  8
0
 62
     0
 10
5.97105
 20
4.36563
 30
0.0
 11
5.61552
 21
5.06293
 31
0.0
  0
LINE
  8
0
 62
     0
 10
5.61552
 20
5.06293
 30
0.0
 11
5.06293
 21
5.61552
 31
0.0
  0
LINE
  8
0
 62
     0
 10
5.06293
 20
5.61552
 30
0.0
 11
4.36563
 21
5.97105
 31
0.0
  0
LINE
  8
0
 62
     0
 10
4.36563
 20
5.97105
 30
0.0
 11
3.59392
 21
6.09367
 31
0.0
  0
LINE
  8
0
 62
     0
 10
3.59392
 20
6.09367
 30
0.0
 11
2.82084
 21
5.97105
 31
0.0
  0
LINE
  8
0
 62
     0
 10
166.245
 20
5.97105
 30
0.0
 11
165.549
 21
5.61552
 31
0.0
  0
LINE
  8
0
 62
     0
 10
165.549
 20
5.61552
 30
0.0
 11
164.995
 21
5.06293
 31
0.0
  0
LINE
  8
0
 62
     0
 10
164.995
 20
5.06293
 30
0.0
 11
164.641
 21
4.36563
 31
0.0
  0
LINE
  8
0
 62
     0
 10
164.641
 20
4.36563
 30
0.0
 11
164.519
 21
3.59255
 31
0.0
  0
LINE
  8
0
 62
     0
 10
164.519
 20
3.59255
 30
0.0
 11
164.641
 21
2.82084
 31
0.0
  0
LINE
  8
0
 62
     0
 10
164.641
 20
2.82084
 30
0.0
 11
164.995
 21
2.12356
 31
0.0
  0
LINE
  8
0
 62
     0
 10
164.995
 20
2.12356
 30
0.0
 11
165.549
 21
1.57097
 31
0.0
  0
LINE
  8
0
 62
     0
 10
165.549
 20
1.57097
 30
0.0
 11
166.245
 21
1.21819
 31
0.0
  0
LINE
  8
0
 62
     0
 10
166.245
 20
1.21819
 30
0.0
 11
167.018
 21
1.09279
 31
0.0
  0
LINE
  8
0
 62
     0
 10
167.018
 20
1.09279
 30
0.0
 11
167.791
 21
1.21819
 31
0.0
  0
LINE
  8
0
 62
     0
 10
167.791
 20
1.21819
 30
0.0
 11
168.487
 21
1.57097
 31
0.0
  0
LINE
  8
0
 62
     0
 10
168.487
 20
1.57097
 30
0.0
 11
169.041
 21
2.12356
 31
0.0
  0
LINE
  8
0
 62
     0
 10
169.041
 20
2.12356
 30
0.0
 11
169.395
 21
2.82084
 31
0.0
  0
LINE
  8
0
 62
     0
 10
169.395
 20
2.82084
 30
0.0
 11
169.519
 21
3.59255
 31
0.0
  0
LINE
  8
0
 62
     0
 10
169.519
 20
3.59255
 30
0.0
 11
169.395
 21
4.36563
 31
0.0
  0
LINE
  8
0
 62
     0
 10
169.395
 20
4.36563
 30
0.0
 11
169.041
 21
5.06293
 31
0.0
  0
LINE
  8
0
 62
     0
 10
169.041
 20
5.06293
 30
0.0
 11
168.487
 21
5.61552
 31
0.0
  0
LINE
  8
0
 62
     0
 10
168.487
 20
5.61552
 30
0.0
 11
167.791
 21
5.97105
 31
0.0
  0
LINE
  8
0
 62
     0
 10
167.791
 20
5.97105
 30
0.0
 11
167.018
 21
6.09367
 31
0.0
  0
LINE
  8
0
 62
     0
 10
167.018
 20
6.09367
 30
0.0
 11
166.245
 21
5.97105
 31
0.0
  0
LINE
  8
0
 62
     0
 10
329.671
 20
5.97105
 30
0.0
 11
328.973
 21
5.61552
 31
0.0
  0
LINE
  8
0
 62
     0
 10
328.973
 20
5.61552
 30
0.0
 11
328.421
 21
5.06293
 31
0.0
  0
LINE
  8
0
 62
     0
 10
328.421
 20
5.06293
 30
0.0
 11
328.065
 21
4.36563
 31
0.0
  0
LINE
  8
0
 62
     0
 10
328.065
 20
4.36563
 30
0.0
 11
327.944
 21
3.59255
 31
0.0
  0
LINE
  8
0
 62
     0
 10
327.944
 20
3.59255
 30
0.0
 11
328.065
 21
2.82084
 31
0.0
  0
LINE
  8
0
 62
     0
 10
328.065
 20
2.82084
 30
0.0
 11
328.421
 21
2.12356
 31
0.0
  0
LINE
  8
0
 62
     0
 10
328.421
 20
2.12356
 30
0.0
 11
328.973
 21
1.57097
 31
0.0
  0
LINE
  8
0
 62
     0
 10
328.973
 20
1.57097
 30
0.0
 11
329.671
 21
1.21819
 31
0.0
  0
LINE
  8
0
 62
     0
 10
329.671
 20
1.21819
 30
0.0
 11
330.444
 21
1.09279
 31
0.0
  0
LINE
  8
0
 62
     0
 10
330.444
 20
1.09279
 30
0.0
 11
331.216
 21
1.21819
 31
0.0
  0
LINE
  8
0
 62
     0
 10
331.216
 20
1.21819
 30
0.0
 11
331.913
 21
1.57097
 31
0.0
  0
LINE
  8
0
 62
     0
 10
331.913
 20
1.57097
 30
0.0
 11
332.466
 21
2.12356
 31
0.0
  0
LINE
  8
0
 62
     0
 10
332.466
 20
2.12356
 30
0.0
 11
332.821
 21
2.82084
 31
0.0
  0
LINE
  8
0
 62
     0
 10
332.821
 20
2.82084
 30
0.0
 11
332.944
 21
3.59255
 31
0.0
  0
LINE
  8
0
 62
     0
 10
332.944
 20
3.59255
 30
0.0
 11
332.821
 21
4.36563
 31
0.0
  0
LINE
  8
0
 62
     0
 10
332.821
 20
4.36563
 30
0.0
 11
332.466
 21
5.06293
 31
0.0
  0
LINE
  8
0
 62
     0
 10
332.466
 20
5.06293
 30
0.0
 11
331.913
 21
5.61552
 31
0.0
  0
LINE
  8
0
 62
     0
 10
331.913
 20
5.61552
 30
0.0
 11
331.216
 21
5.97105
 31
0.0
  0
LINE
  8
0
 62
     0
 10
331.216
 20
5.97105
 30
0.0
 11
330.444
 21
6.09367
 31
0.0
  0
LINE
  8
0
 62
     0
 10
330.444
 20
6.09367
 30
0.0
 11
329.671
 21
5.97105
 31
0.0
  0
LINE
  8
0
 62
     0
 10
2.82084
 20
114.223
 30
0.0
 11
2.12356
 21
113.866
 31
0.0
  0
LINE
  8
0
 62
     0
 10
2.12356
 20
113.866
 30
0.0
 11
1.57097
 21
113.313
 31
0.0
  0
LINE
  8
0
 62
     0
 10
1.57097
 20
113.313
 30
0.0
 11
1.21543
 21
112.616
 31
0.0
  0
LINE
  8
0
 62
     0
 10
1.21543
 20
112.616
 30
0.0
 11
1.09279
 21
111.843
 31
0.0
  0
LINE
  8
0
 62
     0
 10
1.09279
 20
111.843
 30
0.0
 11
1.21543
 21
111.071
 31
0.0
  0
LINE
  8
0
 62
     0
 10
1.21543
 20
111.071
 30
0.0
 11
1.57097
 21
110.374
 31
0.0
  0
LINE
  8
0
 62
     0
 10
1.57097
 20
110.374
 30
0.0
 11
2.12356
 21
109.821
 31
0.0
  0
LINE
  8
0
 62
     0
 10
2.12356
 20
109.821
 30
0.0
 11
2.82084
 21
109.466
 31
0.0
  0
LINE
  8
0
 62
     0
 10
2.82084
 20
109.466
 30
0.0
 11
3.59392
 21
109.345
 31
0.0
  0
LINE
  8
0
 62
     0
 10
3.59392
 20
109.345
 30
0.0
 11
4.36563
 21
109.466
 31
0.0
  0
LINE
  8
0
 62
     0
 10
4.36563
 20
109.466
 30
0.0
 11
5.06293
 21
109.821
 31
0.0
  0
LINE
  8
0
 62
     0
 10
5.06293
 20
109.821
 30
0.0
 11
5.61552
 21
110.374
 31
0.0
  0
LINE
  8
0
 62
     0
 10
5.61552
 20
110.374
 30
0.0
 11
5.97105
 21
111.071
 31
0.0
  0
LINE
  8
0
 62
     0
 10
5.97105
 20
111.071
 30
0.0
 11
6.09367
 21
111.843
 31
0.0
  0
LINE
  8
0
 62
     0
 10
6.09367
 20
111.843
 30
0.0
 11
5.97105
 21
112.616
 31
0.0
  0
LINE
  8
0
 62
     0
 10
5.97105
 20
112.616
 30
0.0
 11
5.61552
 21
113.313
 31
0.0
  0
LINE
  8
0
 62
     0
 10
5.61552
 20
113.313
 30
0.0
 11
5.06293
 21
113.866
 31
0.0
  0
LINE
  8
0
 62
     0
 10
5.06293
 20
113.866
 30
0.0
 11
4.36563
 21
114.223
 31
0.0
  0
LINE
  8
0
 62
     0
 10
4.36563
 20
114.223
 30
0.0
 11
3.59392
 21
114.343
 31
0.0
  0
LINE
  8
0
 62
     0
 10
3.59392
 20
114.343
 30
0.0
 11
2.82084
 21
114.223
 31
0.0
  0
LINE
  8
0
 62
     0
 10
166.245
 20
114.223
 30
0.0
 11
165.549
 21
113.866
 31
0.0
  0
LINE
  8
0
 62
     0
 10
165.549
 20
113.866
 30
0.0
 11
164.995
 21
113.313
 31
0.0
  0
LINE
  8
0
 62
     0
 10
164.995
 20
113.313
 30
0.0
 11
164.641
 21
112.616
 31
0.0
  0
LINE
  8
0
 62
     0
 10
164.641
 20
112.616
 30
0.0
 11
164.519
 21
111.843
 31
0.0
  0
LINE
  8
0
 62
     0
 10
164.519
 20
111.843
 30
0.0
 11
164.641
 21
111.071
 31
0.0
  0
LINE
  8
0
 62
     0
 10
164.641
 20
111.071
 30
0.0
 11
164.995
 21
110.374
 31
0.0
  0
LINE
  8
0
 62
     0
 10
164.995
 20
110.374
 30
0.0
 11
165.549
 21
109.821
 31
0.0
  0
LINE
  8
0
 62
     0
 10
165.549
 20
109.821
 30
0.0
 11
166.245
 21
109.466
 31
0.0
  0
LINE
  8
0
 62
     0
 10
166.245
 20
109.466
 30
0.0
 11
167.018
 21
109.345
 31
0.0
  0
LINE
  8
0
 62
     0
 10
167.018
 20
109.345
 30
0.0
 11
167.791
 21
109.466
 31
0.0
  0
LINE
  8
0
 62
     0
 10
167.791
 20
109.466
 30
0.0
 11
168.487
 21
109.821
 31
0.0
  0
LINE
  8
0
 62
     0
 10
168.487
 20
109.821
 30
0.0
 11
169.041
 21
110.374
 31
0.0
  0
LINE
  8
0
 62
     0
 10
169.041
 20
110.374
 30
0.0
 11
169.395
 21
111.071
 31
0.0
  0
LINE
  8
0
 62
     0
 10
169.395
 20
111.071
 30
0.0
 11
169.519
 21
111.843
 31
0.0
  0
LINE
  8
0
 62
     0
 10
169.519
 20
111.843
 30
0.0
 11
169.395
 21
112.616
 31
0.0
  0
LINE
  8
0
 62
     0
 10
169.395
 20
112.616
 30
0.0
 11
169.041
 21
113.313
 31
0.0
  0
LINE
  8
0
 62
     0
 10
169.041
 20
113.313
 30
0.0
 11
168.487
 21
113.866
 31
0.0
  0
LINE
  8
0
 62
     0
 10
168.487
 20
113.866
 30
0.0
 11
167.791
 21
114.223
 31
0.0
  0
LINE
  8
0
 62
     0
 10
167.791
 20
114.223
 30
0.0
 11
167.018
 21
114.343
 31
0.0
  0
LINE
  8
0
 62
     0
 10
167.018
 20
114.343
 30
0.0
 11
166.245
 21
114.223
 31
0.0
  0
LINE
  8
0
 62
     0
 10
329.671
 20
114.223
 30
0.0
 11
328.973
 21
113.866
 31
0.0
  0
LINE
  8
0
 62
     0
 10
328.973
 20
113.866
 30
0.0
 11
328.421
 21
113.313
 31
0.0
  0
LINE
  8
0
 62
     0
 10
328.421
 20
113.313
 30
0.0
 11
328.065
 21
112.616
 31
0.0
  0
LINE
  8
0
 62
     0
 10
328.065
 20
112.616
 30
0.0
 11
327.944
 21
111.843
 31
0.0
  0
LINE
  8
0
 62
     0
 10
327.944
 20
111.843
 30
0.0
 11
328.065
 21
111.071
 31
0.0
  0
LINE
  8
0
 62
     0
 10
328.065
 20
111.071
 30
0.0
 11
328.421
 21
110.374
 31
0.0
  0
LINE
  8
0
 62
     0
 10
328.421
 20
110.374
 30
0.0
 11
328.973
 21
109.821
 31
0.0
  0
LINE
  8
0
 62
     0
 10
328.973
 20
109.821
 30
0.0
 11
329.671
 21
109.466
 31
0.0
  0
LINE
  8
0
 62
     0
 10
329.671
 20
109.466
 30
0.0
 11
330.444
 21
109.345
 31
0.0
  0
LINE
  8
0
 62
     0
 10
330.444
 20
109.345
 30
0.0
 11
331.216
 21
109.466
 31
0.0
  0
LINE
  8
0
 62
     0
 10
331.216
 20
109.466
 30
0.0
 11
331.913
 21
109.821
 31
0.0
  0
LINE
  8
0
 62
     0
 10
331.913
 20
109.821
 30
0.0
 11
332.466
 21
110.374
 31
0.0
  0
LINE
  8
0
 62
     0
 10
332.466
 20
110.374
 30
0.0
 11
332.821
 21
111.071
 31
0.0
  0
LINE
  8
0
 62
     0
 10
332.821
 20
111.071
 30
0.0
 11
332.944
 21
111.843
 31
0.0
  0
LINE
  8
0
 62
     0
 10
332.944
 20
111.843
 30
0.0
 11
332.821
 21
112.616
 31
0.0
  0
LINE
  8
0
 62
     0
 10
332.821
 20
112.616
 30
0.0
 11
332.466
 21
113.313
 31
0.0
  0
LINE
  8
0
 62
     0
 10
332.466
 20
113.313
 30
0.0
 11
331.913
 21
113.866
 31
0.0
  0
LINE
  8
0
 62
     0
 10
331.913
 20
113.866
 30
0.0
 11
331.216
 21
114.223
 31
0.0
  0
LINE
  8
0
 62
     0
 10
331.216
 20
114.223
 30
0.0
 11
330.444
 21
114.343
 31
0.0
  0
LINE
  8
0
 62
     0
 10
330.444
 20
114.343
 30
0.0
 11
329.671
 21
114.223
 31
0.0
  0
ENDSEC
  0
EOF
