  0
SECTION
  2
HEADER
  9
$ACADVER
  1
AC1009
  9
$EXTMIN
 10
0.0
 20
0.0
 30
0.0
  9
$EXTMAX
 10
1000.0
 20
1000.0
 30
0.0
  9
$FILLMODE
 70
 0
  9
$SPLFRAME
 70
 1
  0
ENDSEC
  0
SECTION
  2
TABLES
  0
TABLE
  2
LAYER
 70
1
  0
LAYER
  2
0
 70
     0
 62
     7
  6
CONTINUOUS
  0
ENDTAB
  0
ENDSEC
  0
SECTION
  2
ENTITIES
  0
LINE
  8
0
 62
     0
 10
330.944
 20
115.343
 30
0.0
 11
331.178
 21
115.334
 31
0.0
  0
LINE
  8
0
 62
     0
 10
331.178
 20
115.334
 30
0.0
 11
331.413
 21
115.307
 31
0.0
  0
LINE
  8
0
 62
     0
 10
331.413
 20
115.307
 30
0.0
 11
331.644
 21
115.261
 31
0.0
  0
LINE
  8
0
 62
     0
 10
331.644
 20
115.261
 30
0.0
 11
331.87
 21
115.197
 31
0.0
  0
LINE
  8
0
 62
     0
 10
331.87
 20
115.197
 30
0.0
 11
332.092
 21
115.116
 31
0.0
  0
LINE
  8
0
 62
     0
 10
332.092
 20
115.116
 30
0.0
 11
332.304
 21
115.018
 31
0.0
  0
LINE
  8
0
 62
     0
 10
332.304
 20
115.018
 30
0.0
 11
332.511
 21
114.901
 31
0.0
  0
LINE
  8
0
 62
     0
 10
332.511
 20
114.901
 30
0.0
 11
332.706
 21
114.771
 31
0.0
  0
LINE
  8
0
 62
     0
 10
332.706
 20
114.771
 30
0.0
 11
332.891
 21
114.625
 31
0.0
  0
LINE
  8
0
 62
     0
 10
332.891
 20
114.625
 30
0.0
 11
333.065
 21
114.465
 31
0.0
  0
LINE
  8
0
 62
     0
 10
333.065
 20
114.465
 30
0.0
 11
333.225
 21
114.292
 31
0.0
  0
LINE
  8
0
 62
     0
 10
333.225
 20
114.292
 30
0.0
 11
333.371
 21
114.107
 31
0.0
  0
LINE
  8
0
 62
     0
 10
333.371
 20
114.107
 30
0.0
 11
333.5
 21
113.913
 31
0.0
  0
LINE
  8
0
 62
     0
 10
333.5
 20
113.913
 30
0.0
 11
333.616
 21
113.705
 31
0.0
  0
LINE
  8
0
 62
     0
 10
333.616
 20
113.705
 30
0.0
 11
333.715
 21
113.492
 31
0.0
  0
LINE
  8
0
 62
     0
 10
333.715
 20
113.492
 30
0.0
 11
333.797
 21
113.271
 31
0.0
  0
LINE
  8
0
 62
     0
 10
333.797
 20
113.271
 30
0.0
 11
333.861
 21
113.046
 31
0.0
  0
LINE
  8
0
 62
     0
 10
333.861
 20
113.046
 30
0.0
 11
333.907
 21
112.813
 31
0.0
  0
LINE
  8
0
 62
     0
 10
333.907
 20
112.813
 30
0.0
 11
333.933
 21
112.579
 31
0.0
  0
LINE
  8
0
 62
     0
 10
333.933
 20
112.579
 30
0.0
 11
333.944
 21
112.343
 31
0.0
  0
LINE
  8
0
 62
     0
 10
333.944
 20
112.343
 30
0.0
 11
333.944
 21
3.0937
 31
0.0
  0
LINE
  8
0
 62
     0
 10
333.944
 20
3.0937
 30
0.0
 11
333.933
 21
2.85805
 31
0.0
  0
LINE
  8
0
 62
     0
 10
333.933
 20
2.85805
 30
0.0
 11
333.907
 21
2.62378
 31
0.0
  0
LINE
  8
0
 62
     0
 10
333.907
 20
2.62378
 30
0.0
 11
333.861
 21
2.39365
 31
0.0
  0
LINE
  8
0
 62
     0
 10
333.861
 20
2.39365
 30
0.0
 11
333.797
 21
2.16628
 31
0.0
  0
LINE
  8
0
 62
     0
 10
333.797
 20
2.16628
 30
0.0
 11
333.715
 21
1.94579
 31
0.0
  0
LINE
  8
0
 62
     0
 10
333.715
 20
1.94579
 30
0.0
 11
333.616
 21
1.7322
 31
0.0
  0
LINE
  8
0
 62
     0
 10
333.616
 20
1.7322
 30
0.0
 11
333.5
 21
1.52687
 31
0.0
  0
LINE
  8
0
 62
     0
 10
333.5
 20
1.52687
 30
0.0
 11
333.371
 21
1.32981
 31
0.0
  0
LINE
  8
0
 62
     0
 10
333.371
 20
1.32981
 30
0.0
 11
333.225
 21
1.14515
 31
0.0
  0
LINE
  8
0
 62
     0
 10
333.225
 20
1.14515
 30
0.0
 11
333.065
 21
0.971518
 31
0.0
  0
LINE
  8
0
 62
     0
 10
333.065
 20
0.971518
 30
0.0
 11
332.891
 21
0.811664
 31
0.0
  0
LINE
  8
0
 62
     0
 10
332.891
 20
0.811664
 30
0.0
 11
332.706
 21
0.665593
 31
0.0
  0
LINE
  8
0
 62
     0
 10
332.706
 20
0.665593
 30
0.0
 11
332.511
 21
0.536056
 31
0.0
  0
LINE
  8
0
 62
     0
 10
332.511
 20
0.536056
 30
0.0
 11
332.304
 21
0.421679
 31
0.0
  0
LINE
  8
0
 62
     0
 10
332.304
 20
0.421679
 30
0.0
 11
332.092
 21
0.322461
 31
0.0
  0
LINE
  8
0
 62
     0
 10
332.092
 20
0.322461
 30
0.0
 11
331.87
 21
0.239779
 31
0.0
  0
LINE
  8
0
 62
     0
 10
331.87
 20
0.239779
 30
0.0
 11
331.644
 21
0.176389
 31
0.0
  0
LINE
  8
0
 62
     0
 10
331.644
 20
0.176389
 30
0.0
 11
331.413
 21
0.130914
 31
0.0
  0
LINE
  8
0
 62
     0
 10
331.413
 20
0.130914
 30
0.0
 11
331.178
 21
0.103353
 31
0.0
  0
LINE
  8
0
 62
     0
 10
331.178
 20
0.103353
 30
0.0
 11
330.944
 21
0.0937066
 31
0.0
  0
LINE
  8
0
 62
     0
 10
330.944
 20
0.0937066
 30
0.0
 11
3.0937
 21
0.0937066
 31
0.0
  0
LINE
  8
0
 62
     0
 10
3.0937
 20
0.0937066
 30
0.0
 11
2.85805
 21
0.103353
 31
0.0
  0
LINE
  8
0
 62
     0
 10
2.85805
 20
0.103353
 30
0.0
 11
2.62378
 21
0.130914
 31
0.0
  0
LINE
  8
0
 62
     0
 10
2.62378
 20
0.130914
 30
0.0
 11
2.39227
 21
0.176389
 31
0.0
  0
LINE
  8
0
 62
     0
 10
2.39227
 20
0.176389
 30
0.0
 11
2.16628
 21
0.239779
 31
0.0
  0
LINE
  8
0
 62
     0
 10
2.16628
 20
0.239779
 30
0.0
 11
1.94441
 21
0.322461
 31
0.0
  0
LINE
  8
0
 62
     0
 10
1.94441
 20
0.322461
 30
0.0
 11
1.7322
 21
0.421679
 31
0.0
  0
LINE
  8
0
 62
     0
 10
1.7322
 20
0.421679
 30
0.0
 11
1.52549
 21
0.536056
 31
0.0
  0
LINE
  8
0
 62
     0
 10
1.52549
 20
0.536056
 30
0.0
 11
1.32981
 21
0.665593
 31
0.0
  0
LINE
  8
0
 62
     0
 10
1.32981
 20
0.665593
 30
0.0
 11
1.14515
 21
0.811664
 31
0.0
  0
LINE
  8
0
 62
     0
 10
1.14515
 20
0.811664
 30
0.0
 11
0.971518
 21
0.971518
 31
0.0
  0
LINE
  8
0
 62
     0
 10
0.971518
 20
0.971518
 30
0.0
 11
0.811664
 21
1.14515
 31
0.0
  0
LINE
  8
0
 62
     0
 10
0.811664
 20
1.14515
 30
0.0
 11
0.665593
 21
1.32981
 31
0.0
  0
LINE
  8
0
 62
     0
 10
0.665593
 20
1.32981
 30
0.0
 11
0.536056
 21
1.52687
 31
0.0
  0
LINE
  8
0
 62
     0
 10
0.536056
 20
1.52687
 30
0.0
 11
0.420303
 21
1.7322
 31
0.0
  0
LINE
  8
0
 62
     0
 10
0.420303
 20
1.7322
 30
0.0
 11
0.321083
 21
1.94579
 31
0.0
  0
LINE
  8
0
 62
     0
 10
0.321083
 20
1.94579
 30
0.0
 11
0.239779
 21
2.16628
 31
0.0
  0
LINE
  8
0
 62
     0
 10
0.239779
 20
2.16628
 30
0.0
 11
0.176389
 21
2.39365
 31
0.0
  0
LINE
  8
0
 62
     0
 10
0.176389
 20
2.39365
 30
0.0
 11
0.129536
 21
2.62378
 31
0.0
  0
LINE
  8
0
 62
     0
 10
0.129536
 20
2.62378
 30
0.0
 11
0.103353
 21
2.85805
 31
0.0
  0
LINE
  8
0
 62
     0
 10
0.103353
 20
2.85805
 30
0.0
 11
0.0923286
 21
3.0937
 31
0.0
  0
LINE
  8
0
 62
     0
 10
0.0923286
 20
3.0937
 30
0.0
 11
0.0937066
 21
112.343
 31
0.0
  0
LINE
  8
0
 62
     0
 10
0.0937066
 20
112.343
 30
0.0
 11
0.103353
 21
112.579
 31
0.0
  0
LINE
  8
0
 62
     0
 10
0.103353
 20
112.579
 30
0.0
 11
0.129536
 21
112.813
 31
0.0
  0
LINE
  8
0
 62
     0
 10
0.129536
 20
112.813
 30
0.0
 11
0.176389
 21
113.046
 31
0.0
  0
LINE
  8
0
 62
     0
 10
0.176389
 20
113.046
 30
0.0
 11
0.239779
 21
113.271
 31
0.0
  0
LINE
  8
0
 62
     0
 10
0.239779
 20
113.271
 30
0.0
 11
0.321083
 21
113.492
 31
0.0
  0
LINE
  8
0
 62
     0
 10
0.321083
 20
113.492
 30
0.0
 11
0.420303
 21
113.705
 31
0.0
  0
LINE
  8
0
 62
     0
 10
0.420303
 20
113.705
 30
0.0
 11
0.536056
 21
113.913
 31
0.0
  0
LINE
  8
0
 62
     0
 10
0.536056
 20
113.913
 30
0.0
 11
0.665593
 21
114.107
 31
0.0
  0
LINE
  8
0
 62
     0
 10
0.665593
 20
114.107
 30
0.0
 11
0.811664
 21
114.292
 31
0.0
  0
LINE
  8
0
 62
     0
 10
0.811664
 20
114.292
 30
0.0
 11
0.971518
 21
114.465
 31
0.0
  0
LINE
  8
0
 62
     0
 10
0.971518
 20
114.465
 30
0.0
 11
1.14515
 21
114.625
 31
0.0
  0
LINE
  8
0
 62
     0
 10
1.14515
 20
114.625
 30
0.0
 11
1.32981
 21
114.771
 31
0.0
  0
LINE
  8
0
 62
     0
 10
1.32981
 20
114.771
 30
0.0
 11
1.52549
 21
114.901
 31
0.0
  0
LINE
  8
0
 62
     0
 10
1.52549
 20
114.901
 30
0.0
 11
1.7322
 21
115.018
 31
0.0
  0
LINE
  8
0
 62
     0
 10
1.7322
 20
115.018
 30
0.0
 11
1.94441
 21
115.116
 31
0.0
  0
LINE
  8
0
 62
     0
 10
1.94441
 20
115.116
 30
0.0
 11
2.16628
 21
115.197
 31
0.0
  0
LINE
  8
0
 62
     0
 10
2.16628
 20
115.197
 30
0.0
 11
2.39227
 21
115.261
 31
0.0
  0
LINE
  8
0
 62
     0
 10
2.39227
 20
115.261
 30
0.0
 11
2.62378
 21
115.307
 31
0.0
  0
LINE
  8
0
 62
     0
 10
2.62378
 20
115.307
 30
0.0
 11
2.85805
 21
115.334
 31
0.0
  0
LINE
  8
0
 62
     0
 10
2.85805
 20
115.334
 30
0.0
 11
3.0937
 21
115.345
 31
0.0
  0
LINE
  8
0
 62
     0
 10
3.0937
 20
115.345
 30
0.0
 11
330.944
 21
115.343
 31
0.0
  0
LINE
  8
0
 62
     0
 10
2.82084
 20
5.97105
 30
0.0
 11
2.12356
 21
5.61552
 31
0.0
  0
LINE
  8
0
 62
     0
 10
2.12356
 20
5.61552
 30
0.0
 11
1.57097
 21
5.06293
 31
0.0
  0
LINE
  8
0
 62
     0
 10
1.57097
 20
5.06293
 30
0.0
 11
1.21543
 21
4.36563
 31
0.0
  0
LINE
  8
0
 62
     0
 10
1.21543
 20
4.36563
 30
0.0
 11
1.09279
 21
3.59255
 31
0.0
  0
LINE
  8
0
 62
     0
 10
1.09279
 20
3.59255
 30
0.0
 11
1.21543
 21
2.82084
 31
0.0
  0
LINE
  8
0
 62
     0
 10
1.21543
 20
2.82084
 30
0.0
 11
1.57097
 21
2.12356
 31
0.0
  0
LINE
  8
0
 62
     0
 10
1.57097
 20
2.12356
 30
0.0
 11
2.12356
 21
1.57097
 31
0.0
  0
LINE
  8
0
 62
     0
 10
2.12356
 20
1.57097
 30
0.0
 11
2.82084
 21
1.21819
 31
0.0
  0
LINE
  8
0
 62
     0
 10
2.82084
 20
1.21819
 30
0.0
 11
3.59392
 21
1.09279
 31
0.0
  0
LINE
  8
0
 62
     0
 10
3.59392
 20
1.09279
 30
0.0
 11
4.36563
 21
1.21819
 31
0.0
  0
LINE
  8
0
 62
     0
 10
4.36563
 20
1.21819
 30
0.0
 11
5.06293
 21
1.57097
 31
0.0
  0
LINE
  8
0
 62
     0
 10
5.06293
 20
1.57097
 30
0.0
 11
5.61552
 21
2.12356
 31
0.0
  0
LINE
  8
0
 62
     0
 10
5.61552
 20
2.12356
 30
0.0
 11
5.97105
 21
2.82084
 31
0.0
  0
LINE
  8
0
 62
     0
 10
5.97105
 20
2.82084
 30
0.0
 11
6.09367
 21
3.59255
 31
0.0
  0
LINE
  8
0
 62
     0
 10
6.09367
 20
3.59255
 30
0.0
 11
5.97105
 21
4.36563
 31
0.0
  0
LINE
  8
0
 62
     0
 10
5.97105
 20
4.36563
 30
0.0
 11
5.61552
 21
5.06293
 31
0.0
  0
LINE
  8
0
 62
     0
 10
5.61552
 20
5.06293
 30
0.0
 11
5.06293
 21
5.61552
 31
0.0
  0
LINE
  8
0
 62
     0
 10
5.06293
 20
5.61552
 30
0.0
 11
4.36563
 21
5.97105
 31
0.0
  0
LINE
  8
0
 62
     0
 10
4.36563
 20
5.97105
 30
0.0
 11
3.59392
 21
6.09367
 31
0.0
  0
LINE
  8
0
 62
     0
 10
3.59392
 20
6.09367
 30
0.0
 11
2.82084
 21
5.97105
 31
0.0
  0
LINE
  8
0
 62
     0
 10
166.245
 20
5.97105
 30
0.0
 11
165.549
 21
5.61552
 31
0.0
  0
LINE
  8
0
 62
     0
 10
165.549
 20
5.61552
 30
0.0
 11
164.995
 21
5.06293
 31
0.0
  0
LINE
  8
0
 62
     0
 10
164.995
 20
5.06293
 30
0.0
 11
164.641
 21
4.36563
 31
0.0
  0
LINE
  8
0
 62
     0
 10
164.641
 20
4.36563
 30
0.0
 11
164.519
 21
3.59255
 31
0.0
  0
LINE
  8
0
 62
     0
 10
164.519
 20
3.59255
 30
0.0
 11
164.641
 21
2.82084
 31
0.0
  0
LINE
  8
0
 62
     0
 10
164.641
 20
2.82084
 30
0.0
 11
164.995
 21
2.12356
 31
0.0
  0
LINE
  8
0
 62
     0
 10
164.995
 20
2.12356
 30
0.0
 11
165.549
 21
1.57097
 31
0.0
  0
LINE
  8
0
 62
     0
 10
165.549
 20
1.57097
 30
0.0
 11
166.245
 21
1.21819
 31
0.0
  0
LINE
  8
0
 62
     0
 10
166.245
 20
1.21819
 30
0.0
 11
167.018
 21
1.09279
 31
0.0
  0
LINE
  8
0
 62
     0
 10
167.018
 20
1.09279
 30
0.0
 11
167.791
 21
1.21819
 31
0.0
  0
LINE
  8
0
 62
     0
 10
167.791
 20
1.21819
 30
0.0
 11
168.487
 21
1.57097
 31
0.0
  0
LINE
  8
0
 62
     0
 10
168.487
 20
1.57097
 30
0.0
 11
169.041
 21
2.12356
 31
0.0
  0
LINE
  8
0
 62
     0
 10
169.041
 20
2.12356
 30
0.0
 11
169.395
 21
2.82084
 31
0.0
  0
LINE
  8
0
 62
     0
 10
169.395
 20
2.82084
 30
0.0
 11
169.519
 21
3.59255
 31
0.0
  0
LINE
  8
0
 62
     0
 10
169.519
 20
3.59255
 30
0.0
 11
169.395
 21
4.36563
 31
0.0
  0
LINE
  8
0
 62
     0
 10
169.395
 20
4.36563
 30
0.0
 11
169.041
 21
5.06293
 31
0.0
  0
LINE
  8
0
 62
     0
 10
169.041
 20
5.06293
 30
0.0
 11
168.487
 21
5.61552
 31
0.0
  0
LINE
  8
0
 62
     0
 10
168.487
 20
5.61552
 30
0.0
 11
167.791
 21
5.97105
 31
0.0
  0
LINE
  8
0
 62
     0
 10
167.791
 20
5.97105
 30
0.0
 11
167.018
 21
6.09367
 31
0.0
  0
LINE
  8
0
 62
     0
 10
167.018
 20
6.09367
 30
0.0
 11
166.245
 21
5.97105
 31
0.0
  0
LINE
  8
0
 62
     0
 10
329.671
 20
5.97105
 30
0.0
 11
328.973
 21
5.61552
 31
0.0
  0
LINE
  8
0
 62
     0
 10
328.973
 20
5.61552
 30
0.0
 11
328.421
 21
5.06293
 31
0.0
  0
LINE
  8
0
 62
     0
 10
328.421
 20
5.06293
 30
0.0
 11
328.065
 21
4.36563
 31
0.0
  0
LINE
  8
0
 62
     0
 10
328.065
 20
4.36563
 30
0.0
 11
327.944
 21
3.59255
 31
0.0
  0
LINE
  8
0
 62
     0
 10
327.944
 20
3.59255
 30
0.0
 11
328.065
 21
2.82084
 31
0.0
  0
LINE
  8
0
 62
     0
 10
328.065
 20
2.82084
 30
0.0
 11
328.421
 21
2.12356
 31
0.0
  0
LINE
  8
0
 62
     0
 10
328.421
 20
2.12356
 30
0.0
 11
328.973
 21
1.57097
 31
0.0
  0
LINE
  8
0
 62
     0
 10
328.973
 20
1.57097
 30
0.0
 11
329.671
 21
1.21819
 31
0.0
  0
LINE
  8
0
 62
     0
 10
329.671
 20
1.21819
 30
0.0
 11
330.444
 21
1.09279
 31
0.0
  0
LINE
  8
0
 62
     0
 10
330.444
 20
1.09279
 30
0.0
 11
331.216
 21
1.21819
 31
0.0
  0
LINE
  8
0
 62
     0
 10
331.216
 20
1.21819
 30
0.0
 11
331.913
 21
1.57097
 31
0.0
  0
LINE
  8
0
 62
     0
 10
331.913
 20
1.57097
 30
0.0
 11
332.466
 21
2.12356
 31
0.0
  0
LINE
  8
0
 62
     0
 10
332.466
 20
2.12356
 30
0.0
 11
332.821
 21
2.82084
 31
0.0
  0
LINE
  8
0
 62
     0
 10
332.821
 20
2.82084
 30
0.0
 11
332.944
 21
3.59255
 31
0.0
  0
LINE
  8
0
 62
     0
 10
332.944
 20
3.59255
 30
0.0
 11
332.821
 21
4.36563
 31
0.0
  0
LINE
  8
0
 62
     0
 10
332.821
 20
4.36563
 30
0.0
 11
332.466
 21
5.06293
 31
0.0
  0
LINE
  8
0
 62
     0
 10
332.466
 20
5.06293
 30
0.0
 11
331.913
 21
5.61552
 31
0.0
  0
LINE
  8
0
 62
     0
 10
331.913
 20
5.61552
 30
0.0
 11
331.216
 21
5.97105
 31
0.0
  0
LINE
  8
0
 62
     0
 10
331.216
 20
5.97105
 30
0.0
 11
330.444
 21
6.09367
 31
0.0
  0
LINE
  8
0
 62
     0
 10
330.444
 20
6.09367
 30
0.0
 11
329.671
 21
5.97105
 31
0.0
  0
LINE
  8
0
 62
     0
 10
148.112
 20
26.6182
 30
0.0
 11
148.112
 21
25.6191
 31
0.0
  0
LINE
  8
0
 62
     0
 10
148.112
 20
25.6191
 30
0.0
 11
147.312
 21
25.6191
 31
0.0
  0
LINE
  8
0
 62
     0
 10
147.312
 20
25.6191
 30
0.0
 11
147.312
 21
22.5185
 31
0.0
  0
LINE
  8
0
 62
     0
 10
147.312
 20
22.5185
 30
0.0
 11
148.112
 21
22.5185
 31
0.0
  0
LINE
  8
0
 62
     0
 10
148.112
 20
22.5185
 30
0.0
 11
148.112
 21
21.9177
 31
0.0
  0
LINE
  8
0
 62
     0
 10
148.112
 20
21.9177
 30
0.0
 11
108.436
 21
21.9177
 31
0.0
  0
LINE
  8
0
 62
     0
 10
108.436
 20
21.9177
 30
0.0
 11
108.436
 21
25.1478
 31
0.0
  0
LINE
  8
0
 62
     0
 10
108.436
 20
25.1478
 30
0.0
 11
106.762
 21
25.1478
 31
0.0
  0
LINE
  8
0
 62
     0
 10
106.762
 20
25.1478
 30
0.0
 11
106.762
 21
26.0697
 31
0.0
  0
LINE
  8
0
 62
     0
 10
106.762
 20
26.0697
 30
0.0
 11
103.462
 21
26.0697
 31
0.0
  0
LINE
  8
0
 62
     0
 10
103.462
 20
26.0697
 30
0.0
 11
103.462
 21
25.1478
 31
0.0
  0
LINE
  8
0
 62
     0
 10
103.462
 20
25.1478
 30
0.0
 11
101.787
 21
25.1478
 31
0.0
  0
LINE
  8
0
 62
     0
 10
101.787
 20
25.1478
 30
0.0
 11
101.787
 21
21.9177
 31
0.0
  0
LINE
  8
0
 62
     0
 10
101.787
 20
21.9177
 30
0.0
 11
100.912
 21
21.9177
 31
0.0
  0
LINE
  8
0
 62
     0
 10
100.912
 20
21.9177
 30
0.0
 11
100.912
 21
19.1189
 31
0.0
  0
LINE
  8
0
 62
     0
 10
100.912
 20
19.1189
 30
0.0
 11
101.787
 21
19.1189
 31
0.0
  0
LINE
  8
0
 62
     0
 10
101.787
 20
19.1189
 30
0.0
 11
101.787
 21
12.8488
 31
0.0
  0
LINE
  8
0
 62
     0
 10
101.787
 20
12.8488
 30
0.0
 11
103.462
 21
12.8488
 31
0.0
  0
LINE
  8
0
 62
     0
 10
103.462
 20
12.8488
 30
0.0
 11
103.462
 21
11.8677
 31
0.0
  0
LINE
  8
0
 62
     0
 10
103.462
 20
11.8677
 30
0.0
 11
106.762
 21
11.8677
 31
0.0
  0
LINE
  8
0
 62
     0
 10
106.762
 20
11.8677
 30
0.0
 11
106.762
 21
12.8488
 31
0.0
  0
LINE
  8
0
 62
     0
 10
106.762
 20
12.8488
 30
0.0
 11
108.436
 21
12.8488
 31
0.0
  0
LINE
  8
0
 62
     0
 10
108.436
 20
12.8488
 30
0.0
 11
108.436
 21
17.3192
 31
0.0
  0
LINE
  8
0
 62
     0
 10
108.436
 20
17.3192
 30
0.0
 11
148.112
 21
17.3192
 31
0.0
  0
LINE
  8
0
 62
     0
 10
148.112
 20
17.3192
 30
0.0
 11
148.112
 21
16.7184
 31
0.0
  0
LINE
  8
0
 62
     0
 10
148.112
 20
16.7184
 30
0.0
 11
147.312
 21
16.7184
 31
0.0
  0
LINE
  8
0
 62
     0
 10
147.312
 20
16.7184
 30
0.0
 11
147.312
 21
13.6178
 31
0.0
  0
LINE
  8
0
 62
     0
 10
147.312
 20
13.6178
 30
0.0
 11
148.112
 21
13.6178
 31
0.0
  0
LINE
  8
0
 62
     0
 10
148.112
 20
13.6178
 30
0.0
 11
148.112
 21
12.6187
 31
0.0
  0
LINE
  8
0
 62
     0
 10
148.112
 20
12.6187
 30
0.0
 11
162.112
 21
12.6187
 31
0.0
  0
LINE
  8
0
 62
     0
 10
162.112
 20
12.6187
 30
0.0
 11
162.112
 21
13.6178
 31
0.0
  0
LINE
  8
0
 62
     0
 10
162.112
 20
13.6178
 30
0.0
 11
162.912
 21
13.6178
 31
0.0
  0
LINE
  8
0
 62
     0
 10
162.912
 20
13.6178
 30
0.0
 11
162.912
 21
16.7184
 31
0.0
  0
LINE
  8
0
 62
     0
 10
162.912
 20
16.7184
 30
0.0
 11
162.112
 21
16.7184
 31
0.0
  0
LINE
  8
0
 62
     0
 10
162.112
 20
16.7184
 30
0.0
 11
162.112
 21
17.3192
 31
0.0
  0
LINE
  8
0
 62
     0
 10
162.112
 20
17.3192
 30
0.0
 11
201.786
 21
17.3192
 31
0.0
  0
LINE
  8
0
 62
     0
 10
201.786
 20
17.3192
 30
0.0
 11
201.786
 21
12.8488
 31
0.0
  0
LINE
  8
0
 62
     0
 10
201.786
 20
12.8488
 30
0.0
 11
203.462
 21
12.8488
 31
0.0
  0
LINE
  8
0
 62
     0
 10
203.462
 20
12.8488
 30
0.0
 11
203.462
 21
11.8677
 31
0.0
  0
LINE
  8
0
 62
     0
 10
203.462
 20
11.8677
 30
0.0
 11
206.762
 21
11.8677
 31
0.0
  0
LINE
  8
0
 62
     0
 10
206.762
 20
11.8677
 30
0.0
 11
206.762
 21
12.8488
 31
0.0
  0
LINE
  8
0
 62
     0
 10
206.762
 20
12.8488
 30
0.0
 11
208.437
 21
12.8488
 31
0.0
  0
LINE
  8
0
 62
     0
 10
208.437
 20
12.8488
 30
0.0
 11
208.437
 21
19.1189
 31
0.0
  0
LINE
  8
0
 62
     0
 10
208.437
 20
19.1189
 30
0.0
 11
209.312
 21
19.1189
 31
0.0
  0
LINE
  8
0
 62
     0
 10
209.312
 20
19.1189
 30
0.0
 11
209.312
 21
21.9177
 31
0.0
  0
LINE
  8
0
 62
     0
 10
209.312
 20
21.9177
 30
0.0
 11
208.437
 21
21.9177
 31
0.0
  0
LINE
  8
0
 62
     0
 10
208.437
 20
21.9177
 30
0.0
 11
208.437
 21
25.1478
 31
0.0
  0
LINE
  8
0
 62
     0
 10
208.437
 20
25.1478
 30
0.0
 11
206.762
 21
25.1478
 31
0.0
  0
LINE
  8
0
 62
     0
 10
206.762
 20
25.1478
 30
0.0
 11
206.762
 21
26.0697
 31
0.0
  0
LINE
  8
0
 62
     0
 10
206.762
 20
26.0697
 30
0.0
 11
203.462
 21
26.0697
 31
0.0
  0
LINE
  8
0
 62
     0
 10
203.462
 20
26.0697
 30
0.0
 11
203.462
 21
25.1478
 31
0.0
  0
LINE
  8
0
 62
     0
 10
203.462
 20
25.1478
 30
0.0
 11
201.786
 21
25.1478
 31
0.0
  0
LINE
  8
0
 62
     0
 10
201.786
 20
25.1478
 30
0.0
 11
201.786
 21
21.9177
 31
0.0
  0
LINE
  8
0
 62
     0
 10
201.786
 20
21.9177
 30
0.0
 11
162.112
 21
21.9177
 31
0.0
  0
LINE
  8
0
 62
     0
 10
162.112
 20
21.9177
 30
0.0
 11
162.112
 21
22.5185
 31
0.0
  0
LINE
  8
0
 62
     0
 10
162.112
 20
22.5185
 30
0.0
 11
162.912
 21
22.5185
 31
0.0
  0
LINE
  8
0
 62
     0
 10
162.912
 20
22.5185
 30
0.0
 11
162.912
 21
25.6191
 31
0.0
  0
LINE
  8
0
 62
     0
 10
162.912
 20
25.6191
 30
0.0
 11
162.112
 21
25.6191
 31
0.0
  0
LINE
  8
0
 62
     0
 10
162.112
 20
25.6191
 30
0.0
 11
162.112
 21
26.6182
 31
0.0
  0
LINE
  8
0
 62
     0
 10
162.112
 20
26.6182
 30
0.0
 11
148.112
 21
26.6182
 31
0.0
  0
LINE
  8
0
 62
     0
 10
7.61781
 20
26.6182
 30
0.0
 11
7.61781
 21
25.6191
 31
0.0
  0
LINE
  8
0
 62
     0
 10
7.61781
 20
25.6191
 30
0.0
 11
6.81715
 21
25.6191
 31
0.0
  0
LINE
  8
0
 62
     0
 10
6.81715
 20
25.6191
 30
0.0
 11
6.81715
 21
22.5185
 31
0.0
  0
LINE
  8
0
 62
     0
 10
6.81715
 20
22.5185
 30
0.0
 11
7.61781
 21
22.5185
 31
0.0
  0
LINE
  8
0
 62
     0
 10
7.61781
 20
22.5185
 30
0.0
 11
7.61781
 21
16.7184
 31
0.0
  0
LINE
  8
0
 62
     0
 10
7.61781
 20
16.7184
 30
0.0
 11
6.81715
 21
16.7184
 31
0.0
  0
LINE
  8
0
 62
     0
 10
6.81715
 20
16.7184
 30
0.0
 11
6.81715
 21
13.6178
 31
0.0
  0
LINE
  8
0
 62
     0
 10
6.81715
 20
13.6178
 30
0.0
 11
7.61781
 21
13.6178
 31
0.0
  0
LINE
  8
0
 62
     0
 10
7.61781
 20
13.6178
 30
0.0
 11
7.61781
 21
12.6187
 31
0.0
  0
LINE
  8
0
 62
     0
 10
7.61781
 20
12.6187
 30
0.0
 11
21.6187
 21
12.6187
 31
0.0
  0
LINE
  8
0
 62
     0
 10
21.6187
 20
12.6187
 30
0.0
 11
21.6187
 21
13.6178
 31
0.0
  0
LINE
  8
0
 62
     0
 10
21.6187
 20
13.6178
 30
0.0
 11
22.4193
 21
13.6178
 31
0.0
  0
LINE
  8
0
 62
     0
 10
22.4193
 20
13.6178
 30
0.0
 11
22.4193
 21
16.7184
 31
0.0
  0
LINE
  8
0
 62
     0
 10
22.4193
 20
16.7184
 30
0.0
 11
21.6187
 21
16.7184
 31
0.0
  0
LINE
  8
0
 62
     0
 10
21.6187
 20
16.7184
 30
0.0
 11
21.6187
 21
22.5185
 31
0.0
  0
LINE
  8
0
 62
     0
 10
21.6187
 20
22.5185
 30
0.0
 11
22.4193
 21
22.5185
 31
0.0
  0
LINE
  8
0
 62
     0
 10
22.4193
 20
22.5185
 30
0.0
 11
22.4193
 21
25.6191
 31
0.0
  0
LINE
  8
0
 62
     0
 10
22.4193
 20
25.6191
 30
0.0
 11
21.6187
 21
25.6191
 31
0.0
  0
LINE
  8
0
 62
     0
 10
21.6187
 20
25.6191
 30
0.0
 11
21.6187
 21
26.6182
 31
0.0
  0
LINE
  8
0
 62
     0
 10
21.6187
 20
26.6182
 30
0.0
 11
7.61781
 21
26.6182
 31
0.0
  0
LINE
  8
0
 62
     0
 10
29.0504
 20
26.6182
 30
0.0
 11
29.0504
 21
25.6191
 31
0.0
  0
LINE
  8
0
 62
     0
 10
29.0504
 20
25.6191
 30
0.0
 11
28.2498
 21
25.6191
 31
0.0
  0
LINE
  8
0
 62
     0
 10
28.2498
 20
25.6191
 30
0.0
 11
28.2498
 21
22.5185
 31
0.0
  0
LINE
  8
0
 62
     0
 10
28.2498
 20
22.5185
 30
0.0
 11
29.0504
 21
22.5185
 31
0.0
  0
LINE
  8
0
 62
     0
 10
29.0504
 20
22.5185
 30
0.0
 11
29.0504
 21
16.7184
 31
0.0
  0
LINE
  8
0
 62
     0
 10
29.0504
 20
16.7184
 30
0.0
 11
28.2498
 21
16.7184
 31
0.0
  0
LINE
  8
0
 62
     0
 10
28.2498
 20
16.7184
 30
0.0
 11
28.2498
 21
13.6178
 31
0.0
  0
LINE
  8
0
 62
     0
 10
28.2498
 20
13.6178
 30
0.0
 11
29.0504
 21
13.6178
 31
0.0
  0
LINE
  8
0
 62
     0
 10
29.0504
 20
13.6178
 30
0.0
 11
29.0504
 21
12.6187
 31
0.0
  0
LINE
  8
0
 62
     0
 10
29.0504
 20
12.6187
 30
0.0
 11
43.0498
 21
12.6187
 31
0.0
  0
LINE
  8
0
 62
     0
 10
43.0498
 20
12.6187
 30
0.0
 11
43.0498
 21
13.6178
 31
0.0
  0
LINE
  8
0
 62
     0
 10
43.0498
 20
13.6178
 30
0.0
 11
43.8492
 21
13.6178
 31
0.0
  0
LINE
  8
0
 62
     0
 10
43.8492
 20
13.6178
 30
0.0
 11
43.8492
 21
16.7184
 31
0.0
  0
LINE
  8
0
 62
     0
 10
43.8492
 20
16.7184
 30
0.0
 11
43.0498
 21
16.7184
 31
0.0
  0
LINE
  8
0
 62
     0
 10
43.0498
 20
16.7184
 30
0.0
 11
43.0498
 21
22.5185
 31
0.0
  0
LINE
  8
0
 62
     0
 10
43.0498
 20
22.5185
 30
0.0
 11
43.8492
 21
22.5185
 31
0.0
  0
LINE
  8
0
 62
     0
 10
43.8492
 20
22.5185
 30
0.0
 11
43.8492
 21
25.6191
 31
0.0
  0
LINE
  8
0
 62
     0
 10
43.8492
 20
25.6191
 30
0.0
 11
43.0498
 21
25.6191
 31
0.0
  0
LINE
  8
0
 62
     0
 10
43.0498
 20
25.6191
 30
0.0
 11
43.0498
 21
26.6182
 31
0.0
  0
LINE
  8
0
 62
     0
 10
43.0498
 20
26.6182
 30
0.0
 11
29.0504
 21
26.6182
 31
0.0
  0
LINE
  8
0
 62
     0
 10
52.8616
 20
26.6182
 30
0.0
 11
52.8616
 21
25.6191
 31
0.0
  0
LINE
  8
0
 62
     0
 10
52.8616
 20
25.6191
 30
0.0
 11
52.0622
 21
25.6191
 31
0.0
  0
LINE
  8
0
 62
     0
 10
52.0622
 20
25.6191
 30
0.0
 11
52.0622
 21
22.5185
 31
0.0
  0
LINE
  8
0
 62
     0
 10
52.0622
 20
22.5185
 30
0.0
 11
52.8616
 21
22.5185
 31
0.0
  0
LINE
  8
0
 62
     0
 10
52.8616
 20
22.5185
 30
0.0
 11
52.8616
 21
16.7184
 31
0.0
  0
LINE
  8
0
 62
     0
 10
52.8616
 20
16.7184
 30
0.0
 11
52.0622
 21
16.7184
 31
0.0
  0
LINE
  8
0
 62
     0
 10
52.0622
 20
16.7184
 30
0.0
 11
52.0622
 21
13.6178
 31
0.0
  0
LINE
  8
0
 62
     0
 10
52.0622
 20
13.6178
 30
0.0
 11
52.8616
 21
13.6178
 31
0.0
  0
LINE
  8
0
 62
     0
 10
52.8616
 20
13.6178
 30
0.0
 11
52.8616
 21
12.6187
 31
0.0
  0
LINE
  8
0
 62
     0
 10
52.8616
 20
12.6187
 30
0.0
 11
66.8623
 21
12.6187
 31
0.0
  0
LINE
  8
0
 62
     0
 10
66.8623
 20
12.6187
 30
0.0
 11
66.8623
 21
13.6178
 31
0.0
  0
LINE
  8
0
 62
     0
 10
66.8623
 20
13.6178
 30
0.0
 11
67.6617
 21
13.6178
 31
0.0
  0
LINE
  8
0
 62
     0
 10
67.6617
 20
13.6178
 30
0.0
 11
67.6617
 21
16.7184
 31
0.0
  0
LINE
  8
0
 62
     0
 10
67.6617
 20
16.7184
 30
0.0
 11
66.8623
 21
16.7184
 31
0.0
  0
LINE
  8
0
 62
     0
 10
66.8623
 20
16.7184
 30
0.0
 11
66.8623
 21
22.5185
 31
0.0
  0
LINE
  8
0
 62
     0
 10
66.8623
 20
22.5185
 30
0.0
 11
67.6617
 21
22.5185
 31
0.0
  0
LINE
  8
0
 62
     0
 10
67.6617
 20
22.5185
 30
0.0
 11
67.6617
 21
25.6191
 31
0.0
  0
LINE
  8
0
 62
     0
 10
67.6617
 20
25.6191
 30
0.0
 11
66.8623
 21
25.6191
 31
0.0
  0
LINE
  8
0
 62
     0
 10
66.8623
 20
25.6191
 30
0.0
 11
66.8623
 21
26.6182
 31
0.0
  0
LINE
  8
0
 62
     0
 10
66.8623
 20
26.6182
 30
0.0
 11
52.8616
 21
26.6182
 31
0.0
  0
LINE
  8
0
 62
     0
 10
76.6755
 20
26.6182
 30
0.0
 11
76.6755
 21
25.6191
 31
0.0
  0
LINE
  8
0
 62
     0
 10
76.6755
 20
25.6191
 30
0.0
 11
75.8747
 21
25.6191
 31
0.0
  0
LINE
  8
0
 62
     0
 10
75.8747
 20
25.6191
 30
0.0
 11
75.8747
 21
22.5185
 31
0.0
  0
LINE
  8
0
 62
     0
 10
75.8747
 20
22.5185
 30
0.0
 11
76.6755
 21
22.5185
 31
0.0
  0
LINE
  8
0
 62
     0
 10
76.6755
 20
22.5185
 30
0.0
 11
76.6755
 21
16.7184
 31
0.0
  0
LINE
  8
0
 62
     0
 10
76.6755
 20
16.7184
 30
0.0
 11
75.8747
 21
16.7184
 31
0.0
  0
LINE
  8
0
 62
     0
 10
75.8747
 20
16.7184
 30
0.0
 11
75.8747
 21
13.6178
 31
0.0
  0
LINE
  8
0
 62
     0
 10
75.8747
 20
13.6178
 30
0.0
 11
76.6755
 21
13.6178
 31
0.0
  0
LINE
  8
0
 62
     0
 10
76.6755
 20
13.6178
 30
0.0
 11
76.6755
 21
12.6187
 31
0.0
  0
LINE
  8
0
 62
     0
 10
76.6755
 20
12.6187
 30
0.0
 11
90.6748
 21
12.6187
 31
0.0
  0
LINE
  8
0
 62
     0
 10
90.6748
 20
12.6187
 30
0.0
 11
90.6748
 21
13.6178
 31
0.0
  0
LINE
  8
0
 62
     0
 10
90.6748
 20
13.6178
 30
0.0
 11
91.4742
 21
13.6178
 31
0.0
  0
LINE
  8
0
 62
     0
 10
91.4742
 20
13.6178
 30
0.0
 11
91.4742
 21
16.7184
 31
0.0
  0
LINE
  8
0
 62
     0
 10
91.4742
 20
16.7184
 30
0.0
 11
90.6748
 21
16.7184
 31
0.0
  0
LINE
  8
0
 62
     0
 10
90.6748
 20
16.7184
 30
0.0
 11
90.6748
 21
22.5185
 31
0.0
  0
LINE
  8
0
 62
     0
 10
90.6748
 20
22.5185
 30
0.0
 11
91.4742
 21
22.5185
 31
0.0
  0
LINE
  8
0
 62
     0
 10
91.4742
 20
22.5185
 30
0.0
 11
91.4742
 21
25.6191
 31
0.0
  0
LINE
  8
0
 62
     0
 10
91.4742
 20
25.6191
 30
0.0
 11
90.6748
 21
25.6191
 31
0.0
  0
LINE
  8
0
 62
     0
 10
90.6748
 20
25.6191
 30
0.0
 11
90.6748
 21
26.6182
 31
0.0
  0
LINE
  8
0
 62
     0
 10
90.6748
 20
26.6182
 30
0.0
 11
76.6755
 21
26.6182
 31
0.0
  0
LINE
  8
0
 62
     0
 10
217.169
 20
26.6182
 30
0.0
 11
217.169
 21
25.6191
 31
0.0
  0
LINE
  8
0
 62
     0
 10
217.169
 20
25.6191
 30
0.0
 11
216.368
 21
25.6191
 31
0.0
  0
LINE
  8
0
 62
     0
 10
216.368
 20
25.6191
 30
0.0
 11
216.368
 21
22.5185
 31
0.0
  0
LINE
  8
0
 62
     0
 10
216.368
 20
22.5185
 30
0.0
 11
217.169
 21
22.5185
 31
0.0
  0
LINE
  8
0
 62
     0
 10
217.169
 20
22.5185
 30
0.0
 11
217.169
 21
16.7184
 31
0.0
  0
LINE
  8
0
 62
     0
 10
217.169
 20
16.7184
 30
0.0
 11
216.368
 21
16.7184
 31
0.0
  0
LINE
  8
0
 62
     0
 10
216.368
 20
16.7184
 30
0.0
 11
216.368
 21
13.6178
 31
0.0
  0
LINE
  8
0
 62
     0
 10
216.368
 20
13.6178
 30
0.0
 11
217.169
 21
13.6178
 31
0.0
  0
LINE
  8
0
 62
     0
 10
217.169
 20
13.6178
 30
0.0
 11
217.169
 21
12.6187
 31
0.0
  0
LINE
  8
0
 62
     0
 10
217.169
 20
12.6187
 30
0.0
 11
231.169
 21
12.6187
 31
0.0
  0
LINE
  8
0
 62
     0
 10
231.169
 20
12.6187
 30
0.0
 11
231.169
 21
13.6178
 31
0.0
  0
LINE
  8
0
 62
     0
 10
231.169
 20
13.6178
 30
0.0
 11
231.969
 21
13.6178
 31
0.0
  0
LINE
  8
0
 62
     0
 10
231.969
 20
13.6178
 30
0.0
 11
231.969
 21
16.7184
 31
0.0
  0
LINE
  8
0
 62
     0
 10
231.969
 20
16.7184
 30
0.0
 11
231.169
 21
16.7184
 31
0.0
  0
LINE
  8
0
 62
     0
 10
231.169
 20
16.7184
 30
0.0
 11
231.169
 21
22.5185
 31
0.0
  0
LINE
  8
0
 62
     0
 10
231.169
 20
22.5185
 30
0.0
 11
231.969
 21
22.5185
 31
0.0
  0
LINE
  8
0
 62
     0
 10
231.969
 20
22.5185
 30
0.0
 11
231.969
 21
25.6191
 31
0.0
  0
LINE
  8
0
 62
     0
 10
231.969
 20
25.6191
 30
0.0
 11
231.169
 21
25.6191
 31
0.0
  0
LINE
  8
0
 62
     0
 10
231.169
 20
25.6191
 30
0.0
 11
231.169
 21
26.6182
 31
0.0
  0
LINE
  8
0
 62
     0
 10
231.169
 20
26.6182
 30
0.0
 11
217.169
 21
26.6182
 31
0.0
  0
LINE
  8
0
 62
     0
 10
236.219
 20
26.6182
 30
0.0
 11
236.219
 21
25.6191
 31
0.0
  0
LINE
  8
0
 62
     0
 10
236.219
 20
25.6191
 30
0.0
 11
235.418
 21
25.6191
 31
0.0
  0
LINE
  8
0
 62
     0
 10
235.418
 20
25.6191
 30
0.0
 11
235.418
 21
22.5185
 31
0.0
  0
LINE
  8
0
 62
     0
 10
235.418
 20
22.5185
 30
0.0
 11
236.219
 21
22.5185
 31
0.0
  0
LINE
  8
0
 62
     0
 10
236.219
 20
22.5185
 30
0.0
 11
236.219
 21
16.7184
 31
0.0
  0
LINE
  8
0
 62
     0
 10
236.219
 20
16.7184
 30
0.0
 11
235.418
 21
16.7184
 31
0.0
  0
LINE
  8
0
 62
     0
 10
235.418
 20
16.7184
 30
0.0
 11
235.418
 21
13.6178
 31
0.0
  0
LINE
  8
0
 62
     0
 10
235.418
 20
13.6178
 30
0.0
 11
236.219
 21
13.6178
 31
0.0
  0
LINE
  8
0
 62
     0
 10
236.219
 20
13.6178
 30
0.0
 11
236.219
 21
12.6187
 31
0.0
  0
LINE
  8
0
 62
     0
 10
236.219
 20
12.6187
 30
0.0
 11
250.219
 21
12.6187
 31
0.0
  0
LINE
  8
0
 62
     0
 10
250.219
 20
12.6187
 30
0.0
 11
250.219
 21
13.6178
 31
0.0
  0
LINE
  8
0
 62
     0
 10
250.219
 20
13.6178
 30
0.0
 11
251.019
 21
13.6178
 31
0.0
  0
LINE
  8
0
 62
     0
 10
251.019
 20
13.6178
 30
0.0
 11
251.019
 21
16.7184
 31
0.0
  0
LINE
  8
0
 62
     0
 10
251.019
 20
16.7184
 30
0.0
 11
250.219
 21
16.7184
 31
0.0
  0
LINE
  8
0
 62
     0
 10
250.219
 20
16.7184
 30
0.0
 11
250.219
 21
22.5185
 31
0.0
  0
LINE
  8
0
 62
     0
 10
250.219
 20
22.5185
 30
0.0
 11
251.019
 21
22.5185
 31
0.0
  0
LINE
  8
0
 62
     0
 10
251.019
 20
22.5185
 30
0.0
 11
251.019
 21
25.6191
 31
0.0
  0
LINE
  8
0
 62
     0
 10
251.019
 20
25.6191
 30
0.0
 11
250.219
 21
25.6191
 31
0.0
  0
LINE
  8
0
 62
     0
 10
250.219
 20
25.6191
 30
0.0
 11
250.219
 21
26.6182
 31
0.0
  0
LINE
  8
0
 62
     0
 10
250.219
 20
26.6182
 30
0.0
 11
236.219
 21
26.6182
 31
0.0
  0
LINE
  8
0
 62
     0
 10
255.269
 20
26.6182
 30
0.0
 11
255.269
 21
25.6191
 31
0.0
  0
LINE
  8
0
 62
     0
 10
255.269
 20
25.6191
 30
0.0
 11
254.468
 21
25.6191
 31
0.0
  0
LINE
  8
0
 62
     0
 10
254.468
 20
25.6191
 30
0.0
 11
254.468
 21
22.5185
 31
0.0
  0
LINE
  8
0
 62
     0
 10
254.468
 20
22.5185
 30
0.0
 11
255.269
 21
22.5185
 31
0.0
  0
LINE
  8
0
 62
     0
 10
255.269
 20
22.5185
 30
0.0
 11
255.269
 21
16.7184
 31
0.0
  0
LINE
  8
0
 62
     0
 10
255.269
 20
16.7184
 30
0.0
 11
254.468
 21
16.7184
 31
0.0
  0
LINE
  8
0
 62
     0
 10
254.468
 20
16.7184
 30
0.0
 11
254.468
 21
13.6178
 31
0.0
  0
LINE
  8
0
 62
     0
 10
254.468
 20
13.6178
 30
0.0
 11
255.269
 21
13.6178
 31
0.0
  0
LINE
  8
0
 62
     0
 10
255.269
 20
13.6178
 30
0.0
 11
255.269
 21
12.6187
 31
0.0
  0
LINE
  8
0
 62
     0
 10
255.269
 20
12.6187
 30
0.0
 11
269.269
 21
12.6187
 31
0.0
  0
LINE
  8
0
 62
     0
 10
269.269
 20
12.6187
 30
0.0
 11
269.269
 21
13.6178
 31
0.0
  0
LINE
  8
0
 62
     0
 10
269.269
 20
13.6178
 30
0.0
 11
270.069
 21
13.6178
 31
0.0
  0
LINE
  8
0
 62
     0
 10
270.069
 20
13.6178
 30
0.0
 11
270.069
 21
16.7184
 31
0.0
  0
LINE
  8
0
 62
     0
 10
270.069
 20
16.7184
 30
0.0
 11
269.269
 21
16.7184
 31
0.0
  0
LINE
  8
0
 62
     0
 10
269.269
 20
16.7184
 30
0.0
 11
269.269
 21
22.5185
 31
0.0
  0
LINE
  8
0
 62
     0
 10
269.269
 20
22.5185
 30
0.0
 11
270.069
 21
22.5185
 31
0.0
  0
LINE
  8
0
 62
     0
 10
270.069
 20
22.5185
 30
0.0
 11
270.069
 21
25.6191
 31
0.0
  0
LINE
  8
0
 62
     0
 10
270.069
 20
25.6191
 30
0.0
 11
269.269
 21
25.6191
 31
0.0
  0
LINE
  8
0
 62
     0
 10
269.269
 20
25.6191
 30
0.0
 11
269.269
 21
26.6182
 31
0.0
  0
LINE
  8
0
 62
     0
 10
269.269
 20
26.6182
 30
0.0
 11
255.269
 21
26.6182
 31
0.0
  0
LINE
  8
0
 62
     0
 10
274.319
 20
26.6182
 30
0.0
 11
274.319
 21
25.6191
 31
0.0
  0
LINE
  8
0
 62
     0
 10
274.319
 20
25.6191
 30
0.0
 11
273.518
 21
25.6191
 31
0.0
  0
LINE
  8
0
 62
     0
 10
273.518
 20
25.6191
 30
0.0
 11
273.518
 21
22.5185
 31
0.0
  0
LINE
  8
0
 62
     0
 10
273.518
 20
22.5185
 30
0.0
 11
274.319
 21
22.5185
 31
0.0
  0
LINE
  8
0
 62
     0
 10
274.319
 20
22.5185
 30
0.0
 11
274.319
 21
16.7184
 31
0.0
  0
LINE
  8
0
 62
     0
 10
274.319
 20
16.7184
 30
0.0
 11
273.518
 21
16.7184
 31
0.0
  0
LINE
  8
0
 62
     0
 10
273.518
 20
16.7184
 30
0.0
 11
273.518
 21
13.6178
 31
0.0
  0
LINE
  8
0
 62
     0
 10
273.518
 20
13.6178
 30
0.0
 11
274.319
 21
13.6178
 31
0.0
  0
LINE
  8
0
 62
     0
 10
274.319
 20
13.6178
 30
0.0
 11
274.319
 21
12.6187
 31
0.0
  0
LINE
  8
0
 62
     0
 10
274.319
 20
12.6187
 30
0.0
 11
288.319
 21
12.6187
 31
0.0
  0
LINE
  8
0
 62
     0
 10
288.319
 20
12.6187
 30
0.0
 11
288.319
 21
13.6178
 31
0.0
  0
LINE
  8
0
 62
     0
 10
288.319
 20
13.6178
 30
0.0
 11
289.119
 21
13.6178
 31
0.0
  0
LINE
  8
0
 62
     0
 10
289.119
 20
13.6178
 30
0.0
 11
289.119
 21
16.7184
 31
0.0
  0
LINE
  8
0
 62
     0
 10
289.119
 20
16.7184
 30
0.0
 11
288.319
 21
16.7184
 31
0.0
  0
LINE
  8
0
 62
     0
 10
288.319
 20
16.7184
 30
0.0
 11
288.319
 21
22.5185
 31
0.0
  0
LINE
  8
0
 62
     0
 10
288.319
 20
22.5185
 30
0.0
 11
289.119
 21
22.5185
 31
0.0
  0
LINE
  8
0
 62
     0
 10
289.119
 20
22.5185
 30
0.0
 11
289.119
 21
25.6191
 31
0.0
  0
LINE
  8
0
 62
     0
 10
289.119
 20
25.6191
 30
0.0
 11
288.319
 21
25.6191
 31
0.0
  0
LINE
  8
0
 62
     0
 10
288.319
 20
25.6191
 30
0.0
 11
288.319
 21
26.6182
 31
0.0
  0
LINE
  8
0
 62
     0
 10
288.319
 20
26.6182
 30
0.0
 11
274.319
 21
26.6182
 31
0.0
  0
LINE
  8
0
 62
     0
 10
293.369
 20
26.6182
 30
0.0
 11
293.369
 21
25.6191
 31
0.0
  0
LINE
  8
0
 62
     0
 10
293.369
 20
25.6191
 30
0.0
 11
292.568
 21
25.6191
 31
0.0
  0
LINE
  8
0
 62
     0
 10
292.568
 20
25.6191
 30
0.0
 11
292.568
 21
22.5185
 31
0.0
  0
LINE
  8
0
 62
     0
 10
292.568
 20
22.5185
 30
0.0
 11
293.369
 21
22.5185
 31
0.0
  0
LINE
  8
0
 62
     0
 10
293.369
 20
22.5185
 30
0.0
 11
293.369
 21
16.7184
 31
0.0
  0
LINE
  8
0
 62
     0
 10
293.369
 20
16.7184
 30
0.0
 11
292.568
 21
16.7184
 31
0.0
  0
LINE
  8
0
 62
     0
 10
292.568
 20
16.7184
 30
0.0
 11
292.568
 21
13.6178
 31
0.0
  0
LINE
  8
0
 62
     0
 10
292.568
 20
13.6178
 30
0.0
 11
293.369
 21
13.6178
 31
0.0
  0
LINE
  8
0
 62
     0
 10
293.369
 20
13.6178
 30
0.0
 11
293.369
 21
12.6187
 31
0.0
  0
LINE
  8
0
 62
     0
 10
293.369
 20
12.6187
 30
0.0
 11
307.369
 21
12.6187
 31
0.0
  0
LINE
  8
0
 62
     0
 10
307.369
 20
12.6187
 30
0.0
 11
307.369
 21
13.6178
 31
0.0
  0
LINE
  8
0
 62
     0
 10
307.369
 20
13.6178
 30
0.0
 11
308.169
 21
13.6178
 31
0.0
  0
LINE
  8
0
 62
     0
 10
308.169
 20
13.6178
 30
0.0
 11
308.169
 21
16.7184
 31
0.0
  0
LINE
  8
0
 62
     0
 10
308.169
 20
16.7184
 30
0.0
 11
307.369
 21
16.7184
 31
0.0
  0
LINE
  8
0
 62
     0
 10
307.369
 20
16.7184
 30
0.0
 11
307.369
 21
22.5185
 31
0.0
  0
LINE
  8
0
 62
     0
 10
307.369
 20
22.5185
 30
0.0
 11
308.169
 21
22.5185
 31
0.0
  0
LINE
  8
0
 62
     0
 10
308.169
 20
22.5185
 30
0.0
 11
308.169
 21
25.6191
 31
0.0
  0
LINE
  8
0
 62
     0
 10
308.169
 20
25.6191
 30
0.0
 11
307.369
 21
25.6191
 31
0.0
  0
LINE
  8
0
 62
     0
 10
307.369
 20
25.6191
 30
0.0
 11
307.369
 21
26.6182
 31
0.0
  0
LINE
  8
0
 62
     0
 10
307.369
 20
26.6182
 30
0.0
 11
293.369
 21
26.6182
 31
0.0
  0
LINE
  8
0
 62
     0
 10
312.419
 20
26.6182
 30
0.0
 11
312.419
 21
25.6191
 31
0.0
  0
LINE
  8
0
 62
     0
 10
312.419
 20
25.6191
 30
0.0
 11
311.618
 21
25.6191
 31
0.0
  0
LINE
  8
0
 62
     0
 10
311.618
 20
25.6191
 30
0.0
 11
311.618
 21
22.5185
 31
0.0
  0
LINE
  8
0
 62
     0
 10
311.618
 20
22.5185
 30
0.0
 11
312.419
 21
22.5185
 31
0.0
  0
LINE
  8
0
 62
     0
 10
312.419
 20
22.5185
 30
0.0
 11
312.419
 21
16.7184
 31
0.0
  0
LINE
  8
0
 62
     0
 10
312.419
 20
16.7184
 30
0.0
 11
311.618
 21
16.7184
 31
0.0
  0
LINE
  8
0
 62
     0
 10
311.618
 20
16.7184
 30
0.0
 11
311.618
 21
13.6178
 31
0.0
  0
LINE
  8
0
 62
     0
 10
311.618
 20
13.6178
 30
0.0
 11
312.419
 21
13.6178
 31
0.0
  0
LINE
  8
0
 62
     0
 10
312.419
 20
13.6178
 30
0.0
 11
312.419
 21
12.6187
 31
0.0
  0
LINE
  8
0
 62
     0
 10
312.419
 20
12.6187
 30
0.0
 11
326.419
 21
12.6187
 31
0.0
  0
LINE
  8
0
 62
     0
 10
326.419
 20
12.6187
 30
0.0
 11
326.419
 21
13.6178
 31
0.0
  0
LINE
  8
0
 62
     0
 10
326.419
 20
13.6178
 30
0.0
 11
327.219
 21
13.6178
 31
0.0
  0
LINE
  8
0
 62
     0
 10
327.219
 20
13.6178
 30
0.0
 11
327.219
 21
16.7184
 31
0.0
  0
LINE
  8
0
 62
     0
 10
327.219
 20
16.7184
 30
0.0
 11
326.419
 21
16.7184
 31
0.0
  0
LINE
  8
0
 62
     0
 10
326.419
 20
16.7184
 30
0.0
 11
326.419
 21
22.5185
 31
0.0
  0
LINE
  8
0
 62
     0
 10
326.419
 20
22.5185
 30
0.0
 11
327.219
 21
22.5185
 31
0.0
  0
LINE
  8
0
 62
     0
 10
327.219
 20
22.5185
 30
0.0
 11
327.219
 21
25.6191
 31
0.0
  0
LINE
  8
0
 62
     0
 10
327.219
 20
25.6191
 30
0.0
 11
326.419
 21
25.6191
 31
0.0
  0
LINE
  8
0
 62
     0
 10
326.419
 20
25.6191
 30
0.0
 11
326.419
 21
26.6182
 31
0.0
  0
LINE
  8
0
 62
     0
 10
326.419
 20
26.6182
 30
0.0
 11
312.419
 21
26.6182
 31
0.0
  0
LINE
  8
0
 62
     0
 10
38.5755
 20
45.6681
 30
0.0
 11
38.5755
 21
44.6691
 31
0.0
  0
LINE
  8
0
 62
     0
 10
38.5755
 20
44.6691
 30
0.0
 11
37.7747
 21
44.6691
 31
0.0
  0
LINE
  8
0
 62
     0
 10
37.7747
 20
44.6691
 30
0.0
 11
37.7747
 21
41.5685
 31
0.0
  0
LINE
  8
0
 62
     0
 10
37.7747
 20
41.5685
 30
0.0
 11
38.5755
 21
41.5685
 31
0.0
  0
LINE
  8
0
 62
     0
 10
38.5755
 20
41.5685
 30
0.0
 11
38.5755
 21
40.9677
 31
0.0
  0
LINE
  8
0
 62
     0
 10
38.5755
 20
40.9677
 30
0.0
 11
36.9492
 21
40.9677
 31
0.0
  0
LINE
  8
0
 62
     0
 10
36.9492
 20
40.9677
 30
0.0
 11
36.9492
 21
44.1978
 31
0.0
  0
LINE
  8
0
 62
     0
 10
36.9492
 20
44.1978
 30
0.0
 11
35.275
 21
44.1978
 31
0.0
  0
LINE
  8
0
 62
     0
 10
35.275
 20
44.1978
 30
0.0
 11
35.275
 21
45.1185
 31
0.0
  0
LINE
  8
0
 62
     0
 10
35.275
 20
45.1185
 30
0.0
 11
31.9746
 21
45.1185
 31
0.0
  0
LINE
  8
0
 62
     0
 10
31.9746
 20
45.1185
 30
0.0
 11
31.9746
 21
44.1978
 31
0.0
  0
LINE
  8
0
 62
     0
 10
31.9746
 20
44.1978
 30
0.0
 11
30.3003
 21
44.1978
 31
0.0
  0
LINE
  8
0
 62
     0
 10
30.3003
 20
44.1978
 30
0.0
 11
30.3003
 21
40.9677
 31
0.0
  0
LINE
  8
0
 62
     0
 10
30.3003
 20
40.9677
 30
0.0
 11
29.4253
 21
40.9677
 31
0.0
  0
LINE
  8
0
 62
     0
 10
29.4253
 20
40.9677
 30
0.0
 11
29.4253
 21
38.1688
 31
0.0
  0
LINE
  8
0
 62
     0
 10
29.4253
 20
38.1688
 30
0.0
 11
30.3003
 21
38.1688
 31
0.0
  0
LINE
  8
0
 62
     0
 10
30.3003
 20
38.1688
 30
0.0
 11
30.3003
 21
31.8975
 31
0.0
  0
LINE
  8
0
 62
     0
 10
30.3003
 20
31.8975
 30
0.0
 11
31.9746
 21
31.8975
 31
0.0
  0
LINE
  8
0
 62
     0
 10
31.9746
 20
31.8975
 30
0.0
 11
31.9746
 21
30.9177
 31
0.0
  0
LINE
  8
0
 62
     0
 10
31.9746
 20
30.9177
 30
0.0
 11
35.275
 21
30.9177
 31
0.0
  0
LINE
  8
0
 62
     0
 10
35.275
 20
30.9177
 30
0.0
 11
35.275
 21
31.8975
 31
0.0
  0
LINE
  8
0
 62
     0
 10
35.275
 20
31.8975
 30
0.0
 11
36.9492
 21
31.8975
 31
0.0
  0
LINE
  8
0
 62
     0
 10
36.9492
 20
31.8975
 30
0.0
 11
36.9492
 21
36.3679
 31
0.0
  0
LINE
  8
0
 62
     0
 10
36.9492
 20
36.3679
 30
0.0
 11
38.5755
 21
36.3679
 31
0.0
  0
LINE
  8
0
 62
     0
 10
38.5755
 20
36.3679
 30
0.0
 11
38.5755
 21
35.7685
 31
0.0
  0
LINE
  8
0
 62
     0
 10
38.5755
 20
35.7685
 30
0.0
 11
37.7747
 21
35.7685
 31
0.0
  0
LINE
  8
0
 62
     0
 10
37.7747
 20
35.7685
 30
0.0
 11
37.7747
 21
32.6678
 31
0.0
  0
LINE
  8
0
 62
     0
 10
37.7747
 20
32.6678
 30
0.0
 11
38.5755
 21
32.6678
 31
0.0
  0
LINE
  8
0
 62
     0
 10
38.5755
 20
32.6678
 30
0.0
 11
38.5755
 21
31.6687
 31
0.0
  0
LINE
  8
0
 62
     0
 10
38.5755
 20
31.6687
 30
0.0
 11
52.5748
 21
31.6687
 31
0.0
  0
LINE
  8
0
 62
     0
 10
52.5748
 20
31.6687
 30
0.0
 11
52.5748
 21
32.6678
 31
0.0
  0
LINE
  8
0
 62
     0
 10
52.5748
 20
32.6678
 30
0.0
 11
53.3742
 21
32.6678
 31
0.0
  0
LINE
  8
0
 62
     0
 10
53.3742
 20
32.6678
 30
0.0
 11
53.3742
 21
35.7685
 31
0.0
  0
LINE
  8
0
 62
     0
 10
53.3742
 20
35.7685
 30
0.0
 11
52.5748
 21
35.7685
 31
0.0
  0
LINE
  8
0
 62
     0
 10
52.5748
 20
35.7685
 30
0.0
 11
52.5748
 21
36.3679
 31
0.0
  0
LINE
  8
0
 62
     0
 10
52.5748
 20
36.3679
 30
0.0
 11
54.1997
 21
36.3679
 31
0.0
  0
LINE
  8
0
 62
     0
 10
54.1997
 20
36.3679
 30
0.0
 11
54.1997
 21
31.8975
 31
0.0
  0
LINE
  8
0
 62
     0
 10
54.1997
 20
31.8975
 30
0.0
 11
55.8754
 21
31.8975
 31
0.0
  0
LINE
  8
0
 62
     0
 10
55.8754
 20
31.8975
 30
0.0
 11
55.8754
 21
30.9177
 31
0.0
  0
LINE
  8
0
 62
     0
 10
55.8754
 20
30.9177
 30
0.0
 11
59.1742
 21
30.9177
 31
0.0
  0
LINE
  8
0
 62
     0
 10
59.1742
 20
30.9177
 30
0.0
 11
59.1742
 21
31.8975
 31
0.0
  0
LINE
  8
0
 62
     0
 10
59.1742
 20
31.8975
 30
0.0
 11
60.8499
 21
31.8975
 31
0.0
  0
LINE
  8
0
 62
     0
 10
60.8499
 20
31.8975
 30
0.0
 11
60.8499
 21
38.1688
 31
0.0
  0
LINE
  8
0
 62
     0
 10
60.8499
 20
38.1688
 30
0.0
 11
61.7252
 21
38.1688
 31
0.0
  0
LINE
  8
0
 62
     0
 10
61.7252
 20
38.1688
 30
0.0
 11
61.7252
 21
40.9677
 31
0.0
  0
LINE
  8
0
 62
     0
 10
61.7252
 20
40.9677
 30
0.0
 11
60.8499
 21
40.9677
 31
0.0
  0
LINE
  8
0
 62
     0
 10
60.8499
 20
40.9677
 30
0.0
 11
60.8499
 21
44.1978
 31
0.0
  0
LINE
  8
0
 62
     0
 10
60.8499
 20
44.1978
 30
0.0
 11
59.1742
 21
44.1978
 31
0.0
  0
LINE
  8
0
 62
     0
 10
59.1742
 20
44.1978
 30
0.0
 11
59.1742
 21
45.1185
 31
0.0
  0
LINE
  8
0
 62
     0
 10
59.1742
 20
45.1185
 30
0.0
 11
55.8754
 21
45.1185
 31
0.0
  0
LINE
  8
0
 62
     0
 10
55.8754
 20
45.1185
 30
0.0
 11
55.8754
 21
44.1978
 31
0.0
  0
LINE
  8
0
 62
     0
 10
55.8754
 20
44.1978
 30
0.0
 11
54.1997
 21
44.1978
 31
0.0
  0
LINE
  8
0
 62
     0
 10
54.1997
 20
44.1978
 30
0.0
 11
54.1997
 21
40.9677
 31
0.0
  0
LINE
  8
0
 62
     0
 10
54.1997
 20
40.9677
 30
0.0
 11
52.5748
 21
40.9677
 31
0.0
  0
LINE
  8
0
 62
     0
 10
52.5748
 20
40.9677
 30
0.0
 11
52.5748
 21
41.5685
 31
0.0
  0
LINE
  8
0
 62
     0
 10
52.5748
 20
41.5685
 30
0.0
 11
53.3742
 21
41.5685
 31
0.0
  0
LINE
  8
0
 62
     0
 10
53.3742
 20
41.5685
 30
0.0
 11
53.3742
 21
44.6691
 31
0.0
  0
LINE
  8
0
 62
     0
 10
53.3742
 20
44.6691
 30
0.0
 11
52.5748
 21
44.6691
 31
0.0
  0
LINE
  8
0
 62
     0
 10
52.5748
 20
44.6691
 30
0.0
 11
52.5748
 21
45.6681
 31
0.0
  0
LINE
  8
0
 62
     0
 10
52.5748
 20
45.6681
 30
0.0
 11
38.5755
 21
45.6681
 31
0.0
  0
LINE
  8
0
 62
     0
 10
7.61781
 20
45.6681
 30
0.0
 11
7.61781
 21
44.6691
 31
0.0
  0
LINE
  8
0
 62
     0
 10
7.61781
 20
44.6691
 30
0.0
 11
6.81715
 21
44.6691
 31
0.0
  0
LINE
  8
0
 62
     0
 10
6.81715
 20
44.6691
 30
0.0
 11
6.81715
 21
41.5685
 31
0.0
  0
LINE
  8
0
 62
     0
 10
6.81715
 20
41.5685
 30
0.0
 11
7.61781
 21
41.5685
 31
0.0
  0
LINE
  8
0
 62
     0
 10
7.61781
 20
41.5685
 30
0.0
 11
7.61781
 21
35.7685
 31
0.0
  0
LINE
  8
0
 62
     0
 10
7.61781
 20
35.7685
 30
0.0
 11
6.81715
 21
35.7685
 31
0.0
  0
LINE
  8
0
 62
     0
 10
6.81715
 20
35.7685
 30
0.0
 11
6.81715
 21
32.6678
 31
0.0
  0
LINE
  8
0
 62
     0
 10
6.81715
 20
32.6678
 30
0.0
 11
7.61781
 21
32.6678
 31
0.0
  0
LINE
  8
0
 62
     0
 10
7.61781
 20
32.6678
 30
0.0
 11
7.61781
 21
31.6687
 31
0.0
  0
LINE
  8
0
 62
     0
 10
7.61781
 20
31.6687
 30
0.0
 11
21.6187
 21
31.6687
 31
0.0
  0
LINE
  8
0
 62
     0
 10
21.6187
 20
31.6687
 30
0.0
 11
21.6187
 21
32.6678
 31
0.0
  0
LINE
  8
0
 62
     0
 10
21.6187
 20
32.6678
 30
0.0
 11
22.4193
 21
32.6678
 31
0.0
  0
LINE
  8
0
 62
     0
 10
22.4193
 20
32.6678
 30
0.0
 11
22.4193
 21
35.7685
 31
0.0
  0
LINE
  8
0
 62
     0
 10
22.4193
 20
35.7685
 30
0.0
 11
21.6187
 21
35.7685
 31
0.0
  0
LINE
  8
0
 62
     0
 10
21.6187
 20
35.7685
 30
0.0
 11
21.6187
 21
41.5685
 31
0.0
  0
LINE
  8
0
 62
     0
 10
21.6187
 20
41.5685
 30
0.0
 11
22.4193
 21
41.5685
 31
0.0
  0
LINE
  8
0
 62
     0
 10
22.4193
 20
41.5685
 30
0.0
 11
22.4193
 21
44.6691
 31
0.0
  0
LINE
  8
0
 62
     0
 10
22.4193
 20
44.6691
 30
0.0
 11
21.6187
 21
44.6691
 31
0.0
  0
LINE
  8
0
 62
     0
 10
21.6187
 20
44.6691
 30
0.0
 11
21.6187
 21
45.6681
 31
0.0
  0
LINE
  8
0
 62
     0
 10
21.6187
 20
45.6681
 30
0.0
 11
7.61781
 21
45.6681
 31
0.0
  0
LINE
  8
0
 62
     0
 10
69.5304
 20
45.6681
 30
0.0
 11
69.5304
 21
44.6691
 31
0.0
  0
LINE
  8
0
 62
     0
 10
69.5304
 20
44.6691
 30
0.0
 11
68.731
 21
44.6691
 31
0.0
  0
LINE
  8
0
 62
     0
 10
68.731
 20
44.6691
 30
0.0
 11
68.731
 21
41.5685
 31
0.0
  0
LINE
  8
0
 62
     0
 10
68.731
 20
41.5685
 30
0.0
 11
69.5304
 21
41.5685
 31
0.0
  0
LINE
  8
0
 62
     0
 10
69.5304
 20
41.5685
 30
0.0
 11
69.5304
 21
35.7685
 31
0.0
  0
LINE
  8
0
 62
     0
 10
69.5304
 20
35.7685
 30
0.0
 11
68.731
 21
35.7685
 31
0.0
  0
LINE
  8
0
 62
     0
 10
68.731
 20
35.7685
 30
0.0
 11
68.731
 21
32.6678
 31
0.0
  0
LINE
  8
0
 62
     0
 10
68.731
 20
32.6678
 30
0.0
 11
69.5304
 21
32.6678
 31
0.0
  0
LINE
  8
0
 62
     0
 10
69.5304
 20
32.6678
 30
0.0
 11
69.5304
 21
31.6687
 31
0.0
  0
LINE
  8
0
 62
     0
 10
69.5304
 20
31.6687
 30
0.0
 11
83.5311
 21
31.6687
 31
0.0
  0
LINE
  8
0
 62
     0
 10
83.5311
 20
31.6687
 30
0.0
 11
83.5311
 21
32.6678
 31
0.0
  0
LINE
  8
0
 62
     0
 10
83.5311
 20
32.6678
 30
0.0
 11
84.3305
 21
32.6678
 31
0.0
  0
LINE
  8
0
 62
     0
 10
84.3305
 20
32.6678
 30
0.0
 11
84.3305
 21
35.7685
 31
0.0
  0
LINE
  8
0
 62
     0
 10
84.3305
 20
35.7685
 30
0.0
 11
83.5311
 21
35.7685
 31
0.0
  0
LINE
  8
0
 62
     0
 10
83.5311
 20
35.7685
 30
0.0
 11
83.5311
 21
41.5685
 31
0.0
  0
LINE
  8
0
 62
     0
 10
83.5311
 20
41.5685
 30
0.0
 11
84.3305
 21
41.5685
 31
0.0
  0
LINE
  8
0
 62
     0
 10
84.3305
 20
41.5685
 30
0.0
 11
84.3305
 21
44.6691
 31
0.0
  0
LINE
  8
0
 62
     0
 10
84.3305
 20
44.6691
 30
0.0
 11
83.5311
 21
44.6691
 31
0.0
  0
LINE
  8
0
 62
     0
 10
83.5311
 20
44.6691
 30
0.0
 11
83.5311
 21
45.6681
 31
0.0
  0
LINE
  8
0
 62
     0
 10
83.5311
 20
45.6681
 30
0.0
 11
69.5304
 21
45.6681
 31
0.0
  0
LINE
  8
0
 62
     0
 10
88.5804
 20
45.6681
 30
0.0
 11
88.5804
 21
44.6691
 31
0.0
  0
LINE
  8
0
 62
     0
 10
88.5804
 20
44.6691
 30
0.0
 11
87.781
 21
44.6691
 31
0.0
  0
LINE
  8
0
 62
     0
 10
87.781
 20
44.6691
 30
0.0
 11
87.781
 21
41.5685
 31
0.0
  0
LINE
  8
0
 62
     0
 10
87.781
 20
41.5685
 30
0.0
 11
88.5804
 21
41.5685
 31
0.0
  0
LINE
  8
0
 62
     0
 10
88.5804
 20
41.5685
 30
0.0
 11
88.5804
 21
35.7685
 31
0.0
  0
LINE
  8
0
 62
     0
 10
88.5804
 20
35.7685
 30
0.0
 11
87.781
 21
35.7685
 31
0.0
  0
LINE
  8
0
 62
     0
 10
87.781
 20
35.7685
 30
0.0
 11
87.781
 21
32.6678
 31
0.0
  0
LINE
  8
0
 62
     0
 10
87.781
 20
32.6678
 30
0.0
 11
88.5804
 21
32.6678
 31
0.0
  0
LINE
  8
0
 62
     0
 10
88.5804
 20
32.6678
 30
0.0
 11
88.5804
 21
31.6687
 31
0.0
  0
LINE
  8
0
 62
     0
 10
88.5804
 20
31.6687
 30
0.0
 11
102.581
 21
31.6687
 31
0.0
  0
LINE
  8
0
 62
     0
 10
102.581
 20
31.6687
 30
0.0
 11
102.581
 21
32.6678
 31
0.0
  0
LINE
  8
0
 62
     0
 10
102.581
 20
32.6678
 30
0.0
 11
103.38
 21
32.6678
 31
0.0
  0
LINE
  8
0
 62
     0
 10
103.38
 20
32.6678
 30
0.0
 11
103.38
 21
35.7685
 31
0.0
  0
LINE
  8
0
 62
     0
 10
103.38
 20
35.7685
 30
0.0
 11
102.581
 21
35.7685
 31
0.0
  0
LINE
  8
0
 62
     0
 10
102.581
 20
35.7685
 30
0.0
 11
102.581
 21
41.5685
 31
0.0
  0
LINE
  8
0
 62
     0
 10
102.581
 20
41.5685
 30
0.0
 11
103.38
 21
41.5685
 31
0.0
  0
LINE
  8
0
 62
     0
 10
103.38
 20
41.5685
 30
0.0
 11
103.38
 21
44.6691
 31
0.0
  0
LINE
  8
0
 62
     0
 10
103.38
 20
44.6691
 30
0.0
 11
102.581
 21
44.6691
 31
0.0
  0
LINE
  8
0
 62
     0
 10
102.581
 20
44.6691
 30
0.0
 11
102.581
 21
45.6681
 31
0.0
  0
LINE
  8
0
 62
     0
 10
102.581
 20
45.6681
 30
0.0
 11
88.5804
 21
45.6681
 31
0.0
  0
LINE
  8
0
 62
     0
 10
107.63
 20
45.6681
 30
0.0
 11
107.63
 21
44.6691
 31
0.0
  0
LINE
  8
0
 62
     0
 10
107.63
 20
44.6691
 30
0.0
 11
106.831
 21
44.6691
 31
0.0
  0
LINE
  8
0
 62
     0
 10
106.831
 20
44.6691
 30
0.0
 11
106.831
 21
41.5685
 31
0.0
  0
LINE
  8
0
 62
     0
 10
106.831
 20
41.5685
 30
0.0
 11
107.63
 21
41.5685
 31
0.0
  0
LINE
  8
0
 62
     0
 10
107.63
 20
41.5685
 30
0.0
 11
107.63
 21
35.7685
 31
0.0
  0
LINE
  8
0
 62
     0
 10
107.63
 20
35.7685
 30
0.0
 11
106.831
 21
35.7685
 31
0.0
  0
LINE
  8
0
 62
     0
 10
106.831
 20
35.7685
 30
0.0
 11
106.831
 21
32.6678
 31
0.0
  0
LINE
  8
0
 62
     0
 10
106.831
 20
32.6678
 30
0.0
 11
107.63
 21
32.6678
 31
0.0
  0
LINE
  8
0
 62
     0
 10
107.63
 20
32.6678
 30
0.0
 11
107.63
 21
31.6687
 31
0.0
  0
LINE
  8
0
 62
     0
 10
107.63
 20
31.6687
 30
0.0
 11
121.631
 21
31.6687
 31
0.0
  0
LINE
  8
0
 62
     0
 10
121.631
 20
31.6687
 30
0.0
 11
121.631
 21
32.6678
 31
0.0
  0
LINE
  8
0
 62
     0
 10
121.631
 20
32.6678
 30
0.0
 11
122.43
 21
32.6678
 31
0.0
  0
LINE
  8
0
 62
     0
 10
122.43
 20
32.6678
 30
0.0
 11
122.43
 21
35.7685
 31
0.0
  0
LINE
  8
0
 62
     0
 10
122.43
 20
35.7685
 30
0.0
 11
121.631
 21
35.7685
 31
0.0
  0
LINE
  8
0
 62
     0
 10
121.631
 20
35.7685
 30
0.0
 11
121.631
 21
41.5685
 31
0.0
  0
LINE
  8
0
 62
     0
 10
121.631
 20
41.5685
 30
0.0
 11
122.43
 21
41.5685
 31
0.0
  0
LINE
  8
0
 62
     0
 10
122.43
 20
41.5685
 30
0.0
 11
122.43
 21
44.6691
 31
0.0
  0
LINE
  8
0
 62
     0
 10
122.43
 20
44.6691
 30
0.0
 11
121.631
 21
44.6691
 31
0.0
  0
LINE
  8
0
 62
     0
 10
121.631
 20
44.6691
 30
0.0
 11
121.631
 21
45.6681
 31
0.0
  0
LINE
  8
0
 62
     0
 10
121.631
 20
45.6681
 30
0.0
 11
107.63
 21
45.6681
 31
0.0
  0
LINE
  8
0
 62
     0
 10
126.68
 20
45.6681
 30
0.0
 11
126.68
 21
44.6691
 31
0.0
  0
LINE
  8
0
 62
     0
 10
126.68
 20
44.6691
 30
0.0
 11
125.881
 21
44.6691
 31
0.0
  0
LINE
  8
0
 62
     0
 10
125.881
 20
44.6691
 30
0.0
 11
125.881
 21
41.5685
 31
0.0
  0
LINE
  8
0
 62
     0
 10
125.881
 20
41.5685
 30
0.0
 11
126.68
 21
41.5685
 31
0.0
  0
LINE
  8
0
 62
     0
 10
126.68
 20
41.5685
 30
0.0
 11
126.68
 21
35.7685
 31
0.0
  0
LINE
  8
0
 62
     0
 10
126.68
 20
35.7685
 30
0.0
 11
125.881
 21
35.7685
 31
0.0
  0
LINE
  8
0
 62
     0
 10
125.881
 20
35.7685
 30
0.0
 11
125.881
 21
32.6678
 31
0.0
  0
LINE
  8
0
 62
     0
 10
125.881
 20
32.6678
 30
0.0
 11
126.68
 21
32.6678
 31
0.0
  0
LINE
  8
0
 62
     0
 10
126.68
 20
32.6678
 30
0.0
 11
126.68
 21
31.6687
 31
0.0
  0
LINE
  8
0
 62
     0
 10
126.68
 20
31.6687
 30
0.0
 11
140.681
 21
31.6687
 31
0.0
  0
LINE
  8
0
 62
     0
 10
140.681
 20
31.6687
 30
0.0
 11
140.681
 21
32.6678
 31
0.0
  0
LINE
  8
0
 62
     0
 10
140.681
 20
32.6678
 30
0.0
 11
141.48
 21
32.6678
 31
0.0
  0
LINE
  8
0
 62
     0
 10
141.48
 20
32.6678
 30
0.0
 11
141.48
 21
35.7685
 31
0.0
  0
LINE
  8
0
 62
     0
 10
141.48
 20
35.7685
 30
0.0
 11
140.681
 21
35.7685
 31
0.0
  0
LINE
  8
0
 62
     0
 10
140.681
 20
35.7685
 30
0.0
 11
140.681
 21
41.5685
 31
0.0
  0
LINE
  8
0
 62
     0
 10
140.681
 20
41.5685
 30
0.0
 11
141.48
 21
41.5685
 31
0.0
  0
LINE
  8
0
 62
     0
 10
141.48
 20
41.5685
 30
0.0
 11
141.48
 21
44.6691
 31
0.0
  0
LINE
  8
0
 62
     0
 10
141.48
 20
44.6691
 30
0.0
 11
140.681
 21
44.6691
 31
0.0
  0
LINE
  8
0
 62
     0
 10
140.681
 20
44.6691
 30
0.0
 11
140.681
 21
45.6681
 31
0.0
  0
LINE
  8
0
 62
     0
 10
140.681
 20
45.6681
 30
0.0
 11
126.68
 21
45.6681
 31
0.0
  0
LINE
  8
0
 62
     0
 10
145.73
 20
45.6681
 30
0.0
 11
145.73
 21
44.6691
 31
0.0
  0
LINE
  8
0
 62
     0
 10
145.73
 20
44.6691
 30
0.0
 11
144.931
 21
44.6691
 31
0.0
  0
LINE
  8
0
 62
     0
 10
144.931
 20
44.6691
 30
0.0
 11
144.931
 21
41.5685
 31
0.0
  0
LINE
  8
0
 62
     0
 10
144.931
 20
41.5685
 30
0.0
 11
145.73
 21
41.5685
 31
0.0
  0
LINE
  8
0
 62
     0
 10
145.73
 20
41.5685
 30
0.0
 11
145.73
 21
35.7685
 31
0.0
  0
LINE
  8
0
 62
     0
 10
145.73
 20
35.7685
 30
0.0
 11
144.931
 21
35.7685
 31
0.0
  0
LINE
  8
0
 62
     0
 10
144.931
 20
35.7685
 30
0.0
 11
144.931
 21
32.6678
 31
0.0
  0
LINE
  8
0
 62
     0
 10
144.931
 20
32.6678
 30
0.0
 11
145.73
 21
32.6678
 31
0.0
  0
LINE
  8
0
 62
     0
 10
145.73
 20
32.6678
 30
0.0
 11
145.73
 21
31.6687
 31
0.0
  0
LINE
  8
0
 62
     0
 10
145.73
 20
31.6687
 30
0.0
 11
159.731
 21
31.6687
 31
0.0
  0
LINE
  8
0
 62
     0
 10
159.731
 20
31.6687
 30
0.0
 11
159.731
 21
32.6678
 31
0.0
  0
LINE
  8
0
 62
     0
 10
159.731
 20
32.6678
 30
0.0
 11
160.53
 21
32.6678
 31
0.0
  0
LINE
  8
0
 62
     0
 10
160.53
 20
32.6678
 30
0.0
 11
160.53
 21
35.7685
 31
0.0
  0
LINE
  8
0
 62
     0
 10
160.53
 20
35.7685
 30
0.0
 11
159.731
 21
35.7685
 31
0.0
  0
LINE
  8
0
 62
     0
 10
159.731
 20
35.7685
 30
0.0
 11
159.731
 21
41.5685
 31
0.0
  0
LINE
  8
0
 62
     0
 10
159.731
 20
41.5685
 30
0.0
 11
160.53
 21
41.5685
 31
0.0
  0
LINE
  8
0
 62
     0
 10
160.53
 20
41.5685
 30
0.0
 11
160.53
 21
44.6691
 31
0.0
  0
LINE
  8
0
 62
     0
 10
160.53
 20
44.6691
 30
0.0
 11
159.731
 21
44.6691
 31
0.0
  0
LINE
  8
0
 62
     0
 10
159.731
 20
44.6691
 30
0.0
 11
159.731
 21
45.6681
 31
0.0
  0
LINE
  8
0
 62
     0
 10
159.731
 20
45.6681
 30
0.0
 11
145.73
 21
45.6681
 31
0.0
  0
LINE
  8
0
 62
     0
 10
164.78
 20
45.6681
 30
0.0
 11
164.78
 21
44.6691
 31
0.0
  0
LINE
  8
0
 62
     0
 10
164.78
 20
44.6691
 30
0.0
 11
163.981
 21
44.6691
 31
0.0
  0
LINE
  8
0
 62
     0
 10
163.981
 20
44.6691
 30
0.0
 11
163.981
 21
41.5685
 31
0.0
  0
LINE
  8
0
 62
     0
 10
163.981
 20
41.5685
 30
0.0
 11
164.78
 21
41.5685
 31
0.0
  0
LINE
  8
0
 62
     0
 10
164.78
 20
41.5685
 30
0.0
 11
164.78
 21
35.7685
 31
0.0
  0
LINE
  8
0
 62
     0
 10
164.78
 20
35.7685
 30
0.0
 11
163.981
 21
35.7685
 31
0.0
  0
LINE
  8
0
 62
     0
 10
163.981
 20
35.7685
 30
0.0
 11
163.981
 21
32.6678
 31
0.0
  0
LINE
  8
0
 62
     0
 10
163.981
 20
32.6678
 30
0.0
 11
164.78
 21
32.6678
 31
0.0
  0
LINE
  8
0
 62
     0
 10
164.78
 20
32.6678
 30
0.0
 11
164.78
 21
31.6687
 31
0.0
  0
LINE
  8
0
 62
     0
 10
164.78
 20
31.6687
 30
0.0
 11
178.781
 21
31.6687
 31
0.0
  0
LINE
  8
0
 62
     0
 10
178.781
 20
31.6687
 30
0.0
 11
178.781
 21
32.6678
 31
0.0
  0
LINE
  8
0
 62
     0
 10
178.781
 20
32.6678
 30
0.0
 11
179.58
 21
32.6678
 31
0.0
  0
LINE
  8
0
 62
     0
 10
179.58
 20
32.6678
 30
0.0
 11
179.58
 21
35.7685
 31
0.0
  0
LINE
  8
0
 62
     0
 10
179.58
 20
35.7685
 30
0.0
 11
178.781
 21
35.7685
 31
0.0
  0
LINE
  8
0
 62
     0
 10
178.781
 20
35.7685
 30
0.0
 11
178.781
 21
41.5685
 31
0.0
  0
LINE
  8
0
 62
     0
 10
178.781
 20
41.5685
 30
0.0
 11
179.58
 21
41.5685
 31
0.0
  0
LINE
  8
0
 62
     0
 10
179.58
 20
41.5685
 30
0.0
 11
179.58
 21
44.6691
 31
0.0
  0
LINE
  8
0
 62
     0
 10
179.58
 20
44.6691
 30
0.0
 11
178.781
 21
44.6691
 31
0.0
  0
LINE
  8
0
 62
     0
 10
178.781
 20
44.6691
 30
0.0
 11
178.781
 21
45.6681
 31
0.0
  0
LINE
  8
0
 62
     0
 10
178.781
 20
45.6681
 30
0.0
 11
164.78
 21
45.6681
 31
0.0
  0
LINE
  8
0
 62
     0
 10
183.83
 20
45.6681
 30
0.0
 11
183.83
 21
44.6691
 31
0.0
  0
LINE
  8
0
 62
     0
 10
183.83
 20
44.6691
 30
0.0
 11
183.031
 21
44.6691
 31
0.0
  0
LINE
  8
0
 62
     0
 10
183.031
 20
44.6691
 30
0.0
 11
183.031
 21
41.5685
 31
0.0
  0
LINE
  8
0
 62
     0
 10
183.031
 20
41.5685
 30
0.0
 11
183.83
 21
41.5685
 31
0.0
  0
LINE
  8
0
 62
     0
 10
183.83
 20
41.5685
 30
0.0
 11
183.83
 21
35.7685
 31
0.0
  0
LINE
  8
0
 62
     0
 10
183.83
 20
35.7685
 30
0.0
 11
183.031
 21
35.7685
 31
0.0
  0
LINE
  8
0
 62
     0
 10
183.031
 20
35.7685
 30
0.0
 11
183.031
 21
32.6678
 31
0.0
  0
LINE
  8
0
 62
     0
 10
183.031
 20
32.6678
 30
0.0
 11
183.83
 21
32.6678
 31
0.0
  0
LINE
  8
0
 62
     0
 10
183.83
 20
32.6678
 30
0.0
 11
183.83
 21
31.6687
 31
0.0
  0
LINE
  8
0
 62
     0
 10
183.83
 20
31.6687
 30
0.0
 11
197.831
 21
31.6687
 31
0.0
  0
LINE
  8
0
 62
     0
 10
197.831
 20
31.6687
 30
0.0
 11
197.831
 21
32.6678
 31
0.0
  0
LINE
  8
0
 62
     0
 10
197.831
 20
32.6678
 30
0.0
 11
198.63
 21
32.6678
 31
0.0
  0
LINE
  8
0
 62
     0
 10
198.63
 20
32.6678
 30
0.0
 11
198.63
 21
35.7685
 31
0.0
  0
LINE
  8
0
 62
     0
 10
198.63
 20
35.7685
 30
0.0
 11
197.831
 21
35.7685
 31
0.0
  0
LINE
  8
0
 62
     0
 10
197.831
 20
35.7685
 30
0.0
 11
197.831
 21
41.5685
 31
0.0
  0
LINE
  8
0
 62
     0
 10
197.831
 20
41.5685
 30
0.0
 11
198.63
 21
41.5685
 31
0.0
  0
LINE
  8
0
 62
     0
 10
198.63
 20
41.5685
 30
0.0
 11
198.63
 21
44.6691
 31
0.0
  0
LINE
  8
0
 62
     0
 10
198.63
 20
44.6691
 30
0.0
 11
197.831
 21
44.6691
 31
0.0
  0
LINE
  8
0
 62
     0
 10
197.831
 20
44.6691
 30
0.0
 11
197.831
 21
45.6681
 31
0.0
  0
LINE
  8
0
 62
     0
 10
197.831
 20
45.6681
 30
0.0
 11
183.83
 21
45.6681
 31
0.0
  0
LINE
  8
0
 62
     0
 10
202.88
 20
45.6681
 30
0.0
 11
202.88
 21
44.6691
 31
0.0
  0
LINE
  8
0
 62
     0
 10
202.88
 20
44.6691
 30
0.0
 11
202.081
 21
44.6691
 31
0.0
  0
LINE
  8
0
 62
     0
 10
202.081
 20
44.6691
 30
0.0
 11
202.081
 21
41.5685
 31
0.0
  0
LINE
  8
0
 62
     0
 10
202.081
 20
41.5685
 30
0.0
 11
202.88
 21
41.5685
 31
0.0
  0
LINE
  8
0
 62
     0
 10
202.88
 20
41.5685
 30
0.0
 11
202.88
 21
35.7685
 31
0.0
  0
LINE
  8
0
 62
     0
 10
202.88
 20
35.7685
 30
0.0
 11
202.081
 21
35.7685
 31
0.0
  0
LINE
  8
0
 62
     0
 10
202.081
 20
35.7685
 30
0.0
 11
202.081
 21
32.6678
 31
0.0
  0
LINE
  8
0
 62
     0
 10
202.081
 20
32.6678
 30
0.0
 11
202.88
 21
32.6678
 31
0.0
  0
LINE
  8
0
 62
     0
 10
202.88
 20
32.6678
 30
0.0
 11
202.88
 21
31.6687
 31
0.0
  0
LINE
  8
0
 62
     0
 10
202.88
 20
31.6687
 30
0.0
 11
216.881
 21
31.6687
 31
0.0
  0
LINE
  8
0
 62
     0
 10
216.881
 20
31.6687
 30
0.0
 11
216.881
 21
32.6678
 31
0.0
  0
LINE
  8
0
 62
     0
 10
216.881
 20
32.6678
 30
0.0
 11
217.68
 21
32.6678
 31
0.0
  0
LINE
  8
0
 62
     0
 10
217.68
 20
32.6678
 30
0.0
 11
217.68
 21
35.7685
 31
0.0
  0
LINE
  8
0
 62
     0
 10
217.68
 20
35.7685
 30
0.0
 11
216.881
 21
35.7685
 31
0.0
  0
LINE
  8
0
 62
     0
 10
216.881
 20
35.7685
 30
0.0
 11
216.881
 21
41.5685
 31
0.0
  0
LINE
  8
0
 62
     0
 10
216.881
 20
41.5685
 30
0.0
 11
217.68
 21
41.5685
 31
0.0
  0
LINE
  8
0
 62
     0
 10
217.68
 20
41.5685
 30
0.0
 11
217.68
 21
44.6691
 31
0.0
  0
LINE
  8
0
 62
     0
 10
217.68
 20
44.6691
 30
0.0
 11
216.881
 21
44.6691
 31
0.0
  0
LINE
  8
0
 62
     0
 10
216.881
 20
44.6691
 30
0.0
 11
216.881
 21
45.6681
 31
0.0
  0
LINE
  8
0
 62
     0
 10
216.881
 20
45.6681
 30
0.0
 11
202.88
 21
45.6681
 31
0.0
  0
LINE
  8
0
 62
     0
 10
221.93
 20
45.6681
 30
0.0
 11
221.93
 21
44.6691
 31
0.0
  0
LINE
  8
0
 62
     0
 10
221.93
 20
44.6691
 30
0.0
 11
221.131
 21
44.6691
 31
0.0
  0
LINE
  8
0
 62
     0
 10
221.131
 20
44.6691
 30
0.0
 11
221.131
 21
41.5685
 31
0.0
  0
LINE
  8
0
 62
     0
 10
221.131
 20
41.5685
 30
0.0
 11
221.93
 21
41.5685
 31
0.0
  0
LINE
  8
0
 62
     0
 10
221.93
 20
41.5685
 30
0.0
 11
221.93
 21
35.7685
 31
0.0
  0
LINE
  8
0
 62
     0
 10
221.93
 20
35.7685
 30
0.0
 11
221.131
 21
35.7685
 31
0.0
  0
LINE
  8
0
 62
     0
 10
221.131
 20
35.7685
 30
0.0
 11
221.131
 21
32.6678
 31
0.0
  0
LINE
  8
0
 62
     0
 10
221.131
 20
32.6678
 30
0.0
 11
221.93
 21
32.6678
 31
0.0
  0
LINE
  8
0
 62
     0
 10
221.93
 20
32.6678
 30
0.0
 11
221.93
 21
31.6687
 31
0.0
  0
LINE
  8
0
 62
     0
 10
221.93
 20
31.6687
 30
0.0
 11
235.931
 21
31.6687
 31
0.0
  0
LINE
  8
0
 62
     0
 10
235.931
 20
31.6687
 30
0.0
 11
235.931
 21
32.6678
 31
0.0
  0
LINE
  8
0
 62
     0
 10
235.931
 20
32.6678
 30
0.0
 11
236.73
 21
32.6678
 31
0.0
  0
LINE
  8
0
 62
     0
 10
236.73
 20
32.6678
 30
0.0
 11
236.73
 21
35.7685
 31
0.0
  0
LINE
  8
0
 62
     0
 10
236.73
 20
35.7685
 30
0.0
 11
235.931
 21
35.7685
 31
0.0
  0
LINE
  8
0
 62
     0
 10
235.931
 20
35.7685
 30
0.0
 11
235.931
 21
41.5685
 31
0.0
  0
LINE
  8
0
 62
     0
 10
235.931
 20
41.5685
 30
0.0
 11
236.73
 21
41.5685
 31
0.0
  0
LINE
  8
0
 62
     0
 10
236.73
 20
41.5685
 30
0.0
 11
236.73
 21
44.6691
 31
0.0
  0
LINE
  8
0
 62
     0
 10
236.73
 20
44.6691
 30
0.0
 11
235.931
 21
44.6691
 31
0.0
  0
LINE
  8
0
 62
     0
 10
235.931
 20
44.6691
 30
0.0
 11
235.931
 21
45.6681
 31
0.0
  0
LINE
  8
0
 62
     0
 10
235.931
 20
45.6681
 30
0.0
 11
221.93
 21
45.6681
 31
0.0
  0
LINE
  8
0
 62
     0
 10
240.98
 20
45.6681
 30
0.0
 11
240.98
 21
44.6691
 31
0.0
  0
LINE
  8
0
 62
     0
 10
240.98
 20
44.6691
 30
0.0
 11
240.181
 21
44.6691
 31
0.0
  0
LINE
  8
0
 62
     0
 10
240.181
 20
44.6691
 30
0.0
 11
240.181
 21
41.5685
 31
0.0
  0
LINE
  8
0
 62
     0
 10
240.181
 20
41.5685
 30
0.0
 11
240.98
 21
41.5685
 31
0.0
  0
LINE
  8
0
 62
     0
 10
240.98
 20
41.5685
 30
0.0
 11
240.98
 21
35.7685
 31
0.0
  0
LINE
  8
0
 62
     0
 10
240.98
 20
35.7685
 30
0.0
 11
240.181
 21
35.7685
 31
0.0
  0
LINE
  8
0
 62
     0
 10
240.181
 20
35.7685
 30
0.0
 11
240.181
 21
32.6678
 31
0.0
  0
LINE
  8
0
 62
     0
 10
240.181
 20
32.6678
 30
0.0
 11
240.98
 21
32.6678
 31
0.0
  0
LINE
  8
0
 62
     0
 10
240.98
 20
32.6678
 30
0.0
 11
240.98
 21
31.6687
 31
0.0
  0
LINE
  8
0
 62
     0
 10
240.98
 20
31.6687
 30
0.0
 11
254.981
 21
31.6687
 31
0.0
  0
LINE
  8
0
 62
     0
 10
254.981
 20
31.6687
 30
0.0
 11
254.981
 21
32.6678
 31
0.0
  0
LINE
  8
0
 62
     0
 10
254.981
 20
32.6678
 30
0.0
 11
255.78
 21
32.6678
 31
0.0
  0
LINE
  8
0
 62
     0
 10
255.78
 20
32.6678
 30
0.0
 11
255.78
 21
35.7685
 31
0.0
  0
LINE
  8
0
 62
     0
 10
255.78
 20
35.7685
 30
0.0
 11
254.981
 21
35.7685
 31
0.0
  0
LINE
  8
0
 62
     0
 10
254.981
 20
35.7685
 30
0.0
 11
254.981
 21
41.5685
 31
0.0
  0
LINE
  8
0
 62
     0
 10
254.981
 20
41.5685
 30
0.0
 11
255.78
 21
41.5685
 31
0.0
  0
LINE
  8
0
 62
     0
 10
255.78
 20
41.5685
 30
0.0
 11
255.78
 21
44.6691
 31
0.0
  0
LINE
  8
0
 62
     0
 10
255.78
 20
44.6691
 30
0.0
 11
254.981
 21
44.6691
 31
0.0
  0
LINE
  8
0
 62
     0
 10
254.981
 20
44.6691
 30
0.0
 11
254.981
 21
45.6681
 31
0.0
  0
LINE
  8
0
 62
     0
 10
254.981
 20
45.6681
 30
0.0
 11
240.98
 21
45.6681
 31
0.0
  0
LINE
  8
0
 62
     0
 10
267.176
 20
45.6681
 30
0.0
 11
267.176
 21
44.6691
 31
0.0
  0
LINE
  8
0
 62
     0
 10
267.176
 20
44.6691
 30
0.0
 11
266.375
 21
44.6691
 31
0.0
  0
LINE
  8
0
 62
     0
 10
266.375
 20
44.6691
 30
0.0
 11
266.375
 21
41.5685
 31
0.0
  0
LINE
  8
0
 62
     0
 10
266.375
 20
41.5685
 30
0.0
 11
267.176
 21
41.5685
 31
0.0
  0
LINE
  8
0
 62
     0
 10
267.176
 20
41.5685
 30
0.0
 11
267.176
 21
35.7685
 31
0.0
  0
LINE
  8
0
 62
     0
 10
267.176
 20
35.7685
 30
0.0
 11
266.375
 21
35.7685
 31
0.0
  0
LINE
  8
0
 62
     0
 10
266.375
 20
35.7685
 30
0.0
 11
266.375
 21
32.6678
 31
0.0
  0
LINE
  8
0
 62
     0
 10
266.375
 20
32.6678
 30
0.0
 11
267.176
 21
32.6678
 31
0.0
  0
LINE
  8
0
 62
     0
 10
267.176
 20
32.6678
 30
0.0
 11
267.176
 21
31.6687
 31
0.0
  0
LINE
  8
0
 62
     0
 10
267.176
 20
31.6687
 30
0.0
 11
281.175
 21
31.6687
 31
0.0
  0
LINE
  8
0
 62
     0
 10
281.175
 20
31.6687
 30
0.0
 11
281.175
 21
32.6678
 31
0.0
  0
LINE
  8
0
 62
     0
 10
281.175
 20
32.6678
 30
0.0
 11
281.974
 21
32.6678
 31
0.0
  0
LINE
  8
0
 62
     0
 10
281.974
 20
32.6678
 30
0.0
 11
281.974
 21
35.7685
 31
0.0
  0
LINE
  8
0
 62
     0
 10
281.974
 20
35.7685
 30
0.0
 11
281.175
 21
35.7685
 31
0.0
  0
LINE
  8
0
 62
     0
 10
281.175
 20
35.7685
 30
0.0
 11
281.175
 21
41.5685
 31
0.0
  0
LINE
  8
0
 62
     0
 10
281.175
 20
41.5685
 30
0.0
 11
281.974
 21
41.5685
 31
0.0
  0
LINE
  8
0
 62
     0
 10
281.974
 20
41.5685
 30
0.0
 11
281.974
 21
44.6691
 31
0.0
  0
LINE
  8
0
 62
     0
 10
281.974
 20
44.6691
 30
0.0
 11
281.175
 21
44.6691
 31
0.0
  0
LINE
  8
0
 62
     0
 10
281.175
 20
44.6691
 30
0.0
 11
281.175
 21
45.6681
 31
0.0
  0
LINE
  8
0
 62
     0
 10
281.175
 20
45.6681
 30
0.0
 11
267.176
 21
45.6681
 31
0.0
  0
LINE
  8
0
 62
     0
 10
293.369
 20
45.6681
 30
0.0
 11
293.369
 21
44.6691
 31
0.0
  0
LINE
  8
0
 62
     0
 10
293.369
 20
44.6691
 30
0.0
 11
292.568
 21
44.6691
 31
0.0
  0
LINE
  8
0
 62
     0
 10
292.568
 20
44.6691
 30
0.0
 11
292.568
 21
41.5685
 31
0.0
  0
LINE
  8
0
 62
     0
 10
292.568
 20
41.5685
 30
0.0
 11
293.369
 21
41.5685
 31
0.0
  0
LINE
  8
0
 62
     0
 10
293.369
 20
41.5685
 30
0.0
 11
293.369
 21
35.7685
 31
0.0
  0
LINE
  8
0
 62
     0
 10
293.369
 20
35.7685
 30
0.0
 11
292.568
 21
35.7685
 31
0.0
  0
LINE
  8
0
 62
     0
 10
292.568
 20
35.7685
 30
0.0
 11
292.568
 21
32.6678
 31
0.0
  0
LINE
  8
0
 62
     0
 10
292.568
 20
32.6678
 30
0.0
 11
293.369
 21
32.6678
 31
0.0
  0
LINE
  8
0
 62
     0
 10
293.369
 20
32.6678
 30
0.0
 11
293.369
 21
31.6687
 31
0.0
  0
LINE
  8
0
 62
     0
 10
293.369
 20
31.6687
 30
0.0
 11
307.369
 21
31.6687
 31
0.0
  0
LINE
  8
0
 62
     0
 10
307.369
 20
31.6687
 30
0.0
 11
307.369
 21
32.6678
 31
0.0
  0
LINE
  8
0
 62
     0
 10
307.369
 20
32.6678
 30
0.0
 11
308.169
 21
32.6678
 31
0.0
  0
LINE
  8
0
 62
     0
 10
308.169
 20
32.6678
 30
0.0
 11
308.169
 21
35.7685
 31
0.0
  0
LINE
  8
0
 62
     0
 10
308.169
 20
35.7685
 30
0.0
 11
307.369
 21
35.7685
 31
0.0
  0
LINE
  8
0
 62
     0
 10
307.369
 20
35.7685
 30
0.0
 11
307.369
 21
41.5685
 31
0.0
  0
LINE
  8
0
 62
     0
 10
307.369
 20
41.5685
 30
0.0
 11
308.169
 21
41.5685
 31
0.0
  0
LINE
  8
0
 62
     0
 10
308.169
 20
41.5685
 30
0.0
 11
308.169
 21
44.6691
 31
0.0
  0
LINE
  8
0
 62
     0
 10
308.169
 20
44.6691
 30
0.0
 11
307.369
 21
44.6691
 31
0.0
  0
LINE
  8
0
 62
     0
 10
307.369
 20
44.6691
 30
0.0
 11
307.369
 21
45.6681
 31
0.0
  0
LINE
  8
0
 62
     0
 10
307.369
 20
45.6681
 30
0.0
 11
293.369
 21
45.6681
 31
0.0
  0
LINE
  8
0
 62
     0
 10
312.419
 20
45.6681
 30
0.0
 11
312.419
 21
44.6691
 31
0.0
  0
LINE
  8
0
 62
     0
 10
312.419
 20
44.6691
 30
0.0
 11
311.618
 21
44.6691
 31
0.0
  0
LINE
  8
0
 62
     0
 10
311.618
 20
44.6691
 30
0.0
 11
311.618
 21
41.5685
 31
0.0
  0
LINE
  8
0
 62
     0
 10
311.618
 20
41.5685
 30
0.0
 11
312.419
 21
41.5685
 31
0.0
  0
LINE
  8
0
 62
     0
 10
312.419
 20
41.5685
 30
0.0
 11
312.419
 21
35.7685
 31
0.0
  0
LINE
  8
0
 62
     0
 10
312.419
 20
35.7685
 30
0.0
 11
311.618
 21
35.7685
 31
0.0
  0
LINE
  8
0
 62
     0
 10
311.618
 20
35.7685
 30
0.0
 11
311.618
 21
32.6678
 31
0.0
  0
LINE
  8
0
 62
     0
 10
311.618
 20
32.6678
 30
0.0
 11
312.419
 21
32.6678
 31
0.0
  0
LINE
  8
0
 62
     0
 10
312.419
 20
32.6678
 30
0.0
 11
312.419
 21
31.6687
 31
0.0
  0
LINE
  8
0
 62
     0
 10
312.419
 20
31.6687
 30
0.0
 11
326.419
 21
31.6687
 31
0.0
  0
LINE
  8
0
 62
     0
 10
326.419
 20
31.6687
 30
0.0
 11
326.419
 21
32.6678
 31
0.0
  0
LINE
  8
0
 62
     0
 10
326.419
 20
32.6678
 30
0.0
 11
327.219
 21
32.6678
 31
0.0
  0
LINE
  8
0
 62
     0
 10
327.219
 20
32.6678
 30
0.0
 11
327.219
 21
35.7685
 31
0.0
  0
LINE
  8
0
 62
     0
 10
327.219
 20
35.7685
 30
0.0
 11
326.419
 21
35.7685
 31
0.0
  0
LINE
  8
0
 62
     0
 10
326.419
 20
35.7685
 30
0.0
 11
326.419
 21
41.5685
 31
0.0
  0
LINE
  8
0
 62
     0
 10
326.419
 20
41.5685
 30
0.0
 11
327.219
 21
41.5685
 31
0.0
  0
LINE
  8
0
 62
     0
 10
327.219
 20
41.5685
 30
0.0
 11
327.219
 21
44.6691
 31
0.0
  0
LINE
  8
0
 62
     0
 10
327.219
 20
44.6691
 30
0.0
 11
326.419
 21
44.6691
 31
0.0
  0
LINE
  8
0
 62
     0
 10
326.419
 20
44.6691
 30
0.0
 11
326.419
 21
45.6681
 31
0.0
  0
LINE
  8
0
 62
     0
 10
326.419
 20
45.6681
 30
0.0
 11
312.419
 21
45.6681
 31
0.0
  0
LINE
  8
0
 62
     0
 10
281.462
 20
64.7181
 30
0.0
 11
281.462
 21
63.7191
 31
0.0
  0
LINE
  8
0
 62
     0
 10
281.462
 20
63.7191
 30
0.0
 11
280.662
 21
63.7191
 31
0.0
  0
LINE
  8
0
 62
     0
 10
280.662
 20
63.7191
 30
0.0
 11
280.662
 21
60.6185
 31
0.0
  0
LINE
  8
0
 62
     0
 10
280.662
 20
60.6185
 30
0.0
 11
281.462
 21
60.6185
 31
0.0
  0
LINE
  8
0
 62
     0
 10
281.462
 20
60.6185
 30
0.0
 11
281.462
 21
60.0177
 31
0.0
  0
LINE
  8
0
 62
     0
 10
281.462
 20
60.0177
 30
0.0
 11
279.837
 21
60.0177
 31
0.0
  0
LINE
  8
0
 62
     0
 10
279.837
 20
60.0177
 30
0.0
 11
279.837
 21
63.2478
 31
0.0
  0
LINE
  8
0
 62
     0
 10
279.837
 20
63.2478
 30
0.0
 11
278.161
 21
63.2478
 31
0.0
  0
LINE
  8
0
 62
     0
 10
278.161
 20
63.2478
 30
0.0
 11
278.161
 21
64.1685
 31
0.0
  0
LINE
  8
0
 62
     0
 10
278.161
 20
64.1685
 30
0.0
 11
274.862
 21
64.1685
 31
0.0
  0
LINE
  8
0
 62
     0
 10
274.862
 20
64.1685
 30
0.0
 11
274.862
 21
63.2478
 31
0.0
  0
LINE
  8
0
 62
     0
 10
274.862
 20
63.2478
 30
0.0
 11
273.187
 21
63.2478
 31
0.0
  0
LINE
  8
0
 62
     0
 10
273.187
 20
63.2478
 30
0.0
 11
273.187
 21
60.0177
 31
0.0
  0
LINE
  8
0
 62
     0
 10
273.187
 20
60.0177
 30
0.0
 11
272.311
 21
60.0177
 31
0.0
  0
LINE
  8
0
 62
     0
 10
272.311
 20
60.0177
 30
0.0
 11
272.311
 21
57.2188
 31
0.0
  0
LINE
  8
0
 62
     0
 10
272.311
 20
57.2188
 30
0.0
 11
273.187
 21
57.2188
 31
0.0
  0
LINE
  8
0
 62
     0
 10
273.187
 20
57.2188
 30
0.0
 11
273.187
 21
50.9475
 31
0.0
  0
LINE
  8
0
 62
     0
 10
273.187
 20
50.9475
 30
0.0
 11
274.862
 21
50.9475
 31
0.0
  0
LINE
  8
0
 62
     0
 10
274.862
 20
50.9475
 30
0.0
 11
274.862
 21
49.9678
 31
0.0
  0
LINE
  8
0
 62
     0
 10
274.862
 20
49.9678
 30
0.0
 11
278.161
 21
49.9678
 31
0.0
  0
LINE
  8
0
 62
     0
 10
278.161
 20
49.9678
 30
0.0
 11
278.161
 21
50.9475
 31
0.0
  0
LINE
  8
0
 62
     0
 10
278.161
 20
50.9475
 30
0.0
 11
279.837
 21
50.9475
 31
0.0
  0
LINE
  8
0
 62
     0
 10
279.837
 20
50.9475
 30
0.0
 11
279.837
 21
55.4179
 31
0.0
  0
LINE
  8
0
 62
     0
 10
279.837
 20
55.4179
 30
0.0
 11
281.462
 21
55.4179
 31
0.0
  0
LINE
  8
0
 62
     0
 10
281.462
 20
55.4179
 30
0.0
 11
281.462
 21
54.8185
 31
0.0
  0
LINE
  8
0
 62
     0
 10
281.462
 20
54.8185
 30
0.0
 11
280.662
 21
54.8185
 31
0.0
  0
LINE
  8
0
 62
     0
 10
280.662
 20
54.8185
 30
0.0
 11
280.662
 21
51.7179
 31
0.0
  0
LINE
  8
0
 62
     0
 10
280.662
 20
51.7179
 30
0.0
 11
281.462
 21
51.7179
 31
0.0
  0
LINE
  8
0
 62
     0
 10
281.462
 20
51.7179
 30
0.0
 11
281.462
 21
50.7189
 31
0.0
  0
LINE
  8
0
 62
     0
 10
281.462
 20
50.7189
 30
0.0
 11
295.462
 21
50.7189
 31
0.0
  0
LINE
  8
0
 62
     0
 10
295.462
 20
50.7189
 30
0.0
 11
295.462
 21
51.7179
 31
0.0
  0
LINE
  8
0
 62
     0
 10
295.462
 20
51.7179
 30
0.0
 11
296.262
 21
51.7179
 31
0.0
  0
LINE
  8
0
 62
     0
 10
296.262
 20
51.7179
 30
0.0
 11
296.262
 21
54.8185
 31
0.0
  0
LINE
  8
0
 62
     0
 10
296.262
 20
54.8185
 30
0.0
 11
295.462
 21
54.8185
 31
0.0
  0
LINE
  8
0
 62
     0
 10
295.462
 20
54.8185
 30
0.0
 11
295.462
 21
55.4179
 31
0.0
  0
LINE
  8
0
 62
     0
 10
295.462
 20
55.4179
 30
0.0
 11
297.087
 21
55.4179
 31
0.0
  0
LINE
  8
0
 62
     0
 10
297.087
 20
55.4179
 30
0.0
 11
297.087
 21
50.9475
 31
0.0
  0
LINE
  8
0
 62
     0
 10
297.087
 20
50.9475
 30
0.0
 11
298.762
 21
50.9475
 31
0.0
  0
LINE
  8
0
 62
     0
 10
298.762
 20
50.9475
 30
0.0
 11
298.762
 21
49.9678
 31
0.0
  0
LINE
  8
0
 62
     0
 10
298.762
 20
49.9678
 30
0.0
 11
302.062
 21
49.9678
 31
0.0
  0
LINE
  8
0
 62
     0
 10
302.062
 20
49.9678
 30
0.0
 11
302.062
 21
50.9475
 31
0.0
  0
LINE
  8
0
 62
     0
 10
302.062
 20
50.9475
 30
0.0
 11
303.736
 21
50.9475
 31
0.0
  0
LINE
  8
0
 62
     0
 10
303.736
 20
50.9475
 30
0.0
 11
303.736
 21
57.2188
 31
0.0
  0
LINE
  8
0
 62
     0
 10
303.736
 20
57.2188
 30
0.0
 11
304.611
 21
57.2188
 31
0.0
  0
LINE
  8
0
 62
     0
 10
304.611
 20
57.2188
 30
0.0
 11
304.611
 21
60.0177
 31
0.0
  0
LINE
  8
0
 62
     0
 10
304.611
 20
60.0177
 30
0.0
 11
303.736
 21
60.0177
 31
0.0
  0
LINE
  8
0
 62
     0
 10
303.736
 20
60.0177
 30
0.0
 11
303.736
 21
63.2478
 31
0.0
  0
LINE
  8
0
 62
     0
 10
303.736
 20
63.2478
 30
0.0
 11
302.062
 21
63.2478
 31
0.0
  0
LINE
  8
0
 62
     0
 10
302.062
 20
63.2478
 30
0.0
 11
302.062
 21
64.1685
 31
0.0
  0
LINE
  8
0
 62
     0
 10
302.062
 20
64.1685
 30
0.0
 11
298.762
 21
64.1685
 31
0.0
  0
LINE
  8
0
 62
     0
 10
298.762
 20
64.1685
 30
0.0
 11
298.762
 21
63.2478
 31
0.0
  0
LINE
  8
0
 62
     0
 10
298.762
 20
63.2478
 30
0.0
 11
297.087
 21
63.2478
 31
0.0
  0
LINE
  8
0
 62
     0
 10
297.087
 20
63.2478
 30
0.0
 11
297.087
 21
60.0177
 31
0.0
  0
LINE
  8
0
 62
     0
 10
297.087
 20
60.0177
 30
0.0
 11
295.462
 21
60.0177
 31
0.0
  0
LINE
  8
0
 62
     0
 10
295.462
 20
60.0177
 30
0.0
 11
295.462
 21
60.6185
 31
0.0
  0
LINE
  8
0
 62
     0
 10
295.462
 20
60.6185
 30
0.0
 11
296.262
 21
60.6185
 31
0.0
  0
LINE
  8
0
 62
     0
 10
296.262
 20
60.6185
 30
0.0
 11
296.262
 21
63.7191
 31
0.0
  0
LINE
  8
0
 62
     0
 10
296.262
 20
63.7191
 30
0.0
 11
295.462
 21
63.7191
 31
0.0
  0
LINE
  8
0
 62
     0
 10
295.462
 20
63.7191
 30
0.0
 11
295.462
 21
64.7181
 31
0.0
  0
LINE
  8
0
 62
     0
 10
295.462
 20
64.7181
 30
0.0
 11
281.462
 21
64.7181
 31
0.0
  0
LINE
  8
0
 62
     0
 10
7.61781
 20
64.7181
 30
0.0
 11
7.61781
 21
63.7191
 31
0.0
  0
LINE
  8
0
 62
     0
 10
7.61781
 20
63.7191
 30
0.0
 11
6.81715
 21
63.7191
 31
0.0
  0
LINE
  8
0
 62
     0
 10
6.81715
 20
63.7191
 30
0.0
 11
6.81715
 21
60.6185
 31
0.0
  0
LINE
  8
0
 62
     0
 10
6.81715
 20
60.6185
 30
0.0
 11
7.61781
 21
60.6185
 31
0.0
  0
LINE
  8
0
 62
     0
 10
7.61781
 20
60.6185
 30
0.0
 11
7.61781
 21
54.8185
 31
0.0
  0
LINE
  8
0
 62
     0
 10
7.61781
 20
54.8185
 30
0.0
 11
6.81715
 21
54.8185
 31
0.0
  0
LINE
  8
0
 62
     0
 10
6.81715
 20
54.8185
 30
0.0
 11
6.81715
 21
51.7179
 31
0.0
  0
LINE
  8
0
 62
     0
 10
6.81715
 20
51.7179
 30
0.0
 11
7.61781
 21
51.7179
 31
0.0
  0
LINE
  8
0
 62
     0
 10
7.61781
 20
51.7179
 30
0.0
 11
7.61781
 21
50.7189
 31
0.0
  0
LINE
  8
0
 62
     0
 10
7.61781
 20
50.7189
 30
0.0
 11
21.6187
 21
50.7189
 31
0.0
  0
LINE
  8
0
 62
     0
 10
21.6187
 20
50.7189
 30
0.0
 11
21.6187
 21
51.7179
 31
0.0
  0
LINE
  8
0
 62
     0
 10
21.6187
 20
51.7179
 30
0.0
 11
22.4193
 21
51.7179
 31
0.0
  0
LINE
  8
0
 62
     0
 10
22.4193
 20
51.7179
 30
0.0
 11
22.4193
 21
54.8185
 31
0.0
  0
LINE
  8
0
 62
     0
 10
22.4193
 20
54.8185
 30
0.0
 11
21.6187
 21
54.8185
 31
0.0
  0
LINE
  8
0
 62
     0
 10
21.6187
 20
54.8185
 30
0.0
 11
21.6187
 21
60.6185
 31
0.0
  0
LINE
  8
0
 62
     0
 10
21.6187
 20
60.6185
 30
0.0
 11
22.4193
 21
60.6185
 31
0.0
  0
LINE
  8
0
 62
     0
 10
22.4193
 20
60.6185
 30
0.0
 11
22.4193
 21
63.7191
 31
0.0
  0
LINE
  8
0
 62
     0
 10
22.4193
 20
63.7191
 30
0.0
 11
21.6187
 21
63.7191
 31
0.0
  0
LINE
  8
0
 62
     0
 10
21.6187
 20
63.7191
 30
0.0
 11
21.6187
 21
64.7181
 31
0.0
  0
LINE
  8
0
 62
     0
 10
21.6187
 20
64.7181
 30
0.0
 11
7.61781
 21
64.7181
 31
0.0
  0
LINE
  8
0
 62
     0
 10
33.8116
 20
64.7181
 30
0.0
 11
33.8116
 21
63.7191
 31
0.0
  0
LINE
  8
0
 62
     0
 10
33.8116
 20
63.7191
 30
0.0
 11
33.0123
 21
63.7191
 31
0.0
  0
LINE
  8
0
 62
     0
 10
33.0123
 20
63.7191
 30
0.0
 11
33.0123
 21
60.6185
 31
0.0
  0
LINE
  8
0
 62
     0
 10
33.0123
 20
60.6185
 30
0.0
 11
33.8116
 21
60.6185
 31
0.0
  0
LINE
  8
0
 62
     0
 10
33.8116
 20
60.6185
 30
0.0
 11
33.8116
 21
54.8185
 31
0.0
  0
LINE
  8
0
 62
     0
 10
33.8116
 20
54.8185
 30
0.0
 11
33.0123
 21
54.8185
 31
0.0
  0
LINE
  8
0
 62
     0
 10
33.0123
 20
54.8185
 30
0.0
 11
33.0123
 21
51.7179
 31
0.0
  0
LINE
  8
0
 62
     0
 10
33.0123
 20
51.7179
 30
0.0
 11
33.8116
 21
51.7179
 31
0.0
  0
LINE
  8
0
 62
     0
 10
33.8116
 20
51.7179
 30
0.0
 11
33.8116
 21
50.7189
 31
0.0
  0
LINE
  8
0
 62
     0
 10
33.8116
 20
50.7189
 30
0.0
 11
47.8123
 21
50.7189
 31
0.0
  0
LINE
  8
0
 62
     0
 10
47.8123
 20
50.7189
 30
0.0
 11
47.8123
 21
51.7179
 31
0.0
  0
LINE
  8
0
 62
     0
 10
47.8123
 20
51.7179
 30
0.0
 11
48.6117
 21
51.7179
 31
0.0
  0
LINE
  8
0
 62
     0
 10
48.6117
 20
51.7179
 30
0.0
 11
48.6117
 21
54.8185
 31
0.0
  0
LINE
  8
0
 62
     0
 10
48.6117
 20
54.8185
 30
0.0
 11
47.8123
 21
54.8185
 31
0.0
  0
LINE
  8
0
 62
     0
 10
47.8123
 20
54.8185
 30
0.0
 11
47.8123
 21
60.6185
 31
0.0
  0
LINE
  8
0
 62
     0
 10
47.8123
 20
60.6185
 30
0.0
 11
48.6117
 21
60.6185
 31
0.0
  0
LINE
  8
0
 62
     0
 10
48.6117
 20
60.6185
 30
0.0
 11
48.6117
 21
63.7191
 31
0.0
  0
LINE
  8
0
 62
     0
 10
48.6117
 20
63.7191
 30
0.0
 11
47.8123
 21
63.7191
 31
0.0
  0
LINE
  8
0
 62
     0
 10
47.8123
 20
63.7191
 30
0.0
 11
47.8123
 21
64.7181
 31
0.0
  0
LINE
  8
0
 62
     0
 10
47.8123
 20
64.7181
 30
0.0
 11
33.8116
 21
64.7181
 31
0.0
  0
LINE
  8
0
 62
     0
 10
60.0054
 20
64.7181
 30
0.0
 11
60.0054
 21
63.7191
 31
0.0
  0
LINE
  8
0
 62
     0
 10
60.0054
 20
63.7191
 30
0.0
 11
59.2046
 21
63.7191
 31
0.0
  0
LINE
  8
0
 62
     0
 10
59.2046
 20
63.7191
 30
0.0
 11
59.2046
 21
60.6185
 31
0.0
  0
LINE
  8
0
 62
     0
 10
59.2046
 20
60.6185
 30
0.0
 11
60.0054
 21
60.6185
 31
0.0
  0
LINE
  8
0
 62
     0
 10
60.0054
 20
60.6185
 30
0.0
 11
60.0054
 21
54.8185
 31
0.0
  0
LINE
  8
0
 62
     0
 10
60.0054
 20
54.8185
 30
0.0
 11
59.2046
 21
54.8185
 31
0.0
  0
LINE
  8
0
 62
     0
 10
59.2046
 20
54.8185
 30
0.0
 11
59.2046
 21
51.7179
 31
0.0
  0
LINE
  8
0
 62
     0
 10
59.2046
 20
51.7179
 30
0.0
 11
60.0054
 21
51.7179
 31
0.0
  0
LINE
  8
0
 62
     0
 10
60.0054
 20
51.7179
 30
0.0
 11
60.0054
 21
50.7189
 31
0.0
  0
LINE
  8
0
 62
     0
 10
60.0054
 20
50.7189
 30
0.0
 11
74.0061
 21
50.7189
 31
0.0
  0
LINE
  8
0
 62
     0
 10
74.0061
 20
50.7189
 30
0.0
 11
74.0061
 21
51.7179
 31
0.0
  0
LINE
  8
0
 62
     0
 10
74.0061
 20
51.7179
 30
0.0
 11
74.8055
 21
51.7179
 31
0.0
  0
LINE
  8
0
 62
     0
 10
74.8055
 20
51.7179
 30
0.0
 11
74.8055
 21
54.8185
 31
0.0
  0
LINE
  8
0
 62
     0
 10
74.8055
 20
54.8185
 30
0.0
 11
74.0061
 21
54.8185
 31
0.0
  0
LINE
  8
0
 62
     0
 10
74.0061
 20
54.8185
 30
0.0
 11
74.0061
 21
60.6185
 31
0.0
  0
LINE
  8
0
 62
     0
 10
74.0061
 20
60.6185
 30
0.0
 11
74.8055
 21
60.6185
 31
0.0
  0
LINE
  8
0
 62
     0
 10
74.8055
 20
60.6185
 30
0.0
 11
74.8055
 21
63.7191
 31
0.0
  0
LINE
  8
0
 62
     0
 10
74.8055
 20
63.7191
 30
0.0
 11
74.0061
 21
63.7191
 31
0.0
  0
LINE
  8
0
 62
     0
 10
74.0061
 20
63.7191
 30
0.0
 11
74.0061
 21
64.7181
 31
0.0
  0
LINE
  8
0
 62
     0
 10
74.0061
 20
64.7181
 30
0.0
 11
60.0054
 21
64.7181
 31
0.0
  0
LINE
  8
0
 62
     0
 10
79.0554
 20
64.7181
 30
0.0
 11
79.0554
 21
63.7191
 31
0.0
  0
LINE
  8
0
 62
     0
 10
79.0554
 20
63.7191
 30
0.0
 11
78.256
 21
63.7191
 31
0.0
  0
LINE
  8
0
 62
     0
 10
78.256
 20
63.7191
 30
0.0
 11
78.256
 21
60.6185
 31
0.0
  0
LINE
  8
0
 62
     0
 10
78.256
 20
60.6185
 30
0.0
 11
79.0554
 21
60.6185
 31
0.0
  0
LINE
  8
0
 62
     0
 10
79.0554
 20
60.6185
 30
0.0
 11
79.0554
 21
54.8185
 31
0.0
  0
LINE
  8
0
 62
     0
 10
79.0554
 20
54.8185
 30
0.0
 11
78.256
 21
54.8185
 31
0.0
  0
LINE
  8
0
 62
     0
 10
78.256
 20
54.8185
 30
0.0
 11
78.256
 21
51.7179
 31
0.0
  0
LINE
  8
0
 62
     0
 10
78.256
 20
51.7179
 30
0.0
 11
79.0554
 21
51.7179
 31
0.0
  0
LINE
  8
0
 62
     0
 10
79.0554
 20
51.7179
 30
0.0
 11
79.0554
 21
50.7189
 31
0.0
  0
LINE
  8
0
 62
     0
 10
79.0554
 20
50.7189
 30
0.0
 11
93.0561
 21
50.7189
 31
0.0
  0
LINE
  8
0
 62
     0
 10
93.0561
 20
50.7189
 30
0.0
 11
93.0561
 21
51.7179
 31
0.0
  0
LINE
  8
0
 62
     0
 10
93.0561
 20
51.7179
 30
0.0
 11
93.8555
 21
51.7179
 31
0.0
  0
LINE
  8
0
 62
     0
 10
93.8555
 20
51.7179
 30
0.0
 11
93.8555
 21
54.8185
 31
0.0
  0
LINE
  8
0
 62
     0
 10
93.8555
 20
54.8185
 30
0.0
 11
93.0561
 21
54.8185
 31
0.0
  0
LINE
  8
0
 62
     0
 10
93.0561
 20
54.8185
 30
0.0
 11
93.0561
 21
60.6185
 31
0.0
  0
LINE
  8
0
 62
     0
 10
93.0561
 20
60.6185
 30
0.0
 11
93.8555
 21
60.6185
 31
0.0
  0
LINE
  8
0
 62
     0
 10
93.8555
 20
60.6185
 30
0.0
 11
93.8555
 21
63.7191
 31
0.0
  0
LINE
  8
0
 62
     0
 10
93.8555
 20
63.7191
 30
0.0
 11
93.0561
 21
63.7191
 31
0.0
  0
LINE
  8
0
 62
     0
 10
93.0561
 20
63.7191
 30
0.0
 11
93.0561
 21
64.7181
 31
0.0
  0
LINE
  8
0
 62
     0
 10
93.0561
 20
64.7181
 30
0.0
 11
79.0554
 21
64.7181
 31
0.0
  0
LINE
  8
0
 62
     0
 10
98.1054
 20
64.7181
 30
0.0
 11
98.1054
 21
63.7191
 31
0.0
  0
LINE
  8
0
 62
     0
 10
98.1054
 20
63.7191
 30
0.0
 11
97.306
 21
63.7191
 31
0.0
  0
LINE
  8
0
 62
     0
 10
97.306
 20
63.7191
 30
0.0
 11
97.306
 21
60.6185
 31
0.0
  0
LINE
  8
0
 62
     0
 10
97.306
 20
60.6185
 30
0.0
 11
98.1054
 21
60.6185
 31
0.0
  0
LINE
  8
0
 62
     0
 10
98.1054
 20
60.6185
 30
0.0
 11
98.1054
 21
54.8185
 31
0.0
  0
LINE
  8
0
 62
     0
 10
98.1054
 20
54.8185
 30
0.0
 11
97.306
 21
54.8185
 31
0.0
  0
LINE
  8
0
 62
     0
 10
97.306
 20
54.8185
 30
0.0
 11
97.306
 21
51.7179
 31
0.0
  0
LINE
  8
0
 62
     0
 10
97.306
 20
51.7179
 30
0.0
 11
98.1054
 21
51.7179
 31
0.0
  0
LINE
  8
0
 62
     0
 10
98.1054
 20
51.7179
 30
0.0
 11
98.1054
 21
50.7189
 31
0.0
  0
LINE
  8
0
 62
     0
 10
98.1054
 20
50.7189
 30
0.0
 11
112.106
 21
50.7189
 31
0.0
  0
LINE
  8
0
 62
     0
 10
112.106
 20
50.7189
 30
0.0
 11
112.106
 21
51.7179
 31
0.0
  0
LINE
  8
0
 62
     0
 10
112.106
 20
51.7179
 30
0.0
 11
112.905
 21
51.7179
 31
0.0
  0
LINE
  8
0
 62
     0
 10
112.905
 20
51.7179
 30
0.0
 11
112.905
 21
54.8185
 31
0.0
  0
LINE
  8
0
 62
     0
 10
112.905
 20
54.8185
 30
0.0
 11
112.106
 21
54.8185
 31
0.0
  0
LINE
  8
0
 62
     0
 10
112.106
 20
54.8185
 30
0.0
 11
112.106
 21
60.6185
 31
0.0
  0
LINE
  8
0
 62
     0
 10
112.106
 20
60.6185
 30
0.0
 11
112.905
 21
60.6185
 31
0.0
  0
LINE
  8
0
 62
     0
 10
112.905
 20
60.6185
 30
0.0
 11
112.905
 21
63.7191
 31
0.0
  0
LINE
  8
0
 62
     0
 10
112.905
 20
63.7191
 30
0.0
 11
112.106
 21
63.7191
 31
0.0
  0
LINE
  8
0
 62
     0
 10
112.106
 20
63.7191
 30
0.0
 11
112.106
 21
64.7181
 31
0.0
  0
LINE
  8
0
 62
     0
 10
112.106
 20
64.7181
 30
0.0
 11
98.1054
 21
64.7181
 31
0.0
  0
LINE
  8
0
 62
     0
 10
117.155
 20
64.7181
 30
0.0
 11
117.155
 21
63.7191
 31
0.0
  0
LINE
  8
0
 62
     0
 10
117.155
 20
63.7191
 30
0.0
 11
116.356
 21
63.7191
 31
0.0
  0
LINE
  8
0
 62
     0
 10
116.356
 20
63.7191
 30
0.0
 11
116.356
 21
60.6185
 31
0.0
  0
LINE
  8
0
 62
     0
 10
116.356
 20
60.6185
 30
0.0
 11
117.155
 21
60.6185
 31
0.0
  0
LINE
  8
0
 62
     0
 10
117.155
 20
60.6185
 30
0.0
 11
117.155
 21
54.8185
 31
0.0
  0
LINE
  8
0
 62
     0
 10
117.155
 20
54.8185
 30
0.0
 11
116.356
 21
54.8185
 31
0.0
  0
LINE
  8
0
 62
     0
 10
116.356
 20
54.8185
 30
0.0
 11
116.356
 21
51.7179
 31
0.0
  0
LINE
  8
0
 62
     0
 10
116.356
 20
51.7179
 30
0.0
 11
117.155
 21
51.7179
 31
0.0
  0
LINE
  8
0
 62
     0
 10
117.155
 20
51.7179
 30
0.0
 11
117.155
 21
50.7189
 31
0.0
  0
LINE
  8
0
 62
     0
 10
117.155
 20
50.7189
 30
0.0
 11
131.156
 21
50.7189
 31
0.0
  0
LINE
  8
0
 62
     0
 10
131.156
 20
50.7189
 30
0.0
 11
131.156
 21
51.7179
 31
0.0
  0
LINE
  8
0
 62
     0
 10
131.156
 20
51.7179
 30
0.0
 11
131.955
 21
51.7179
 31
0.0
  0
LINE
  8
0
 62
     0
 10
131.955
 20
51.7179
 30
0.0
 11
131.955
 21
54.8185
 31
0.0
  0
LINE
  8
0
 62
     0
 10
131.955
 20
54.8185
 30
0.0
 11
131.156
 21
54.8185
 31
0.0
  0
LINE
  8
0
 62
     0
 10
131.156
 20
54.8185
 30
0.0
 11
131.156
 21
60.6185
 31
0.0
  0
LINE
  8
0
 62
     0
 10
131.156
 20
60.6185
 30
0.0
 11
131.955
 21
60.6185
 31
0.0
  0
LINE
  8
0
 62
     0
 10
131.955
 20
60.6185
 30
0.0
 11
131.955
 21
63.7191
 31
0.0
  0
LINE
  8
0
 62
     0
 10
131.955
 20
63.7191
 30
0.0
 11
131.156
 21
63.7191
 31
0.0
  0
LINE
  8
0
 62
     0
 10
131.156
 20
63.7191
 30
0.0
 11
131.156
 21
64.7181
 31
0.0
  0
LINE
  8
0
 62
     0
 10
131.156
 20
64.7181
 30
0.0
 11
117.155
 21
64.7181
 31
0.0
  0
LINE
  8
0
 62
     0
 10
136.205
 20
64.7181
 30
0.0
 11
136.205
 21
63.7191
 31
0.0
  0
LINE
  8
0
 62
     0
 10
136.205
 20
63.7191
 30
0.0
 11
135.406
 21
63.7191
 31
0.0
  0
LINE
  8
0
 62
     0
 10
135.406
 20
63.7191
 30
0.0
 11
135.406
 21
60.6185
 31
0.0
  0
LINE
  8
0
 62
     0
 10
135.406
 20
60.6185
 30
0.0
 11
136.205
 21
60.6185
 31
0.0
  0
LINE
  8
0
 62
     0
 10
136.205
 20
60.6185
 30
0.0
 11
136.205
 21
54.8185
 31
0.0
  0
LINE
  8
0
 62
     0
 10
136.205
 20
54.8185
 30
0.0
 11
135.406
 21
54.8185
 31
0.0
  0
LINE
  8
0
 62
     0
 10
135.406
 20
54.8185
 30
0.0
 11
135.406
 21
51.7179
 31
0.0
  0
LINE
  8
0
 62
     0
 10
135.406
 20
51.7179
 30
0.0
 11
136.205
 21
51.7179
 31
0.0
  0
LINE
  8
0
 62
     0
 10
136.205
 20
51.7179
 30
0.0
 11
136.205
 21
50.7189
 31
0.0
  0
LINE
  8
0
 62
     0
 10
136.205
 20
50.7189
 30
0.0
 11
150.206
 21
50.7189
 31
0.0
  0
LINE
  8
0
 62
     0
 10
150.206
 20
50.7189
 30
0.0
 11
150.206
 21
51.7179
 31
0.0
  0
LINE
  8
0
 62
     0
 10
150.206
 20
51.7179
 30
0.0
 11
151.005
 21
51.7179
 31
0.0
  0
LINE
  8
0
 62
     0
 10
151.005
 20
51.7179
 30
0.0
 11
151.005
 21
54.8185
 31
0.0
  0
LINE
  8
0
 62
     0
 10
151.005
 20
54.8185
 30
0.0
 11
150.206
 21
54.8185
 31
0.0
  0
LINE
  8
0
 62
     0
 10
150.206
 20
54.8185
 30
0.0
 11
150.206
 21
60.6185
 31
0.0
  0
LINE
  8
0
 62
     0
 10
150.206
 20
60.6185
 30
0.0
 11
151.005
 21
60.6185
 31
0.0
  0
LINE
  8
0
 62
     0
 10
151.005
 20
60.6185
 30
0.0
 11
151.005
 21
63.7191
 31
0.0
  0
LINE
  8
0
 62
     0
 10
151.005
 20
63.7191
 30
0.0
 11
150.206
 21
63.7191
 31
0.0
  0
LINE
  8
0
 62
     0
 10
150.206
 20
63.7191
 30
0.0
 11
150.206
 21
64.7181
 31
0.0
  0
LINE
  8
0
 62
     0
 10
150.206
 20
64.7181
 30
0.0
 11
136.205
 21
64.7181
 31
0.0
  0
LINE
  8
0
 62
     0
 10
155.255
 20
64.7181
 30
0.0
 11
155.255
 21
63.7191
 31
0.0
  0
LINE
  8
0
 62
     0
 10
155.255
 20
63.7191
 30
0.0
 11
154.456
 21
63.7191
 31
0.0
  0
LINE
  8
0
 62
     0
 10
154.456
 20
63.7191
 30
0.0
 11
154.456
 21
60.6185
 31
0.0
  0
LINE
  8
0
 62
     0
 10
154.456
 20
60.6185
 30
0.0
 11
155.255
 21
60.6185
 31
0.0
  0
LINE
  8
0
 62
     0
 10
155.255
 20
60.6185
 30
0.0
 11
155.255
 21
54.8185
 31
0.0
  0
LINE
  8
0
 62
     0
 10
155.255
 20
54.8185
 30
0.0
 11
154.456
 21
54.8185
 31
0.0
  0
LINE
  8
0
 62
     0
 10
154.456
 20
54.8185
 30
0.0
 11
154.456
 21
51.7179
 31
0.0
  0
LINE
  8
0
 62
     0
 10
154.456
 20
51.7179
 30
0.0
 11
155.255
 21
51.7179
 31
0.0
  0
LINE
  8
0
 62
     0
 10
155.255
 20
51.7179
 30
0.0
 11
155.255
 21
50.7189
 31
0.0
  0
LINE
  8
0
 62
     0
 10
155.255
 20
50.7189
 30
0.0
 11
169.256
 21
50.7189
 31
0.0
  0
LINE
  8
0
 62
     0
 10
169.256
 20
50.7189
 30
0.0
 11
169.256
 21
51.7179
 31
0.0
  0
LINE
  8
0
 62
     0
 10
169.256
 20
51.7179
 30
0.0
 11
170.055
 21
51.7179
 31
0.0
  0
LINE
  8
0
 62
     0
 10
170.055
 20
51.7179
 30
0.0
 11
170.055
 21
54.8185
 31
0.0
  0
LINE
  8
0
 62
     0
 10
170.055
 20
54.8185
 30
0.0
 11
169.256
 21
54.8185
 31
0.0
  0
LINE
  8
0
 62
     0
 10
169.256
 20
54.8185
 30
0.0
 11
169.256
 21
60.6185
 31
0.0
  0
LINE
  8
0
 62
     0
 10
169.256
 20
60.6185
 30
0.0
 11
170.055
 21
60.6185
 31
0.0
  0
LINE
  8
0
 62
     0
 10
170.055
 20
60.6185
 30
0.0
 11
170.055
 21
63.7191
 31
0.0
  0
LINE
  8
0
 62
     0
 10
170.055
 20
63.7191
 30
0.0
 11
169.256
 21
63.7191
 31
0.0
  0
LINE
  8
0
 62
     0
 10
169.256
 20
63.7191
 30
0.0
 11
169.256
 21
64.7181
 31
0.0
  0
LINE
  8
0
 62
     0
 10
169.256
 20
64.7181
 30
0.0
 11
155.255
 21
64.7181
 31
0.0
  0
LINE
  8
0
 62
     0
 10
174.305
 20
64.7181
 30
0.0
 11
174.305
 21
63.7191
 31
0.0
  0
LINE
  8
0
 62
     0
 10
174.305
 20
63.7191
 30
0.0
 11
173.506
 21
63.7191
 31
0.0
  0
LINE
  8
0
 62
     0
 10
173.506
 20
63.7191
 30
0.0
 11
173.506
 21
60.6185
 31
0.0
  0
LINE
  8
0
 62
     0
 10
173.506
 20
60.6185
 30
0.0
 11
174.305
 21
60.6185
 31
0.0
  0
LINE
  8
0
 62
     0
 10
174.305
 20
60.6185
 30
0.0
 11
174.305
 21
54.8185
 31
0.0
  0
LINE
  8
0
 62
     0
 10
174.305
 20
54.8185
 30
0.0
 11
173.506
 21
54.8185
 31
0.0
  0
LINE
  8
0
 62
     0
 10
173.506
 20
54.8185
 30
0.0
 11
173.506
 21
51.7179
 31
0.0
  0
LINE
  8
0
 62
     0
 10
173.506
 20
51.7179
 30
0.0
 11
174.305
 21
51.7179
 31
0.0
  0
LINE
  8
0
 62
     0
 10
174.305
 20
51.7179
 30
0.0
 11
174.305
 21
50.7189
 31
0.0
  0
LINE
  8
0
 62
     0
 10
174.305
 20
50.7189
 30
0.0
 11
188.306
 21
50.7189
 31
0.0
  0
LINE
  8
0
 62
     0
 10
188.306
 20
50.7189
 30
0.0
 11
188.306
 21
51.7179
 31
0.0
  0
LINE
  8
0
 62
     0
 10
188.306
 20
51.7179
 30
0.0
 11
189.105
 21
51.7179
 31
0.0
  0
LINE
  8
0
 62
     0
 10
189.105
 20
51.7179
 30
0.0
 11
189.105
 21
54.8185
 31
0.0
  0
LINE
  8
0
 62
     0
 10
189.105
 20
54.8185
 30
0.0
 11
188.306
 21
54.8185
 31
0.0
  0
LINE
  8
0
 62
     0
 10
188.306
 20
54.8185
 30
0.0
 11
188.306
 21
60.6185
 31
0.0
  0
LINE
  8
0
 62
     0
 10
188.306
 20
60.6185
 30
0.0
 11
189.105
 21
60.6185
 31
0.0
  0
LINE
  8
0
 62
     0
 10
189.105
 20
60.6185
 30
0.0
 11
189.105
 21
63.7191
 31
0.0
  0
LINE
  8
0
 62
     0
 10
189.105
 20
63.7191
 30
0.0
 11
188.306
 21
63.7191
 31
0.0
  0
LINE
  8
0
 62
     0
 10
188.306
 20
63.7191
 30
0.0
 11
188.306
 21
64.7181
 31
0.0
  0
LINE
  8
0
 62
     0
 10
188.306
 20
64.7181
 30
0.0
 11
174.305
 21
64.7181
 31
0.0
  0
LINE
  8
0
 62
     0
 10
193.355
 20
64.7181
 30
0.0
 11
193.355
 21
63.7191
 31
0.0
  0
LINE
  8
0
 62
     0
 10
193.355
 20
63.7191
 30
0.0
 11
192.556
 21
63.7191
 31
0.0
  0
LINE
  8
0
 62
     0
 10
192.556
 20
63.7191
 30
0.0
 11
192.556
 21
60.6185
 31
0.0
  0
LINE
  8
0
 62
     0
 10
192.556
 20
60.6185
 30
0.0
 11
193.355
 21
60.6185
 31
0.0
  0
LINE
  8
0
 62
     0
 10
193.355
 20
60.6185
 30
0.0
 11
193.355
 21
54.8185
 31
0.0
  0
LINE
  8
0
 62
     0
 10
193.355
 20
54.8185
 30
0.0
 11
192.556
 21
54.8185
 31
0.0
  0
LINE
  8
0
 62
     0
 10
192.556
 20
54.8185
 30
0.0
 11
192.556
 21
51.7179
 31
0.0
  0
LINE
  8
0
 62
     0
 10
192.556
 20
51.7179
 30
0.0
 11
193.355
 21
51.7179
 31
0.0
  0
LINE
  8
0
 62
     0
 10
193.355
 20
51.7179
 30
0.0
 11
193.355
 21
50.7189
 31
0.0
  0
LINE
  8
0
 62
     0
 10
193.355
 20
50.7189
 30
0.0
 11
207.356
 21
50.7189
 31
0.0
  0
LINE
  8
0
 62
     0
 10
207.356
 20
50.7189
 30
0.0
 11
207.356
 21
51.7179
 31
0.0
  0
LINE
  8
0
 62
     0
 10
207.356
 20
51.7179
 30
0.0
 11
208.155
 21
51.7179
 31
0.0
  0
LINE
  8
0
 62
     0
 10
208.155
 20
51.7179
 30
0.0
 11
208.155
 21
54.8185
 31
0.0
  0
LINE
  8
0
 62
     0
 10
208.155
 20
54.8185
 30
0.0
 11
207.356
 21
54.8185
 31
0.0
  0
LINE
  8
0
 62
     0
 10
207.356
 20
54.8185
 30
0.0
 11
207.356
 21
60.6185
 31
0.0
  0
LINE
  8
0
 62
     0
 10
207.356
 20
60.6185
 30
0.0
 11
208.155
 21
60.6185
 31
0.0
  0
LINE
  8
0
 62
     0
 10
208.155
 20
60.6185
 30
0.0
 11
208.155
 21
63.7191
 31
0.0
  0
LINE
  8
0
 62
     0
 10
208.155
 20
63.7191
 30
0.0
 11
207.356
 21
63.7191
 31
0.0
  0
LINE
  8
0
 62
     0
 10
207.356
 20
63.7191
 30
0.0
 11
207.356
 21
64.7181
 31
0.0
  0
LINE
  8
0
 62
     0
 10
207.356
 20
64.7181
 30
0.0
 11
193.355
 21
64.7181
 31
0.0
  0
LINE
  8
0
 62
     0
 10
212.405
 20
64.7181
 30
0.0
 11
212.405
 21
63.7191
 31
0.0
  0
LINE
  8
0
 62
     0
 10
212.405
 20
63.7191
 30
0.0
 11
211.606
 21
63.7191
 31
0.0
  0
LINE
  8
0
 62
     0
 10
211.606
 20
63.7191
 30
0.0
 11
211.606
 21
60.6185
 31
0.0
  0
LINE
  8
0
 62
     0
 10
211.606
 20
60.6185
 30
0.0
 11
212.405
 21
60.6185
 31
0.0
  0
LINE
  8
0
 62
     0
 10
212.405
 20
60.6185
 30
0.0
 11
212.405
 21
54.8185
 31
0.0
  0
LINE
  8
0
 62
     0
 10
212.405
 20
54.8185
 30
0.0
 11
211.606
 21
54.8185
 31
0.0
  0
LINE
  8
0
 62
     0
 10
211.606
 20
54.8185
 30
0.0
 11
211.606
 21
51.7179
 31
0.0
  0
LINE
  8
0
 62
     0
 10
211.606
 20
51.7179
 30
0.0
 11
212.405
 21
51.7179
 31
0.0
  0
LINE
  8
0
 62
     0
 10
212.405
 20
51.7179
 30
0.0
 11
212.405
 21
50.7189
 31
0.0
  0
LINE
  8
0
 62
     0
 10
212.405
 20
50.7189
 30
0.0
 11
226.406
 21
50.7189
 31
0.0
  0
LINE
  8
0
 62
     0
 10
226.406
 20
50.7189
 30
0.0
 11
226.406
 21
51.7179
 31
0.0
  0
LINE
  8
0
 62
     0
 10
226.406
 20
51.7179
 30
0.0
 11
227.205
 21
51.7179
 31
0.0
  0
LINE
  8
0
 62
     0
 10
227.205
 20
51.7179
 30
0.0
 11
227.205
 21
54.8185
 31
0.0
  0
LINE
  8
0
 62
     0
 10
227.205
 20
54.8185
 30
0.0
 11
226.406
 21
54.8185
 31
0.0
  0
LINE
  8
0
 62
     0
 10
226.406
 20
54.8185
 30
0.0
 11
226.406
 21
60.6185
 31
0.0
  0
LINE
  8
0
 62
     0
 10
226.406
 20
60.6185
 30
0.0
 11
227.205
 21
60.6185
 31
0.0
  0
LINE
  8
0
 62
     0
 10
227.205
 20
60.6185
 30
0.0
 11
227.205
 21
63.7191
 31
0.0
  0
LINE
  8
0
 62
     0
 10
227.205
 20
63.7191
 30
0.0
 11
226.406
 21
63.7191
 31
0.0
  0
LINE
  8
0
 62
     0
 10
226.406
 20
63.7191
 30
0.0
 11
226.406
 21
64.7181
 31
0.0
  0
LINE
  8
0
 62
     0
 10
226.406
 20
64.7181
 30
0.0
 11
212.405
 21
64.7181
 31
0.0
  0
LINE
  8
0
 62
     0
 10
231.455
 20
64.7181
 30
0.0
 11
231.455
 21
63.7191
 31
0.0
  0
LINE
  8
0
 62
     0
 10
231.455
 20
63.7191
 30
0.0
 11
230.656
 21
63.7191
 31
0.0
  0
LINE
  8
0
 62
     0
 10
230.656
 20
63.7191
 30
0.0
 11
230.656
 21
60.6185
 31
0.0
  0
LINE
  8
0
 62
     0
 10
230.656
 20
60.6185
 30
0.0
 11
231.455
 21
60.6185
 31
0.0
  0
LINE
  8
0
 62
     0
 10
231.455
 20
60.6185
 30
0.0
 11
231.455
 21
54.8185
 31
0.0
  0
LINE
  8
0
 62
     0
 10
231.455
 20
54.8185
 30
0.0
 11
230.656
 21
54.8185
 31
0.0
  0
LINE
  8
0
 62
     0
 10
230.656
 20
54.8185
 30
0.0
 11
230.656
 21
51.7179
 31
0.0
  0
LINE
  8
0
 62
     0
 10
230.656
 20
51.7179
 30
0.0
 11
231.455
 21
51.7179
 31
0.0
  0
LINE
  8
0
 62
     0
 10
231.455
 20
51.7179
 30
0.0
 11
231.455
 21
50.7189
 31
0.0
  0
LINE
  8
0
 62
     0
 10
231.455
 20
50.7189
 30
0.0
 11
245.456
 21
50.7189
 31
0.0
  0
LINE
  8
0
 62
     0
 10
245.456
 20
50.7189
 30
0.0
 11
245.456
 21
51.7179
 31
0.0
  0
LINE
  8
0
 62
     0
 10
245.456
 20
51.7179
 30
0.0
 11
246.255
 21
51.7179
 31
0.0
  0
LINE
  8
0
 62
     0
 10
246.255
 20
51.7179
 30
0.0
 11
246.255
 21
54.8185
 31
0.0
  0
LINE
  8
0
 62
     0
 10
246.255
 20
54.8185
 30
0.0
 11
245.456
 21
54.8185
 31
0.0
  0
LINE
  8
0
 62
     0
 10
245.456
 20
54.8185
 30
0.0
 11
245.456
 21
60.6185
 31
0.0
  0
LINE
  8
0
 62
     0
 10
245.456
 20
60.6185
 30
0.0
 11
246.255
 21
60.6185
 31
0.0
  0
LINE
  8
0
 62
     0
 10
246.255
 20
60.6185
 30
0.0
 11
246.255
 21
63.7191
 31
0.0
  0
LINE
  8
0
 62
     0
 10
246.255
 20
63.7191
 30
0.0
 11
245.456
 21
63.7191
 31
0.0
  0
LINE
  8
0
 62
     0
 10
245.456
 20
63.7191
 30
0.0
 11
245.456
 21
64.7181
 31
0.0
  0
LINE
  8
0
 62
     0
 10
245.456
 20
64.7181
 30
0.0
 11
231.455
 21
64.7181
 31
0.0
  0
LINE
  8
0
 62
     0
 10
250.505
 20
64.7181
 30
0.0
 11
250.505
 21
63.7191
 31
0.0
  0
LINE
  8
0
 62
     0
 10
250.505
 20
63.7191
 30
0.0
 11
249.706
 21
63.7191
 31
0.0
  0
LINE
  8
0
 62
     0
 10
249.706
 20
63.7191
 30
0.0
 11
249.706
 21
60.6185
 31
0.0
  0
LINE
  8
0
 62
     0
 10
249.706
 20
60.6185
 30
0.0
 11
250.505
 21
60.6185
 31
0.0
  0
LINE
  8
0
 62
     0
 10
250.505
 20
60.6185
 30
0.0
 11
250.505
 21
54.8185
 31
0.0
  0
LINE
  8
0
 62
     0
 10
250.505
 20
54.8185
 30
0.0
 11
249.706
 21
54.8185
 31
0.0
  0
LINE
  8
0
 62
     0
 10
249.706
 20
54.8185
 30
0.0
 11
249.706
 21
51.7179
 31
0.0
  0
LINE
  8
0
 62
     0
 10
249.706
 20
51.7179
 30
0.0
 11
250.505
 21
51.7179
 31
0.0
  0
LINE
  8
0
 62
     0
 10
250.505
 20
51.7179
 30
0.0
 11
250.505
 21
50.7189
 31
0.0
  0
LINE
  8
0
 62
     0
 10
250.505
 20
50.7189
 30
0.0
 11
264.506
 21
50.7189
 31
0.0
  0
LINE
  8
0
 62
     0
 10
264.506
 20
50.7189
 30
0.0
 11
264.506
 21
51.7179
 31
0.0
  0
LINE
  8
0
 62
     0
 10
264.506
 20
51.7179
 30
0.0
 11
265.305
 21
51.7179
 31
0.0
  0
LINE
  8
0
 62
     0
 10
265.305
 20
51.7179
 30
0.0
 11
265.305
 21
54.8185
 31
0.0
  0
LINE
  8
0
 62
     0
 10
265.305
 20
54.8185
 30
0.0
 11
264.506
 21
54.8185
 31
0.0
  0
LINE
  8
0
 62
     0
 10
264.506
 20
54.8185
 30
0.0
 11
264.506
 21
60.6185
 31
0.0
  0
LINE
  8
0
 62
     0
 10
264.506
 20
60.6185
 30
0.0
 11
265.305
 21
60.6185
 31
0.0
  0
LINE
  8
0
 62
     0
 10
265.305
 20
60.6185
 30
0.0
 11
265.305
 21
63.7191
 31
0.0
  0
LINE
  8
0
 62
     0
 10
265.305
 20
63.7191
 30
0.0
 11
264.506
 21
63.7191
 31
0.0
  0
LINE
  8
0
 62
     0
 10
264.506
 20
63.7191
 30
0.0
 11
264.506
 21
64.7181
 31
0.0
  0
LINE
  8
0
 62
     0
 10
264.506
 20
64.7181
 30
0.0
 11
250.505
 21
64.7181
 31
0.0
  0
LINE
  8
0
 62
     0
 10
312.419
 20
64.7181
 30
0.0
 11
312.419
 21
63.7191
 31
0.0
  0
LINE
  8
0
 62
     0
 10
312.419
 20
63.7191
 30
0.0
 11
311.618
 21
63.7191
 31
0.0
  0
LINE
  8
0
 62
     0
 10
311.618
 20
63.7191
 30
0.0
 11
311.618
 21
60.6185
 31
0.0
  0
LINE
  8
0
 62
     0
 10
311.618
 20
60.6185
 30
0.0
 11
312.419
 21
60.6185
 31
0.0
  0
LINE
  8
0
 62
     0
 10
312.419
 20
60.6185
 30
0.0
 11
312.419
 21
54.8185
 31
0.0
  0
LINE
  8
0
 62
     0
 10
312.419
 20
54.8185
 30
0.0
 11
311.618
 21
54.8185
 31
0.0
  0
LINE
  8
0
 62
     0
 10
311.618
 20
54.8185
 30
0.0
 11
311.618
 21
51.7179
 31
0.0
  0
LINE
  8
0
 62
     0
 10
311.618
 20
51.7179
 30
0.0
 11
312.419
 21
51.7179
 31
0.0
  0
LINE
  8
0
 62
     0
 10
312.419
 20
51.7179
 30
0.0
 11
312.419
 21
50.7189
 31
0.0
  0
LINE
  8
0
 62
     0
 10
312.419
 20
50.7189
 30
0.0
 11
326.419
 21
50.7189
 31
0.0
  0
LINE
  8
0
 62
     0
 10
326.419
 20
50.7189
 30
0.0
 11
326.419
 21
51.7179
 31
0.0
  0
LINE
  8
0
 62
     0
 10
326.419
 20
51.7179
 30
0.0
 11
327.219
 21
51.7179
 31
0.0
  0
LINE
  8
0
 62
     0
 10
327.219
 20
51.7179
 30
0.0
 11
327.219
 21
54.8185
 31
0.0
  0
LINE
  8
0
 62
     0
 10
327.219
 20
54.8185
 30
0.0
 11
326.419
 21
54.8185
 31
0.0
  0
LINE
  8
0
 62
     0
 10
326.419
 20
54.8185
 30
0.0
 11
326.419
 21
60.6185
 31
0.0
  0
LINE
  8
0
 62
     0
 10
326.419
 20
60.6185
 30
0.0
 11
327.219
 21
60.6185
 31
0.0
  0
LINE
  8
0
 62
     0
 10
327.219
 20
60.6185
 30
0.0
 11
327.219
 21
63.7191
 31
0.0
  0
LINE
  8
0
 62
     0
 10
327.219
 20
63.7191
 30
0.0
 11
326.419
 21
63.7191
 31
0.0
  0
LINE
  8
0
 62
     0
 10
326.419
 20
63.7191
 30
0.0
 11
326.419
 21
64.7181
 31
0.0
  0
LINE
  8
0
 62
     0
 10
326.419
 20
64.7181
 30
0.0
 11
312.419
 21
64.7181
 31
0.0
  0
LINE
  8
0
 62
     0
 10
7.61781
 20
83.7681
 30
0.0
 11
7.61781
 21
82.7691
 31
0.0
  0
LINE
  8
0
 62
     0
 10
7.61781
 20
82.7691
 30
0.0
 11
6.81715
 21
82.7691
 31
0.0
  0
LINE
  8
0
 62
     0
 10
6.81715
 20
82.7691
 30
0.0
 11
6.81715
 21
79.6685
 31
0.0
  0
LINE
  8
0
 62
     0
 10
6.81715
 20
79.6685
 30
0.0
 11
7.61781
 21
79.6685
 31
0.0
  0
LINE
  8
0
 62
     0
 10
7.61781
 20
79.6685
 30
0.0
 11
7.61781
 21
73.8685
 31
0.0
  0
LINE
  8
0
 62
     0
 10
7.61781
 20
73.8685
 30
0.0
 11
6.81715
 21
73.8685
 31
0.0
  0
LINE
  8
0
 62
     0
 10
6.81715
 20
73.8685
 30
0.0
 11
6.81715
 21
70.7679
 31
0.0
  0
LINE
  8
0
 62
     0
 10
6.81715
 20
70.7679
 30
0.0
 11
7.61781
 21
70.7679
 31
0.0
  0
LINE
  8
0
 62
     0
 10
7.61781
 20
70.7679
 30
0.0
 11
7.61781
 21
69.7689
 31
0.0
  0
LINE
  8
0
 62
     0
 10
7.61781
 20
69.7689
 30
0.0
 11
21.6187
 21
69.7689
 31
0.0
  0
LINE
  8
0
 62
     0
 10
21.6187
 20
69.7689
 30
0.0
 11
21.6187
 21
70.7679
 31
0.0
  0
LINE
  8
0
 62
     0
 10
21.6187
 20
70.7679
 30
0.0
 11
22.4193
 21
70.7679
 31
0.0
  0
LINE
  8
0
 62
     0
 10
22.4193
 20
70.7679
 30
0.0
 11
22.4193
 21
73.8685
 31
0.0
  0
LINE
  8
0
 62
     0
 10
22.4193
 20
73.8685
 30
0.0
 11
21.6187
 21
73.8685
 31
0.0
  0
LINE
  8
0
 62
     0
 10
21.6187
 20
73.8685
 30
0.0
 11
21.6187
 21
79.6685
 31
0.0
  0
LINE
  8
0
 62
     0
 10
21.6187
 20
79.6685
 30
0.0
 11
22.4193
 21
79.6685
 31
0.0
  0
LINE
  8
0
 62
     0
 10
22.4193
 20
79.6685
 30
0.0
 11
22.4193
 21
82.7691
 31
0.0
  0
LINE
  8
0
 62
     0
 10
22.4193
 20
82.7691
 30
0.0
 11
21.6187
 21
82.7691
 31
0.0
  0
LINE
  8
0
 62
     0
 10
21.6187
 20
82.7691
 30
0.0
 11
21.6187
 21
83.7681
 31
0.0
  0
LINE
  8
0
 62
     0
 10
21.6187
 20
83.7681
 30
0.0
 11
7.61781
 21
83.7681
 31
0.0
  0
LINE
  8
0
 62
     0
 10
31.4303
 20
83.7681
 30
0.0
 11
31.4303
 21
82.7691
 31
0.0
  0
LINE
  8
0
 62
     0
 10
31.4303
 20
82.7691
 30
0.0
 11
30.631
 21
82.7691
 31
0.0
  0
LINE
  8
0
 62
     0
 10
30.631
 20
82.7691
 30
0.0
 11
30.631
 21
79.6685
 31
0.0
  0
LINE
  8
0
 62
     0
 10
30.631
 20
79.6685
 30
0.0
 11
31.4303
 21
79.6685
 31
0.0
  0
LINE
  8
0
 62
     0
 10
31.4303
 20
79.6685
 30
0.0
 11
31.4303
 21
73.8685
 31
0.0
  0
LINE
  8
0
 62
     0
 10
31.4303
 20
73.8685
 30
0.0
 11
30.631
 21
73.8685
 31
0.0
  0
LINE
  8
0
 62
     0
 10
30.631
 20
73.8685
 30
0.0
 11
30.631
 21
70.7679
 31
0.0
  0
LINE
  8
0
 62
     0
 10
30.631
 20
70.7679
 30
0.0
 11
31.4303
 21
70.7679
 31
0.0
  0
LINE
  8
0
 62
     0
 10
31.4303
 20
70.7679
 30
0.0
 11
31.4303
 21
69.7689
 31
0.0
  0
LINE
  8
0
 62
     0
 10
31.4303
 20
69.7689
 30
0.0
 11
45.4311
 21
69.7689
 31
0.0
  0
LINE
  8
0
 62
     0
 10
45.4311
 20
69.7689
 30
0.0
 11
45.4311
 21
70.7679
 31
0.0
  0
LINE
  8
0
 62
     0
 10
45.4311
 20
70.7679
 30
0.0
 11
46.2305
 21
70.7679
 31
0.0
  0
LINE
  8
0
 62
     0
 10
46.2305
 20
70.7679
 30
0.0
 11
46.2305
 21
73.8685
 31
0.0
  0
LINE
  8
0
 62
     0
 10
46.2305
 20
73.8685
 30
0.0
 11
45.4311
 21
73.8685
 31
0.0
  0
LINE
  8
0
 62
     0
 10
45.4311
 20
73.8685
 30
0.0
 11
45.4311
 21
79.6685
 31
0.0
  0
LINE
  8
0
 62
     0
 10
45.4311
 20
79.6685
 30
0.0
 11
46.2305
 21
79.6685
 31
0.0
  0
LINE
  8
0
 62
     0
 10
46.2305
 20
79.6685
 30
0.0
 11
46.2305
 21
82.7691
 31
0.0
  0
LINE
  8
0
 62
     0
 10
46.2305
 20
82.7691
 30
0.0
 11
45.4311
 21
82.7691
 31
0.0
  0
LINE
  8
0
 62
     0
 10
45.4311
 20
82.7691
 30
0.0
 11
45.4311
 21
83.7681
 31
0.0
  0
LINE
  8
0
 62
     0
 10
45.4311
 20
83.7681
 30
0.0
 11
31.4303
 21
83.7681
 31
0.0
  0
LINE
  8
0
 62
     0
 10
55.2443
 20
83.7681
 30
0.0
 11
55.2443
 21
82.7691
 31
0.0
  0
LINE
  8
0
 62
     0
 10
55.2443
 20
82.7691
 30
0.0
 11
54.4435
 21
82.7691
 31
0.0
  0
LINE
  8
0
 62
     0
 10
54.4435
 20
82.7691
 30
0.0
 11
54.4435
 21
79.6685
 31
0.0
  0
LINE
  8
0
 62
     0
 10
54.4435
 20
79.6685
 30
0.0
 11
55.2443
 21
79.6685
 31
0.0
  0
LINE
  8
0
 62
     0
 10
55.2443
 20
79.6685
 30
0.0
 11
55.2443
 21
73.8685
 31
0.0
  0
LINE
  8
0
 62
     0
 10
55.2443
 20
73.8685
 30
0.0
 11
54.4435
 21
73.8685
 31
0.0
  0
LINE
  8
0
 62
     0
 10
54.4435
 20
73.8685
 30
0.0
 11
54.4435
 21
70.7679
 31
0.0
  0
LINE
  8
0
 62
     0
 10
54.4435
 20
70.7679
 30
0.0
 11
55.2443
 21
70.7679
 31
0.0
  0
LINE
  8
0
 62
     0
 10
55.2443
 20
70.7679
 30
0.0
 11
55.2443
 21
69.7689
 31
0.0
  0
LINE
  8
0
 62
     0
 10
55.2443
 20
69.7689
 30
0.0
 11
69.2436
 21
69.7689
 31
0.0
  0
LINE
  8
0
 62
     0
 10
69.2436
 20
69.7689
 30
0.0
 11
69.2436
 21
70.7679
 31
0.0
  0
LINE
  8
0
 62
     0
 10
69.2436
 20
70.7679
 30
0.0
 11
70.0444
 21
70.7679
 31
0.0
  0
LINE
  8
0
 62
     0
 10
70.0444
 20
70.7679
 30
0.0
 11
70.0444
 21
73.8685
 31
0.0
  0
LINE
  8
0
 62
     0
 10
70.0444
 20
73.8685
 30
0.0
 11
69.2436
 21
73.8685
 31
0.0
  0
LINE
  8
0
 62
     0
 10
69.2436
 20
73.8685
 30
0.0
 11
69.2436
 21
79.6685
 31
0.0
  0
LINE
  8
0
 62
     0
 10
69.2436
 20
79.6685
 30
0.0
 11
70.0444
 21
79.6685
 31
0.0
  0
LINE
  8
0
 62
     0
 10
70.0444
 20
79.6685
 30
0.0
 11
70.0444
 21
82.7691
 31
0.0
  0
LINE
  8
0
 62
     0
 10
70.0444
 20
82.7691
 30
0.0
 11
69.2436
 21
82.7691
 31
0.0
  0
LINE
  8
0
 62
     0
 10
69.2436
 20
82.7691
 30
0.0
 11
69.2436
 21
83.7681
 31
0.0
  0
LINE
  8
0
 62
     0
 10
69.2436
 20
83.7681
 30
0.0
 11
55.2443
 21
83.7681
 31
0.0
  0
LINE
  8
0
 62
     0
 10
74.2943
 20
83.7681
 30
0.0
 11
74.2943
 21
82.7691
 31
0.0
  0
LINE
  8
0
 62
     0
 10
74.2943
 20
82.7691
 30
0.0
 11
73.4935
 21
82.7691
 31
0.0
  0
LINE
  8
0
 62
     0
 10
73.4935
 20
82.7691
 30
0.0
 11
73.4935
 21
79.6685
 31
0.0
  0
LINE
  8
0
 62
     0
 10
73.4935
 20
79.6685
 30
0.0
 11
74.2943
 21
79.6685
 31
0.0
  0
LINE
  8
0
 62
     0
 10
74.2943
 20
79.6685
 30
0.0
 11
74.2943
 21
73.8685
 31
0.0
  0
LINE
  8
0
 62
     0
 10
74.2943
 20
73.8685
 30
0.0
 11
73.4935
 21
73.8685
 31
0.0
  0
LINE
  8
0
 62
     0
 10
73.4935
 20
73.8685
 30
0.0
 11
73.4935
 21
70.7679
 31
0.0
  0
LINE
  8
0
 62
     0
 10
73.4935
 20
70.7679
 30
0.0
 11
74.2943
 21
70.7679
 31
0.0
  0
LINE
  8
0
 62
     0
 10
74.2943
 20
70.7679
 30
0.0
 11
74.2943
 21
69.7689
 31
0.0
  0
LINE
  8
0
 62
     0
 10
74.2943
 20
69.7689
 30
0.0
 11
88.2936
 21
69.7689
 31
0.0
  0
LINE
  8
0
 62
     0
 10
88.2936
 20
69.7689
 30
0.0
 11
88.2936
 21
70.7679
 31
0.0
  0
LINE
  8
0
 62
     0
 10
88.2936
 20
70.7679
 30
0.0
 11
89.0944
 21
70.7679
 31
0.0
  0
LINE
  8
0
 62
     0
 10
89.0944
 20
70.7679
 30
0.0
 11
89.0944
 21
73.8685
 31
0.0
  0
LINE
  8
0
 62
     0
 10
89.0944
 20
73.8685
 30
0.0
 11
88.2936
 21
73.8685
 31
0.0
  0
LINE
  8
0
 62
     0
 10
88.2936
 20
73.8685
 30
0.0
 11
88.2936
 21
79.6685
 31
0.0
  0
LINE
  8
0
 62
     0
 10
88.2936
 20
79.6685
 30
0.0
 11
89.0944
 21
79.6685
 31
0.0
  0
LINE
  8
0
 62
     0
 10
89.0944
 20
79.6685
 30
0.0
 11
89.0944
 21
82.7691
 31
0.0
  0
LINE
  8
0
 62
     0
 10
89.0944
 20
82.7691
 30
0.0
 11
88.2936
 21
82.7691
 31
0.0
  0
LINE
  8
0
 62
     0
 10
88.2936
 20
82.7691
 30
0.0
 11
88.2936
 21
83.7681
 31
0.0
  0
LINE
  8
0
 62
     0
 10
88.2936
 20
83.7681
 30
0.0
 11
74.2943
 21
83.7681
 31
0.0
  0
LINE
  8
0
 62
     0
 10
93.3443
 20
83.7681
 30
0.0
 11
93.3443
 21
82.7691
 31
0.0
  0
LINE
  8
0
 62
     0
 10
93.3443
 20
82.7691
 30
0.0
 11
92.5435
 21
82.7691
 31
0.0
  0
LINE
  8
0
 62
     0
 10
92.5435
 20
82.7691
 30
0.0
 11
92.5435
 21
79.6685
 31
0.0
  0
LINE
  8
0
 62
     0
 10
92.5435
 20
79.6685
 30
0.0
 11
93.3443
 21
79.6685
 31
0.0
  0
LINE
  8
0
 62
     0
 10
93.3443
 20
79.6685
 30
0.0
 11
93.3443
 21
73.8685
 31
0.0
  0
LINE
  8
0
 62
     0
 10
93.3443
 20
73.8685
 30
0.0
 11
92.5435
 21
73.8685
 31
0.0
  0
LINE
  8
0
 62
     0
 10
92.5435
 20
73.8685
 30
0.0
 11
92.5435
 21
70.7679
 31
0.0
  0
LINE
  8
0
 62
     0
 10
92.5435
 20
70.7679
 30
0.0
 11
93.3443
 21
70.7679
 31
0.0
  0
LINE
  8
0
 62
     0
 10
93.3443
 20
70.7679
 30
0.0
 11
93.3443
 21
69.7689
 31
0.0
  0
LINE
  8
0
 62
     0
 10
93.3443
 20
69.7689
 30
0.0
 11
107.344
 21
69.7689
 31
0.0
  0
LINE
  8
0
 62
     0
 10
107.344
 20
69.7689
 30
0.0
 11
107.344
 21
70.7679
 31
0.0
  0
LINE
  8
0
 62
     0
 10
107.344
 20
70.7679
 30
0.0
 11
108.144
 21
70.7679
 31
0.0
  0
LINE
  8
0
 62
     0
 10
108.144
 20
70.7679
 30
0.0
 11
108.144
 21
73.8685
 31
0.0
  0
LINE
  8
0
 62
     0
 10
108.144
 20
73.8685
 30
0.0
 11
107.344
 21
73.8685
 31
0.0
  0
LINE
  8
0
 62
     0
 10
107.344
 20
73.8685
 30
0.0
 11
107.344
 21
79.6685
 31
0.0
  0
LINE
  8
0
 62
     0
 10
107.344
 20
79.6685
 30
0.0
 11
108.144
 21
79.6685
 31
0.0
  0
LINE
  8
0
 62
     0
 10
108.144
 20
79.6685
 30
0.0
 11
108.144
 21
82.7691
 31
0.0
  0
LINE
  8
0
 62
     0
 10
108.144
 20
82.7691
 30
0.0
 11
107.344
 21
82.7691
 31
0.0
  0
LINE
  8
0
 62
     0
 10
107.344
 20
82.7691
 30
0.0
 11
107.344
 21
83.7681
 31
0.0
  0
LINE
  8
0
 62
     0
 10
107.344
 20
83.7681
 30
0.0
 11
93.3443
 21
83.7681
 31
0.0
  0
LINE
  8
0
 62
     0
 10
112.394
 20
83.7681
 30
0.0
 11
112.394
 21
82.7691
 31
0.0
  0
LINE
  8
0
 62
     0
 10
112.394
 20
82.7691
 30
0.0
 11
111.593
 21
82.7691
 31
0.0
  0
LINE
  8
0
 62
     0
 10
111.593
 20
82.7691
 30
0.0
 11
111.593
 21
79.6685
 31
0.0
  0
LINE
  8
0
 62
     0
 10
111.593
 20
79.6685
 30
0.0
 11
112.394
 21
79.6685
 31
0.0
  0
LINE
  8
0
 62
     0
 10
112.394
 20
79.6685
 30
0.0
 11
112.394
 21
73.8685
 31
0.0
  0
LINE
  8
0
 62
     0
 10
112.394
 20
73.8685
 30
0.0
 11
111.593
 21
73.8685
 31
0.0
  0
LINE
  8
0
 62
     0
 10
111.593
 20
73.8685
 30
0.0
 11
111.593
 21
70.7679
 31
0.0
  0
LINE
  8
0
 62
     0
 10
111.593
 20
70.7679
 30
0.0
 11
112.394
 21
70.7679
 31
0.0
  0
LINE
  8
0
 62
     0
 10
112.394
 20
70.7679
 30
0.0
 11
112.394
 21
69.7689
 31
0.0
  0
LINE
  8
0
 62
     0
 10
112.394
 20
69.7689
 30
0.0
 11
126.394
 21
69.7689
 31
0.0
  0
LINE
  8
0
 62
     0
 10
126.394
 20
69.7689
 30
0.0
 11
126.394
 21
70.7679
 31
0.0
  0
LINE
  8
0
 62
     0
 10
126.394
 20
70.7679
 30
0.0
 11
127.194
 21
70.7679
 31
0.0
  0
LINE
  8
0
 62
     0
 10
127.194
 20
70.7679
 30
0.0
 11
127.194
 21
73.8685
 31
0.0
  0
LINE
  8
0
 62
     0
 10
127.194
 20
73.8685
 30
0.0
 11
126.394
 21
73.8685
 31
0.0
  0
LINE
  8
0
 62
     0
 10
126.394
 20
73.8685
 30
0.0
 11
126.394
 21
79.6685
 31
0.0
  0
LINE
  8
0
 62
     0
 10
126.394
 20
79.6685
 30
0.0
 11
127.194
 21
79.6685
 31
0.0
  0
LINE
  8
0
 62
     0
 10
127.194
 20
79.6685
 30
0.0
 11
127.194
 21
82.7691
 31
0.0
  0
LINE
  8
0
 62
     0
 10
127.194
 20
82.7691
 30
0.0
 11
126.394
 21
82.7691
 31
0.0
  0
LINE
  8
0
 62
     0
 10
126.394
 20
82.7691
 30
0.0
 11
126.394
 21
83.7681
 31
0.0
  0
LINE
  8
0
 62
     0
 10
126.394
 20
83.7681
 30
0.0
 11
112.394
 21
83.7681
 31
0.0
  0
LINE
  8
0
 62
     0
 10
131.444
 20
83.7681
 30
0.0
 11
131.444
 21
82.7691
 31
0.0
  0
LINE
  8
0
 62
     0
 10
131.444
 20
82.7691
 30
0.0
 11
130.642
 21
82.7691
 31
0.0
  0
LINE
  8
0
 62
     0
 10
130.642
 20
82.7691
 30
0.0
 11
130.642
 21
79.6685
 31
0.0
  0
LINE
  8
0
 62
     0
 10
130.642
 20
79.6685
 30
0.0
 11
131.444
 21
79.6685
 31
0.0
  0
LINE
  8
0
 62
     0
 10
131.444
 20
79.6685
 30
0.0
 11
131.444
 21
73.8685
 31
0.0
  0
LINE
  8
0
 62
     0
 10
131.444
 20
73.8685
 30
0.0
 11
130.642
 21
73.8685
 31
0.0
  0
LINE
  8
0
 62
     0
 10
130.642
 20
73.8685
 30
0.0
 11
130.642
 21
70.7679
 31
0.0
  0
LINE
  8
0
 62
     0
 10
130.642
 20
70.7679
 30
0.0
 11
131.444
 21
70.7679
 31
0.0
  0
LINE
  8
0
 62
     0
 10
131.444
 20
70.7679
 30
0.0
 11
131.444
 21
69.7689
 31
0.0
  0
LINE
  8
0
 62
     0
 10
131.444
 20
69.7689
 30
0.0
 11
145.444
 21
69.7689
 31
0.0
  0
LINE
  8
0
 62
     0
 10
145.444
 20
69.7689
 30
0.0
 11
145.444
 21
70.7679
 31
0.0
  0
LINE
  8
0
 62
     0
 10
145.444
 20
70.7679
 30
0.0
 11
146.244
 21
70.7679
 31
0.0
  0
LINE
  8
0
 62
     0
 10
146.244
 20
70.7679
 30
0.0
 11
146.244
 21
73.8685
 31
0.0
  0
LINE
  8
0
 62
     0
 10
146.244
 20
73.8685
 30
0.0
 11
145.444
 21
73.8685
 31
0.0
  0
LINE
  8
0
 62
     0
 10
145.444
 20
73.8685
 30
0.0
 11
145.444
 21
79.6685
 31
0.0
  0
LINE
  8
0
 62
     0
 10
145.444
 20
79.6685
 30
0.0
 11
146.244
 21
79.6685
 31
0.0
  0
LINE
  8
0
 62
     0
 10
146.244
 20
79.6685
 30
0.0
 11
146.244
 21
82.7691
 31
0.0
  0
LINE
  8
0
 62
     0
 10
146.244
 20
82.7691
 30
0.0
 11
145.444
 21
82.7691
 31
0.0
  0
LINE
  8
0
 62
     0
 10
145.444
 20
82.7691
 30
0.0
 11
145.444
 21
83.7681
 31
0.0
  0
LINE
  8
0
 62
     0
 10
145.444
 20
83.7681
 30
0.0
 11
131.444
 21
83.7681
 31
0.0
  0
LINE
  8
0
 62
     0
 10
150.494
 20
83.7681
 30
0.0
 11
150.494
 21
82.7691
 31
0.0
  0
LINE
  8
0
 62
     0
 10
150.494
 20
82.7691
 30
0.0
 11
149.693
 21
82.7691
 31
0.0
  0
LINE
  8
0
 62
     0
 10
149.693
 20
82.7691
 30
0.0
 11
149.693
 21
79.6685
 31
0.0
  0
LINE
  8
0
 62
     0
 10
149.693
 20
79.6685
 30
0.0
 11
150.494
 21
79.6685
 31
0.0
  0
LINE
  8
0
 62
     0
 10
150.494
 20
79.6685
 30
0.0
 11
150.494
 21
73.8685
 31
0.0
  0
LINE
  8
0
 62
     0
 10
150.494
 20
73.8685
 30
0.0
 11
149.693
 21
73.8685
 31
0.0
  0
LINE
  8
0
 62
     0
 10
149.693
 20
73.8685
 30
0.0
 11
149.693
 21
70.7679
 31
0.0
  0
LINE
  8
0
 62
     0
 10
149.693
 20
70.7679
 30
0.0
 11
150.494
 21
70.7679
 31
0.0
  0
LINE
  8
0
 62
     0
 10
150.494
 20
70.7679
 30
0.0
 11
150.494
 21
69.7689
 31
0.0
  0
LINE
  8
0
 62
     0
 10
150.494
 20
69.7689
 30
0.0
 11
164.494
 21
69.7689
 31
0.0
  0
LINE
  8
0
 62
     0
 10
164.494
 20
69.7689
 30
0.0
 11
164.494
 21
70.7679
 31
0.0
  0
LINE
  8
0
 62
     0
 10
164.494
 20
70.7679
 30
0.0
 11
165.294
 21
70.7679
 31
0.0
  0
LINE
  8
0
 62
     0
 10
165.294
 20
70.7679
 30
0.0
 11
165.294
 21
73.8685
 31
0.0
  0
LINE
  8
0
 62
     0
 10
165.294
 20
73.8685
 30
0.0
 11
164.494
 21
73.8685
 31
0.0
  0
LINE
  8
0
 62
     0
 10
164.494
 20
73.8685
 30
0.0
 11
164.494
 21
79.6685
 31
0.0
  0
LINE
  8
0
 62
     0
 10
164.494
 20
79.6685
 30
0.0
 11
165.294
 21
79.6685
 31
0.0
  0
LINE
  8
0
 62
     0
 10
165.294
 20
79.6685
 30
0.0
 11
165.294
 21
82.7691
 31
0.0
  0
LINE
  8
0
 62
     0
 10
165.294
 20
82.7691
 30
0.0
 11
164.494
 21
82.7691
 31
0.0
  0
LINE
  8
0
 62
     0
 10
164.494
 20
82.7691
 30
0.0
 11
164.494
 21
83.7681
 31
0.0
  0
LINE
  8
0
 62
     0
 10
164.494
 20
83.7681
 30
0.0
 11
150.494
 21
83.7681
 31
0.0
  0
LINE
  8
0
 62
     0
 10
169.544
 20
83.7681
 30
0.0
 11
169.544
 21
82.7691
 31
0.0
  0
LINE
  8
0
 62
     0
 10
169.544
 20
82.7691
 30
0.0
 11
168.743
 21
82.7691
 31
0.0
  0
LINE
  8
0
 62
     0
 10
168.743
 20
82.7691
 30
0.0
 11
168.743
 21
79.6685
 31
0.0
  0
LINE
  8
0
 62
     0
 10
168.743
 20
79.6685
 30
0.0
 11
169.544
 21
79.6685
 31
0.0
  0
LINE
  8
0
 62
     0
 10
169.544
 20
79.6685
 30
0.0
 11
169.544
 21
73.8685
 31
0.0
  0
LINE
  8
0
 62
     0
 10
169.544
 20
73.8685
 30
0.0
 11
168.743
 21
73.8685
 31
0.0
  0
LINE
  8
0
 62
     0
 10
168.743
 20
73.8685
 30
0.0
 11
168.743
 21
70.7679
 31
0.0
  0
LINE
  8
0
 62
     0
 10
168.743
 20
70.7679
 30
0.0
 11
169.544
 21
70.7679
 31
0.0
  0
LINE
  8
0
 62
     0
 10
169.544
 20
70.7679
 30
0.0
 11
169.544
 21
69.7689
 31
0.0
  0
LINE
  8
0
 62
     0
 10
169.544
 20
69.7689
 30
0.0
 11
183.544
 21
69.7689
 31
0.0
  0
LINE
  8
0
 62
     0
 10
183.544
 20
69.7689
 30
0.0
 11
183.544
 21
70.7679
 31
0.0
  0
LINE
  8
0
 62
     0
 10
183.544
 20
70.7679
 30
0.0
 11
184.344
 21
70.7679
 31
0.0
  0
LINE
  8
0
 62
     0
 10
184.344
 20
70.7679
 30
0.0
 11
184.344
 21
73.8685
 31
0.0
  0
LINE
  8
0
 62
     0
 10
184.344
 20
73.8685
 30
0.0
 11
183.544
 21
73.8685
 31
0.0
  0
LINE
  8
0
 62
     0
 10
183.544
 20
73.8685
 30
0.0
 11
183.544
 21
79.6685
 31
0.0
  0
LINE
  8
0
 62
     0
 10
183.544
 20
79.6685
 30
0.0
 11
184.344
 21
79.6685
 31
0.0
  0
LINE
  8
0
 62
     0
 10
184.344
 20
79.6685
 30
0.0
 11
184.344
 21
82.7691
 31
0.0
  0
LINE
  8
0
 62
     0
 10
184.344
 20
82.7691
 30
0.0
 11
183.544
 21
82.7691
 31
0.0
  0
LINE
  8
0
 62
     0
 10
183.544
 20
82.7691
 30
0.0
 11
183.544
 21
83.7681
 31
0.0
  0
LINE
  8
0
 62
     0
 10
183.544
 20
83.7681
 30
0.0
 11
169.544
 21
83.7681
 31
0.0
  0
LINE
  8
0
 62
     0
 10
188.594
 20
83.7681
 30
0.0
 11
188.594
 21
82.7691
 31
0.0
  0
LINE
  8
0
 62
     0
 10
188.594
 20
82.7691
 30
0.0
 11
187.793
 21
82.7691
 31
0.0
  0
LINE
  8
0
 62
     0
 10
187.793
 20
82.7691
 30
0.0
 11
187.793
 21
79.6685
 31
0.0
  0
LINE
  8
0
 62
     0
 10
187.793
 20
79.6685
 30
0.0
 11
188.594
 21
79.6685
 31
0.0
  0
LINE
  8
0
 62
     0
 10
188.594
 20
79.6685
 30
0.0
 11
188.594
 21
73.8685
 31
0.0
  0
LINE
  8
0
 62
     0
 10
188.594
 20
73.8685
 30
0.0
 11
187.793
 21
73.8685
 31
0.0
  0
LINE
  8
0
 62
     0
 10
187.793
 20
73.8685
 30
0.0
 11
187.793
 21
70.7679
 31
0.0
  0
LINE
  8
0
 62
     0
 10
187.793
 20
70.7679
 30
0.0
 11
188.594
 21
70.7679
 31
0.0
  0
LINE
  8
0
 62
     0
 10
188.594
 20
70.7679
 30
0.0
 11
188.594
 21
69.7689
 31
0.0
  0
LINE
  8
0
 62
     0
 10
188.594
 20
69.7689
 30
0.0
 11
202.594
 21
69.7689
 31
0.0
  0
LINE
  8
0
 62
     0
 10
202.594
 20
69.7689
 30
0.0
 11
202.594
 21
70.7679
 31
0.0
  0
LINE
  8
0
 62
     0
 10
202.594
 20
70.7679
 30
0.0
 11
203.394
 21
70.7679
 31
0.0
  0
LINE
  8
0
 62
     0
 10
203.394
 20
70.7679
 30
0.0
 11
203.394
 21
73.8685
 31
0.0
  0
LINE
  8
0
 62
     0
 10
203.394
 20
73.8685
 30
0.0
 11
202.594
 21
73.8685
 31
0.0
  0
LINE
  8
0
 62
     0
 10
202.594
 20
73.8685
 30
0.0
 11
202.594
 21
79.6685
 31
0.0
  0
LINE
  8
0
 62
     0
 10
202.594
 20
79.6685
 30
0.0
 11
203.394
 21
79.6685
 31
0.0
  0
LINE
  8
0
 62
     0
 10
203.394
 20
79.6685
 30
0.0
 11
203.394
 21
82.7691
 31
0.0
  0
LINE
  8
0
 62
     0
 10
203.394
 20
82.7691
 30
0.0
 11
202.594
 21
82.7691
 31
0.0
  0
LINE
  8
0
 62
     0
 10
202.594
 20
82.7691
 30
0.0
 11
202.594
 21
83.7681
 31
0.0
  0
LINE
  8
0
 62
     0
 10
202.594
 20
83.7681
 30
0.0
 11
188.594
 21
83.7681
 31
0.0
  0
LINE
  8
0
 62
     0
 10
207.644
 20
83.7681
 30
0.0
 11
207.644
 21
82.7691
 31
0.0
  0
LINE
  8
0
 62
     0
 10
207.644
 20
82.7691
 30
0.0
 11
206.843
 21
82.7691
 31
0.0
  0
LINE
  8
0
 62
     0
 10
206.843
 20
82.7691
 30
0.0
 11
206.843
 21
79.6685
 31
0.0
  0
LINE
  8
0
 62
     0
 10
206.843
 20
79.6685
 30
0.0
 11
207.644
 21
79.6685
 31
0.0
  0
LINE
  8
0
 62
     0
 10
207.644
 20
79.6685
 30
0.0
 11
207.644
 21
73.8685
 31
0.0
  0
LINE
  8
0
 62
     0
 10
207.644
 20
73.8685
 30
0.0
 11
206.843
 21
73.8685
 31
0.0
  0
LINE
  8
0
 62
     0
 10
206.843
 20
73.8685
 30
0.0
 11
206.843
 21
70.7679
 31
0.0
  0
LINE
  8
0
 62
     0
 10
206.843
 20
70.7679
 30
0.0
 11
207.644
 21
70.7679
 31
0.0
  0
LINE
  8
0
 62
     0
 10
207.644
 20
70.7679
 30
0.0
 11
207.644
 21
69.7689
 31
0.0
  0
LINE
  8
0
 62
     0
 10
207.644
 20
69.7689
 30
0.0
 11
221.644
 21
69.7689
 31
0.0
  0
LINE
  8
0
 62
     0
 10
221.644
 20
69.7689
 30
0.0
 11
221.644
 21
70.7679
 31
0.0
  0
LINE
  8
0
 62
     0
 10
221.644
 20
70.7679
 30
0.0
 11
222.444
 21
70.7679
 31
0.0
  0
LINE
  8
0
 62
     0
 10
222.444
 20
70.7679
 30
0.0
 11
222.444
 21
73.8685
 31
0.0
  0
LINE
  8
0
 62
     0
 10
222.444
 20
73.8685
 30
0.0
 11
221.644
 21
73.8685
 31
0.0
  0
LINE
  8
0
 62
     0
 10
221.644
 20
73.8685
 30
0.0
 11
221.644
 21
79.6685
 31
0.0
  0
LINE
  8
0
 62
     0
 10
221.644
 20
79.6685
 30
0.0
 11
222.444
 21
79.6685
 31
0.0
  0
LINE
  8
0
 62
     0
 10
222.444
 20
79.6685
 30
0.0
 11
222.444
 21
82.7691
 31
0.0
  0
LINE
  8
0
 62
     0
 10
222.444
 20
82.7691
 30
0.0
 11
221.644
 21
82.7691
 31
0.0
  0
LINE
  8
0
 62
     0
 10
221.644
 20
82.7691
 30
0.0
 11
221.644
 21
83.7681
 31
0.0
  0
LINE
  8
0
 62
     0
 10
221.644
 20
83.7681
 30
0.0
 11
207.644
 21
83.7681
 31
0.0
  0
LINE
  8
0
 62
     0
 10
226.694
 20
83.7681
 30
0.0
 11
226.694
 21
82.7691
 31
0.0
  0
LINE
  8
0
 62
     0
 10
226.694
 20
82.7691
 30
0.0
 11
225.893
 21
82.7691
 31
0.0
  0
LINE
  8
0
 62
     0
 10
225.893
 20
82.7691
 30
0.0
 11
225.893
 21
79.6685
 31
0.0
  0
LINE
  8
0
 62
     0
 10
225.893
 20
79.6685
 30
0.0
 11
226.694
 21
79.6685
 31
0.0
  0
LINE
  8
0
 62
     0
 10
226.694
 20
79.6685
 30
0.0
 11
226.694
 21
73.8685
 31
0.0
  0
LINE
  8
0
 62
     0
 10
226.694
 20
73.8685
 30
0.0
 11
225.893
 21
73.8685
 31
0.0
  0
LINE
  8
0
 62
     0
 10
225.893
 20
73.8685
 30
0.0
 11
225.893
 21
70.7679
 31
0.0
  0
LINE
  8
0
 62
     0
 10
225.893
 20
70.7679
 30
0.0
 11
226.694
 21
70.7679
 31
0.0
  0
LINE
  8
0
 62
     0
 10
226.694
 20
70.7679
 30
0.0
 11
226.694
 21
69.7689
 31
0.0
  0
LINE
  8
0
 62
     0
 10
226.694
 20
69.7689
 30
0.0
 11
240.694
 21
69.7689
 31
0.0
  0
LINE
  8
0
 62
     0
 10
240.694
 20
69.7689
 30
0.0
 11
240.694
 21
70.7679
 31
0.0
  0
LINE
  8
0
 62
     0
 10
240.694
 20
70.7679
 30
0.0
 11
241.494
 21
70.7679
 31
0.0
  0
LINE
  8
0
 62
     0
 10
241.494
 20
70.7679
 30
0.0
 11
241.494
 21
73.8685
 31
0.0
  0
LINE
  8
0
 62
     0
 10
241.494
 20
73.8685
 30
0.0
 11
240.694
 21
73.8685
 31
0.0
  0
LINE
  8
0
 62
     0
 10
240.694
 20
73.8685
 30
0.0
 11
240.694
 21
79.6685
 31
0.0
  0
LINE
  8
0
 62
     0
 10
240.694
 20
79.6685
 30
0.0
 11
241.494
 21
79.6685
 31
0.0
  0
LINE
  8
0
 62
     0
 10
241.494
 20
79.6685
 30
0.0
 11
241.494
 21
82.7691
 31
0.0
  0
LINE
  8
0
 62
     0
 10
241.494
 20
82.7691
 30
0.0
 11
240.694
 21
82.7691
 31
0.0
  0
LINE
  8
0
 62
     0
 10
240.694
 20
82.7691
 30
0.0
 11
240.694
 21
83.7681
 31
0.0
  0
LINE
  8
0
 62
     0
 10
240.694
 20
83.7681
 30
0.0
 11
226.694
 21
83.7681
 31
0.0
  0
LINE
  8
0
 62
     0
 10
245.744
 20
83.7681
 30
0.0
 11
245.744
 21
82.7691
 31
0.0
  0
LINE
  8
0
 62
     0
 10
245.744
 20
82.7691
 30
0.0
 11
244.943
 21
82.7691
 31
0.0
  0
LINE
  8
0
 62
     0
 10
244.943
 20
82.7691
 30
0.0
 11
244.943
 21
79.6685
 31
0.0
  0
LINE
  8
0
 62
     0
 10
244.943
 20
79.6685
 30
0.0
 11
245.744
 21
79.6685
 31
0.0
  0
LINE
  8
0
 62
     0
 10
245.744
 20
79.6685
 30
0.0
 11
245.744
 21
73.8685
 31
0.0
  0
LINE
  8
0
 62
     0
 10
245.744
 20
73.8685
 30
0.0
 11
244.943
 21
73.8685
 31
0.0
  0
LINE
  8
0
 62
     0
 10
244.943
 20
73.8685
 30
0.0
 11
244.943
 21
70.7679
 31
0.0
  0
LINE
  8
0
 62
     0
 10
244.943
 20
70.7679
 30
0.0
 11
245.744
 21
70.7679
 31
0.0
  0
LINE
  8
0
 62
     0
 10
245.744
 20
70.7679
 30
0.0
 11
245.744
 21
69.7689
 31
0.0
  0
LINE
  8
0
 62
     0
 10
245.744
 20
69.7689
 30
0.0
 11
259.744
 21
69.7689
 31
0.0
  0
LINE
  8
0
 62
     0
 10
259.744
 20
69.7689
 30
0.0
 11
259.744
 21
70.7679
 31
0.0
  0
LINE
  8
0
 62
     0
 10
259.744
 20
70.7679
 30
0.0
 11
260.544
 21
70.7679
 31
0.0
  0
LINE
  8
0
 62
     0
 10
260.544
 20
70.7679
 30
0.0
 11
260.544
 21
73.8685
 31
0.0
  0
LINE
  8
0
 62
     0
 10
260.544
 20
73.8685
 30
0.0
 11
259.744
 21
73.8685
 31
0.0
  0
LINE
  8
0
 62
     0
 10
259.744
 20
73.8685
 30
0.0
 11
259.744
 21
79.6685
 31
0.0
  0
LINE
  8
0
 62
     0
 10
259.744
 20
79.6685
 30
0.0
 11
260.544
 21
79.6685
 31
0.0
  0
LINE
  8
0
 62
     0
 10
260.544
 20
79.6685
 30
0.0
 11
260.544
 21
82.7691
 31
0.0
  0
LINE
  8
0
 62
     0
 10
260.544
 20
82.7691
 30
0.0
 11
259.744
 21
82.7691
 31
0.0
  0
LINE
  8
0
 62
     0
 10
259.744
 20
82.7691
 30
0.0
 11
259.744
 21
83.7681
 31
0.0
  0
LINE
  8
0
 62
     0
 10
259.744
 20
83.7681
 30
0.0
 11
245.744
 21
83.7681
 31
0.0
  0
LINE
  8
0
 62
     0
 10
264.794
 20
83.7681
 30
0.0
 11
264.794
 21
82.7691
 31
0.0
  0
LINE
  8
0
 62
     0
 10
264.794
 20
82.7691
 30
0.0
 11
263.993
 21
82.7691
 31
0.0
  0
LINE
  8
0
 62
     0
 10
263.993
 20
82.7691
 30
0.0
 11
263.993
 21
79.6685
 31
0.0
  0
LINE
  8
0
 62
     0
 10
263.993
 20
79.6685
 30
0.0
 11
264.794
 21
79.6685
 31
0.0
  0
LINE
  8
0
 62
     0
 10
264.794
 20
79.6685
 30
0.0
 11
264.794
 21
73.8685
 31
0.0
  0
LINE
  8
0
 62
     0
 10
264.794
 20
73.8685
 30
0.0
 11
263.993
 21
73.8685
 31
0.0
  0
LINE
  8
0
 62
     0
 10
263.993
 20
73.8685
 30
0.0
 11
263.993
 21
70.7679
 31
0.0
  0
LINE
  8
0
 62
     0
 10
263.993
 20
70.7679
 30
0.0
 11
264.794
 21
70.7679
 31
0.0
  0
LINE
  8
0
 62
     0
 10
264.794
 20
70.7679
 30
0.0
 11
264.794
 21
69.7689
 31
0.0
  0
LINE
  8
0
 62
     0
 10
264.794
 20
69.7689
 30
0.0
 11
278.794
 21
69.7689
 31
0.0
  0
LINE
  8
0
 62
     0
 10
278.794
 20
69.7689
 30
0.0
 11
278.794
 21
70.7679
 31
0.0
  0
LINE
  8
0
 62
     0
 10
278.794
 20
70.7679
 30
0.0
 11
279.594
 21
70.7679
 31
0.0
  0
LINE
  8
0
 62
     0
 10
279.594
 20
70.7679
 30
0.0
 11
279.594
 21
73.8685
 31
0.0
  0
LINE
  8
0
 62
     0
 10
279.594
 20
73.8685
 30
0.0
 11
278.794
 21
73.8685
 31
0.0
  0
LINE
  8
0
 62
     0
 10
278.794
 20
73.8685
 30
0.0
 11
278.794
 21
79.6685
 31
0.0
  0
LINE
  8
0
 62
     0
 10
278.794
 20
79.6685
 30
0.0
 11
279.594
 21
79.6685
 31
0.0
  0
LINE
  8
0
 62
     0
 10
279.594
 20
79.6685
 30
0.0
 11
279.594
 21
82.7691
 31
0.0
  0
LINE
  8
0
 62
     0
 10
279.594
 20
82.7691
 30
0.0
 11
278.794
 21
82.7691
 31
0.0
  0
LINE
  8
0
 62
     0
 10
278.794
 20
82.7691
 30
0.0
 11
278.794
 21
83.7681
 31
0.0
  0
LINE
  8
0
 62
     0
 10
278.794
 20
83.7681
 30
0.0
 11
264.794
 21
83.7681
 31
0.0
  0
LINE
  8
0
 62
     0
 10
288.605
 20
83.7681
 30
0.0
 11
288.605
 21
82.7691
 31
0.0
  0
LINE
  8
0
 62
     0
 10
288.605
 20
82.7691
 30
0.0
 11
287.806
 21
82.7691
 31
0.0
  0
LINE
  8
0
 62
     0
 10
287.806
 20
82.7691
 30
0.0
 11
287.806
 21
79.6685
 31
0.0
  0
LINE
  8
0
 62
     0
 10
287.806
 20
79.6685
 30
0.0
 11
288.605
 21
79.6685
 31
0.0
  0
LINE
  8
0
 62
     0
 10
288.605
 20
79.6685
 30
0.0
 11
288.605
 21
73.8685
 31
0.0
  0
LINE
  8
0
 62
     0
 10
288.605
 20
73.8685
 30
0.0
 11
287.806
 21
73.8685
 31
0.0
  0
LINE
  8
0
 62
     0
 10
287.806
 20
73.8685
 30
0.0
 11
287.806
 21
70.7679
 31
0.0
  0
LINE
  8
0
 62
     0
 10
287.806
 20
70.7679
 30
0.0
 11
288.605
 21
70.7679
 31
0.0
  0
LINE
  8
0
 62
     0
 10
288.605
 20
70.7679
 30
0.0
 11
288.605
 21
69.7689
 31
0.0
  0
LINE
  8
0
 62
     0
 10
288.605
 20
69.7689
 30
0.0
 11
302.606
 21
69.7689
 31
0.0
  0
LINE
  8
0
 62
     0
 10
302.606
 20
69.7689
 30
0.0
 11
302.606
 21
70.7679
 31
0.0
  0
LINE
  8
0
 62
     0
 10
302.606
 20
70.7679
 30
0.0
 11
303.405
 21
70.7679
 31
0.0
  0
LINE
  8
0
 62
     0
 10
303.405
 20
70.7679
 30
0.0
 11
303.405
 21
73.8685
 31
0.0
  0
LINE
  8
0
 62
     0
 10
303.405
 20
73.8685
 30
0.0
 11
302.606
 21
73.8685
 31
0.0
  0
LINE
  8
0
 62
     0
 10
302.606
 20
73.8685
 30
0.0
 11
302.606
 21
79.6685
 31
0.0
  0
LINE
  8
0
 62
     0
 10
302.606
 20
79.6685
 30
0.0
 11
303.405
 21
79.6685
 31
0.0
  0
LINE
  8
0
 62
     0
 10
303.405
 20
79.6685
 30
0.0
 11
303.405
 21
82.7691
 31
0.0
  0
LINE
  8
0
 62
     0
 10
303.405
 20
82.7691
 30
0.0
 11
302.606
 21
82.7691
 31
0.0
  0
LINE
  8
0
 62
     0
 10
302.606
 20
82.7691
 30
0.0
 11
302.606
 21
83.7681
 31
0.0
  0
LINE
  8
0
 62
     0
 10
302.606
 20
83.7681
 30
0.0
 11
288.605
 21
83.7681
 31
0.0
  0
LINE
  8
0
 62
     0
 10
312.419
 20
83.7681
 30
0.0
 11
312.419
 21
82.7691
 31
0.0
  0
LINE
  8
0
 62
     0
 10
312.419
 20
82.7691
 30
0.0
 11
311.618
 21
82.7691
 31
0.0
  0
LINE
  8
0
 62
     0
 10
311.618
 20
82.7691
 30
0.0
 11
311.618
 21
79.6685
 31
0.0
  0
LINE
  8
0
 62
     0
 10
311.618
 20
79.6685
 30
0.0
 11
312.419
 21
79.6685
 31
0.0
  0
LINE
  8
0
 62
     0
 10
312.419
 20
79.6685
 30
0.0
 11
312.419
 21
73.8685
 31
0.0
  0
LINE
  8
0
 62
     0
 10
312.419
 20
73.8685
 30
0.0
 11
311.618
 21
73.8685
 31
0.0
  0
LINE
  8
0
 62
     0
 10
311.618
 20
73.8685
 30
0.0
 11
311.618
 21
70.7679
 31
0.0
  0
LINE
  8
0
 62
     0
 10
311.618
 20
70.7679
 30
0.0
 11
312.419
 21
70.7679
 31
0.0
  0
LINE
  8
0
 62
     0
 10
312.419
 20
70.7679
 30
0.0
 11
312.419
 21
69.7689
 31
0.0
  0
LINE
  8
0
 62
     0
 10
312.419
 20
69.7689
 30
0.0
 11
326.419
 21
69.7689
 31
0.0
  0
LINE
  8
0
 62
     0
 10
326.419
 20
69.7689
 30
0.0
 11
326.419
 21
70.7679
 31
0.0
  0
LINE
  8
0
 62
     0
 10
326.419
 20
70.7679
 30
0.0
 11
327.219
 21
70.7679
 31
0.0
  0
LINE
  8
0
 62
     0
 10
327.219
 20
70.7679
 30
0.0
 11
327.219
 21
73.8685
 31
0.0
  0
LINE
  8
0
 62
     0
 10
327.219
 20
73.8685
 30
0.0
 11
326.419
 21
73.8685
 31
0.0
  0
LINE
  8
0
 62
     0
 10
326.419
 20
73.8685
 30
0.0
 11
326.419
 21
79.6685
 31
0.0
  0
LINE
  8
0
 62
     0
 10
326.419
 20
79.6685
 30
0.0
 11
327.219
 21
79.6685
 31
0.0
  0
LINE
  8
0
 62
     0
 10
327.219
 20
79.6685
 30
0.0
 11
327.219
 21
82.7691
 31
0.0
  0
LINE
  8
0
 62
     0
 10
327.219
 20
82.7691
 30
0.0
 11
326.419
 21
82.7691
 31
0.0
  0
LINE
  8
0
 62
     0
 10
326.419
 20
82.7691
 30
0.0
 11
326.419
 21
83.7681
 31
0.0
  0
LINE
  8
0
 62
     0
 10
326.419
 20
83.7681
 30
0.0
 11
312.419
 21
83.7681
 31
0.0
  0
LINE
  8
0
 62
     0
 10
283.844
 20
102.818
 30
0.0
 11
283.844
 21
101.819
 31
0.0
  0
LINE
  8
0
 62
     0
 10
283.844
 20
101.819
 30
0.0
 11
283.043
 21
101.819
 31
0.0
  0
LINE
  8
0
 62
     0
 10
283.043
 20
101.819
 30
0.0
 11
283.043
 21
98.7185
 31
0.0
  0
LINE
  8
0
 62
     0
 10
283.043
 20
98.7185
 30
0.0
 11
283.844
 21
98.7185
 31
0.0
  0
LINE
  8
0
 62
     0
 10
283.844
 20
98.7185
 30
0.0
 11
283.844
 21
98.1191
 31
0.0
  0
LINE
  8
0
 62
     0
 10
283.844
 20
98.1191
 30
0.0
 11
282.218
 21
98.1191
 31
0.0
  0
LINE
  8
0
 62
     0
 10
282.218
 20
98.1191
 30
0.0
 11
282.218
 21
101.349
 31
0.0
  0
LINE
  8
0
 62
     0
 10
282.218
 20
101.349
 30
0.0
 11
280.544
 21
101.349
 31
0.0
  0
LINE
  8
0
 62
     0
 10
280.544
 20
101.349
 30
0.0
 11
280.544
 21
102.269
 31
0.0
  0
LINE
  8
0
 62
     0
 10
280.544
 20
102.269
 30
0.0
 11
277.243
 21
102.269
 31
0.0
  0
LINE
  8
0
 62
     0
 10
277.243
 20
102.269
 30
0.0
 11
277.243
 21
101.349
 31
0.0
  0
LINE
  8
0
 62
     0
 10
277.243
 20
101.349
 30
0.0
 11
275.569
 21
101.349
 31
0.0
  0
LINE
  8
0
 62
     0
 10
275.569
 20
101.349
 30
0.0
 11
275.569
 21
98.1191
 31
0.0
  0
LINE
  8
0
 62
     0
 10
275.569
 20
98.1191
 30
0.0
 11
274.694
 21
98.1191
 31
0.0
  0
LINE
  8
0
 62
     0
 10
274.694
 20
98.1191
 30
0.0
 11
274.694
 21
95.3188
 31
0.0
  0
LINE
  8
0
 62
     0
 10
274.694
 20
95.3188
 30
0.0
 11
275.569
 21
95.3188
 31
0.0
  0
LINE
  8
0
 62
     0
 10
275.569
 20
95.3188
 30
0.0
 11
275.569
 21
89.0489
 31
0.0
  0
LINE
  8
0
 62
     0
 10
275.569
 20
89.0489
 30
0.0
 11
277.243
 21
89.0489
 31
0.0
  0
LINE
  8
0
 62
     0
 10
277.243
 20
89.0489
 30
0.0
 11
277.243
 21
88.0678
 31
0.0
  0
LINE
  8
0
 62
     0
 10
277.243
 20
88.0678
 30
0.0
 11
280.544
 21
88.0678
 31
0.0
  0
LINE
  8
0
 62
     0
 10
280.544
 20
88.0678
 30
0.0
 11
280.544
 21
89.0489
 31
0.0
  0
LINE
  8
0
 62
     0
 10
280.544
 20
89.0489
 30
0.0
 11
282.218
 21
89.0489
 31
0.0
  0
LINE
  8
0
 62
     0
 10
282.218
 20
89.0489
 30
0.0
 11
282.218
 21
93.5179
 31
0.0
  0
LINE
  8
0
 62
     0
 10
282.218
 20
93.5179
 30
0.0
 11
283.844
 21
93.5179
 31
0.0
  0
LINE
  8
0
 62
     0
 10
283.844
 20
93.5179
 30
0.0
 11
283.844
 21
92.9199
 31
0.0
  0
LINE
  8
0
 62
     0
 10
283.844
 20
92.9199
 30
0.0
 11
283.043
 21
92.9199
 31
0.0
  0
LINE
  8
0
 62
     0
 10
283.043
 20
92.9199
 30
0.0
 11
283.043
 21
89.8179
 31
0.0
  0
LINE
  8
0
 62
     0
 10
283.043
 20
89.8179
 30
0.0
 11
283.844
 21
89.8179
 31
0.0
  0
LINE
  8
0
 62
     0
 10
283.844
 20
89.8179
 30
0.0
 11
283.844
 21
88.8189
 31
0.0
  0
LINE
  8
0
 62
     0
 10
283.844
 20
88.8189
 30
0.0
 11
297.844
 21
88.8189
 31
0.0
  0
LINE
  8
0
 62
     0
 10
297.844
 20
88.8189
 30
0.0
 11
297.844
 21
89.8179
 31
0.0
  0
LINE
  8
0
 62
     0
 10
297.844
 20
89.8179
 30
0.0
 11
298.644
 21
89.8179
 31
0.0
  0
LINE
  8
0
 62
     0
 10
298.644
 20
89.8179
 30
0.0
 11
298.644
 21
92.9199
 31
0.0
  0
LINE
  8
0
 62
     0
 10
298.644
 20
92.9199
 30
0.0
 11
297.844
 21
92.9199
 31
0.0
  0
LINE
  8
0
 62
     0
 10
297.844
 20
92.9199
 30
0.0
 11
297.844
 21
93.5179
 31
0.0
  0
LINE
  8
0
 62
     0
 10
297.844
 20
93.5179
 30
0.0
 11
299.468
 21
93.5179
 31
0.0
  0
LINE
  8
0
 62
     0
 10
299.468
 20
93.5179
 30
0.0
 11
299.468
 21
89.0489
 31
0.0
  0
LINE
  8
0
 62
     0
 10
299.468
 20
89.0489
 30
0.0
 11
301.144
 21
89.0489
 31
0.0
  0
LINE
  8
0
 62
     0
 10
301.144
 20
89.0489
 30
0.0
 11
301.144
 21
88.0678
 31
0.0
  0
LINE
  8
0
 62
     0
 10
301.144
 20
88.0678
 30
0.0
 11
304.443
 21
88.0678
 31
0.0
  0
LINE
  8
0
 62
     0
 10
304.443
 20
88.0678
 30
0.0
 11
304.443
 21
89.0489
 31
0.0
  0
LINE
  8
0
 62
     0
 10
304.443
 20
89.0489
 30
0.0
 11
306.119
 21
89.0489
 31
0.0
  0
LINE
  8
0
 62
     0
 10
306.119
 20
89.0489
 30
0.0
 11
306.119
 21
95.3188
 31
0.0
  0
LINE
  8
0
 62
     0
 10
306.119
 20
95.3188
 30
0.0
 11
306.994
 21
95.3188
 31
0.0
  0
LINE
  8
0
 62
     0
 10
306.994
 20
95.3188
 30
0.0
 11
306.994
 21
98.1191
 31
0.0
  0
LINE
  8
0
 62
     0
 10
306.994
 20
98.1191
 30
0.0
 11
306.119
 21
98.1191
 31
0.0
  0
LINE
  8
0
 62
     0
 10
306.119
 20
98.1191
 30
0.0
 11
306.119
 21
101.349
 31
0.0
  0
LINE
  8
0
 62
     0
 10
306.119
 20
101.349
 30
0.0
 11
304.443
 21
101.349
 31
0.0
  0
LINE
  8
0
 62
     0
 10
304.443
 20
101.349
 30
0.0
 11
304.443
 21
102.269
 31
0.0
  0
LINE
  8
0
 62
     0
 10
304.443
 20
102.269
 30
0.0
 11
301.144
 21
102.269
 31
0.0
  0
LINE
  8
0
 62
     0
 10
301.144
 20
102.269
 30
0.0
 11
301.144
 21
101.349
 31
0.0
  0
LINE
  8
0
 62
     0
 10
301.144
 20
101.349
 30
0.0
 11
299.468
 21
101.349
 31
0.0
  0
LINE
  8
0
 62
     0
 10
299.468
 20
101.349
 30
0.0
 11
299.468
 21
98.1191
 31
0.0
  0
LINE
  8
0
 62
     0
 10
299.468
 20
98.1191
 30
0.0
 11
297.844
 21
98.1191
 31
0.0
  0
LINE
  8
0
 62
     0
 10
297.844
 20
98.1191
 30
0.0
 11
297.844
 21
98.7185
 31
0.0
  0
LINE
  8
0
 62
     0
 10
297.844
 20
98.7185
 30
0.0
 11
298.644
 21
98.7185
 31
0.0
  0
LINE
  8
0
 62
     0
 10
298.644
 20
98.7185
 30
0.0
 11
298.644
 21
101.819
 31
0.0
  0
LINE
  8
0
 62
     0
 10
298.644
 20
101.819
 30
0.0
 11
297.844
 21
101.819
 31
0.0
  0
LINE
  8
0
 62
     0
 10
297.844
 20
101.819
 30
0.0
 11
297.844
 21
102.818
 31
0.0
  0
LINE
  8
0
 62
     0
 10
297.844
 20
102.818
 30
0.0
 11
283.844
 21
102.818
 31
0.0
  0
LINE
  8
0
 62
     0
 10
7.61781
 20
102.818
 30
0.0
 11
7.61781
 21
101.819
 31
0.0
  0
LINE
  8
0
 62
     0
 10
7.61781
 20
101.819
 30
0.0
 11
6.81715
 21
101.819
 31
0.0
  0
LINE
  8
0
 62
     0
 10
6.81715
 20
101.819
 30
0.0
 11
6.81715
 21
98.7185
 31
0.0
  0
LINE
  8
0
 62
     0
 10
6.81715
 20
98.7185
 30
0.0
 11
7.61781
 21
98.7185
 31
0.0
  0
LINE
  8
0
 62
     0
 10
7.61781
 20
98.7185
 30
0.0
 11
7.61781
 21
92.9199
 31
0.0
  0
LINE
  8
0
 62
     0
 10
7.61781
 20
92.9199
 30
0.0
 11
6.81715
 21
92.9199
 31
0.0
  0
LINE
  8
0
 62
     0
 10
6.81715
 20
92.9199
 30
0.0
 11
6.81715
 21
89.8179
 31
0.0
  0
LINE
  8
0
 62
     0
 10
6.81715
 20
89.8179
 30
0.0
 11
7.61781
 21
89.8179
 31
0.0
  0
LINE
  8
0
 62
     0
 10
7.61781
 20
89.8179
 30
0.0
 11
7.61781
 21
88.8189
 31
0.0
  0
LINE
  8
0
 62
     0
 10
7.61781
 20
88.8189
 30
0.0
 11
21.6187
 21
88.8189
 31
0.0
  0
LINE
  8
0
 62
     0
 10
21.6187
 20
88.8189
 30
0.0
 11
21.6187
 21
89.8179
 31
0.0
  0
LINE
  8
0
 62
     0
 10
21.6187
 20
89.8179
 30
0.0
 11
22.4193
 21
89.8179
 31
0.0
  0
LINE
  8
0
 62
     0
 10
22.4193
 20
89.8179
 30
0.0
 11
22.4193
 21
92.9199
 31
0.0
  0
LINE
  8
0
 62
     0
 10
22.4193
 20
92.9199
 30
0.0
 11
21.6187
 21
92.9199
 31
0.0
  0
LINE
  8
0
 62
     0
 10
21.6187
 20
92.9199
 30
0.0
 11
21.6187
 21
98.7185
 31
0.0
  0
LINE
  8
0
 62
     0
 10
21.6187
 20
98.7185
 30
0.0
 11
22.4193
 21
98.7185
 31
0.0
  0
LINE
  8
0
 62
     0
 10
22.4193
 20
98.7185
 30
0.0
 11
22.4193
 21
101.819
 31
0.0
  0
LINE
  8
0
 62
     0
 10
22.4193
 20
101.819
 30
0.0
 11
21.6187
 21
101.819
 31
0.0
  0
LINE
  8
0
 62
     0
 10
21.6187
 20
101.819
 30
0.0
 11
21.6187
 21
102.818
 31
0.0
  0
LINE
  8
0
 62
     0
 10
21.6187
 20
102.818
 30
0.0
 11
7.61781
 21
102.818
 31
0.0
  0
LINE
  8
0
 62
     0
 10
26.6692
 20
102.818
 30
0.0
 11
26.6692
 21
101.819
 31
0.0
  0
LINE
  8
0
 62
     0
 10
26.6692
 20
101.819
 30
0.0
 11
25.8685
 21
101.819
 31
0.0
  0
LINE
  8
0
 62
     0
 10
25.8685
 20
101.819
 30
0.0
 11
25.8685
 21
98.7185
 31
0.0
  0
LINE
  8
0
 62
     0
 10
25.8685
 20
98.7185
 30
0.0
 11
26.6692
 21
98.7185
 31
0.0
  0
LINE
  8
0
 62
     0
 10
26.6692
 20
98.7185
 30
0.0
 11
26.6692
 21
92.9199
 31
0.0
  0
LINE
  8
0
 62
     0
 10
26.6692
 20
92.9199
 30
0.0
 11
25.8685
 21
92.9199
 31
0.0
  0
LINE
  8
0
 62
     0
 10
25.8685
 20
92.9199
 30
0.0
 11
25.8685
 21
89.8179
 31
0.0
  0
LINE
  8
0
 62
     0
 10
25.8685
 20
89.8179
 30
0.0
 11
26.6692
 21
89.8179
 31
0.0
  0
LINE
  8
0
 62
     0
 10
26.6692
 20
89.8179
 30
0.0
 11
26.6692
 21
88.8189
 31
0.0
  0
LINE
  8
0
 62
     0
 10
26.6692
 20
88.8189
 30
0.0
 11
40.6686
 21
88.8189
 31
0.0
  0
LINE
  8
0
 62
     0
 10
40.6686
 20
88.8189
 30
0.0
 11
40.6686
 21
89.8179
 31
0.0
  0
LINE
  8
0
 62
     0
 10
40.6686
 20
89.8179
 30
0.0
 11
41.4694
 21
89.8179
 31
0.0
  0
LINE
  8
0
 62
     0
 10
41.4694
 20
89.8179
 30
0.0
 11
41.4694
 21
92.9199
 31
0.0
  0
LINE
  8
0
 62
     0
 10
41.4694
 20
92.9199
 30
0.0
 11
40.6686
 21
92.9199
 31
0.0
  0
LINE
  8
0
 62
     0
 10
40.6686
 20
92.9199
 30
0.0
 11
40.6686
 21
98.7185
 31
0.0
  0
LINE
  8
0
 62
     0
 10
40.6686
 20
98.7185
 30
0.0
 11
41.4694
 21
98.7185
 31
0.0
  0
LINE
  8
0
 62
     0
 10
41.4694
 20
98.7185
 30
0.0
 11
41.4694
 21
101.819
 31
0.0
  0
LINE
  8
0
 62
     0
 10
41.4694
 20
101.819
 30
0.0
 11
40.6686
 21
101.819
 31
0.0
  0
LINE
  8
0
 62
     0
 10
40.6686
 20
101.819
 30
0.0
 11
40.6686
 21
102.818
 31
0.0
  0
LINE
  8
0
 62
     0
 10
40.6686
 20
102.818
 30
0.0
 11
26.6692
 21
102.818
 31
0.0
  0
LINE
  8
0
 62
     0
 10
45.7193
 20
102.818
 30
0.0
 11
45.7193
 21
101.819
 31
0.0
  0
LINE
  8
0
 62
     0
 10
45.7193
 20
101.819
 30
0.0
 11
44.9185
 21
101.819
 31
0.0
  0
LINE
  8
0
 62
     0
 10
44.9185
 20
101.819
 30
0.0
 11
44.9185
 21
98.7185
 31
0.0
  0
LINE
  8
0
 62
     0
 10
44.9185
 20
98.7185
 30
0.0
 11
45.7193
 21
98.7185
 31
0.0
  0
LINE
  8
0
 62
     0
 10
45.7193
 20
98.7185
 30
0.0
 11
45.7193
 21
92.9199
 31
0.0
  0
LINE
  8
0
 62
     0
 10
45.7193
 20
92.9199
 30
0.0
 11
44.9185
 21
92.9199
 31
0.0
  0
LINE
  8
0
 62
     0
 10
44.9185
 20
92.9199
 30
0.0
 11
44.9185
 21
89.8179
 31
0.0
  0
LINE
  8
0
 62
     0
 10
44.9185
 20
89.8179
 30
0.0
 11
45.7193
 21
89.8179
 31
0.0
  0
LINE
  8
0
 62
     0
 10
45.7193
 20
89.8179
 30
0.0
 11
45.7193
 21
88.8189
 31
0.0
  0
LINE
  8
0
 62
     0
 10
45.7193
 20
88.8189
 30
0.0
 11
59.7186
 21
88.8189
 31
0.0
  0
LINE
  8
0
 62
     0
 10
59.7186
 20
88.8189
 30
0.0
 11
59.7186
 21
89.8179
 31
0.0
  0
LINE
  8
0
 62
     0
 10
59.7186
 20
89.8179
 30
0.0
 11
60.5194
 21
89.8179
 31
0.0
  0
LINE
  8
0
 62
     0
 10
60.5194
 20
89.8179
 30
0.0
 11
60.5194
 21
92.9199
 31
0.0
  0
LINE
  8
0
 62
     0
 10
60.5194
 20
92.9199
 30
0.0
 11
59.7186
 21
92.9199
 31
0.0
  0
LINE
  8
0
 62
     0
 10
59.7186
 20
92.9199
 30
0.0
 11
59.7186
 21
98.7185
 31
0.0
  0
LINE
  8
0
 62
     0
 10
59.7186
 20
98.7185
 30
0.0
 11
60.5194
 21
98.7185
 31
0.0
  0
LINE
  8
0
 62
     0
 10
60.5194
 20
98.7185
 30
0.0
 11
60.5194
 21
101.819
 31
0.0
  0
LINE
  8
0
 62
     0
 10
60.5194
 20
101.819
 30
0.0
 11
59.7186
 21
101.819
 31
0.0
  0
LINE
  8
0
 62
     0
 10
59.7186
 20
101.819
 30
0.0
 11
59.7186
 21
102.818
 31
0.0
  0
LINE
  8
0
 62
     0
 10
59.7186
 20
102.818
 30
0.0
 11
45.7193
 21
102.818
 31
0.0
  0
LINE
  8
0
 62
     0
 10
64.7693
 20
102.818
 30
0.0
 11
64.7693
 21
101.819
 31
0.0
  0
LINE
  8
0
 62
     0
 10
64.7693
 20
101.819
 30
0.0
 11
63.9685
 21
101.819
 31
0.0
  0
LINE
  8
0
 62
     0
 10
63.9685
 20
101.819
 30
0.0
 11
63.9685
 21
98.7185
 31
0.0
  0
LINE
  8
0
 62
     0
 10
63.9685
 20
98.7185
 30
0.0
 11
64.7693
 21
98.7185
 31
0.0
  0
LINE
  8
0
 62
     0
 10
64.7693
 20
98.7185
 30
0.0
 11
64.7693
 21
92.9199
 31
0.0
  0
LINE
  8
0
 62
     0
 10
64.7693
 20
92.9199
 30
0.0
 11
63.9685
 21
92.9199
 31
0.0
  0
LINE
  8
0
 62
     0
 10
63.9685
 20
92.9199
 30
0.0
 11
63.9685
 21
89.8179
 31
0.0
  0
LINE
  8
0
 62
     0
 10
63.9685
 20
89.8179
 30
0.0
 11
64.7693
 21
89.8179
 31
0.0
  0
LINE
  8
0
 62
     0
 10
64.7693
 20
89.8179
 30
0.0
 11
64.7693
 21
88.8189
 31
0.0
  0
LINE
  8
0
 62
     0
 10
64.7693
 20
88.8189
 30
0.0
 11
78.7686
 21
88.8189
 31
0.0
  0
LINE
  8
0
 62
     0
 10
78.7686
 20
88.8189
 30
0.0
 11
78.7686
 21
89.8179
 31
0.0
  0
LINE
  8
0
 62
     0
 10
78.7686
 20
89.8179
 30
0.0
 11
79.5694
 21
89.8179
 31
0.0
  0
LINE
  8
0
 62
     0
 10
79.5694
 20
89.8179
 30
0.0
 11
79.5694
 21
92.9199
 31
0.0
  0
LINE
  8
0
 62
     0
 10
79.5694
 20
92.9199
 30
0.0
 11
78.7686
 21
92.9199
 31
0.0
  0
LINE
  8
0
 62
     0
 10
78.7686
 20
92.9199
 30
0.0
 11
78.7686
 21
98.7185
 31
0.0
  0
LINE
  8
0
 62
     0
 10
78.7686
 20
98.7185
 30
0.0
 11
79.5694
 21
98.7185
 31
0.0
  0
LINE
  8
0
 62
     0
 10
79.5694
 20
98.7185
 30
0.0
 11
79.5694
 21
101.819
 31
0.0
  0
LINE
  8
0
 62
     0
 10
79.5694
 20
101.819
 30
0.0
 11
78.7686
 21
101.819
 31
0.0
  0
LINE
  8
0
 62
     0
 10
78.7686
 20
101.819
 30
0.0
 11
78.7686
 21
102.818
 31
0.0
  0
LINE
  8
0
 62
     0
 10
78.7686
 20
102.818
 30
0.0
 11
64.7693
 21
102.818
 31
0.0
  0
LINE
  8
0
 62
     0
 10
83.8193
 20
102.818
 30
0.0
 11
83.8193
 21
101.819
 31
0.0
  0
LINE
  8
0
 62
     0
 10
83.8193
 20
101.819
 30
0.0
 11
83.0185
 21
101.819
 31
0.0
  0
LINE
  8
0
 62
     0
 10
83.0185
 20
101.819
 30
0.0
 11
83.0185
 21
98.7185
 31
0.0
  0
LINE
  8
0
 62
     0
 10
83.0185
 20
98.7185
 30
0.0
 11
83.8193
 21
98.7185
 31
0.0
  0
LINE
  8
0
 62
     0
 10
83.8193
 20
98.7185
 30
0.0
 11
83.8193
 21
92.9199
 31
0.0
  0
LINE
  8
0
 62
     0
 10
83.8193
 20
92.9199
 30
0.0
 11
83.0185
 21
92.9199
 31
0.0
  0
LINE
  8
0
 62
     0
 10
83.0185
 20
92.9199
 30
0.0
 11
83.0185
 21
89.8179
 31
0.0
  0
LINE
  8
0
 62
     0
 10
83.0185
 20
89.8179
 30
0.0
 11
83.8193
 21
89.8179
 31
0.0
  0
LINE
  8
0
 62
     0
 10
83.8193
 20
89.8179
 30
0.0
 11
83.8193
 21
88.8189
 31
0.0
  0
LINE
  8
0
 62
     0
 10
83.8193
 20
88.8189
 30
0.0
 11
97.8186
 21
88.8189
 31
0.0
  0
LINE
  8
0
 62
     0
 10
97.8186
 20
88.8189
 30
0.0
 11
97.8186
 21
89.8179
 31
0.0
  0
LINE
  8
0
 62
     0
 10
97.8186
 20
89.8179
 30
0.0
 11
98.618
 21
89.8179
 31
0.0
  0
LINE
  8
0
 62
     0
 10
98.618
 20
89.8179
 30
0.0
 11
98.618
 21
92.9199
 31
0.0
  0
LINE
  8
0
 62
     0
 10
98.618
 20
92.9199
 30
0.0
 11
97.8186
 21
92.9199
 31
0.0
  0
LINE
  8
0
 62
     0
 10
97.8186
 20
92.9199
 30
0.0
 11
97.8186
 21
98.7185
 31
0.0
  0
LINE
  8
0
 62
     0
 10
97.8186
 20
98.7185
 30
0.0
 11
98.618
 21
98.7185
 31
0.0
  0
LINE
  8
0
 62
     0
 10
98.618
 20
98.7185
 30
0.0
 11
98.618
 21
101.819
 31
0.0
  0
LINE
  8
0
 62
     0
 10
98.618
 20
101.819
 30
0.0
 11
97.8186
 21
101.819
 31
0.0
  0
LINE
  8
0
 62
     0
 10
97.8186
 20
101.819
 30
0.0
 11
97.8186
 21
102.818
 31
0.0
  0
LINE
  8
0
 62
     0
 10
97.8186
 20
102.818
 30
0.0
 11
83.8193
 21
102.818
 31
0.0
  0
LINE
  8
0
 62
     0
 10
102.868
 20
102.818
 30
0.0
 11
102.868
 21
101.819
 31
0.0
  0
LINE
  8
0
 62
     0
 10
102.868
 20
101.819
 30
0.0
 11
102.068
 21
101.819
 31
0.0
  0
LINE
  8
0
 62
     0
 10
102.068
 20
101.819
 30
0.0
 11
102.068
 21
98.7185
 31
0.0
  0
LINE
  8
0
 62
     0
 10
102.068
 20
98.7185
 30
0.0
 11
102.868
 21
98.7185
 31
0.0
  0
LINE
  8
0
 62
     0
 10
102.868
 20
98.7185
 30
0.0
 11
102.868
 21
92.9199
 31
0.0
  0
LINE
  8
0
 62
     0
 10
102.868
 20
92.9199
 30
0.0
 11
102.068
 21
92.9199
 31
0.0
  0
LINE
  8
0
 62
     0
 10
102.068
 20
92.9199
 30
0.0
 11
102.068
 21
89.8179
 31
0.0
  0
LINE
  8
0
 62
     0
 10
102.068
 20
89.8179
 30
0.0
 11
102.868
 21
89.8179
 31
0.0
  0
LINE
  8
0
 62
     0
 10
102.868
 20
89.8179
 30
0.0
 11
102.868
 21
88.8189
 31
0.0
  0
LINE
  8
0
 62
     0
 10
102.868
 20
88.8189
 30
0.0
 11
116.867
 21
88.8189
 31
0.0
  0
LINE
  8
0
 62
     0
 10
116.867
 20
88.8189
 30
0.0
 11
116.867
 21
89.8179
 31
0.0
  0
LINE
  8
0
 62
     0
 10
116.867
 20
89.8179
 30
0.0
 11
117.668
 21
89.8179
 31
0.0
  0
LINE
  8
0
 62
     0
 10
117.668
 20
89.8179
 30
0.0
 11
117.668
 21
92.9199
 31
0.0
  0
LINE
  8
0
 62
     0
 10
117.668
 20
92.9199
 30
0.0
 11
116.867
 21
92.9199
 31
0.0
  0
LINE
  8
0
 62
     0
 10
116.867
 20
92.9199
 30
0.0
 11
116.867
 21
98.7185
 31
0.0
  0
LINE
  8
0
 62
     0
 10
116.867
 20
98.7185
 30
0.0
 11
117.668
 21
98.7185
 31
0.0
  0
LINE
  8
0
 62
     0
 10
117.668
 20
98.7185
 30
0.0
 11
117.668
 21
101.819
 31
0.0
  0
LINE
  8
0
 62
     0
 10
117.668
 20
101.819
 30
0.0
 11
116.867
 21
101.819
 31
0.0
  0
LINE
  8
0
 62
     0
 10
116.867
 20
101.819
 30
0.0
 11
116.867
 21
102.818
 31
0.0
  0
LINE
  8
0
 62
     0
 10
116.867
 20
102.818
 30
0.0
 11
102.868
 21
102.818
 31
0.0
  0
LINE
  8
0
 62
     0
 10
121.918
 20
102.818
 30
0.0
 11
121.918
 21
101.819
 31
0.0
  0
LINE
  8
0
 62
     0
 10
121.918
 20
101.819
 30
0.0
 11
121.117
 21
101.819
 31
0.0
  0
LINE
  8
0
 62
     0
 10
121.117
 20
101.819
 30
0.0
 11
121.117
 21
98.7185
 31
0.0
  0
LINE
  8
0
 62
     0
 10
121.117
 20
98.7185
 30
0.0
 11
121.918
 21
98.7185
 31
0.0
  0
LINE
  8
0
 62
     0
 10
121.918
 20
98.7185
 30
0.0
 11
121.918
 21
92.9199
 31
0.0
  0
LINE
  8
0
 62
     0
 10
121.918
 20
92.9199
 30
0.0
 11
121.117
 21
92.9199
 31
0.0
  0
LINE
  8
0
 62
     0
 10
121.117
 20
92.9199
 30
0.0
 11
121.117
 21
89.8179
 31
0.0
  0
LINE
  8
0
 62
     0
 10
121.117
 20
89.8179
 30
0.0
 11
121.918
 21
89.8179
 31
0.0
  0
LINE
  8
0
 62
     0
 10
121.918
 20
89.8179
 30
0.0
 11
121.918
 21
88.8189
 31
0.0
  0
LINE
  8
0
 62
     0
 10
121.918
 20
88.8189
 30
0.0
 11
135.919
 21
88.8189
 31
0.0
  0
LINE
  8
0
 62
     0
 10
135.919
 20
88.8189
 30
0.0
 11
135.919
 21
89.8179
 31
0.0
  0
LINE
  8
0
 62
     0
 10
135.919
 20
89.8179
 30
0.0
 11
136.719
 21
89.8179
 31
0.0
  0
LINE
  8
0
 62
     0
 10
136.719
 20
89.8179
 30
0.0
 11
136.719
 21
92.9199
 31
0.0
  0
LINE
  8
0
 62
     0
 10
136.719
 20
92.9199
 30
0.0
 11
135.919
 21
92.9199
 31
0.0
  0
LINE
  8
0
 62
     0
 10
135.919
 20
92.9199
 30
0.0
 11
135.919
 21
98.7185
 31
0.0
  0
LINE
  8
0
 62
     0
 10
135.919
 20
98.7185
 30
0.0
 11
136.719
 21
98.7185
 31
0.0
  0
LINE
  8
0
 62
     0
 10
136.719
 20
98.7185
 30
0.0
 11
136.719
 21
101.819
 31
0.0
  0
LINE
  8
0
 62
     0
 10
136.719
 20
101.819
 30
0.0
 11
135.919
 21
101.819
 31
0.0
  0
LINE
  8
0
 62
     0
 10
135.919
 20
101.819
 30
0.0
 11
135.919
 21
102.818
 31
0.0
  0
LINE
  8
0
 62
     0
 10
135.919
 20
102.818
 30
0.0
 11
121.918
 21
102.818
 31
0.0
  0
LINE
  8
0
 62
     0
 10
140.969
 20
102.818
 30
0.0
 11
140.969
 21
101.819
 31
0.0
  0
LINE
  8
0
 62
     0
 10
140.969
 20
101.819
 30
0.0
 11
140.168
 21
101.819
 31
0.0
  0
LINE
  8
0
 62
     0
 10
140.168
 20
101.819
 30
0.0
 11
140.168
 21
98.7185
 31
0.0
  0
LINE
  8
0
 62
     0
 10
140.168
 20
98.7185
 30
0.0
 11
140.969
 21
98.7185
 31
0.0
  0
LINE
  8
0
 62
     0
 10
140.969
 20
98.7185
 30
0.0
 11
140.969
 21
92.9199
 31
0.0
  0
LINE
  8
0
 62
     0
 10
140.969
 20
92.9199
 30
0.0
 11
140.168
 21
92.9199
 31
0.0
  0
LINE
  8
0
 62
     0
 10
140.168
 20
92.9199
 30
0.0
 11
140.168
 21
89.8179
 31
0.0
  0
LINE
  8
0
 62
     0
 10
140.168
 20
89.8179
 30
0.0
 11
140.969
 21
89.8179
 31
0.0
  0
LINE
  8
0
 62
     0
 10
140.969
 20
89.8179
 30
0.0
 11
140.969
 21
88.8189
 31
0.0
  0
LINE
  8
0
 62
     0
 10
140.969
 20
88.8189
 30
0.0
 11
154.969
 21
88.8189
 31
0.0
  0
LINE
  8
0
 62
     0
 10
154.969
 20
88.8189
 30
0.0
 11
154.969
 21
89.8179
 31
0.0
  0
LINE
  8
0
 62
     0
 10
154.969
 20
89.8179
 30
0.0
 11
155.769
 21
89.8179
 31
0.0
  0
LINE
  8
0
 62
     0
 10
155.769
 20
89.8179
 30
0.0
 11
155.769
 21
92.9199
 31
0.0
  0
LINE
  8
0
 62
     0
 10
155.769
 20
92.9199
 30
0.0
 11
154.969
 21
92.9199
 31
0.0
  0
LINE
  8
0
 62
     0
 10
154.969
 20
92.9199
 30
0.0
 11
154.969
 21
98.7185
 31
0.0
  0
LINE
  8
0
 62
     0
 10
154.969
 20
98.7185
 30
0.0
 11
155.769
 21
98.7185
 31
0.0
  0
LINE
  8
0
 62
     0
 10
155.769
 20
98.7185
 30
0.0
 11
155.769
 21
101.819
 31
0.0
  0
LINE
  8
0
 62
     0
 10
155.769
 20
101.819
 30
0.0
 11
154.969
 21
101.819
 31
0.0
  0
LINE
  8
0
 62
     0
 10
154.969
 20
101.819
 30
0.0
 11
154.969
 21
102.818
 31
0.0
  0
LINE
  8
0
 62
     0
 10
154.969
 20
102.818
 30
0.0
 11
140.969
 21
102.818
 31
0.0
  0
LINE
  8
0
 62
     0
 10
160.019
 20
102.818
 30
0.0
 11
160.019
 21
101.819
 31
0.0
  0
LINE
  8
0
 62
     0
 10
160.019
 20
101.819
 30
0.0
 11
159.218
 21
101.819
 31
0.0
  0
LINE
  8
0
 62
     0
 10
159.218
 20
101.819
 30
0.0
 11
159.218
 21
98.7185
 31
0.0
  0
LINE
  8
0
 62
     0
 10
159.218
 20
98.7185
 30
0.0
 11
160.019
 21
98.7185
 31
0.0
  0
LINE
  8
0
 62
     0
 10
160.019
 20
98.7185
 30
0.0
 11
160.019
 21
92.9199
 31
0.0
  0
LINE
  8
0
 62
     0
 10
160.019
 20
92.9199
 30
0.0
 11
159.218
 21
92.9199
 31
0.0
  0
LINE
  8
0
 62
     0
 10
159.218
 20
92.9199
 30
0.0
 11
159.218
 21
89.8179
 31
0.0
  0
LINE
  8
0
 62
     0
 10
159.218
 20
89.8179
 30
0.0
 11
160.019
 21
89.8179
 31
0.0
  0
LINE
  8
0
 62
     0
 10
160.019
 20
89.8179
 30
0.0
 11
160.019
 21
88.8189
 31
0.0
  0
LINE
  8
0
 62
     0
 10
160.019
 20
88.8189
 30
0.0
 11
174.019
 21
88.8189
 31
0.0
  0
LINE
  8
0
 62
     0
 10
174.019
 20
88.8189
 30
0.0
 11
174.019
 21
89.8179
 31
0.0
  0
LINE
  8
0
 62
     0
 10
174.019
 20
89.8179
 30
0.0
 11
174.819
 21
89.8179
 31
0.0
  0
LINE
  8
0
 62
     0
 10
174.819
 20
89.8179
 30
0.0
 11
174.819
 21
92.9199
 31
0.0
  0
LINE
  8
0
 62
     0
 10
174.819
 20
92.9199
 30
0.0
 11
174.019
 21
92.9199
 31
0.0
  0
LINE
  8
0
 62
     0
 10
174.019
 20
92.9199
 30
0.0
 11
174.019
 21
98.7185
 31
0.0
  0
LINE
  8
0
 62
     0
 10
174.019
 20
98.7185
 30
0.0
 11
174.819
 21
98.7185
 31
0.0
  0
LINE
  8
0
 62
     0
 10
174.819
 20
98.7185
 30
0.0
 11
174.819
 21
101.819
 31
0.0
  0
LINE
  8
0
 62
     0
 10
174.819
 20
101.819
 30
0.0
 11
174.019
 21
101.819
 31
0.0
  0
LINE
  8
0
 62
     0
 10
174.019
 20
101.819
 30
0.0
 11
174.019
 21
102.818
 31
0.0
  0
LINE
  8
0
 62
     0
 10
174.019
 20
102.818
 30
0.0
 11
160.019
 21
102.818
 31
0.0
  0
LINE
  8
0
 62
     0
 10
179.069
 20
102.818
 30
0.0
 11
179.069
 21
101.819
 31
0.0
  0
LINE
  8
0
 62
     0
 10
179.069
 20
101.819
 30
0.0
 11
178.268
 21
101.819
 31
0.0
  0
LINE
  8
0
 62
     0
 10
178.268
 20
101.819
 30
0.0
 11
178.268
 21
98.7185
 31
0.0
  0
LINE
  8
0
 62
     0
 10
178.268
 20
98.7185
 30
0.0
 11
179.069
 21
98.7185
 31
0.0
  0
LINE
  8
0
 62
     0
 10
179.069
 20
98.7185
 30
0.0
 11
179.069
 21
92.9199
 31
0.0
  0
LINE
  8
0
 62
     0
 10
179.069
 20
92.9199
 30
0.0
 11
178.268
 21
92.9199
 31
0.0
  0
LINE
  8
0
 62
     0
 10
178.268
 20
92.9199
 30
0.0
 11
178.268
 21
89.8179
 31
0.0
  0
LINE
  8
0
 62
     0
 10
178.268
 20
89.8179
 30
0.0
 11
179.069
 21
89.8179
 31
0.0
  0
LINE
  8
0
 62
     0
 10
179.069
 20
89.8179
 30
0.0
 11
179.069
 21
88.8189
 31
0.0
  0
LINE
  8
0
 62
     0
 10
179.069
 20
88.8189
 30
0.0
 11
193.069
 21
88.8189
 31
0.0
  0
LINE
  8
0
 62
     0
 10
193.069
 20
88.8189
 30
0.0
 11
193.069
 21
89.8179
 31
0.0
  0
LINE
  8
0
 62
     0
 10
193.069
 20
89.8179
 30
0.0
 11
193.869
 21
89.8179
 31
0.0
  0
LINE
  8
0
 62
     0
 10
193.869
 20
89.8179
 30
0.0
 11
193.869
 21
92.9199
 31
0.0
  0
LINE
  8
0
 62
     0
 10
193.869
 20
92.9199
 30
0.0
 11
193.069
 21
92.9199
 31
0.0
  0
LINE
  8
0
 62
     0
 10
193.069
 20
92.9199
 30
0.0
 11
193.069
 21
98.7185
 31
0.0
  0
LINE
  8
0
 62
     0
 10
193.069
 20
98.7185
 30
0.0
 11
193.869
 21
98.7185
 31
0.0
  0
LINE
  8
0
 62
     0
 10
193.869
 20
98.7185
 30
0.0
 11
193.869
 21
101.819
 31
0.0
  0
LINE
  8
0
 62
     0
 10
193.869
 20
101.819
 30
0.0
 11
193.069
 21
101.819
 31
0.0
  0
LINE
  8
0
 62
     0
 10
193.069
 20
101.819
 30
0.0
 11
193.069
 21
102.818
 31
0.0
  0
LINE
  8
0
 62
     0
 10
193.069
 20
102.818
 30
0.0
 11
179.069
 21
102.818
 31
0.0
  0
LINE
  8
0
 62
     0
 10
198.119
 20
102.818
 30
0.0
 11
198.119
 21
101.819
 31
0.0
  0
LINE
  8
0
 62
     0
 10
198.119
 20
101.819
 30
0.0
 11
197.318
 21
101.819
 31
0.0
  0
LINE
  8
0
 62
     0
 10
197.318
 20
101.819
 30
0.0
 11
197.318
 21
98.7185
 31
0.0
  0
LINE
  8
0
 62
     0
 10
197.318
 20
98.7185
 30
0.0
 11
198.119
 21
98.7185
 31
0.0
  0
LINE
  8
0
 62
     0
 10
198.119
 20
98.7185
 30
0.0
 11
198.119
 21
92.9199
 31
0.0
  0
LINE
  8
0
 62
     0
 10
198.119
 20
92.9199
 30
0.0
 11
197.318
 21
92.9199
 31
0.0
  0
LINE
  8
0
 62
     0
 10
197.318
 20
92.9199
 30
0.0
 11
197.318
 21
89.8179
 31
0.0
  0
LINE
  8
0
 62
     0
 10
197.318
 20
89.8179
 30
0.0
 11
198.119
 21
89.8179
 31
0.0
  0
LINE
  8
0
 62
     0
 10
198.119
 20
89.8179
 30
0.0
 11
198.119
 21
88.8189
 31
0.0
  0
LINE
  8
0
 62
     0
 10
198.119
 20
88.8189
 30
0.0
 11
212.119
 21
88.8189
 31
0.0
  0
LINE
  8
0
 62
     0
 10
212.119
 20
88.8189
 30
0.0
 11
212.119
 21
89.8179
 31
0.0
  0
LINE
  8
0
 62
     0
 10
212.119
 20
89.8179
 30
0.0
 11
212.919
 21
89.8179
 31
0.0
  0
LINE
  8
0
 62
     0
 10
212.919
 20
89.8179
 30
0.0
 11
212.919
 21
92.9199
 31
0.0
  0
LINE
  8
0
 62
     0
 10
212.919
 20
92.9199
 30
0.0
 11
212.119
 21
92.9199
 31
0.0
  0
LINE
  8
0
 62
     0
 10
212.119
 20
92.9199
 30
0.0
 11
212.119
 21
98.7185
 31
0.0
  0
LINE
  8
0
 62
     0
 10
212.119
 20
98.7185
 30
0.0
 11
212.919
 21
98.7185
 31
0.0
  0
LINE
  8
0
 62
     0
 10
212.919
 20
98.7185
 30
0.0
 11
212.919
 21
101.819
 31
0.0
  0
LINE
  8
0
 62
     0
 10
212.919
 20
101.819
 30
0.0
 11
212.119
 21
101.819
 31
0.0
  0
LINE
  8
0
 62
     0
 10
212.119
 20
101.819
 30
0.0
 11
212.119
 21
102.818
 31
0.0
  0
LINE
  8
0
 62
     0
 10
212.119
 20
102.818
 30
0.0
 11
198.119
 21
102.818
 31
0.0
  0
LINE
  8
0
 62
     0
 10
217.169
 20
102.818
 30
0.0
 11
217.169
 21
101.819
 31
0.0
  0
LINE
  8
0
 62
     0
 10
217.169
 20
101.819
 30
0.0
 11
216.368
 21
101.819
 31
0.0
  0
LINE
  8
0
 62
     0
 10
216.368
 20
101.819
 30
0.0
 11
216.368
 21
98.7185
 31
0.0
  0
LINE
  8
0
 62
     0
 10
216.368
 20
98.7185
 30
0.0
 11
217.169
 21
98.7185
 31
0.0
  0
LINE
  8
0
 62
     0
 10
217.169
 20
98.7185
 30
0.0
 11
217.169
 21
92.9199
 31
0.0
  0
LINE
  8
0
 62
     0
 10
217.169
 20
92.9199
 30
0.0
 11
216.368
 21
92.9199
 31
0.0
  0
LINE
  8
0
 62
     0
 10
216.368
 20
92.9199
 30
0.0
 11
216.368
 21
89.8179
 31
0.0
  0
LINE
  8
0
 62
     0
 10
216.368
 20
89.8179
 30
0.0
 11
217.169
 21
89.8179
 31
0.0
  0
LINE
  8
0
 62
     0
 10
217.169
 20
89.8179
 30
0.0
 11
217.169
 21
88.8189
 31
0.0
  0
LINE
  8
0
 62
     0
 10
217.169
 20
88.8189
 30
0.0
 11
231.169
 21
88.8189
 31
0.0
  0
LINE
  8
0
 62
     0
 10
231.169
 20
88.8189
 30
0.0
 11
231.169
 21
89.8179
 31
0.0
  0
LINE
  8
0
 62
     0
 10
231.169
 20
89.8179
 30
0.0
 11
231.969
 21
89.8179
 31
0.0
  0
LINE
  8
0
 62
     0
 10
231.969
 20
89.8179
 30
0.0
 11
231.969
 21
92.9199
 31
0.0
  0
LINE
  8
0
 62
     0
 10
231.969
 20
92.9199
 30
0.0
 11
231.169
 21
92.9199
 31
0.0
  0
LINE
  8
0
 62
     0
 10
231.169
 20
92.9199
 30
0.0
 11
231.169
 21
98.7185
 31
0.0
  0
LINE
  8
0
 62
     0
 10
231.169
 20
98.7185
 30
0.0
 11
231.969
 21
98.7185
 31
0.0
  0
LINE
  8
0
 62
     0
 10
231.969
 20
98.7185
 30
0.0
 11
231.969
 21
101.819
 31
0.0
  0
LINE
  8
0
 62
     0
 10
231.969
 20
101.819
 30
0.0
 11
231.169
 21
101.819
 31
0.0
  0
LINE
  8
0
 62
     0
 10
231.169
 20
101.819
 30
0.0
 11
231.169
 21
102.818
 31
0.0
  0
LINE
  8
0
 62
     0
 10
231.169
 20
102.818
 30
0.0
 11
217.169
 21
102.818
 31
0.0
  0
LINE
  8
0
 62
     0
 10
236.219
 20
102.818
 30
0.0
 11
236.219
 21
101.819
 31
0.0
  0
LINE
  8
0
 62
     0
 10
236.219
 20
101.819
 30
0.0
 11
235.418
 21
101.819
 31
0.0
  0
LINE
  8
0
 62
     0
 10
235.418
 20
101.819
 30
0.0
 11
235.418
 21
98.7185
 31
0.0
  0
LINE
  8
0
 62
     0
 10
235.418
 20
98.7185
 30
0.0
 11
236.219
 21
98.7185
 31
0.0
  0
LINE
  8
0
 62
     0
 10
236.219
 20
98.7185
 30
0.0
 11
236.219
 21
92.9199
 31
0.0
  0
LINE
  8
0
 62
     0
 10
236.219
 20
92.9199
 30
0.0
 11
235.418
 21
92.9199
 31
0.0
  0
LINE
  8
0
 62
     0
 10
235.418
 20
92.9199
 30
0.0
 11
235.418
 21
89.8179
 31
0.0
  0
LINE
  8
0
 62
     0
 10
235.418
 20
89.8179
 30
0.0
 11
236.219
 21
89.8179
 31
0.0
  0
LINE
  8
0
 62
     0
 10
236.219
 20
89.8179
 30
0.0
 11
236.219
 21
88.8189
 31
0.0
  0
LINE
  8
0
 62
     0
 10
236.219
 20
88.8189
 30
0.0
 11
250.219
 21
88.8189
 31
0.0
  0
LINE
  8
0
 62
     0
 10
250.219
 20
88.8189
 30
0.0
 11
250.219
 21
89.8179
 31
0.0
  0
LINE
  8
0
 62
     0
 10
250.219
 20
89.8179
 30
0.0
 11
251.019
 21
89.8179
 31
0.0
  0
LINE
  8
0
 62
     0
 10
251.019
 20
89.8179
 30
0.0
 11
251.019
 21
92.9199
 31
0.0
  0
LINE
  8
0
 62
     0
 10
251.019
 20
92.9199
 30
0.0
 11
250.219
 21
92.9199
 31
0.0
  0
LINE
  8
0
 62
     0
 10
250.219
 20
92.9199
 30
0.0
 11
250.219
 21
98.7185
 31
0.0
  0
LINE
  8
0
 62
     0
 10
250.219
 20
98.7185
 30
0.0
 11
251.019
 21
98.7185
 31
0.0
  0
LINE
  8
0
 62
     0
 10
251.019
 20
98.7185
 30
0.0
 11
251.019
 21
101.819
 31
0.0
  0
LINE
  8
0
 62
     0
 10
251.019
 20
101.819
 30
0.0
 11
250.219
 21
101.819
 31
0.0
  0
LINE
  8
0
 62
     0
 10
250.219
 20
101.819
 30
0.0
 11
250.219
 21
102.818
 31
0.0
  0
LINE
  8
0
 62
     0
 10
250.219
 20
102.818
 30
0.0
 11
236.219
 21
102.818
 31
0.0
  0
LINE
  8
0
 62
     0
 10
255.269
 20
102.818
 30
0.0
 11
255.269
 21
101.819
 31
0.0
  0
LINE
  8
0
 62
     0
 10
255.269
 20
101.819
 30
0.0
 11
254.468
 21
101.819
 31
0.0
  0
LINE
  8
0
 62
     0
 10
254.468
 20
101.819
 30
0.0
 11
254.468
 21
98.7185
 31
0.0
  0
LINE
  8
0
 62
     0
 10
254.468
 20
98.7185
 30
0.0
 11
255.269
 21
98.7185
 31
0.0
  0
LINE
  8
0
 62
     0
 10
255.269
 20
98.7185
 30
0.0
 11
255.269
 21
92.9199
 31
0.0
  0
LINE
  8
0
 62
     0
 10
255.269
 20
92.9199
 30
0.0
 11
254.468
 21
92.9199
 31
0.0
  0
LINE
  8
0
 62
     0
 10
254.468
 20
92.9199
 30
0.0
 11
254.468
 21
89.8179
 31
0.0
  0
LINE
  8
0
 62
     0
 10
254.468
 20
89.8179
 30
0.0
 11
255.269
 21
89.8179
 31
0.0
  0
LINE
  8
0
 62
     0
 10
255.269
 20
89.8179
 30
0.0
 11
255.269
 21
88.8189
 31
0.0
  0
LINE
  8
0
 62
     0
 10
255.269
 20
88.8189
 30
0.0
 11
269.269
 21
88.8189
 31
0.0
  0
LINE
  8
0
 62
     0
 10
269.269
 20
88.8189
 30
0.0
 11
269.269
 21
89.8179
 31
0.0
  0
LINE
  8
0
 62
     0
 10
269.269
 20
89.8179
 30
0.0
 11
270.069
 21
89.8179
 31
0.0
  0
LINE
  8
0
 62
     0
 10
270.069
 20
89.8179
 30
0.0
 11
270.069
 21
92.9199
 31
0.0
  0
LINE
  8
0
 62
     0
 10
270.069
 20
92.9199
 30
0.0
 11
269.269
 21
92.9199
 31
0.0
  0
LINE
  8
0
 62
     0
 10
269.269
 20
92.9199
 30
0.0
 11
269.269
 21
98.7185
 31
0.0
  0
LINE
  8
0
 62
     0
 10
269.269
 20
98.7185
 30
0.0
 11
270.069
 21
98.7185
 31
0.0
  0
LINE
  8
0
 62
     0
 10
270.069
 20
98.7185
 30
0.0
 11
270.069
 21
101.819
 31
0.0
  0
LINE
  8
0
 62
     0
 10
270.069
 20
101.819
 30
0.0
 11
269.269
 21
101.819
 31
0.0
  0
LINE
  8
0
 62
     0
 10
269.269
 20
101.819
 30
0.0
 11
269.269
 21
102.818
 31
0.0
  0
LINE
  8
0
 62
     0
 10
269.269
 20
102.818
 30
0.0
 11
255.269
 21
102.818
 31
0.0
  0
LINE
  8
0
 62
     0
 10
312.419
 20
102.818
 30
0.0
 11
312.419
 21
101.819
 31
0.0
  0
LINE
  8
0
 62
     0
 10
312.419
 20
101.819
 30
0.0
 11
311.618
 21
101.819
 31
0.0
  0
LINE
  8
0
 62
     0
 10
311.618
 20
101.819
 30
0.0
 11
311.618
 21
98.7185
 31
0.0
  0
LINE
  8
0
 62
     0
 10
311.618
 20
98.7185
 30
0.0
 11
312.419
 21
98.7185
 31
0.0
  0
LINE
  8
0
 62
     0
 10
312.419
 20
98.7185
 30
0.0
 11
312.419
 21
92.9199
 31
0.0
  0
LINE
  8
0
 62
     0
 10
312.419
 20
92.9199
 30
0.0
 11
311.618
 21
92.9199
 31
0.0
  0
LINE
  8
0
 62
     0
 10
311.618
 20
92.9199
 30
0.0
 11
311.618
 21
89.8179
 31
0.0
  0
LINE
  8
0
 62
     0
 10
311.618
 20
89.8179
 30
0.0
 11
312.419
 21
89.8179
 31
0.0
  0
LINE
  8
0
 62
     0
 10
312.419
 20
89.8179
 30
0.0
 11
312.419
 21
88.8189
 31
0.0
  0
LINE
  8
0
 62
     0
 10
312.419
 20
88.8189
 30
0.0
 11
326.419
 21
88.8189
 31
0.0
  0
LINE
  8
0
 62
     0
 10
326.419
 20
88.8189
 30
0.0
 11
326.419
 21
89.8179
 31
0.0
  0
LINE
  8
0
 62
     0
 10
326.419
 20
89.8179
 30
0.0
 11
327.219
 21
89.8179
 31
0.0
  0
LINE
  8
0
 62
     0
 10
327.219
 20
89.8179
 30
0.0
 11
327.219
 21
92.9199
 31
0.0
  0
LINE
  8
0
 62
     0
 10
327.219
 20
92.9199
 30
0.0
 11
326.419
 21
92.9199
 31
0.0
  0
LINE
  8
0
 62
     0
 10
326.419
 20
92.9199
 30
0.0
 11
326.419
 21
98.7185
 31
0.0
  0
LINE
  8
0
 62
     0
 10
326.419
 20
98.7185
 30
0.0
 11
327.219
 21
98.7185
 31
0.0
  0
LINE
  8
0
 62
     0
 10
327.219
 20
98.7185
 30
0.0
 11
327.219
 21
101.819
 31
0.0
  0
LINE
  8
0
 62
     0
 10
327.219
 20
101.819
 30
0.0
 11
326.419
 21
101.819
 31
0.0
  0
LINE
  8
0
 62
     0
 10
326.419
 20
101.819
 30
0.0
 11
326.419
 21
102.818
 31
0.0
  0
LINE
  8
0
 62
     0
 10
326.419
 20
102.818
 30
0.0
 11
312.419
 21
102.818
 31
0.0
  0
LINE
  8
0
 62
     0
 10
2.82084
 20
114.223
 30
0.0
 11
2.12356
 21
113.866
 31
0.0
  0
LINE
  8
0
 62
     0
 10
2.12356
 20
113.866
 30
0.0
 11
1.57097
 21
113.313
 31
0.0
  0
LINE
  8
0
 62
     0
 10
1.57097
 20
113.313
 30
0.0
 11
1.21543
 21
112.616
 31
0.0
  0
LINE
  8
0
 62
     0
 10
1.21543
 20
112.616
 30
0.0
 11
1.09279
 21
111.843
 31
0.0
  0
LINE
  8
0
 62
     0
 10
1.09279
 20
111.843
 30
0.0
 11
1.21543
 21
111.071
 31
0.0
  0
LINE
  8
0
 62
     0
 10
1.21543
 20
111.071
 30
0.0
 11
1.57097
 21
110.374
 31
0.0
  0
LINE
  8
0
 62
     0
 10
1.57097
 20
110.374
 30
0.0
 11
2.12356
 21
109.821
 31
0.0
  0
LINE
  8
0
 62
     0
 10
2.12356
 20
109.821
 30
0.0
 11
2.82084
 21
109.466
 31
0.0
  0
LINE
  8
0
 62
     0
 10
2.82084
 20
109.466
 30
0.0
 11
3.59392
 21
109.345
 31
0.0
  0
LINE
  8
0
 62
     0
 10
3.59392
 20
109.345
 30
0.0
 11
4.36563
 21
109.466
 31
0.0
  0
LINE
  8
0
 62
     0
 10
4.36563
 20
109.466
 30
0.0
 11
5.06293
 21
109.821
 31
0.0
  0
LINE
  8
0
 62
     0
 10
5.06293
 20
109.821
 30
0.0
 11
5.61552
 21
110.374
 31
0.0
  0
LINE
  8
0
 62
     0
 10
5.61552
 20
110.374
 30
0.0
 11
5.97105
 21
111.071
 31
0.0
  0
LINE
  8
0
 62
     0
 10
5.97105
 20
111.071
 30
0.0
 11
6.09367
 21
111.843
 31
0.0
  0
LINE
  8
0
 62
     0
 10
6.09367
 20
111.843
 30
0.0
 11
5.97105
 21
112.616
 31
0.0
  0
LINE
  8
0
 62
     0
 10
5.97105
 20
112.616
 30
0.0
 11
5.61552
 21
113.313
 31
0.0
  0
LINE
  8
0
 62
     0
 10
5.61552
 20
113.313
 30
0.0
 11
5.06293
 21
113.866
 31
0.0
  0
LINE
  8
0
 62
     0
 10
5.06293
 20
113.866
 30
0.0
 11
4.36563
 21
114.223
 31
0.0
  0
LINE
  8
0
 62
     0
 10
4.36563
 20
114.223
 30
0.0
 11
3.59392
 21
114.343
 31
0.0
  0
LINE
  8
0
 62
     0
 10
3.59392
 20
114.343
 30
0.0
 11
2.82084
 21
114.223
 31
0.0
  0
LINE
  8
0
 62
     0
 10
166.245
 20
114.223
 30
0.0
 11
165.549
 21
113.866
 31
0.0
  0
LINE
  8
0
 62
     0
 10
165.549
 20
113.866
 30
0.0
 11
164.995
 21
113.313
 31
0.0
  0
LINE
  8
0
 62
     0
 10
164.995
 20
113.313
 30
0.0
 11
164.641
 21
112.616
 31
0.0
  0
LINE
  8
0
 62
     0
 10
164.641
 20
112.616
 30
0.0
 11
164.519
 21
111.843
 31
0.0
  0
LINE
  8
0
 62
     0
 10
164.519
 20
111.843
 30
0.0
 11
164.641
 21
111.071
 31
0.0
  0
LINE
  8
0
 62
     0
 10
164.641
 20
111.071
 30
0.0
 11
164.995
 21
110.374
 31
0.0
  0
LINE
  8
0
 62
     0
 10
164.995
 20
110.374
 30
0.0
 11
165.549
 21
109.821
 31
0.0
  0
LINE
  8
0
 62
     0
 10
165.549
 20
109.821
 30
0.0
 11
166.245
 21
109.466
 31
0.0
  0
LINE
  8
0
 62
     0
 10
166.245
 20
109.466
 30
0.0
 11
167.018
 21
109.345
 31
0.0
  0
LINE
  8
0
 62
     0
 10
167.018
 20
109.345
 30
0.0
 11
167.791
 21
109.466
 31
0.0
  0
LINE
  8
0
 62
     0
 10
167.791
 20
109.466
 30
0.0
 11
168.487
 21
109.821
 31
0.0
  0
LINE
  8
0
 62
     0
 10
168.487
 20
109.821
 30
0.0
 11
169.041
 21
110.374
 31
0.0
  0
LINE
  8
0
 62
     0
 10
169.041
 20
110.374
 30
0.0
 11
169.395
 21
111.071
 31
0.0
  0
LINE
  8
0
 62
     0
 10
169.395
 20
111.071
 30
0.0
 11
169.519
 21
111.843
 31
0.0
  0
LINE
  8
0
 62
     0
 10
169.519
 20
111.843
 30
0.0
 11
169.395
 21
112.616
 31
0.0
  0
LINE
  8
0
 62
     0
 10
169.395
 20
112.616
 30
0.0
 11
169.041
 21
113.313
 31
0.0
  0
LINE
  8
0
 62
     0
 10
169.041
 20
113.313
 30
0.0
 11
168.487
 21
113.866
 31
0.0
  0
LINE
  8
0
 62
     0
 10
168.487
 20
113.866
 30
0.0
 11
167.791
 21
114.223
 31
0.0
  0
LINE
  8
0
 62
     0
 10
167.791
 20
114.223
 30
0.0
 11
167.018
 21
114.343
 31
0.0
  0
LINE
  8
0
 62
     0
 10
167.018
 20
114.343
 30
0.0
 11
166.245
 21
114.223
 31
0.0
  0
LINE
  8
0
 62
     0
 10
329.671
 20
114.223
 30
0.0
 11
328.973
 21
113.866
 31
0.0
  0
LINE
  8
0
 62
     0
 10
328.973
 20
113.866
 30
0.0
 11
328.421
 21
113.313
 31
0.0
  0
LINE
  8
0
 62
     0
 10
328.421
 20
113.313
 30
0.0
 11
328.065
 21
112.616
 31
0.0
  0
LINE
  8
0
 62
     0
 10
328.065
 20
112.616
 30
0.0
 11
327.944
 21
111.843
 31
0.0
  0
LINE
  8
0
 62
     0
 10
327.944
 20
111.843
 30
0.0
 11
328.065
 21
111.071
 31
0.0
  0
LINE
  8
0
 62
     0
 10
328.065
 20
111.071
 30
0.0
 11
328.421
 21
110.374
 31
0.0
  0
LINE
  8
0
 62
     0
 10
328.421
 20
110.374
 30
0.0
 11
328.973
 21
109.821
 31
0.0
  0
LINE
  8
0
 62
     0
 10
328.973
 20
109.821
 30
0.0
 11
329.671
 21
109.466
 31
0.0
  0
LINE
  8
0
 62
     0
 10
329.671
 20
109.466
 30
0.0
 11
330.444
 21
109.345
 31
0.0
  0
LINE
  8
0
 62
     0
 10
330.444
 20
109.345
 30
0.0
 11
331.216
 21
109.466
 31
0.0
  0
LINE
  8
0
 62
     0
 10
331.216
 20
109.466
 30
0.0
 11
331.913
 21
109.821
 31
0.0
  0
LINE
  8
0
 62
     0
 10
331.913
 20
109.821
 30
0.0
 11
332.466
 21
110.374
 31
0.0
  0
LINE
  8
0
 62
     0
 10
332.466
 20
110.374
 30
0.0
 11
332.821
 21
111.071
 31
0.0
  0
LINE
  8
0
 62
     0
 10
332.821
 20
111.071
 30
0.0
 11
332.944
 21
111.843
 31
0.0
  0
LINE
  8
0
 62
     0
 10
332.944
 20
111.843
 30
0.0
 11
332.821
 21
112.616
 31
0.0
  0
LINE
  8
0
 62
     0
 10
332.821
 20
112.616
 30
0.0
 11
332.466
 21
113.313
 31
0.0
  0
LINE
  8
0
 62
     0
 10
332.466
 20
113.313
 30
0.0
 11
331.913
 21
113.866
 31
0.0
  0
LINE
  8
0
 62
     0
 10
331.913
 20
113.866
 30
0.0
 11
331.216
 21
114.223
 31
0.0
  0
LINE
  8
0
 62
     0
 10
331.216
 20
114.223
 30
0.0
 11
330.444
 21
114.343
 31
0.0
  0
LINE
  8
0
 62
     0
 10
330.444
 20
114.343
 30
0.0
 11
329.671
 21
114.223
 31
0.0
  0
ENDSEC
  0
EOF
