M48
INCH,TZ
T1C0.035
T2C0.067
T3C0.157
%
G90
G05
T1
X5.3294Y-6.1775
X5.5026Y-6.1775
T2
X4.082Y-6.394
X4.082Y-7.144
X4.082Y-7.894
X4.082Y-8.644
X4.082Y-9.394
X4.482Y-6.394
X4.482Y-7.144
X4.482Y-7.894
X4.482Y-8.644
X4.482Y-9.394
X4.832Y-6.394
X4.926Y-9.395
X5.019Y-7.144
X5.113Y-7.894
X5.232Y-6.394
X5.301Y-8.644
X5.326Y-9.395
X5.419Y-7.144
X5.513Y-7.894
X5.582Y-6.394
X5.701Y-8.644
X5.863Y-9.394
X5.957Y-7.144
X5.982Y-6.394
X6.144Y-7.894
X6.263Y-9.394
X6.332Y-6.394
X6.357Y-7.144
X6.519Y-8.644
X6.544Y-7.894
X6.707Y-7.144
X6.732Y-6.394
X6.801Y-9.394
X6.894Y-7.894
X6.919Y-8.644
X7.082Y-6.394
X7.107Y-7.144
X7.201Y-9.394
X7.269Y-8.644
X7.294Y-7.894
X7.457Y-7.144
X7.482Y-6.394
X7.644Y-7.894
X7.669Y-8.644
X7.832Y-6.394
X7.857Y-7.144
X8.019Y-8.644
X8.044Y-7.894
X8.207Y-7.144
X8.232Y-6.394
X8.394Y-7.894
X8.419Y-8.644
X8.582Y-6.394
X8.607Y-7.144
X8.769Y-8.644
X8.794Y-7.894
X8.957Y-7.144
X8.982Y-6.394
X9.144Y-7.894
X9.169Y-8.644
X9.332Y-6.394
X9.357Y-7.144
X9.519Y-8.644
X9.544Y-7.894
X9.613Y-9.394
X9.707Y-7.144
X9.732Y-6.394
X9.894Y-7.894
X9.919Y-8.644
X10.013Y-9.394
X10.082Y-6.394
X10.107Y-7.144
X10.269Y-8.644
X10.294Y-7.894
X10.457Y-7.144
X10.482Y-6.394
X10.644Y-7.894
X10.669Y-8.644
X10.832Y-6.394
X10.857Y-7.144
X11.019Y-8.644
X11.044Y-7.894
X11.207Y-7.144
X11.232Y-6.394
X11.394Y-7.894
X11.419Y-8.644
X11.582Y-6.394
X11.607Y-7.144
X11.769Y-8.644
X11.794Y-7.894
X11.957Y-7.144
X11.982Y-6.394
X12.144Y-7.894
X12.169Y-8.644
X12.332Y-6.394
X12.332Y-9.394
X12.357Y-7.144
X12.519Y-8.644
X12.544Y-7.894
X12.707Y-7.144
X12.732Y-6.394
X12.732Y-9.394
X12.894Y-7.894
X12.919Y-8.644
X13.082Y-6.394
X13.082Y-9.394
X13.107Y-7.144
X13.269Y-8.644
X13.294Y-7.894
X13.457Y-7.144
X13.482Y-6.394
X13.482Y-9.394
X13.644Y-7.894
X13.669Y-8.644
X13.832Y-6.394
X13.832Y-9.394
X13.857Y-7.144
X14.044Y-7.894
X14.207Y-7.144
X14.232Y-6.394
X14.232Y-9.394
X14.3Y-8.644
X14.582Y-9.394
X14.607Y-7.144
X14.7Y-8.644
X14.863Y-7.894
X14.957Y-6.394
X14.982Y-9.394
X15.144Y-7.144
X15.263Y-7.894
X15.332Y-8.644
X15.332Y-9.394
X15.357Y-6.394
X15.544Y-7.144
X15.732Y-8.644
X15.732Y-9.394
X16.081Y-7.894
X16.082Y-6.394
X16.082Y-7.144
X16.082Y-8.644
X16.082Y-9.394
X16.481Y-7.894
X16.482Y-6.394
X16.482Y-7.144
X16.482Y-8.644
X16.482Y-9.394
T3
X4.282Y-6.394
X4.282Y-7.144
X4.282Y-7.894
X4.282Y-8.644
X4.282Y-9.394
X5.032Y-6.394
X5.126Y-9.395
X5.219Y-7.144
X5.313Y-7.894
X5.501Y-8.644
X5.782Y-6.394
X6.063Y-9.394
X6.157Y-7.144
X6.344Y-7.894
X6.532Y-6.394
X6.719Y-8.644
X6.907Y-7.144
X7.001Y-9.394
X7.094Y-7.894
X7.282Y-6.394
X7.469Y-8.644
X7.657Y-7.144
X7.844Y-7.894
X8.032Y-6.394
X8.219Y-8.644
X8.407Y-7.144
X8.594Y-7.894
X8.782Y-6.394
X8.969Y-8.644
X9.157Y-7.144
X9.344Y-7.894
X9.532Y-6.394
X9.719Y-8.644
X9.813Y-9.394
X9.907Y-7.144
X10.094Y-7.894
X10.282Y-6.394
X10.469Y-8.644
X10.657Y-7.144
X10.844Y-7.894
X11.032Y-6.394
X11.219Y-8.644
X11.407Y-7.144
X11.594Y-7.894
X11.782Y-6.394
X11.969Y-8.644
X12.157Y-7.144
X12.344Y-7.894
X12.532Y-6.394
X12.532Y-9.394
X12.719Y-8.644
X12.907Y-7.144
X13.094Y-7.894
X13.282Y-6.394
X13.282Y-9.394
X13.469Y-8.644
X13.657Y-7.144
X13.844Y-7.894
X14.032Y-6.394
X14.032Y-9.394
X14.407Y-7.144
X14.5Y-8.644
X14.782Y-9.394
X15.063Y-7.894
X15.157Y-6.394
X15.344Y-7.144
X15.532Y-8.644
X15.532Y-9.394
X16.281Y-7.894
X16.282Y-6.394
X16.282Y-7.144
X16.282Y-8.644
X16.282Y-9.394
T0
M30
