G04 #@! TF.FileFunction,Other,ECO2*
%FSLAX46Y46*%
G04 Gerber Fmt 4.6, Leading zero omitted, Abs format (unit mm)*
G04 Created by KiCad (PCBNEW 4.0.2-stable) date Tuesday, August 23, 2016 'AMt' 01:09:47 AM*
%MOMM*%
G01*
G04 APERTURE LIST*
%ADD10C,0.020000*%
%ADD11C,0.100000*%
G04 APERTURE END LIST*
D10*
D11*
X406554200Y-169403200D02*
X406554200Y-155402500D01*
X420555200Y-169403200D02*
X406554200Y-169403200D01*
X420555200Y-155402500D02*
X420555200Y-169403200D01*
X406554200Y-155402500D02*
X420555200Y-155402500D01*
X349404200Y-169403200D02*
X349404200Y-155402500D01*
X363405200Y-169403200D02*
X349404200Y-169403200D01*
X363405200Y-155402500D02*
X363405200Y-169403200D01*
X349404200Y-155402500D02*
X363405200Y-155402500D01*
X330354200Y-169403200D02*
X330354200Y-155402500D01*
X344355200Y-169403200D02*
X330354200Y-169403200D01*
X344355200Y-155402500D02*
X344355200Y-169403200D01*
X330354200Y-155402500D02*
X344355200Y-155402500D01*
X311304200Y-169403200D02*
X311304200Y-155402500D01*
X325305200Y-169403200D02*
X311304200Y-169403200D01*
X325305200Y-155402500D02*
X325305200Y-169403200D01*
X311304200Y-155402500D02*
X325305200Y-155402500D01*
X292254200Y-169403200D02*
X292254200Y-155402500D01*
X306255200Y-169403200D02*
X292254200Y-169403200D01*
X306255200Y-155402500D02*
X306255200Y-169403200D01*
X292254200Y-155402500D02*
X306255200Y-155402500D01*
X273204200Y-169403200D02*
X273204200Y-155402500D01*
X287205200Y-169403200D02*
X273204200Y-169403200D01*
X287205200Y-155402500D02*
X287205200Y-169403200D01*
X273204200Y-155402500D02*
X287205200Y-155402500D01*
X254154200Y-169403200D02*
X254154200Y-155402500D01*
X268155200Y-169403200D02*
X254154200Y-169403200D01*
X268155200Y-155402500D02*
X268155200Y-169403200D01*
X254154200Y-155402500D02*
X268155200Y-155402500D01*
X235104200Y-169403200D02*
X235104200Y-155402500D01*
X249105200Y-169403200D02*
X235104200Y-169403200D01*
X249105200Y-155402500D02*
X249105200Y-169403200D01*
X235104200Y-155402500D02*
X249105200Y-155402500D01*
X216054200Y-169403200D02*
X216054200Y-155402500D01*
X230055200Y-169403200D02*
X216054200Y-169403200D01*
X230055200Y-155402500D02*
X230055200Y-169403200D01*
X216054200Y-155402500D02*
X230055200Y-155402500D01*
X197004500Y-169403200D02*
X197004500Y-155402500D01*
X211004200Y-169403200D02*
X197004500Y-169403200D01*
X211004200Y-155402500D02*
X211004200Y-169403200D01*
X197004500Y-155402500D02*
X211004200Y-155402500D01*
X177954500Y-169403200D02*
X177954500Y-155402500D01*
X191955200Y-169403200D02*
X177954500Y-169403200D01*
X191955200Y-155402500D02*
X191955200Y-169403200D01*
X177954500Y-155402500D02*
X191955200Y-155402500D01*
X158904500Y-169403200D02*
X158904500Y-155402500D01*
X172905200Y-169403200D02*
X158904500Y-169403200D01*
X172905200Y-155402500D02*
X172905200Y-169403200D01*
X158904500Y-155402500D02*
X172905200Y-155402500D01*
X139854500Y-169403200D02*
X139854500Y-155402500D01*
X153855200Y-169403200D02*
X139854500Y-169403200D01*
X153855200Y-155402500D02*
X153855200Y-169403200D01*
X139854500Y-155402500D02*
X153855200Y-155402500D01*
X120804500Y-169403200D02*
X120804500Y-155402500D01*
X134805200Y-169403200D02*
X120804500Y-169403200D01*
X134805200Y-155402500D02*
X134805200Y-169403200D01*
X120804500Y-155402500D02*
X134805200Y-155402500D01*
X101754470Y-169403200D02*
X101754470Y-155402500D01*
X115755400Y-169403200D02*
X101754470Y-169403200D01*
X115755400Y-155402500D02*
X115755400Y-169403200D01*
X101754470Y-155402500D02*
X115755400Y-155402500D01*
X391980200Y-155402500D02*
X377979200Y-155402500D01*
X391980200Y-160102900D02*
X391980200Y-155402500D01*
X393605200Y-160102900D02*
X391980200Y-160102900D01*
X393605200Y-156872900D02*
X393605200Y-160102900D01*
X395279200Y-156872900D02*
X393605200Y-156872900D01*
X395279200Y-155952100D02*
X395279200Y-156872900D01*
X398579200Y-155952100D02*
X395279200Y-155952100D01*
X398579200Y-156872900D02*
X398579200Y-155952100D01*
X400255200Y-156872900D02*
X398579200Y-156872900D01*
X400255200Y-160102900D02*
X400255200Y-156872900D01*
X401130200Y-160102900D02*
X400255200Y-160102900D01*
X401130200Y-162902900D02*
X401130200Y-160102900D01*
X400255200Y-162902900D02*
X401130200Y-162902900D01*
X400255200Y-169173200D02*
X400255200Y-162902900D01*
X398579200Y-169173200D02*
X400255200Y-169173200D01*
X398579200Y-170152800D02*
X398579200Y-169173200D01*
X395279200Y-170152800D02*
X398579200Y-170152800D01*
X395279200Y-169173200D02*
X395279200Y-170152800D01*
X393605200Y-169173200D02*
X395279200Y-169173200D01*
X393605200Y-164702800D02*
X393605200Y-169173200D01*
X391980200Y-164702800D02*
X393605200Y-164702800D01*
X391980200Y-169403200D02*
X391980200Y-164702800D01*
X377979200Y-169403200D02*
X391980200Y-169403200D01*
X377979200Y-164702800D02*
X377979200Y-169403200D01*
X376354200Y-164702800D02*
X377979200Y-164702800D01*
X376354200Y-169173200D02*
X376354200Y-164702800D01*
X374680200Y-169173200D02*
X376354200Y-169173200D01*
X374680200Y-170152800D02*
X374680200Y-169173200D01*
X371380200Y-170152800D02*
X374680200Y-170152800D01*
X371380200Y-169173200D02*
X371380200Y-170152800D01*
X369704200Y-169173200D02*
X371380200Y-169173200D01*
X369704200Y-162902900D02*
X369704200Y-169173200D01*
X368829200Y-162902900D02*
X369704200Y-162902900D01*
X368829200Y-160102900D02*
X368829200Y-162902900D01*
X369704200Y-160102900D02*
X368829200Y-160102900D01*
X369704200Y-156872900D02*
X369704200Y-160102900D01*
X371380200Y-156872900D02*
X369704200Y-156872900D01*
X371380200Y-155952100D02*
X371380200Y-156872900D01*
X374680200Y-155952100D02*
X371380200Y-155952100D01*
X374680200Y-156872900D02*
X374680200Y-155952100D01*
X376354200Y-156872900D02*
X374680200Y-156872900D01*
X376354200Y-160102900D02*
X376354200Y-156872900D01*
X377979200Y-160102900D02*
X376354200Y-160102900D01*
X377979200Y-155402500D02*
X377979200Y-160102900D01*
X406554200Y-188453200D02*
X406554200Y-174452500D01*
X420555200Y-188453200D02*
X406554200Y-188453200D01*
X420555200Y-174452500D02*
X420555200Y-188453200D01*
X406554200Y-174452500D02*
X420555200Y-174452500D01*
X382742200Y-188453200D02*
X382742200Y-174452500D01*
X396741200Y-188453200D02*
X382742200Y-188453200D01*
X396741200Y-174452500D02*
X396741200Y-188453200D01*
X382742200Y-174452500D02*
X396741200Y-174452500D01*
X358929200Y-188453200D02*
X358929200Y-174452500D01*
X372930200Y-188453200D02*
X358929200Y-188453200D01*
X372930200Y-174452500D02*
X372930200Y-188453200D01*
X358929200Y-174452500D02*
X372930200Y-174452500D01*
X339879200Y-188453200D02*
X339879200Y-174452500D01*
X353879200Y-188453200D02*
X339879200Y-188453200D01*
X353879200Y-174452500D02*
X353879200Y-188453200D01*
X339879200Y-174452500D02*
X353879200Y-174452500D01*
X320829200Y-188453200D02*
X320829200Y-174452500D01*
X334830200Y-188453200D02*
X320829200Y-188453200D01*
X334830200Y-174452500D02*
X334830200Y-188453200D01*
X320829200Y-174452500D02*
X334830200Y-174452500D01*
X301779200Y-188453200D02*
X301779200Y-174452500D01*
X315780200Y-188453200D02*
X301779200Y-188453200D01*
X315780200Y-174452500D02*
X315780200Y-188453200D01*
X301779200Y-174452500D02*
X315780200Y-174452500D01*
X282729200Y-188453200D02*
X282729200Y-174452500D01*
X296730200Y-188453200D02*
X282729200Y-188453200D01*
X296730200Y-174452500D02*
X296730200Y-188453200D01*
X282729200Y-174452500D02*
X296730200Y-174452500D01*
X263679200Y-188453200D02*
X263679200Y-174452500D01*
X277680200Y-188453200D02*
X263679200Y-188453200D01*
X277680200Y-174452500D02*
X277680200Y-188453200D01*
X263679200Y-174452500D02*
X277680200Y-174452500D01*
X244629200Y-188453200D02*
X244629200Y-174452500D01*
X258630200Y-188453200D02*
X244629200Y-188453200D01*
X258630200Y-174452500D02*
X258630200Y-188453200D01*
X244629200Y-174452500D02*
X258630200Y-174452500D01*
X225579200Y-188453200D02*
X225579200Y-174452500D01*
X239580200Y-188453200D02*
X225579200Y-188453200D01*
X239580200Y-174452500D02*
X239580200Y-188453200D01*
X225579200Y-174452500D02*
X239580200Y-174452500D01*
X206529200Y-188453200D02*
X206529200Y-174452500D01*
X220530200Y-188453200D02*
X206529200Y-188453200D01*
X220530200Y-174452500D02*
X220530200Y-188453200D01*
X206529200Y-174452500D02*
X220530200Y-174452500D01*
X187479500Y-188453200D02*
X187479500Y-174452500D01*
X201480200Y-188453200D02*
X187479500Y-188453200D01*
X201480200Y-174452500D02*
X201480200Y-188453200D01*
X187479500Y-174452500D02*
X201480200Y-174452500D01*
X168429500Y-188453200D02*
X168429500Y-174452500D01*
X182430200Y-188453200D02*
X168429500Y-188453200D01*
X182430200Y-174452500D02*
X182430200Y-188453200D01*
X168429500Y-174452500D02*
X182430200Y-174452500D01*
X149379500Y-188453200D02*
X149379500Y-174452500D01*
X163380200Y-188453200D02*
X149379500Y-188453200D01*
X163380200Y-174452500D02*
X163380200Y-188453200D01*
X149379500Y-174452500D02*
X163380200Y-174452500D01*
X125567000Y-188453200D02*
X125567000Y-174452500D01*
X139566300Y-188453200D02*
X125567000Y-188453200D01*
X139566300Y-174452500D02*
X139566300Y-188453200D01*
X125567000Y-174452500D02*
X139566300Y-174452500D01*
X101754470Y-188453200D02*
X101754470Y-174452500D01*
X115755400Y-188453200D02*
X101754470Y-188453200D01*
X115755400Y-174452500D02*
X115755400Y-188453200D01*
X101754470Y-174452500D02*
X115755400Y-174452500D01*
X406554200Y-207503200D02*
X406554200Y-193502500D01*
X420555200Y-207503200D02*
X406554200Y-207503200D01*
X420555200Y-193502500D02*
X420555200Y-207503200D01*
X406554200Y-193502500D02*
X420555200Y-193502500D01*
X344642200Y-207503200D02*
X344642200Y-193502500D01*
X358641200Y-207503200D02*
X344642200Y-207503200D01*
X358641200Y-193502500D02*
X358641200Y-207503200D01*
X344642200Y-193502500D02*
X358641200Y-193502500D01*
X325592200Y-207503200D02*
X325592200Y-193502500D01*
X339591200Y-207503200D02*
X325592200Y-207503200D01*
X339591200Y-193502500D02*
X339591200Y-207503200D01*
X325592200Y-193502500D02*
X339591200Y-193502500D01*
X306542200Y-207503200D02*
X306542200Y-193502500D01*
X320541200Y-207503200D02*
X306542200Y-207503200D01*
X320541200Y-193502500D02*
X320541200Y-207503200D01*
X306542200Y-193502500D02*
X320541200Y-193502500D01*
X287492200Y-207503200D02*
X287492200Y-193502500D01*
X301491200Y-207503200D02*
X287492200Y-207503200D01*
X301491200Y-193502500D02*
X301491200Y-207503200D01*
X287492200Y-193502500D02*
X301491200Y-193502500D01*
X268442200Y-207503200D02*
X268442200Y-193502500D01*
X282441200Y-207503200D02*
X268442200Y-207503200D01*
X282441200Y-193502500D02*
X282441200Y-207503200D01*
X268442200Y-193502500D02*
X282441200Y-193502500D01*
X249392200Y-207503200D02*
X249392200Y-193502500D01*
X263391200Y-207503200D02*
X249392200Y-207503200D01*
X263391200Y-193502500D02*
X263391200Y-207503200D01*
X249392200Y-193502500D02*
X263391200Y-193502500D01*
X230342200Y-207503200D02*
X230342200Y-193502500D01*
X244341200Y-207503200D02*
X230342200Y-207503200D01*
X244341200Y-193502500D02*
X244341200Y-207503200D01*
X230342200Y-193502500D02*
X244341200Y-193502500D01*
X211292200Y-207503200D02*
X211292200Y-193502500D01*
X225291200Y-207503200D02*
X211292200Y-207503200D01*
X225291200Y-193502500D02*
X225291200Y-207503200D01*
X211292200Y-193502500D02*
X225291200Y-193502500D01*
X192242000Y-207503200D02*
X192242000Y-193502500D01*
X206241200Y-207503200D02*
X192242000Y-207503200D01*
X206241200Y-193502500D02*
X206241200Y-207503200D01*
X192242000Y-193502500D02*
X206241200Y-193502500D01*
X173192000Y-207503200D02*
X173192000Y-193502500D01*
X187191300Y-207503200D02*
X173192000Y-207503200D01*
X187191300Y-193502500D02*
X187191300Y-207503200D01*
X173192000Y-193502500D02*
X187191300Y-193502500D01*
X154142000Y-207503200D02*
X154142000Y-193502500D01*
X168141300Y-207503200D02*
X154142000Y-207503200D01*
X168141300Y-193502500D02*
X168141300Y-207503200D01*
X154142000Y-193502500D02*
X168141300Y-193502500D01*
X127948200Y-207503200D02*
X127948200Y-193502500D01*
X141947500Y-207503200D02*
X127948200Y-207503200D01*
X141947500Y-193502500D02*
X141947500Y-207503200D01*
X127948200Y-193502500D02*
X141947500Y-193502500D01*
X101754470Y-207503200D02*
X101754470Y-193502500D01*
X115755400Y-207503200D02*
X101754470Y-207503200D01*
X115755400Y-193502500D02*
X115755400Y-207503200D01*
X101754470Y-193502500D02*
X115755400Y-193502500D01*
X389597200Y-193502500D02*
X375598200Y-193502500D01*
X389597200Y-198202900D02*
X389597200Y-193502500D01*
X391222200Y-198202900D02*
X389597200Y-198202900D01*
X391222200Y-194972900D02*
X391222200Y-198202900D01*
X392898200Y-194972900D02*
X391222200Y-194972900D01*
X392898200Y-194052100D02*
X392898200Y-194972900D01*
X396198200Y-194052100D02*
X392898200Y-194052100D01*
X396198200Y-194972900D02*
X396198200Y-194052100D01*
X397873200Y-194972900D02*
X396198200Y-194972900D01*
X397873200Y-198202900D02*
X397873200Y-194972900D01*
X398748200Y-198202900D02*
X397873200Y-198202900D01*
X398748200Y-201002900D02*
X398748200Y-198202900D01*
X397873200Y-201002900D02*
X398748200Y-201002900D01*
X397873200Y-207271800D02*
X397873200Y-201002900D01*
X396198200Y-207271800D02*
X397873200Y-207271800D01*
X396198200Y-208252800D02*
X396198200Y-207271800D01*
X392898200Y-208252800D02*
X396198200Y-208252800D01*
X392898200Y-207271800D02*
X392898200Y-208252800D01*
X391222200Y-207271800D02*
X392898200Y-207271800D01*
X391222200Y-202802800D02*
X391222200Y-207271800D01*
X389597200Y-202802800D02*
X391222200Y-202802800D01*
X389597200Y-207503200D02*
X389597200Y-202802800D01*
X375598200Y-207503200D02*
X389597200Y-207503200D01*
X375598200Y-202802800D02*
X375598200Y-207503200D01*
X373973200Y-202802800D02*
X375598200Y-202802800D01*
X373973200Y-207271800D02*
X373973200Y-202802800D01*
X372297200Y-207271800D02*
X373973200Y-207271800D01*
X372297200Y-208252800D02*
X372297200Y-207271800D01*
X368997200Y-208252800D02*
X372297200Y-208252800D01*
X368997200Y-207271800D02*
X368997200Y-208252800D01*
X367323200Y-207271800D02*
X368997200Y-207271800D01*
X367323200Y-201002900D02*
X367323200Y-207271800D01*
X366448200Y-201002900D02*
X367323200Y-201002900D01*
X366448200Y-198202900D02*
X366448200Y-201002900D01*
X367323200Y-198202900D02*
X366448200Y-198202900D01*
X367323200Y-194972900D02*
X367323200Y-198202900D01*
X368997200Y-194972900D02*
X367323200Y-194972900D01*
X368997200Y-194052100D02*
X368997200Y-194972900D01*
X372297200Y-194052100D02*
X368997200Y-194052100D01*
X372297200Y-194972900D02*
X372297200Y-194052100D01*
X373973200Y-194972900D02*
X372297200Y-194972900D01*
X373973200Y-198202900D02*
X373973200Y-194972900D01*
X375598200Y-198202900D02*
X373973200Y-198202900D01*
X375598200Y-193502500D02*
X375598200Y-198202900D01*
X406554200Y-226553200D02*
X406554200Y-212552500D01*
X420555200Y-226553200D02*
X406554200Y-226553200D01*
X420555200Y-212552500D02*
X420555200Y-226553200D01*
X406554200Y-212552500D02*
X420555200Y-212552500D01*
X387504200Y-226553200D02*
X387504200Y-212552500D01*
X401505200Y-226553200D02*
X387504200Y-226553200D01*
X401505200Y-212552500D02*
X401505200Y-226553200D01*
X387504200Y-212552500D02*
X401505200Y-212552500D01*
X361311200Y-226553200D02*
X361311200Y-212552500D01*
X375311200Y-226553200D02*
X361311200Y-226553200D01*
X375311200Y-212552500D02*
X375311200Y-226553200D01*
X361311200Y-212552500D02*
X375311200Y-212552500D01*
X335117200Y-226553200D02*
X335117200Y-212552500D01*
X349116200Y-226553200D02*
X335117200Y-226553200D01*
X349116200Y-212552500D02*
X349116200Y-226553200D01*
X335117200Y-212552500D02*
X349116200Y-212552500D01*
X316067200Y-226553200D02*
X316067200Y-212552500D01*
X330066200Y-226553200D02*
X316067200Y-226553200D01*
X330066200Y-212552500D02*
X330066200Y-226553200D01*
X316067200Y-212552500D02*
X330066200Y-212552500D01*
X297017200Y-226553200D02*
X297017200Y-212552500D01*
X311016200Y-226553200D02*
X297017200Y-226553200D01*
X311016200Y-212552500D02*
X311016200Y-226553200D01*
X297017200Y-212552500D02*
X311016200Y-212552500D01*
X277967200Y-226553200D02*
X277967200Y-212552500D01*
X291966200Y-226553200D02*
X277967200Y-226553200D01*
X291966200Y-212552500D02*
X291966200Y-226553200D01*
X277967200Y-212552500D02*
X291966200Y-212552500D01*
X258917200Y-226553200D02*
X258917200Y-212552500D01*
X272916200Y-226553200D02*
X258917200Y-226553200D01*
X272916200Y-212552500D02*
X272916200Y-226553200D01*
X258917200Y-212552500D02*
X272916200Y-212552500D01*
X239867200Y-226553200D02*
X239867200Y-212552500D01*
X253866200Y-226553200D02*
X239867200Y-226553200D01*
X253866200Y-212552500D02*
X253866200Y-226553200D01*
X239867200Y-212552500D02*
X253866200Y-212552500D01*
X220817200Y-226553200D02*
X220817200Y-212552500D01*
X234816200Y-226553200D02*
X220817200Y-226553200D01*
X234816200Y-212552500D02*
X234816200Y-226553200D01*
X220817200Y-212552500D02*
X234816200Y-212552500D01*
X201767200Y-226553200D02*
X201767200Y-212552500D01*
X215766200Y-226553200D02*
X201767200Y-226553200D01*
X215766200Y-212552500D02*
X215766200Y-226553200D01*
X201767200Y-212552500D02*
X215766200Y-212552500D01*
X182717000Y-226553200D02*
X182717000Y-212552500D01*
X196716300Y-226553200D02*
X182717000Y-226553200D01*
X196716300Y-212552500D02*
X196716300Y-226553200D01*
X182717000Y-212552500D02*
X196716300Y-212552500D01*
X163667000Y-226553200D02*
X163667000Y-212552500D01*
X177666300Y-226553200D02*
X163667000Y-226553200D01*
X177666300Y-212552500D02*
X177666300Y-226553200D01*
X163667000Y-212552500D02*
X177666300Y-212552500D01*
X101754470Y-226553200D02*
X101754470Y-212552500D01*
X115755400Y-226553200D02*
X101754470Y-226553200D01*
X115755400Y-212552500D02*
X115755400Y-226553200D01*
X101754470Y-212552500D02*
X115755400Y-212552500D01*
X146711500Y-212552500D02*
X132710700Y-212552500D01*
X146711500Y-217252800D02*
X146711500Y-212552500D01*
X148336400Y-217252800D02*
X146711500Y-217252800D01*
X148336400Y-214022700D02*
X148336400Y-217252800D01*
X150010600Y-214022700D02*
X148336400Y-214022700D01*
X150010600Y-213102200D02*
X150010600Y-214022700D01*
X153310900Y-213102200D02*
X150010600Y-213102200D01*
X153310900Y-214022700D02*
X153310900Y-213102200D01*
X154985500Y-214022700D02*
X153310900Y-214022700D01*
X154985500Y-217252800D02*
X154985500Y-214022700D01*
X155860400Y-217252800D02*
X154985500Y-217252800D01*
X155860400Y-220053000D02*
X155860400Y-217252800D01*
X154985500Y-220053000D02*
X155860400Y-220053000D01*
X154985500Y-226323100D02*
X154985500Y-220053000D01*
X153310900Y-226323100D02*
X154985500Y-226323100D01*
X153310900Y-227302900D02*
X153310900Y-226323100D01*
X150010600Y-227302900D02*
X153310900Y-227302900D01*
X150010600Y-226323100D02*
X150010600Y-227302900D01*
X148336400Y-226323100D02*
X150010600Y-226323100D01*
X148336400Y-221852700D02*
X148336400Y-226323100D01*
X146711500Y-221852700D02*
X148336400Y-221852700D01*
X146711500Y-226553200D02*
X146711500Y-221852700D01*
X132710700Y-226553200D02*
X146711500Y-226553200D01*
X132710700Y-221852700D02*
X132710700Y-226553200D01*
X131086000Y-221852700D02*
X132710700Y-221852700D01*
X131086000Y-226323100D02*
X131086000Y-221852700D01*
X129410300Y-226323100D02*
X131086000Y-226323100D01*
X129410300Y-227302900D02*
X129410300Y-226323100D01*
X126111300Y-227302900D02*
X129410300Y-227302900D01*
X126111300Y-226323100D02*
X126111300Y-227302900D01*
X124435600Y-226323100D02*
X126111300Y-226323100D01*
X124435600Y-220053000D02*
X124435600Y-226323100D01*
X123560600Y-220053000D02*
X124435600Y-220053000D01*
X123560600Y-217252800D02*
X123560600Y-220053000D01*
X124435600Y-217252800D02*
X123560600Y-217252800D01*
X124435600Y-214022700D02*
X124435600Y-217252800D01*
X126111300Y-214022700D02*
X124435600Y-214022700D01*
X126111300Y-213102200D02*
X126111300Y-214022700D01*
X129410300Y-213102200D02*
X126111300Y-213102200D01*
X129410300Y-214022700D02*
X129410300Y-213102200D01*
X131086000Y-214022700D02*
X129410300Y-214022700D01*
X131086000Y-217252800D02*
X131086000Y-214022700D01*
X132710700Y-217252800D02*
X131086000Y-217252800D01*
X132710700Y-212552500D02*
X132710700Y-217252800D01*
X406554200Y-245603230D02*
X406554200Y-231602300D01*
X420555200Y-245603230D02*
X406554200Y-245603230D01*
X420555200Y-231602300D02*
X420555200Y-245603230D01*
X406554200Y-231602300D02*
X420555200Y-231602300D01*
X387504200Y-245603230D02*
X387504200Y-231602300D01*
X401505200Y-245603230D02*
X387504200Y-245603230D01*
X401505200Y-231602300D02*
X401505200Y-245603230D01*
X387504200Y-231602300D02*
X401505200Y-231602300D01*
X368454200Y-245603230D02*
X368454200Y-231602300D01*
X382455200Y-245603230D02*
X368454200Y-245603230D01*
X382455200Y-231602300D02*
X382455200Y-245603230D01*
X368454200Y-231602300D02*
X382455200Y-231602300D01*
X349404200Y-245603230D02*
X349404200Y-231602300D01*
X363405200Y-245603230D02*
X349404200Y-245603230D01*
X363405200Y-231602300D02*
X363405200Y-245603230D01*
X349404200Y-231602300D02*
X363405200Y-231602300D01*
X330354200Y-245603230D02*
X330354200Y-231602300D01*
X344355200Y-245603230D02*
X330354200Y-245603230D01*
X344355200Y-231602300D02*
X344355200Y-245603230D01*
X330354200Y-231602300D02*
X344355200Y-231602300D01*
X311304200Y-245603230D02*
X311304200Y-231602300D01*
X325305200Y-245603230D02*
X311304200Y-245603230D01*
X325305200Y-231602300D02*
X325305200Y-245603230D01*
X311304200Y-231602300D02*
X325305200Y-231602300D01*
X170810800Y-245603230D02*
X170810800Y-231602300D01*
X184811500Y-245603230D02*
X170810800Y-245603230D01*
X184811500Y-231602300D02*
X184811500Y-245603230D01*
X170810800Y-231602300D02*
X184811500Y-231602300D01*
X146998300Y-245603230D02*
X146998300Y-231602300D01*
X160997500Y-245603230D02*
X146998300Y-245603230D01*
X160997500Y-231602300D02*
X160997500Y-245603230D01*
X146998300Y-231602300D02*
X160997500Y-231602300D01*
X123185700Y-245603230D02*
X123185700Y-231602300D01*
X137186500Y-245603230D02*
X123185700Y-245603230D01*
X137186500Y-231602300D02*
X137186500Y-245603230D01*
X123185700Y-231602300D02*
X137186500Y-231602300D01*
X101754470Y-245603230D02*
X101754470Y-231602300D01*
X115755400Y-245603230D02*
X101754470Y-245603230D01*
X115755400Y-231602300D02*
X115755400Y-245603230D01*
X101754470Y-231602300D02*
X115755400Y-231602300D01*
X256247200Y-231602300D02*
X242248200Y-231602300D01*
X256247200Y-236302800D02*
X256247200Y-231602300D01*
X295923200Y-236302800D02*
X256247200Y-236302800D01*
X295923200Y-233072700D02*
X295923200Y-236302800D01*
X297598200Y-233072700D02*
X295923200Y-233072700D01*
X297598200Y-232152200D02*
X297598200Y-233072700D01*
X300897200Y-232152200D02*
X297598200Y-232152200D01*
X300897200Y-233072700D02*
X300897200Y-232152200D01*
X302573200Y-233072700D02*
X300897200Y-233072700D01*
X302573200Y-236302800D02*
X302573200Y-233072700D01*
X303448200Y-236302800D02*
X302573200Y-236302800D01*
X303448200Y-239103010D02*
X303448200Y-236302800D01*
X302573200Y-239103010D02*
X303448200Y-239103010D01*
X302573200Y-245371720D02*
X302573200Y-239103010D01*
X300897200Y-245371720D02*
X302573200Y-245371720D01*
X300897200Y-246352880D02*
X300897200Y-245371720D01*
X297598200Y-246352880D02*
X300897200Y-246352880D01*
X297598200Y-245371720D02*
X297598200Y-246352880D01*
X295923200Y-245371720D02*
X297598200Y-245371720D01*
X295923200Y-240901360D02*
X295923200Y-245371720D01*
X256247200Y-240901360D02*
X295923200Y-240901360D01*
X256247200Y-245603230D02*
X256247200Y-240901360D01*
X242248200Y-245603230D02*
X256247200Y-245603230D01*
X242248200Y-240901360D02*
X242248200Y-245603230D01*
X202573200Y-240901360D02*
X242248200Y-240901360D01*
X202573200Y-245371720D02*
X202573200Y-240901360D01*
X200897200Y-245371720D02*
X202573200Y-245371720D01*
X200897200Y-246352880D02*
X200897200Y-245371720D01*
X197598200Y-246352880D02*
X200897200Y-246352880D01*
X197598200Y-245371720D02*
X197598200Y-246352880D01*
X195922600Y-245371720D02*
X197598200Y-245371720D01*
X195922600Y-239103010D02*
X195922600Y-245371720D01*
X195047700Y-239103010D02*
X195922600Y-239103010D01*
X195047700Y-236302800D02*
X195047700Y-239103010D01*
X195922600Y-236302800D02*
X195047700Y-236302800D01*
X195922600Y-233072700D02*
X195922600Y-236302800D01*
X197598200Y-233072700D02*
X195922600Y-233072700D01*
X197598200Y-232152200D02*
X197598200Y-233072700D01*
X200897200Y-232152200D02*
X197598200Y-232152200D01*
X200897200Y-233072700D02*
X200897200Y-232152200D01*
X202573200Y-233072700D02*
X200897200Y-233072700D01*
X202573200Y-236302800D02*
X202573200Y-233072700D01*
X242248200Y-236302800D02*
X202573200Y-236302800D01*
X242248200Y-231602300D02*
X242248200Y-236302800D01*
M02*
