G04 #@! TF.FileFunction,Legend,Bot*
%FSLAX46Y46*%
G04 Gerber Fmt 4.6, Leading zero omitted, Abs format (unit mm)*
G04 Created by KiCad (PCBNEW 4.0.2-stable) date Wednesday, August 24, 2016 'PMt' 02:45:41 PM*
%MOMM*%
G01*
G04 APERTURE LIST*
%ADD10C,0.020000*%
%ADD11C,0.200660*%
%ADD12C,0.381000*%
%ADD13C,0.150000*%
%ADD14C,0.304800*%
G04 APERTURE END LIST*
D10*
D11*
X139725400Y-159359600D02*
X141376400Y-159359600D01*
X141376400Y-159359600D02*
X141376400Y-150977600D01*
X141376400Y-150977600D02*
X133756400Y-150977600D01*
X133756400Y-150977600D02*
X133756400Y-159359600D01*
X133756400Y-159359600D02*
X135534400Y-159359600D01*
X148465540Y-200609200D02*
G75*
G03X148465540Y-200609200I-1501140J0D01*
G01*
D12*
X143865600Y-203408280D02*
X143865600Y-197810120D01*
X150063200Y-203408280D02*
X150063200Y-197810120D01*
X149964140Y-203708000D02*
X149964140Y-197510400D01*
X149964140Y-197510400D02*
X143964660Y-197510400D01*
X143964660Y-197510400D02*
X143964660Y-203708000D01*
X143964660Y-203708000D02*
X149964140Y-203708000D01*
D13*
X234061000Y-241284760D02*
X234261660Y-240883440D01*
X234261660Y-240883440D02*
X234363260Y-240284000D01*
X234363260Y-240284000D02*
X234261660Y-239783620D01*
X234261660Y-239783620D02*
X233862880Y-239085120D01*
X233862880Y-239085120D02*
X233260900Y-238683800D01*
X233260900Y-238683800D02*
X232661460Y-238483140D01*
X232661460Y-238483140D02*
X226062540Y-238483140D01*
X226062540Y-238483140D02*
X225361500Y-238683800D01*
X225361500Y-238683800D02*
X224962720Y-238983520D01*
X224962720Y-238983520D02*
X224561400Y-239483900D01*
X224561400Y-239483900D02*
X224360740Y-240083340D01*
X224360740Y-240083340D02*
X224360740Y-240583720D01*
X224360740Y-240583720D02*
X224561400Y-241084100D01*
X224561400Y-241084100D02*
X225061780Y-241683540D01*
X225061780Y-241683540D02*
X225562160Y-241983260D01*
X225562160Y-241983260D02*
X226062540Y-242084860D01*
X226161600Y-242084860D02*
X232763060Y-242084860D01*
X232763060Y-242084860D02*
X233161840Y-241983260D01*
X233161840Y-241983260D02*
X233662220Y-241683540D01*
X233662220Y-241683540D02*
X234162600Y-241183160D01*
X226171760Y-242613180D02*
X225712020Y-242564920D01*
X225712020Y-242564920D02*
X225313240Y-242453160D01*
X225313240Y-242453160D02*
X224881440Y-242234720D01*
X224881440Y-242234720D02*
X224591880Y-242003580D01*
X224591880Y-242003580D02*
X224261680Y-241653060D01*
X224261680Y-241653060D02*
X223972120Y-241114580D01*
X223972120Y-241114580D02*
X223842580Y-240515140D01*
X223842580Y-240515140D02*
X223842580Y-240004600D01*
X223842580Y-240004600D02*
X224012760Y-239303560D01*
X224012760Y-239303560D02*
X224411540Y-238714280D01*
X224411540Y-238714280D02*
X224871280Y-238343440D01*
X224871280Y-238343440D02*
X225292920Y-238135160D01*
X225292920Y-238135160D02*
X225742500Y-237975140D01*
X225742500Y-237975140D02*
X226181920Y-237944660D01*
X233522520Y-238163100D02*
X233900980Y-238384080D01*
X233900980Y-238384080D02*
X234221020Y-238663480D01*
X234221020Y-238663480D02*
X234472480Y-238993680D01*
X234472480Y-238993680D02*
X234772200Y-239544860D01*
X234772200Y-239544860D02*
X234881420Y-240014760D01*
X234881420Y-240014760D02*
X234901740Y-240474500D01*
X234901740Y-240474500D02*
X234812840Y-240934240D01*
X234812840Y-240934240D02*
X234622340Y-241383820D01*
X234622340Y-241383820D02*
X234261660Y-241853720D01*
X234261660Y-241853720D02*
X233911140Y-242173760D01*
X233911140Y-242173760D02*
X233522520Y-242404900D01*
X233522520Y-242404900D02*
X233093260Y-242544600D01*
X233093260Y-242544600D02*
X232651300Y-242613180D01*
X226161600Y-237954820D02*
X232613200Y-237954820D01*
X232613200Y-237954820D02*
X233032300Y-237992920D01*
X233032300Y-237992920D02*
X233522520Y-238163100D01*
X226161600Y-242613180D02*
X232613200Y-242613180D01*
D14*
X138074400Y-148800029D02*
X138074400Y-149888600D01*
X138146972Y-150106314D01*
X138292115Y-150251457D01*
X138509829Y-150324029D01*
X138654972Y-150324029D01*
X136550400Y-150324029D02*
X137421257Y-150324029D01*
X136985829Y-150324029D02*
X136985829Y-148800029D01*
X137130972Y-149017743D01*
X137276114Y-149162886D01*
X137421257Y-149235457D01*
X152181257Y-199448057D02*
X152253829Y-199665771D01*
X152253829Y-200028628D01*
X152181257Y-200173771D01*
X152108686Y-200246342D01*
X151963543Y-200318914D01*
X151818400Y-200318914D01*
X151673257Y-200246342D01*
X151600686Y-200173771D01*
X151528114Y-200028628D01*
X151455543Y-199738342D01*
X151382971Y-199593200D01*
X151310400Y-199520628D01*
X151165257Y-199448057D01*
X151020114Y-199448057D01*
X150874971Y-199520628D01*
X150802400Y-199593200D01*
X150729829Y-199738342D01*
X150729829Y-200101200D01*
X150802400Y-200318914D01*
X150729829Y-201262343D02*
X150729829Y-201407486D01*
X150802400Y-201552629D01*
X150874971Y-201625200D01*
X151020114Y-201697771D01*
X151310400Y-201770343D01*
X151673257Y-201770343D01*
X151963543Y-201697771D01*
X152108686Y-201625200D01*
X152181257Y-201552629D01*
X152253829Y-201407486D01*
X152253829Y-201262343D01*
X152181257Y-201117200D01*
X152108686Y-201044629D01*
X151963543Y-200972057D01*
X151673257Y-200899486D01*
X151310400Y-200899486D01*
X151020114Y-200972057D01*
X150874971Y-201044629D01*
X150802400Y-201117200D01*
X150729829Y-201262343D01*
D13*
X230171524Y-243546381D02*
X229504857Y-244546381D01*
X229504857Y-243546381D02*
X230171524Y-244546381D01*
X228600095Y-244546381D02*
X229171524Y-244546381D01*
X228885810Y-244546381D02*
X228885810Y-243546381D01*
X228981048Y-243689238D01*
X229076286Y-243784476D01*
X229171524Y-243832095D01*
M02*
