G04 #@! TF.FileFunction,Copper,L1,Top,Signal*
%FSLAX46Y46*%
G04 Gerber Fmt 4.6, Leading zero omitted, Abs format (unit mm)*
G04 Created by KiCad (PCBNEW 4.0.2-stable) date Wednesday, August 24, 2016 'PMt' 02:45:41 PM*
%MOMM*%
G01*
G04 APERTURE LIST*
%ADD10C,0.020000*%
%ADD11R,1.397000X0.889000*%
%ADD12R,0.889000X1.397000*%
%ADD13O,0.406400X1.899920*%
%ADD14O,1.899920X0.406400*%
%ADD15C,1.600000*%
%ADD16C,1.501140*%
%ADD17C,2.499360*%
%ADD18C,1.651000*%
%ADD19R,1.651000X1.651000*%
%ADD20C,1.800000*%
%ADD21C,1.000000*%
%ADD22C,0.406400*%
G04 APERTURE END LIST*
D10*
D11*
X226568000Y-233235500D03*
X226568000Y-235140500D03*
X231648000Y-233235500D03*
X231648000Y-235140500D03*
D12*
X283730700Y-245795800D03*
X281825700Y-245795800D03*
D11*
X293141400Y-239890300D03*
X293141400Y-241795300D03*
X296494200Y-239864900D03*
X296494200Y-241769900D03*
X299923200Y-239839500D03*
X299923200Y-241744500D03*
X303326800Y-239814100D03*
X303326800Y-241719100D03*
X289661600Y-239941100D03*
X289661600Y-241846100D03*
D13*
X272796000Y-243967000D03*
X273596100Y-243967000D03*
X274396200Y-243967000D03*
X275196300Y-243967000D03*
X275996400Y-243967000D03*
X276796500Y-243967000D03*
X271995900Y-243967000D03*
X271195800Y-243967000D03*
X270395700Y-243967000D03*
X269595600Y-243967000D03*
X268795500Y-243967000D03*
X272796000Y-232537000D03*
X273596100Y-232537000D03*
X274396200Y-232537000D03*
X275196300Y-232537000D03*
X275996400Y-232537000D03*
X276796500Y-232537000D03*
X271995900Y-232537000D03*
X271195800Y-232537000D03*
X270395700Y-232537000D03*
X269595600Y-232537000D03*
X268795500Y-232537000D03*
D14*
X278511000Y-238252000D03*
X267081000Y-238252000D03*
X278511000Y-237451900D03*
X267081000Y-237451900D03*
X267081000Y-236651800D03*
X278511000Y-236651800D03*
X278511000Y-235851700D03*
X267081000Y-235851700D03*
X267081000Y-235051600D03*
X278511000Y-235051600D03*
X278511000Y-234251500D03*
X267081000Y-234251500D03*
X267081000Y-239052100D03*
X278511000Y-239052100D03*
X278511000Y-239852200D03*
X267081000Y-239852200D03*
X267081000Y-240652300D03*
X278511000Y-240652300D03*
X278511000Y-241452400D03*
X267081000Y-241452400D03*
X267081000Y-242252500D03*
X278511000Y-242252500D03*
D15*
X163017200Y-171907200D03*
X170637200Y-171907200D03*
D16*
X226921060Y-240284000D03*
X231802940Y-240284000D03*
D17*
X111302800Y-233527600D03*
X104952800Y-236067600D03*
X132740400Y-233553000D03*
X126390400Y-236093000D03*
X180365400Y-233527600D03*
X174015400Y-236067600D03*
X320852800Y-233527600D03*
X314502800Y-236067600D03*
X339902800Y-233527600D03*
X333552800Y-236067600D03*
X358952800Y-233527600D03*
X352602800Y-236067600D03*
X378002800Y-233527600D03*
X371652800Y-236067600D03*
X397052800Y-233527600D03*
X390702800Y-236067600D03*
X416102800Y-233527600D03*
X409752800Y-236067600D03*
X111302800Y-214477600D03*
X104952800Y-217017600D03*
X142265400Y-214477600D03*
X135915400Y-217017600D03*
X173202600Y-214477600D03*
X166852600Y-217017600D03*
X192252600Y-214477600D03*
X185902600Y-217017600D03*
X211302600Y-214477600D03*
X204952600Y-217017600D03*
X230352600Y-214477600D03*
X224002600Y-217017600D03*
X249402600Y-214477600D03*
X243052600Y-217017600D03*
X268452600Y-214477600D03*
X262102600Y-217017600D03*
X287502600Y-214477600D03*
X281152600Y-217017600D03*
X306552600Y-214477600D03*
X300202600Y-217017600D03*
X325602600Y-214477600D03*
X319252600Y-217017600D03*
X344652600Y-214477600D03*
X338302600Y-217017600D03*
X370840000Y-214477600D03*
X364490000Y-217017600D03*
X397052800Y-214477600D03*
X390702800Y-217017600D03*
X416102800Y-214477600D03*
X409752800Y-217017600D03*
X111302800Y-195427600D03*
X104952800Y-197967600D03*
X137490200Y-195427600D03*
X131140200Y-197967600D03*
X163677600Y-195427600D03*
X157327600Y-197967600D03*
X182727600Y-195427600D03*
X176377600Y-197967600D03*
X201777600Y-195427600D03*
X195427600Y-197967600D03*
X220827600Y-195427600D03*
X214477600Y-197967600D03*
X239877600Y-195427600D03*
X233527600Y-197967600D03*
X258927600Y-195427600D03*
X252577600Y-197967600D03*
X277977600Y-195427600D03*
X271627600Y-197967600D03*
X297027600Y-195427600D03*
X290677600Y-197967600D03*
X316077600Y-195427600D03*
X309727600Y-197967600D03*
X335127600Y-195427600D03*
X328777600Y-197967600D03*
X354177600Y-195427600D03*
X347827600Y-197967600D03*
X385140200Y-195427600D03*
X378790200Y-197967600D03*
X416077400Y-195427600D03*
X409727400Y-197967600D03*
X111302800Y-176377600D03*
X104952800Y-178917600D03*
X135102600Y-176377600D03*
X128752600Y-178917600D03*
X158927800Y-176377600D03*
X152577800Y-178917600D03*
X177977800Y-176377600D03*
X171627800Y-178917600D03*
X197027800Y-176377600D03*
X190677800Y-178917600D03*
X216077800Y-176377600D03*
X209727800Y-178917600D03*
X235127800Y-176377600D03*
X228777800Y-178917600D03*
X254177800Y-176377600D03*
X247827800Y-178917600D03*
X273227800Y-176377600D03*
X266877800Y-178917600D03*
X292277800Y-176377600D03*
X285927800Y-178917600D03*
X311327800Y-176377600D03*
X304977800Y-178917600D03*
X330377800Y-176377600D03*
X324027800Y-178917600D03*
X349427800Y-176377600D03*
X343077800Y-178917600D03*
X368477800Y-176377600D03*
X362127800Y-178917600D03*
X392277600Y-176377600D03*
X385927600Y-178917600D03*
X416102800Y-176377600D03*
X409752800Y-178917600D03*
X111302800Y-157327600D03*
X104952800Y-159867600D03*
X125272800Y-167487600D03*
X131622800Y-164947600D03*
X144322800Y-167487600D03*
X150672800Y-164947600D03*
X168452800Y-157327600D03*
X162102800Y-159867600D03*
X187502800Y-157327600D03*
X181152800Y-159867600D03*
X206552800Y-157327600D03*
X200202800Y-159867600D03*
X225602800Y-157327600D03*
X219252800Y-159867600D03*
X244652800Y-157327600D03*
X238302800Y-159867600D03*
X263702800Y-157327600D03*
X257352800Y-159867600D03*
X282752800Y-157327600D03*
X276402800Y-159867600D03*
X301802800Y-157327600D03*
X295452800Y-159867600D03*
X320852800Y-157327600D03*
X314502800Y-159867600D03*
X339902800Y-157327600D03*
X333552800Y-159867600D03*
X358952800Y-157327600D03*
X352602800Y-159867600D03*
X387527800Y-157327600D03*
X381177800Y-159867600D03*
X416102800Y-157327600D03*
X409752800Y-159867600D03*
X251790200Y-233527600D03*
X245440200Y-236067600D03*
D18*
X116586000Y-235331000D03*
D19*
X116586000Y-242951000D03*
D18*
X122301000Y-235331000D03*
D19*
X122301000Y-242951000D03*
D18*
X146113500Y-235331000D03*
D19*
X146113500Y-242951000D03*
D18*
X169926000Y-235331000D03*
D19*
X169926000Y-242951000D03*
D18*
X240030000Y-242316000D03*
D19*
X240030000Y-234696000D03*
D18*
X310578500Y-235331000D03*
D19*
X310578500Y-242951000D03*
D18*
X329565000Y-235331000D03*
D19*
X329565000Y-242951000D03*
D18*
X348551500Y-235331000D03*
D19*
X348551500Y-242951000D03*
D18*
X367538000Y-235331000D03*
D19*
X367538000Y-242951000D03*
D18*
X386588000Y-235331000D03*
D19*
X386588000Y-242951000D03*
D18*
X405638000Y-235331000D03*
D19*
X405638000Y-242951000D03*
D18*
X116586000Y-216408000D03*
D19*
X116586000Y-224028000D03*
D18*
X121666000Y-216408000D03*
D19*
X121666000Y-224028000D03*
D18*
X163004500Y-216281000D03*
D19*
X163004500Y-223901000D03*
D18*
X182054500Y-216281000D03*
D19*
X182054500Y-223901000D03*
D18*
X201104500Y-216281000D03*
D19*
X201104500Y-223901000D03*
D18*
X220154500Y-216281000D03*
D19*
X220154500Y-223901000D03*
D18*
X239204500Y-216281000D03*
D19*
X239204500Y-223901000D03*
D18*
X258254500Y-216281000D03*
D19*
X258254500Y-223901000D03*
D18*
X277304500Y-216281000D03*
D19*
X277304500Y-223901000D03*
D18*
X296354500Y-216281000D03*
D19*
X296354500Y-223901000D03*
D18*
X315404500Y-216281000D03*
D19*
X315404500Y-223901000D03*
D18*
X334264000Y-216281000D03*
D19*
X334264000Y-223901000D03*
D18*
X360426000Y-216154000D03*
D19*
X360426000Y-223774000D03*
D18*
X386588000Y-216281000D03*
D19*
X386588000Y-223901000D03*
D18*
X405638000Y-216281000D03*
D19*
X405638000Y-223901000D03*
D18*
X116522500Y-197231000D03*
D19*
X116522500Y-204851000D03*
D18*
X127317500Y-197231000D03*
D19*
X127317500Y-204851000D03*
D18*
X153479500Y-197231000D03*
D19*
X153479500Y-204851000D03*
D18*
X172529500Y-197231000D03*
D19*
X172529500Y-204851000D03*
D18*
X191579500Y-197231000D03*
D19*
X191579500Y-204851000D03*
D18*
X210629500Y-197231000D03*
D19*
X210629500Y-204851000D03*
D18*
X229679500Y-197231000D03*
D19*
X229679500Y-204851000D03*
D18*
X248729500Y-197231000D03*
D19*
X248729500Y-204851000D03*
D18*
X267779500Y-197231000D03*
D19*
X267779500Y-204851000D03*
D18*
X286829500Y-197231000D03*
D19*
X286829500Y-204851000D03*
D18*
X305879500Y-197231000D03*
D19*
X305879500Y-204851000D03*
D18*
X324929500Y-197231000D03*
D19*
X324929500Y-204851000D03*
D18*
X343916000Y-197231000D03*
D19*
X343916000Y-204851000D03*
D18*
X363474000Y-197358000D03*
D19*
X363474000Y-204978000D03*
D18*
X405638000Y-197231000D03*
D19*
X405638000Y-204851000D03*
D18*
X116586000Y-178181000D03*
D19*
X116586000Y-185801000D03*
D18*
X124841000Y-178181000D03*
D19*
X124841000Y-185801000D03*
D18*
X148717000Y-178181000D03*
D19*
X148717000Y-185801000D03*
D18*
X167767000Y-178181000D03*
D19*
X167767000Y-185801000D03*
D18*
X186817000Y-178181000D03*
D19*
X186817000Y-185801000D03*
D18*
X205867000Y-178181000D03*
D19*
X205867000Y-185801000D03*
D18*
X224917000Y-178181000D03*
D19*
X224917000Y-185801000D03*
D18*
X243967000Y-178181000D03*
D19*
X243967000Y-185801000D03*
D18*
X263017000Y-178181000D03*
D19*
X263017000Y-185801000D03*
D18*
X282067000Y-178181000D03*
D19*
X282067000Y-185801000D03*
D18*
X301117000Y-178181000D03*
D19*
X301117000Y-185801000D03*
D18*
X320167000Y-178181000D03*
D19*
X320167000Y-185801000D03*
D18*
X339217000Y-178181000D03*
D19*
X339217000Y-185801000D03*
D18*
X357886000Y-178181000D03*
D19*
X357886000Y-185801000D03*
D18*
X382016000Y-178181000D03*
D19*
X382016000Y-185801000D03*
D18*
X405638000Y-178181000D03*
D19*
X405638000Y-185801000D03*
D18*
X116332000Y-159258000D03*
D19*
X116332000Y-166878000D03*
D18*
X120142000Y-159258000D03*
D19*
X120142000Y-166878000D03*
D18*
X154686000Y-159156400D03*
D19*
X154686000Y-166776400D03*
D18*
X158242000Y-159131000D03*
D19*
X158242000Y-166751000D03*
D18*
X177292000Y-159131000D03*
D19*
X177292000Y-166751000D03*
D18*
X196342000Y-159131000D03*
D19*
X196342000Y-166751000D03*
D18*
X215392000Y-159131000D03*
D19*
X215392000Y-166751000D03*
D18*
X234442000Y-159131000D03*
D19*
X234442000Y-166751000D03*
D18*
X253492000Y-159131000D03*
D19*
X253492000Y-166751000D03*
D18*
X272542000Y-159131000D03*
D19*
X272542000Y-166751000D03*
D18*
X291592000Y-159131000D03*
D19*
X291592000Y-166751000D03*
D18*
X310642000Y-159131000D03*
D19*
X310642000Y-166751000D03*
D18*
X329692000Y-159131000D03*
D19*
X329692000Y-166751000D03*
D18*
X348488000Y-159131000D03*
D19*
X348488000Y-166751000D03*
D18*
X367030000Y-158750000D03*
D19*
X367030000Y-166370000D03*
D18*
X405638000Y-159131000D03*
D19*
X405638000Y-166751000D03*
D15*
X113842800Y-171907200D03*
X121462800Y-171907200D03*
X128930400Y-171907200D03*
X136550400Y-171907200D03*
X147167600Y-171907200D03*
X154787600Y-171907200D03*
D17*
X156540200Y-233527600D03*
X150190200Y-236067600D03*
D20*
X206705200Y-245643400D03*
X215315800Y-245643400D03*
X209575400Y-245643400D03*
X218186000Y-245668800D03*
X212445600Y-245643400D03*
X221056200Y-245668800D03*
D21*
X279984200Y-244551200D03*
X273431000Y-246989600D03*
X268986000Y-238633000D03*
X265176000Y-238887000D03*
X271500600Y-239064800D03*
X272694400Y-237032800D03*
X267208000Y-224536000D03*
X264287000Y-227457000D03*
X260604000Y-227838000D03*
X264287000Y-232029000D03*
X262001000Y-231775000D03*
X259207000Y-227838000D03*
X270764000Y-227457000D03*
X271145000Y-223901000D03*
X275463000Y-221818200D03*
X275463000Y-224790000D03*
X288544000Y-225679000D03*
X296037000Y-225933000D03*
X268274800Y-246456200D03*
X237871000Y-242062000D03*
X241300000Y-245491000D03*
X274548600Y-240182400D03*
X245872000Y-242443000D03*
X263652000Y-241681000D03*
X245364000Y-224536000D03*
X258064000Y-237236000D03*
X262890000Y-239572800D03*
X253238000Y-228473000D03*
X265176000Y-235204000D03*
X233680000Y-221488000D03*
X266192000Y-231775000D03*
X276606000Y-235204000D03*
X310388000Y-232029000D03*
X298323000Y-227457000D03*
X288544000Y-227457000D03*
X275717000Y-226822000D03*
X269113000Y-237236000D03*
X268478000Y-218186000D03*
X273812000Y-220345000D03*
X274320000Y-167513000D03*
X271399000Y-170434000D03*
X273812000Y-218694000D03*
X268478000Y-224028000D03*
X283616400Y-242595400D03*
X281787600Y-240182400D03*
X281990800Y-232664000D03*
X274980400Y-230632000D03*
X175260000Y-213995000D03*
X179451000Y-218186000D03*
X228219000Y-229870000D03*
X143256000Y-163830000D03*
X147574000Y-204851000D03*
X231267000Y-231521000D03*
X265938000Y-233172000D03*
X226568000Y-236855000D03*
X222885000Y-240538000D03*
X268986000Y-234442000D03*
X273812000Y-234442000D03*
X275336000Y-245872000D03*
X270256000Y-245872000D03*
X228219000Y-236855000D03*
X229997000Y-236855000D03*
X281762200Y-237591600D03*
X286004000Y-238048800D03*
X136652000Y-157099000D03*
X217932000Y-241808000D03*
X213360000Y-237236000D03*
X203200000Y-221488000D03*
X199009000Y-218186000D03*
X195834000Y-215011000D03*
X189738000Y-208915000D03*
X169672000Y-184531000D03*
X165354000Y-180213000D03*
X142240000Y-167894000D03*
X267716000Y-244348000D03*
X273939000Y-235839000D03*
X268986000Y-235839000D03*
X275082000Y-242062000D03*
X269494000Y-242062000D03*
X245872000Y-238887000D03*
X249682000Y-234061000D03*
X147193000Y-166116000D03*
X151765000Y-160655000D03*
X226695000Y-225679000D03*
X278587200Y-228066600D03*
X303911000Y-215900000D03*
X300609000Y-219837000D03*
X291084000Y-221488000D03*
X379095000Y-216408000D03*
X286842200Y-232156000D03*
X280416000Y-235204000D03*
X274929600Y-237566200D03*
X273100800Y-240766600D03*
X219964000Y-243205000D03*
X274167600Y-229692200D03*
X228346000Y-231521000D03*
X272999200Y-230327200D03*
X234315000Y-230632000D03*
X281813000Y-238963200D03*
X284480000Y-243713000D03*
X275945600Y-228803200D03*
X238887000Y-227330000D03*
X233680000Y-232918000D03*
X223139000Y-234950000D03*
X205740000Y-244094000D03*
X196596000Y-234950000D03*
X160909000Y-218186000D03*
X158623000Y-215900000D03*
X151130000Y-199263000D03*
X162433000Y-185166000D03*
X165608000Y-181991000D03*
X120650000Y-175844200D03*
X120827800Y-186334400D03*
X247599200Y-191998600D03*
X276656800Y-239598200D03*
X260883400Y-237439200D03*
X121793000Y-178308000D03*
X122682000Y-180594000D03*
X126619000Y-184531000D03*
X152400000Y-211455000D03*
X154686000Y-213741000D03*
X159131000Y-218186000D03*
X182499000Y-233172000D03*
X277749000Y-247015000D03*
X281051000Y-241808000D03*
X180848000Y-176657000D03*
X202946000Y-199136000D03*
X232410000Y-213995000D03*
X236601000Y-218186000D03*
X243332000Y-220345000D03*
X136931400Y-164058600D03*
X132080000Y-167005000D03*
X136271000Y-161417000D03*
D22*
X282727400Y-237109000D02*
X282727400Y-236626400D01*
X282752800Y-241630200D02*
X282727400Y-237109000D01*
X279984200Y-244551200D02*
X282752800Y-241630200D01*
X282651200Y-236550200D02*
X281178000Y-236550200D01*
X282727400Y-236626400D02*
X282651200Y-236550200D01*
X281178000Y-236550200D02*
X281051000Y-236550200D01*
X281051000Y-236550200D02*
X280924000Y-236601000D01*
X280924000Y-236601000D02*
X280797000Y-236601000D01*
X280797000Y-236601000D02*
X280670000Y-236474000D01*
X280670000Y-236474000D02*
X278638000Y-236474000D01*
X278638000Y-236474000D02*
X278511000Y-236601000D01*
X278511000Y-236601000D02*
X278511000Y-236651800D01*
X116586000Y-185801000D02*
X115316000Y-184531000D01*
X115316000Y-184531000D02*
X115316000Y-177673000D01*
X115316000Y-177673000D02*
X115443000Y-177546000D01*
X115443000Y-177546000D02*
X115443000Y-177419000D01*
X115443000Y-177419000D02*
X116332000Y-176530000D01*
X116332000Y-176530000D02*
X116332000Y-166878000D01*
X116586000Y-224028000D02*
X115316000Y-222758000D01*
X115316000Y-222758000D02*
X115316000Y-215900000D01*
X115316000Y-215900000D02*
X115443000Y-215773000D01*
X115443000Y-215773000D02*
X115443000Y-215646000D01*
X115443000Y-215646000D02*
X116586000Y-214503000D01*
X116586000Y-214503000D02*
X116586000Y-204851000D01*
X116586000Y-204851000D02*
X116522500Y-204851000D01*
X116522500Y-204851000D02*
X116586000Y-204851000D01*
X116586000Y-204851000D02*
X117856000Y-203581000D01*
X117856000Y-203581000D02*
X117856000Y-196977000D01*
X117856000Y-196977000D02*
X117729000Y-196850000D01*
X117729000Y-196850000D02*
X117729000Y-196596000D01*
X117729000Y-196596000D02*
X117602000Y-196469000D01*
X117602000Y-196469000D02*
X117602000Y-196342000D01*
X117602000Y-196342000D02*
X116586000Y-195326000D01*
X116586000Y-195326000D02*
X116586000Y-185801000D01*
X116586000Y-224028000D02*
X117856000Y-225298000D01*
X117856000Y-225298000D02*
X117856000Y-235839000D01*
X117856000Y-235839000D02*
X117729000Y-235966000D01*
X117729000Y-235966000D02*
X117729000Y-236093000D01*
X117729000Y-236093000D02*
X116586000Y-237236000D01*
X116586000Y-237236000D02*
X116586000Y-242951000D01*
X273431000Y-246989600D02*
X274320000Y-246126000D01*
X274320000Y-246126000D02*
X274320000Y-245618000D01*
X274320000Y-245618000D02*
X274447000Y-245491000D01*
X274447000Y-245491000D02*
X274447000Y-243967000D01*
X274447000Y-243967000D02*
X274396200Y-243967000D01*
X127317500Y-204851000D02*
X127381000Y-204851000D01*
X127381000Y-204851000D02*
X122936000Y-209296000D01*
X122936000Y-209296000D02*
X122936000Y-216916000D01*
X122936000Y-216916000D02*
X122809000Y-217043000D01*
X122809000Y-217043000D02*
X122809000Y-217170000D01*
X122809000Y-217170000D02*
X121666000Y-218313000D01*
X121666000Y-218313000D02*
X121666000Y-224028000D01*
X120142000Y-166878000D02*
X123571000Y-170307000D01*
X123571000Y-170307000D02*
X123571000Y-178689000D01*
X123571000Y-178689000D02*
X123698000Y-178816000D01*
X123698000Y-178816000D02*
X123698000Y-178943000D01*
X123698000Y-178943000D02*
X124841000Y-180086000D01*
X124841000Y-180086000D02*
X124841000Y-185801000D01*
X124841000Y-185801000D02*
X125984000Y-186944000D01*
X125984000Y-186944000D02*
X125984000Y-197485000D01*
X125984000Y-197485000D02*
X126111000Y-197612000D01*
X126111000Y-197612000D02*
X126111000Y-197866000D01*
X126111000Y-197866000D02*
X126238000Y-197993000D01*
X126238000Y-197993000D02*
X126238000Y-198120000D01*
X126238000Y-198120000D02*
X127381000Y-199263000D01*
X127381000Y-199263000D02*
X127381000Y-204851000D01*
X127381000Y-204851000D02*
X127317500Y-204851000D01*
X121666000Y-224028000D02*
X121031000Y-224663000D01*
X121031000Y-224663000D02*
X121031000Y-235839000D01*
X121031000Y-235839000D02*
X121158000Y-235966000D01*
X121158000Y-235966000D02*
X121158000Y-236093000D01*
X121158000Y-236093000D02*
X122301000Y-237236000D01*
X122301000Y-237236000D02*
X122301000Y-242951000D01*
X267208000Y-238887000D02*
X268478000Y-238887000D01*
X268732000Y-238633000D02*
X268478000Y-238887000D01*
X268986000Y-238633000D02*
X268732000Y-238633000D01*
X267208000Y-238887000D02*
X267081000Y-239014000D01*
X267081000Y-239014000D02*
X267081000Y-239052100D01*
X296354500Y-223901000D02*
X296418000Y-223901000D01*
X296418000Y-223901000D02*
X310642000Y-238125000D01*
X310642000Y-238125000D02*
X310642000Y-242951000D01*
X310642000Y-242951000D02*
X310578500Y-242951000D01*
X301117000Y-185801000D02*
X294005000Y-178689000D01*
X294005000Y-178689000D02*
X294005000Y-175895000D01*
X294005000Y-175895000D02*
X293878000Y-175768000D01*
X293878000Y-175768000D02*
X293878000Y-175514000D01*
X293878000Y-175514000D02*
X293624000Y-175260000D01*
X293624000Y-175260000D02*
X293624000Y-175133000D01*
X293624000Y-175133000D02*
X291592000Y-173101000D01*
X291592000Y-173101000D02*
X291592000Y-166751000D01*
X296354500Y-223901000D02*
X296418000Y-223901000D01*
X296418000Y-223901000D02*
X297561000Y-222758000D01*
X297561000Y-222758000D02*
X297561000Y-219329000D01*
X297561000Y-219329000D02*
X297688000Y-219202000D01*
X297688000Y-219202000D02*
X297688000Y-218948000D01*
X297688000Y-218948000D02*
X297815000Y-218821000D01*
X297815000Y-218821000D02*
X297815000Y-218694000D01*
X297815000Y-218694000D02*
X298450000Y-218059000D01*
X298450000Y-218059000D02*
X298450000Y-216662000D01*
X298450000Y-216662000D02*
X298577000Y-216535000D01*
X298577000Y-216535000D02*
X298577000Y-216281000D01*
X298577000Y-216281000D02*
X298704000Y-216154000D01*
X298704000Y-216154000D02*
X298704000Y-216027000D01*
X298704000Y-216027000D02*
X305943000Y-208788000D01*
X305943000Y-208788000D02*
X305943000Y-204851000D01*
X305943000Y-204851000D02*
X305879500Y-204851000D01*
X305879500Y-204851000D02*
X305943000Y-204851000D01*
X305943000Y-204851000D02*
X301117000Y-200025000D01*
X301117000Y-200025000D02*
X301117000Y-185801000D01*
X267081000Y-238252000D02*
X265811000Y-238252000D01*
X272694400Y-237032800D02*
X271500600Y-239064800D01*
X265811000Y-238252000D02*
X265176000Y-238887000D01*
X315404500Y-223901000D02*
X315468000Y-223901000D01*
X315468000Y-223901000D02*
X329565000Y-237998000D01*
X329565000Y-237998000D02*
X329565000Y-242951000D01*
X324929500Y-204851000D02*
X324993000Y-204851000D01*
X324993000Y-204851000D02*
X316738000Y-213106000D01*
X316738000Y-213106000D02*
X316738000Y-216535000D01*
X316738000Y-216535000D02*
X316611000Y-216662000D01*
X316611000Y-216662000D02*
X316611000Y-216916000D01*
X316611000Y-216916000D02*
X316484000Y-217043000D01*
X316484000Y-217043000D02*
X316484000Y-217170000D01*
X316484000Y-217170000D02*
X315468000Y-218186000D01*
X315468000Y-218186000D02*
X315468000Y-223901000D01*
X315468000Y-223901000D02*
X315404500Y-223901000D01*
X320167000Y-185801000D02*
X313055000Y-178689000D01*
X313055000Y-178689000D02*
X313055000Y-175895000D01*
X313055000Y-175895000D02*
X312928000Y-175768000D01*
X312928000Y-175768000D02*
X312928000Y-175514000D01*
X312928000Y-175514000D02*
X312674000Y-175260000D01*
X312674000Y-175260000D02*
X312674000Y-175133000D01*
X312674000Y-175133000D02*
X310642000Y-173101000D01*
X310642000Y-173101000D02*
X310642000Y-166751000D01*
X324929500Y-204851000D02*
X324993000Y-204851000D01*
X324993000Y-204851000D02*
X320167000Y-200025000D01*
X320167000Y-200025000D02*
X320167000Y-185801000D01*
X267208000Y-224536000D02*
X264287000Y-227457000D01*
X260604000Y-227838000D02*
X263220200Y-230835200D01*
X263220200Y-230835200D02*
X263067800Y-234543600D01*
X263067800Y-234543600D02*
X263194800Y-234670600D01*
X263194800Y-234670600D02*
X263194800Y-235356400D01*
X263194800Y-235356400D02*
X263194800Y-235839000D01*
X263194800Y-235839000D02*
X263194800Y-235966000D01*
X263194800Y-235966000D02*
X263194800Y-237159800D01*
X263194800Y-237159800D02*
X263194800Y-237286800D01*
X263194800Y-237286800D02*
X266954000Y-237363000D01*
X266954000Y-237363000D02*
X267081000Y-237490000D01*
X267081000Y-237490000D02*
X267081000Y-237451900D01*
X334264000Y-223901000D02*
X348615000Y-238252000D01*
X348615000Y-238252000D02*
X348615000Y-242951000D01*
X348615000Y-242951000D02*
X348551500Y-242951000D01*
X343916000Y-204851000D02*
X335534000Y-213233000D01*
X335534000Y-213233000D02*
X335534000Y-216789000D01*
X335534000Y-216789000D02*
X335407000Y-216916000D01*
X335407000Y-216916000D02*
X335407000Y-217043000D01*
X335407000Y-217043000D02*
X334264000Y-218186000D01*
X334264000Y-218186000D02*
X334264000Y-223901000D01*
X339217000Y-185801000D02*
X332105000Y-178689000D01*
X332105000Y-178689000D02*
X332105000Y-175895000D01*
X332105000Y-175895000D02*
X331978000Y-175768000D01*
X331978000Y-175768000D02*
X331978000Y-175514000D01*
X331978000Y-175514000D02*
X331724000Y-175260000D01*
X331724000Y-175260000D02*
X331724000Y-175133000D01*
X331724000Y-175133000D02*
X329692000Y-173101000D01*
X329692000Y-173101000D02*
X329692000Y-166751000D01*
X339217000Y-185801000D02*
X342646000Y-189230000D01*
X342646000Y-189230000D02*
X342646000Y-197739000D01*
X342646000Y-197739000D02*
X342773000Y-197866000D01*
X342773000Y-197866000D02*
X342773000Y-197993000D01*
X342773000Y-197993000D02*
X343916000Y-199136000D01*
X343916000Y-199136000D02*
X343916000Y-204851000D01*
X267081000Y-236651800D02*
X267081000Y-236601000D01*
X267081000Y-236601000D02*
X266954000Y-236474000D01*
X266954000Y-236474000D02*
X265684000Y-236474000D01*
X265684000Y-236474000D02*
X265557000Y-236347000D01*
X265557000Y-236347000D02*
X265049000Y-236347000D01*
X265049000Y-236347000D02*
X264795000Y-236093000D01*
X264795000Y-236093000D02*
X264668000Y-236093000D01*
X264668000Y-236093000D02*
X264541000Y-235966000D01*
X264541000Y-235966000D02*
X264414000Y-235966000D01*
X264414000Y-235966000D02*
X264160000Y-235712000D01*
X264160000Y-235712000D02*
X264160000Y-234950000D01*
X264160000Y-234950000D02*
X264287000Y-234823000D01*
X264287000Y-234823000D02*
X264287000Y-232029000D01*
X262001000Y-231775000D02*
X259207000Y-228981000D01*
X259207000Y-228981000D02*
X259207000Y-227838000D01*
X270764000Y-227457000D02*
X271145000Y-227076000D01*
X271145000Y-227076000D02*
X271145000Y-223901000D01*
X275463000Y-221818200D02*
X275463000Y-224790000D01*
X288544000Y-225679000D02*
X288798000Y-225933000D01*
X288798000Y-225933000D02*
X296037000Y-225933000D01*
X357886000Y-185801000D02*
X353314000Y-181229000D01*
X353314000Y-181229000D02*
X353314000Y-181102000D01*
X353314000Y-181102000D02*
X353187000Y-180975000D01*
X353187000Y-180975000D02*
X353187000Y-180721000D01*
X353187000Y-180721000D02*
X351155000Y-178689000D01*
X351155000Y-178689000D02*
X351155000Y-175895000D01*
X351155000Y-175895000D02*
X351028000Y-175768000D01*
X351028000Y-175768000D02*
X351028000Y-175514000D01*
X351028000Y-175514000D02*
X350774000Y-175260000D01*
X350774000Y-175260000D02*
X350774000Y-175133000D01*
X350774000Y-175133000D02*
X348488000Y-172847000D01*
X348488000Y-172847000D02*
X348488000Y-166751000D01*
X360426000Y-223774000D02*
X358013000Y-221361000D01*
X358013000Y-221361000D02*
X358013000Y-200025000D01*
X358013000Y-200025000D02*
X357886000Y-199898000D01*
X357886000Y-199898000D02*
X357886000Y-185801000D01*
X360426000Y-223774000D02*
X366268000Y-229616000D01*
X366268000Y-229616000D02*
X366268000Y-235839000D01*
X366268000Y-235839000D02*
X366395000Y-235966000D01*
X366395000Y-235966000D02*
X366395000Y-236093000D01*
X366395000Y-236093000D02*
X367538000Y-237236000D01*
X367538000Y-237236000D02*
X367538000Y-242951000D01*
X273558000Y-243967000D02*
X273558000Y-245237000D01*
X271932400Y-246862600D02*
X273558000Y-245237000D01*
X268681200Y-246862600D02*
X271932400Y-246862600D01*
X268274800Y-246456200D02*
X268681200Y-246862600D01*
X273558000Y-243967000D02*
X273596100Y-243967000D01*
X146113500Y-242951000D02*
X146177000Y-242951000D01*
X146177000Y-242951000D02*
X147574000Y-241554000D01*
X147574000Y-241554000D02*
X147574000Y-238252000D01*
X147574000Y-238252000D02*
X147701000Y-238125000D01*
X147701000Y-238125000D02*
X147701000Y-237871000D01*
X147701000Y-237871000D02*
X148463000Y-237109000D01*
X148463000Y-237109000D02*
X148463000Y-235585000D01*
X148463000Y-235585000D02*
X148590000Y-235458000D01*
X148590000Y-235458000D02*
X148590000Y-235204000D01*
X148590000Y-235204000D02*
X148844000Y-234950000D01*
X148844000Y-234950000D02*
X148844000Y-234823000D01*
X148844000Y-234823000D02*
X153543000Y-230124000D01*
X153543000Y-230124000D02*
X153543000Y-204851000D01*
X153543000Y-204851000D02*
X153479500Y-204851000D01*
X148717000Y-185801000D02*
X149987000Y-184531000D01*
X149987000Y-184531000D02*
X149987000Y-180975000D01*
X149987000Y-180975000D02*
X150114000Y-180848000D01*
X150114000Y-180848000D02*
X150114000Y-180721000D01*
X150114000Y-180721000D02*
X150876000Y-179959000D01*
X150876000Y-179959000D02*
X150876000Y-178308000D01*
X150876000Y-178308000D02*
X151003000Y-178181000D01*
X151003000Y-178181000D02*
X151003000Y-178054000D01*
X151003000Y-178054000D02*
X151130000Y-177927000D01*
X151130000Y-177927000D02*
X151130000Y-177800000D01*
X151130000Y-177800000D02*
X153543000Y-175387000D01*
X153543000Y-175387000D02*
X153543000Y-171450000D01*
X153543000Y-171450000D02*
X153670000Y-171323000D01*
X153670000Y-171323000D02*
X153670000Y-171196000D01*
X153670000Y-171196000D02*
X153797000Y-171069000D01*
X153797000Y-171069000D02*
X153797000Y-170942000D01*
X153797000Y-170942000D02*
X154686000Y-170053000D01*
X154686000Y-170053000D02*
X154686000Y-166776400D01*
X153479500Y-204851000D02*
X153543000Y-204851000D01*
X153543000Y-204851000D02*
X148717000Y-200025000D01*
X148717000Y-200025000D02*
X148717000Y-185801000D01*
X276860000Y-241935000D02*
X277164800Y-241935000D01*
X241300000Y-245491000D02*
X237871000Y-242062000D01*
X275971000Y-241427000D02*
X274548600Y-240182400D01*
X276479000Y-241935000D02*
X275971000Y-241427000D01*
X276860000Y-241935000D02*
X276479000Y-241935000D01*
X277482300Y-242252500D02*
X278511000Y-242252500D01*
X277164800Y-241935000D02*
X277482300Y-242252500D01*
X278511000Y-242252500D02*
X278511000Y-242316000D01*
X163004500Y-223901000D02*
X163068000Y-223901000D01*
X163068000Y-223901000D02*
X164211000Y-222758000D01*
X164211000Y-222758000D02*
X164211000Y-219329000D01*
X164211000Y-219329000D02*
X164338000Y-219202000D01*
X164338000Y-219202000D02*
X164338000Y-218948000D01*
X164338000Y-218948000D02*
X164465000Y-218821000D01*
X164465000Y-218821000D02*
X164465000Y-218694000D01*
X164465000Y-218694000D02*
X165100000Y-218059000D01*
X165100000Y-218059000D02*
X165100000Y-216662000D01*
X165100000Y-216662000D02*
X165227000Y-216535000D01*
X165227000Y-216535000D02*
X165227000Y-216281000D01*
X165227000Y-216281000D02*
X165354000Y-216154000D01*
X165354000Y-216154000D02*
X165354000Y-216027000D01*
X165354000Y-216027000D02*
X172593000Y-208788000D01*
X172593000Y-208788000D02*
X172593000Y-204851000D01*
X172593000Y-204851000D02*
X172529500Y-204851000D01*
X167767000Y-185801000D02*
X160655000Y-178689000D01*
X160655000Y-178689000D02*
X160655000Y-175895000D01*
X160655000Y-175895000D02*
X160528000Y-175768000D01*
X160528000Y-175768000D02*
X160528000Y-175514000D01*
X160528000Y-175514000D02*
X160274000Y-175260000D01*
X160274000Y-175260000D02*
X160274000Y-175133000D01*
X160274000Y-175133000D02*
X158242000Y-173101000D01*
X158242000Y-173101000D02*
X158242000Y-166751000D01*
X169926000Y-242951000D02*
X163068000Y-236093000D01*
X163068000Y-236093000D02*
X163068000Y-223901000D01*
X163068000Y-223901000D02*
X163004500Y-223901000D01*
X172529500Y-204851000D02*
X172593000Y-204851000D01*
X172593000Y-204851000D02*
X167767000Y-200025000D01*
X167767000Y-200025000D02*
X167767000Y-185801000D01*
X182054500Y-223901000D02*
X182118000Y-223901000D01*
X182118000Y-223901000D02*
X205232000Y-247015000D01*
X205232000Y-247015000D02*
X221615000Y-247015000D01*
X221615000Y-247015000D02*
X221742000Y-246888000D01*
X221742000Y-246888000D02*
X221869000Y-246888000D01*
X221869000Y-246888000D02*
X222250000Y-246507000D01*
X222250000Y-246507000D02*
X241554000Y-246507000D01*
X241554000Y-246507000D02*
X241681000Y-246380000D01*
X241681000Y-246380000D02*
X241808000Y-246380000D01*
X241808000Y-246380000D02*
X241935000Y-246253000D01*
X241935000Y-246253000D02*
X242062000Y-246253000D01*
X242062000Y-246253000D02*
X245872000Y-242443000D01*
X263652000Y-241681000D02*
X263779000Y-241554000D01*
X263779000Y-241554000D02*
X264414000Y-241554000D01*
X264414000Y-241554000D02*
X264541000Y-241427000D01*
X264541000Y-241427000D02*
X267081000Y-241427000D01*
X267081000Y-241427000D02*
X267081000Y-241452400D01*
X182054500Y-223901000D02*
X182118000Y-223901000D01*
X182118000Y-223901000D02*
X183261000Y-222758000D01*
X183261000Y-222758000D02*
X183261000Y-219329000D01*
X183261000Y-219329000D02*
X183388000Y-219202000D01*
X183388000Y-219202000D02*
X183388000Y-218948000D01*
X183388000Y-218948000D02*
X183515000Y-218821000D01*
X183515000Y-218821000D02*
X183515000Y-218694000D01*
X183515000Y-218694000D02*
X184150000Y-218059000D01*
X184150000Y-218059000D02*
X184150000Y-216662000D01*
X184150000Y-216662000D02*
X184277000Y-216535000D01*
X184277000Y-216535000D02*
X184277000Y-216281000D01*
X184277000Y-216281000D02*
X184404000Y-216154000D01*
X184404000Y-216154000D02*
X184404000Y-216027000D01*
X184404000Y-216027000D02*
X191643000Y-208788000D01*
X191643000Y-208788000D02*
X191643000Y-204851000D01*
X191643000Y-204851000D02*
X191579500Y-204851000D01*
X186817000Y-185801000D02*
X179705000Y-178689000D01*
X179705000Y-178689000D02*
X179705000Y-175895000D01*
X179705000Y-175895000D02*
X179578000Y-175768000D01*
X179578000Y-175768000D02*
X179578000Y-175514000D01*
X179578000Y-175514000D02*
X179324000Y-175260000D01*
X179324000Y-175260000D02*
X179324000Y-175133000D01*
X179324000Y-175133000D02*
X177292000Y-173101000D01*
X177292000Y-173101000D02*
X177292000Y-166751000D01*
X191579500Y-204851000D02*
X191643000Y-204851000D01*
X191643000Y-204851000D02*
X186817000Y-200025000D01*
X186817000Y-200025000D02*
X186817000Y-185801000D01*
X265684000Y-240792000D02*
X264109200Y-240792000D01*
X245364000Y-224536000D02*
X258064000Y-237236000D01*
X265684000Y-240792000D02*
X266954000Y-240792000D01*
X264109200Y-240792000D02*
X262890000Y-239572800D01*
X266954000Y-240792000D02*
X267081000Y-240665000D01*
X267081000Y-240665000D02*
X267081000Y-240652300D01*
X196342000Y-166751000D02*
X204597000Y-175006000D01*
X204597000Y-175006000D02*
X204597000Y-178689000D01*
X204597000Y-178689000D02*
X204724000Y-178816000D01*
X204724000Y-178816000D02*
X204724000Y-178943000D01*
X204724000Y-178943000D02*
X205867000Y-180086000D01*
X205867000Y-180086000D02*
X205867000Y-185801000D01*
X210629500Y-204851000D02*
X210693000Y-204851000D01*
X210693000Y-204851000D02*
X202438000Y-213106000D01*
X202438000Y-213106000D02*
X202438000Y-216535000D01*
X202438000Y-216535000D02*
X202311000Y-216662000D01*
X202311000Y-216662000D02*
X202311000Y-216916000D01*
X202311000Y-216916000D02*
X202184000Y-217043000D01*
X202184000Y-217043000D02*
X202184000Y-217170000D01*
X202184000Y-217170000D02*
X201168000Y-218186000D01*
X201168000Y-218186000D02*
X201168000Y-223901000D01*
X201168000Y-223901000D02*
X201104500Y-223901000D01*
X205867000Y-185801000D02*
X209296000Y-189230000D01*
X209296000Y-189230000D02*
X209296000Y-197485000D01*
X209296000Y-197485000D02*
X209423000Y-197612000D01*
X209423000Y-197612000D02*
X209423000Y-197866000D01*
X209423000Y-197866000D02*
X209550000Y-197993000D01*
X209550000Y-197993000D02*
X209550000Y-198120000D01*
X209550000Y-198120000D02*
X210693000Y-199263000D01*
X210693000Y-199263000D02*
X210693000Y-204851000D01*
X210693000Y-204851000D02*
X210629500Y-204851000D01*
X253238000Y-228473000D02*
X264414000Y-239649000D01*
X264414000Y-239649000D02*
X264541000Y-239649000D01*
X264541000Y-239649000D02*
X264668000Y-239776000D01*
X264668000Y-239776000D02*
X264795000Y-239776000D01*
X264795000Y-239776000D02*
X264922000Y-239903000D01*
X264922000Y-239903000D02*
X267081000Y-239903000D01*
X267081000Y-239903000D02*
X267081000Y-239852200D01*
X220154500Y-223901000D02*
X220218000Y-223901000D01*
X220218000Y-223901000D02*
X221361000Y-222758000D01*
X221361000Y-222758000D02*
X221361000Y-219329000D01*
X221361000Y-219329000D02*
X221488000Y-219202000D01*
X221488000Y-219202000D02*
X221488000Y-218948000D01*
X221488000Y-218948000D02*
X221615000Y-218821000D01*
X221615000Y-218821000D02*
X221615000Y-218694000D01*
X221615000Y-218694000D02*
X222250000Y-218059000D01*
X222250000Y-218059000D02*
X222250000Y-216662000D01*
X222250000Y-216662000D02*
X222377000Y-216535000D01*
X222377000Y-216535000D02*
X222377000Y-216281000D01*
X222377000Y-216281000D02*
X222504000Y-216154000D01*
X222504000Y-216154000D02*
X222504000Y-216027000D01*
X222504000Y-216027000D02*
X229743000Y-208788000D01*
X229743000Y-208788000D02*
X229743000Y-204851000D01*
X229743000Y-204851000D02*
X229679500Y-204851000D01*
X224917000Y-185801000D02*
X217805000Y-178689000D01*
X217805000Y-178689000D02*
X217805000Y-175895000D01*
X217805000Y-175895000D02*
X217678000Y-175768000D01*
X217678000Y-175768000D02*
X217678000Y-175514000D01*
X217678000Y-175514000D02*
X217424000Y-175260000D01*
X217424000Y-175260000D02*
X217424000Y-175133000D01*
X217424000Y-175133000D02*
X215392000Y-173101000D01*
X215392000Y-173101000D02*
X215392000Y-166751000D01*
X229679500Y-204851000D02*
X229743000Y-204851000D01*
X229743000Y-204851000D02*
X224917000Y-200025000D01*
X224917000Y-200025000D02*
X224917000Y-185801000D01*
X243967000Y-185801000D02*
X236855000Y-178689000D01*
X236855000Y-178689000D02*
X236855000Y-175895000D01*
X236855000Y-175895000D02*
X236728000Y-175768000D01*
X236728000Y-175768000D02*
X236728000Y-175514000D01*
X236728000Y-175514000D02*
X236474000Y-175260000D01*
X236474000Y-175260000D02*
X236474000Y-175133000D01*
X236474000Y-175133000D02*
X234442000Y-173101000D01*
X234442000Y-173101000D02*
X234442000Y-166751000D01*
X239204500Y-223901000D02*
X239268000Y-223901000D01*
X239268000Y-223901000D02*
X240411000Y-222758000D01*
X240411000Y-222758000D02*
X240411000Y-219329000D01*
X240411000Y-219329000D02*
X240538000Y-219202000D01*
X240538000Y-219202000D02*
X240538000Y-218948000D01*
X240538000Y-218948000D02*
X240665000Y-218821000D01*
X240665000Y-218821000D02*
X240665000Y-218694000D01*
X240665000Y-218694000D02*
X241300000Y-218059000D01*
X241300000Y-218059000D02*
X241300000Y-216662000D01*
X241300000Y-216662000D02*
X241427000Y-216535000D01*
X241427000Y-216535000D02*
X241427000Y-216281000D01*
X241427000Y-216281000D02*
X241554000Y-216154000D01*
X241554000Y-216154000D02*
X241554000Y-216027000D01*
X241554000Y-216027000D02*
X248793000Y-208788000D01*
X248793000Y-208788000D02*
X248793000Y-204851000D01*
X248793000Y-204851000D02*
X248729500Y-204851000D01*
X248729500Y-204851000D02*
X248793000Y-204851000D01*
X248793000Y-204851000D02*
X243967000Y-200025000D01*
X243967000Y-200025000D02*
X243967000Y-185801000D01*
X265176000Y-235204000D02*
X265684000Y-235712000D01*
X265684000Y-235712000D02*
X266954000Y-235712000D01*
X266954000Y-235712000D02*
X267081000Y-235839000D01*
X267081000Y-235839000D02*
X267081000Y-235851700D01*
X239204500Y-223901000D02*
X239268000Y-223901000D01*
X239268000Y-223901000D02*
X240030000Y-224663000D01*
X240030000Y-224663000D02*
X240030000Y-234696000D01*
X233680000Y-221488000D02*
X209550000Y-245618000D01*
X209550000Y-245618000D02*
X209575400Y-245643400D01*
X258254500Y-223901000D02*
X258318000Y-223901000D01*
X258318000Y-223901000D02*
X266192000Y-231775000D01*
X276606000Y-235204000D02*
X277114000Y-235712000D01*
X277114000Y-235712000D02*
X278384000Y-235712000D01*
X278384000Y-235712000D02*
X278511000Y-235839000D01*
X278511000Y-235839000D02*
X278511000Y-235851700D01*
X253492000Y-166751000D02*
X261747000Y-175006000D01*
X261747000Y-175006000D02*
X261747000Y-178689000D01*
X261747000Y-178689000D02*
X261874000Y-178816000D01*
X261874000Y-178816000D02*
X261874000Y-178943000D01*
X261874000Y-178943000D02*
X263017000Y-180086000D01*
X263017000Y-180086000D02*
X263017000Y-185801000D01*
X267779500Y-204851000D02*
X267843000Y-204851000D01*
X267843000Y-204851000D02*
X259588000Y-213106000D01*
X259588000Y-213106000D02*
X259588000Y-216535000D01*
X259588000Y-216535000D02*
X259461000Y-216662000D01*
X259461000Y-216662000D02*
X259461000Y-216916000D01*
X259461000Y-216916000D02*
X259334000Y-217043000D01*
X259334000Y-217043000D02*
X259334000Y-217170000D01*
X259334000Y-217170000D02*
X258318000Y-218186000D01*
X258318000Y-218186000D02*
X258318000Y-223901000D01*
X258318000Y-223901000D02*
X258254500Y-223901000D01*
X263017000Y-185801000D02*
X266446000Y-189230000D01*
X266446000Y-189230000D02*
X266446000Y-197485000D01*
X266446000Y-197485000D02*
X266573000Y-197612000D01*
X266573000Y-197612000D02*
X266573000Y-197866000D01*
X266573000Y-197866000D02*
X266700000Y-197993000D01*
X266700000Y-197993000D02*
X266700000Y-198120000D01*
X266700000Y-198120000D02*
X267843000Y-199263000D01*
X267843000Y-199263000D02*
X267843000Y-204851000D01*
X267843000Y-204851000D02*
X267779500Y-204851000D01*
X282067000Y-185801000D02*
X274955000Y-178689000D01*
X274955000Y-178689000D02*
X274955000Y-175895000D01*
X274955000Y-175895000D02*
X274828000Y-175768000D01*
X274828000Y-175768000D02*
X274828000Y-175514000D01*
X274828000Y-175514000D02*
X274574000Y-175260000D01*
X274574000Y-175260000D02*
X274574000Y-175133000D01*
X274574000Y-175133000D02*
X272542000Y-173101000D01*
X272542000Y-173101000D02*
X272542000Y-166751000D01*
X286829500Y-204851000D02*
X286893000Y-204851000D01*
X286893000Y-204851000D02*
X278638000Y-213106000D01*
X278638000Y-213106000D02*
X278638000Y-216535000D01*
X278638000Y-216535000D02*
X278511000Y-216662000D01*
X278511000Y-216662000D02*
X278511000Y-216916000D01*
X278511000Y-216916000D02*
X278384000Y-217043000D01*
X278384000Y-217043000D02*
X278384000Y-217170000D01*
X278384000Y-217170000D02*
X277368000Y-218186000D01*
X277368000Y-218186000D02*
X277368000Y-223901000D01*
X277368000Y-223901000D02*
X277304500Y-223901000D01*
X282067000Y-185801000D02*
X285496000Y-189230000D01*
X285496000Y-189230000D02*
X285496000Y-197485000D01*
X285496000Y-197485000D02*
X285623000Y-197612000D01*
X285623000Y-197612000D02*
X285623000Y-197866000D01*
X285623000Y-197866000D02*
X285750000Y-197993000D01*
X285750000Y-197993000D02*
X285750000Y-198120000D01*
X285750000Y-198120000D02*
X286893000Y-199263000D01*
X286893000Y-199263000D02*
X286893000Y-204851000D01*
X286893000Y-204851000D02*
X286829500Y-204851000D01*
X277304500Y-223901000D02*
X277368000Y-223901000D01*
X277368000Y-223901000D02*
X276860000Y-224409000D01*
X276860000Y-224409000D02*
X276860000Y-232537000D01*
X276860000Y-232537000D02*
X276796500Y-232537000D01*
X314502800Y-236067600D02*
X314452000Y-236093000D01*
X314452000Y-236093000D02*
X310388000Y-232029000D01*
X298323000Y-227457000D02*
X288544000Y-227457000D01*
X275717000Y-226822000D02*
X273558000Y-228981000D01*
X273558000Y-228981000D02*
X273431000Y-228981000D01*
X273431000Y-228981000D02*
X273050000Y-229362000D01*
X273050000Y-229362000D02*
X272542000Y-229362000D01*
X272542000Y-229362000D02*
X272034000Y-229870000D01*
X272034000Y-229870000D02*
X272034000Y-232537000D01*
X272034000Y-232537000D02*
X271995900Y-232537000D01*
X314502800Y-236067600D02*
X314452000Y-236093000D01*
X272034000Y-232537000D02*
X271995900Y-232537000D01*
X271995900Y-232537000D02*
X272034000Y-232537000D01*
X272034000Y-232537000D02*
X271907000Y-232664000D01*
X271907000Y-232664000D02*
X271907000Y-233934000D01*
X271907000Y-233934000D02*
X270002000Y-235839000D01*
X270002000Y-235839000D02*
X270002000Y-236093000D01*
X270002000Y-236093000D02*
X269875000Y-236220000D01*
X269875000Y-236220000D02*
X269875000Y-236347000D01*
X269875000Y-236347000D02*
X269748000Y-236474000D01*
X269748000Y-236474000D02*
X269748000Y-236601000D01*
X269748000Y-236601000D02*
X269113000Y-237236000D01*
X262102600Y-217017600D02*
X262128000Y-217043000D01*
X262128000Y-217043000D02*
X266192000Y-217043000D01*
X266192000Y-217043000D02*
X266319000Y-217170000D01*
X266319000Y-217170000D02*
X266827000Y-217170000D01*
X266827000Y-217170000D02*
X266954000Y-217297000D01*
X266954000Y-217297000D02*
X267081000Y-217297000D01*
X267081000Y-217297000D02*
X267208000Y-217424000D01*
X267208000Y-217424000D02*
X267335000Y-217424000D01*
X267335000Y-217424000D02*
X268097000Y-218186000D01*
X268097000Y-218186000D02*
X268478000Y-218186000D01*
X273812000Y-220345000D02*
X273050000Y-221107000D01*
X273050000Y-221107000D02*
X273050000Y-227965000D01*
X273050000Y-227965000D02*
X272288000Y-228727000D01*
X272288000Y-228727000D02*
X271907000Y-228727000D01*
X271907000Y-228727000D02*
X271145000Y-229489000D01*
X271145000Y-229489000D02*
X271145000Y-232537000D01*
X271145000Y-232537000D02*
X271195800Y-232537000D01*
X271653000Y-218313000D02*
X271754600Y-218313000D01*
X270510000Y-232410000D02*
X270510000Y-231165400D01*
X271653000Y-218313000D02*
X271653000Y-197993000D01*
X270510000Y-229031800D02*
X270510000Y-231165400D01*
X272313400Y-227228400D02*
X270510000Y-229031800D01*
X272313400Y-218871800D02*
X272313400Y-227228400D01*
X271754600Y-218313000D02*
X272313400Y-218871800D01*
X270395700Y-232537000D02*
X270383000Y-232537000D01*
X270383000Y-232537000D02*
X270510000Y-232410000D01*
X271653000Y-197993000D02*
X271627600Y-197967600D01*
X266877800Y-178917600D02*
X266827000Y-178943000D01*
X266827000Y-178943000D02*
X268224000Y-180340000D01*
X268224000Y-180340000D02*
X268224000Y-181991000D01*
X268224000Y-181991000D02*
X268351000Y-182118000D01*
X268351000Y-182118000D02*
X268351000Y-182499000D01*
X268351000Y-182499000D02*
X268478000Y-182626000D01*
X268478000Y-182626000D02*
X268478000Y-182753000D01*
X268478000Y-182753000D02*
X268859000Y-183134000D01*
X268859000Y-183134000D02*
X268859000Y-183261000D01*
X268859000Y-183261000D02*
X269113000Y-183515000D01*
X269113000Y-183515000D02*
X269113000Y-197485000D01*
X269113000Y-197485000D02*
X268986000Y-197612000D01*
X268986000Y-197612000D02*
X268986000Y-200787000D01*
X268986000Y-200787000D02*
X269113000Y-200914000D01*
X269113000Y-200914000D02*
X269113000Y-201168000D01*
X269113000Y-201168000D02*
X270129000Y-202184000D01*
X270129000Y-202184000D02*
X270129000Y-215138000D01*
X270129000Y-215138000D02*
X270002000Y-215265000D01*
X270002000Y-215265000D02*
X270002000Y-215392000D01*
X270002000Y-215392000D02*
X269748000Y-215646000D01*
X269748000Y-215646000D02*
X269748000Y-215773000D01*
X269748000Y-215773000D02*
X269621000Y-215900000D01*
X269621000Y-215900000D02*
X269621000Y-232537000D01*
X269621000Y-232537000D02*
X269595600Y-232537000D01*
X276402800Y-159867600D02*
X276352000Y-159893000D01*
X276352000Y-159893000D02*
X276479000Y-160020000D01*
X276479000Y-160020000D02*
X276479000Y-162814000D01*
X276479000Y-162814000D02*
X276352000Y-162941000D01*
X276352000Y-162941000D02*
X276352000Y-163068000D01*
X276352000Y-163068000D02*
X276225000Y-163195000D01*
X276225000Y-163195000D02*
X276225000Y-163322000D01*
X276225000Y-163322000D02*
X274320000Y-165227000D01*
X274320000Y-165227000D02*
X274320000Y-167513000D01*
X271399000Y-170434000D02*
X271526000Y-170561000D01*
X271526000Y-170561000D02*
X271526000Y-176911000D01*
X271526000Y-176911000D02*
X271653000Y-177038000D01*
X271653000Y-177038000D02*
X271653000Y-177292000D01*
X271653000Y-177292000D02*
X273304000Y-178943000D01*
X273304000Y-178943000D02*
X273304000Y-198628000D01*
X273304000Y-198628000D02*
X273177000Y-198755000D01*
X273177000Y-198755000D02*
X273177000Y-198882000D01*
X273177000Y-198882000D02*
X272923000Y-199136000D01*
X272923000Y-199136000D02*
X272923000Y-200787000D01*
X272923000Y-200787000D02*
X273050000Y-200914000D01*
X273050000Y-200914000D02*
X273050000Y-201422000D01*
X273050000Y-201422000D02*
X273177000Y-201549000D01*
X273177000Y-201549000D02*
X273177000Y-201676000D01*
X273177000Y-201676000D02*
X273304000Y-201803000D01*
X273304000Y-201803000D02*
X273304000Y-201930000D01*
X273304000Y-201930000D02*
X273812000Y-202438000D01*
X273812000Y-202438000D02*
X273812000Y-218694000D01*
X268478000Y-224028000D02*
X268859000Y-224409000D01*
X268859000Y-224409000D02*
X268859000Y-232537000D01*
X268859000Y-232537000D02*
X268795500Y-232537000D01*
X281889200Y-244170200D02*
X281914595Y-245706905D01*
X281914595Y-245706905D02*
X281825700Y-245795800D01*
X289636200Y-243814600D02*
X289636200Y-241871500D01*
X289636200Y-241871500D02*
X289661600Y-241846100D01*
X293090600Y-243814600D02*
X293090600Y-241846100D01*
X293090600Y-241846100D02*
X293141400Y-241795300D01*
X296418000Y-243814600D02*
X296418000Y-241846100D01*
X296418000Y-241846100D02*
X296494200Y-241769900D01*
X299872400Y-243814600D02*
X299872400Y-241795300D01*
X299872400Y-241795300D02*
X299923200Y-241744500D01*
X283616400Y-242595400D02*
X286867600Y-242595400D01*
X301231300Y-243814600D02*
X303326800Y-241719100D01*
X288086800Y-243814600D02*
X289636200Y-243814600D01*
X289636200Y-243814600D02*
X293090600Y-243814600D01*
X293090600Y-243814600D02*
X296418000Y-243814600D01*
X296418000Y-243814600D02*
X299872400Y-243814600D01*
X299872400Y-243814600D02*
X301231300Y-243814600D01*
X286867600Y-242595400D02*
X288086800Y-243814600D01*
X278511000Y-239052100D02*
X280314400Y-239039400D01*
X280314400Y-239039400D02*
X281787600Y-240182400D01*
X278536400Y-245922800D02*
X281698700Y-245922800D01*
X281698700Y-245922800D02*
X281825700Y-245795800D01*
X296468800Y-241795300D02*
X296519600Y-241744500D01*
X275336000Y-245872000D02*
X278536400Y-245922800D01*
X281863805Y-244169827D02*
X281889200Y-244170200D01*
X281889200Y-244170200D02*
X283616400Y-242595400D01*
X274396200Y-232537000D02*
X274396200Y-231216200D01*
X283692600Y-232841800D02*
X283616400Y-242595400D01*
X282194000Y-232867200D02*
X283692600Y-232841800D01*
X281990800Y-232664000D02*
X282194000Y-232867200D01*
X274396200Y-231216200D02*
X274980400Y-230632000D01*
X175260000Y-213995000D02*
X179451000Y-218186000D01*
X228219000Y-229870000D02*
X229362000Y-231013000D01*
X229362000Y-231013000D02*
X229362000Y-231775000D01*
X229362000Y-231775000D02*
X229235000Y-231902000D01*
X229235000Y-231902000D02*
X229235000Y-232029000D01*
X229235000Y-232029000D02*
X229108000Y-232156000D01*
X229108000Y-232156000D02*
X229108000Y-232283000D01*
X229108000Y-232283000D02*
X227711000Y-233680000D01*
X227711000Y-233680000D02*
X227711000Y-234188000D01*
X227711000Y-234188000D02*
X227584000Y-234188000D01*
X227584000Y-234188000D02*
X226568000Y-235204000D01*
X226568000Y-235204000D02*
X226568000Y-235140500D01*
X147167600Y-171907200D02*
X147193000Y-171958000D01*
X147193000Y-171958000D02*
X146050000Y-170815000D01*
X146050000Y-170815000D02*
X146050000Y-167005000D01*
X146050000Y-167005000D02*
X145923000Y-166878000D01*
X145923000Y-166878000D02*
X145923000Y-166624000D01*
X145923000Y-166624000D02*
X145669000Y-166370000D01*
X145669000Y-166370000D02*
X145669000Y-166243000D01*
X145669000Y-166243000D02*
X143256000Y-163830000D01*
X147167600Y-171907200D02*
X147193000Y-171958000D01*
X147193000Y-171958000D02*
X147447000Y-172212000D01*
X147447000Y-172212000D02*
X147447000Y-187071000D01*
X147447000Y-187071000D02*
X147574000Y-187198000D01*
X147574000Y-187198000D02*
X147574000Y-204851000D01*
X231648000Y-235140500D02*
X231648000Y-235204000D01*
X231648000Y-235204000D02*
X230632000Y-234188000D01*
X230632000Y-234188000D02*
X230505000Y-234188000D01*
X230505000Y-234188000D02*
X230505000Y-232283000D01*
X230505000Y-232283000D02*
X231267000Y-231521000D01*
X265938000Y-233172000D02*
X267081000Y-234315000D01*
X267081000Y-234315000D02*
X267081000Y-234251500D01*
X226568000Y-235140500D02*
X226568000Y-236855000D01*
X222885000Y-240538000D02*
X221107000Y-242316000D01*
X221107000Y-242316000D02*
X221107000Y-245618000D01*
X221107000Y-245618000D02*
X221056200Y-245668800D01*
X267081000Y-234251500D02*
X267081000Y-234315000D01*
X267081000Y-234315000D02*
X268859000Y-234315000D01*
X268859000Y-234315000D02*
X268986000Y-234442000D01*
X273812000Y-234442000D02*
X274447000Y-233807000D01*
X274447000Y-233807000D02*
X274447000Y-232537000D01*
X274447000Y-232537000D02*
X274396200Y-232537000D01*
X278511000Y-239052100D02*
X278511000Y-239014000D01*
X275996400Y-243967000D02*
X275971000Y-243967000D01*
X275971000Y-243967000D02*
X275844000Y-244094000D01*
X275844000Y-244094000D02*
X275844000Y-245364000D01*
X275844000Y-245364000D02*
X275336000Y-245872000D01*
X270256000Y-245872000D02*
X269621000Y-245237000D01*
X269621000Y-245237000D02*
X269621000Y-243967000D01*
X269621000Y-243967000D02*
X269595600Y-243967000D01*
X226568000Y-235140500D02*
X226568000Y-235204000D01*
X226568000Y-235204000D02*
X228219000Y-236855000D01*
X229997000Y-236855000D02*
X231648000Y-235204000D01*
X231648000Y-235204000D02*
X231648000Y-235140500D01*
X276758400Y-241300000D02*
X276758400Y-241122200D01*
X278384000Y-241300000D02*
X276758400Y-241300000D01*
X277241000Y-237490000D02*
X277241000Y-237617000D01*
X275488400Y-238404400D02*
X277241000Y-237490000D01*
X275488400Y-239826800D02*
X275488400Y-238404400D01*
X276758400Y-241122200D02*
X275488400Y-239826800D01*
X289610800Y-238048800D02*
X289610800Y-239890300D01*
X289610800Y-239890300D02*
X289661600Y-239941100D01*
X293065200Y-238048800D02*
X293065200Y-239814100D01*
X293065200Y-239814100D02*
X293141400Y-239890300D01*
X296494200Y-239864900D02*
X296494200Y-238404400D01*
X296494200Y-238404400D02*
X296138600Y-238048800D01*
X299821600Y-238048800D02*
X299821600Y-239737900D01*
X299821600Y-239737900D02*
X299923200Y-239839500D01*
X286004000Y-238048800D02*
X289610800Y-238048800D01*
X289610800Y-238048800D02*
X293065200Y-238048800D01*
X293065200Y-238048800D02*
X296138600Y-238048800D01*
X296138600Y-238048800D02*
X299821600Y-238048800D01*
X299821600Y-238048800D02*
X301561500Y-238048800D01*
X281622500Y-237451900D02*
X281762200Y-237591600D01*
X278511000Y-237451900D02*
X281622500Y-237451900D01*
X301561500Y-238048800D02*
X303326800Y-239814100D01*
X289661600Y-239941100D02*
X289687000Y-239903000D01*
X293116000Y-239903000D02*
X293141400Y-239890300D01*
X296468800Y-239890300D02*
X296519600Y-239839500D01*
X277241000Y-237617000D02*
X277241000Y-237363000D01*
X277241000Y-237363000D02*
X274828000Y-234950000D01*
X138342944Y-164046741D02*
X138342944Y-161401520D01*
X136652000Y-158496000D02*
X136652000Y-157099000D01*
X138379200Y-160223200D02*
X136652000Y-158496000D01*
X138328400Y-161874200D02*
X138379200Y-160223200D01*
X138328400Y-161416064D02*
X138328400Y-161874200D01*
X138342944Y-161401520D02*
X138328400Y-161416064D01*
X215315800Y-245643400D02*
X215265000Y-245618000D01*
X215265000Y-245618000D02*
X217932000Y-242951000D01*
X217932000Y-242951000D02*
X217932000Y-241808000D01*
X213360000Y-237236000D02*
X203200000Y-227076000D01*
X203200000Y-227076000D02*
X203200000Y-221488000D01*
X199009000Y-218186000D02*
X195834000Y-215011000D01*
X189738000Y-208915000D02*
X182626000Y-201803000D01*
X182626000Y-201803000D02*
X182626000Y-199771000D01*
X182626000Y-199771000D02*
X182499000Y-199644000D01*
X182499000Y-199644000D02*
X182499000Y-199517000D01*
X182499000Y-199517000D02*
X182372000Y-199390000D01*
X182372000Y-199390000D02*
X182372000Y-199263000D01*
X182372000Y-199263000D02*
X182245000Y-199136000D01*
X182245000Y-199136000D02*
X182245000Y-199009000D01*
X182245000Y-199009000D02*
X169672000Y-186436000D01*
X169672000Y-186436000D02*
X169672000Y-184531000D01*
X165354000Y-180213000D02*
X163068000Y-177927000D01*
X163068000Y-177927000D02*
X163068000Y-171958000D01*
X163068000Y-171958000D02*
X163017200Y-171907200D01*
X142240000Y-167894000D02*
X139065000Y-164719000D01*
X139065000Y-164719000D02*
X138342944Y-164046741D01*
X138342944Y-164046741D02*
X138328400Y-164033200D01*
X268795500Y-243967000D02*
X268097000Y-243967000D01*
X268097000Y-243967000D02*
X267716000Y-244348000D01*
X267081000Y-235051600D02*
X267081000Y-235077000D01*
X267081000Y-235077000D02*
X268224000Y-235077000D01*
X273939000Y-235839000D02*
X274828000Y-234950000D01*
X268478000Y-235331000D02*
X268986000Y-235839000D01*
X268478000Y-235204000D02*
X268478000Y-235331000D01*
X268351000Y-235204000D02*
X268478000Y-235204000D01*
X268224000Y-235077000D02*
X268351000Y-235204000D01*
X274828000Y-234950000D02*
X275209000Y-234569000D01*
X275209000Y-234569000D02*
X275209000Y-232537000D01*
X275209000Y-232537000D02*
X275196300Y-232537000D01*
X278511000Y-241452400D02*
X278511000Y-241427000D01*
X278511000Y-241427000D02*
X279654000Y-241427000D01*
X279654000Y-241427000D02*
X279781000Y-241554000D01*
X279781000Y-241554000D02*
X279908000Y-241554000D01*
X279908000Y-241554000D02*
X279908000Y-242951000D01*
X279908000Y-242951000D02*
X277876000Y-242951000D01*
X277876000Y-242951000D02*
X276860000Y-243967000D01*
X276860000Y-243967000D02*
X276796500Y-243967000D01*
X276796500Y-243967000D02*
X276860000Y-243967000D01*
X276860000Y-243967000D02*
X276733000Y-243840000D01*
X276733000Y-243840000D02*
X276733000Y-242570000D01*
X276733000Y-242570000D02*
X275590000Y-242570000D01*
X275590000Y-242570000D02*
X275082000Y-242062000D01*
X269494000Y-242062000D02*
X268986000Y-242570000D01*
X268986000Y-242570000D02*
X268859000Y-242570000D01*
X268859000Y-242570000D02*
X268859000Y-243967000D01*
X268859000Y-243967000D02*
X268795500Y-243967000D01*
X278511000Y-237451900D02*
X278511000Y-237490000D01*
X278511000Y-237451900D02*
X278511000Y-237490000D01*
X278511000Y-237490000D02*
X277368000Y-237490000D01*
X277368000Y-237490000D02*
X277241000Y-237617000D01*
X277241000Y-237617000D02*
X277114000Y-237617000D01*
X278384000Y-241300000D02*
X278511000Y-241427000D01*
X278511000Y-241427000D02*
X278511000Y-241452400D01*
X245872000Y-238887000D02*
X246888000Y-237871000D01*
X246888000Y-237871000D02*
X246888000Y-237617000D01*
X246888000Y-237617000D02*
X247015000Y-237490000D01*
X247015000Y-237490000D02*
X247015000Y-237363000D01*
X247015000Y-237363000D02*
X247269000Y-237109000D01*
X247269000Y-237109000D02*
X247269000Y-236982000D01*
X247269000Y-236982000D02*
X247523000Y-236728000D01*
X247523000Y-236728000D02*
X247523000Y-236601000D01*
X247523000Y-236601000D02*
X249682000Y-234442000D01*
X249682000Y-234442000D02*
X249682000Y-234061000D01*
X120142000Y-159258000D02*
X121412000Y-160528000D01*
X121412000Y-160528000D02*
X121412000Y-162814000D01*
X121412000Y-162814000D02*
X121539000Y-162941000D01*
X121539000Y-162941000D02*
X121539000Y-163195000D01*
X121539000Y-163195000D02*
X125222000Y-166878000D01*
X125222000Y-166878000D02*
X125222000Y-167513000D01*
X125222000Y-167513000D02*
X125272800Y-167487600D01*
X147193000Y-166116000D02*
X149098000Y-164211000D01*
X149098000Y-164211000D02*
X149098000Y-164084000D01*
X149098000Y-164084000D02*
X149225000Y-163957000D01*
X149225000Y-163957000D02*
X149225000Y-163830000D01*
X149225000Y-163830000D02*
X150622000Y-162433000D01*
X150622000Y-162433000D02*
X150622000Y-161925000D01*
X150622000Y-161925000D02*
X150749000Y-161798000D01*
X150749000Y-161798000D02*
X150749000Y-161671000D01*
X150749000Y-161671000D02*
X151765000Y-160655000D01*
X206756000Y-245618000D02*
X226695000Y-225679000D01*
X278561800Y-232206800D02*
X278587200Y-228066600D01*
X278561800Y-232206800D02*
X278511000Y-234315000D01*
X303911000Y-215900000D02*
X300609000Y-219202000D01*
X300609000Y-219202000D02*
X300609000Y-219837000D01*
X291084000Y-221488000D02*
X278511000Y-234061000D01*
X278511000Y-234061000D02*
X278511000Y-234251500D01*
X386588000Y-223901000D02*
X379095000Y-216408000D01*
X363474000Y-204978000D02*
X382016000Y-186436000D01*
X382016000Y-186436000D02*
X382016000Y-185801000D01*
X278511000Y-234251500D02*
X278511000Y-234315000D01*
X206756000Y-245618000D02*
X206705200Y-245643400D01*
X382016000Y-185801000D02*
X367030000Y-170815000D01*
X367030000Y-170815000D02*
X367030000Y-166370000D01*
X386588000Y-242951000D02*
X385318000Y-241681000D01*
X385318000Y-241681000D02*
X385318000Y-234823000D01*
X385318000Y-234823000D02*
X385445000Y-234696000D01*
X385445000Y-234696000D02*
X385445000Y-234569000D01*
X385445000Y-234569000D02*
X386588000Y-233426000D01*
X386588000Y-233426000D02*
X386588000Y-223901000D01*
X401701000Y-246888000D02*
X405638000Y-242951000D01*
X309194200Y-246888000D02*
X401701000Y-246888000D01*
X307009800Y-244703600D02*
X309194200Y-246888000D01*
X307009800Y-238328200D02*
X307009800Y-244703600D01*
X303936400Y-235254800D02*
X307009800Y-238328200D01*
X289941000Y-235254800D02*
X303936400Y-235254800D01*
X286842200Y-232156000D02*
X289941000Y-235254800D01*
X278511000Y-235051600D02*
X278511000Y-235077000D01*
X278511000Y-235077000D02*
X280289000Y-235077000D01*
X280289000Y-235077000D02*
X280416000Y-235204000D01*
X274929600Y-237566200D02*
X273100800Y-240766600D01*
X219964000Y-243205000D02*
X218186000Y-244983000D01*
X218186000Y-244983000D02*
X218186000Y-245668800D01*
X405638000Y-185801000D02*
X404368000Y-184531000D01*
X404368000Y-184531000D02*
X404368000Y-177673000D01*
X404368000Y-177673000D02*
X404495000Y-177546000D01*
X404495000Y-177546000D02*
X404495000Y-177419000D01*
X404495000Y-177419000D02*
X405638000Y-176276000D01*
X405638000Y-176276000D02*
X405638000Y-166751000D01*
X405638000Y-242951000D02*
X404368000Y-241681000D01*
X405638000Y-233426000D02*
X405638000Y-223901000D01*
X404495000Y-234569000D02*
X405638000Y-233426000D01*
X404495000Y-234696000D02*
X404495000Y-234569000D01*
X404368000Y-234823000D02*
X404495000Y-234696000D01*
X404368000Y-241681000D02*
X404368000Y-234823000D01*
X405638000Y-204851000D02*
X404368000Y-203581000D01*
X404368000Y-203581000D02*
X404368000Y-196723000D01*
X404368000Y-196723000D02*
X404495000Y-196596000D01*
X404495000Y-196596000D02*
X404495000Y-196469000D01*
X404495000Y-196469000D02*
X405638000Y-195326000D01*
X405638000Y-195326000D02*
X405638000Y-185801000D01*
X405638000Y-223901000D02*
X404368000Y-222631000D01*
X404368000Y-222631000D02*
X404368000Y-215773000D01*
X404368000Y-215773000D02*
X404495000Y-215646000D01*
X404495000Y-215646000D02*
X404495000Y-215519000D01*
X404495000Y-215519000D02*
X405638000Y-214376000D01*
X405638000Y-214376000D02*
X405638000Y-204851000D01*
X273558000Y-232537000D02*
X273862800Y-230606600D01*
X274167600Y-229692200D02*
X273862800Y-230606600D01*
X228346000Y-231521000D02*
X226568000Y-233299000D01*
X226568000Y-233235500D02*
X226568000Y-233299000D01*
X273558000Y-232537000D02*
X273596100Y-232537000D01*
X226921060Y-240284000D02*
X226949000Y-240284000D01*
X226949000Y-240284000D02*
X225425000Y-238760000D01*
X225679000Y-234188000D02*
X226568000Y-233299000D01*
X225425000Y-234188000D02*
X225679000Y-234188000D01*
X225425000Y-238760000D02*
X225425000Y-234188000D01*
X226568000Y-233299000D02*
X226568000Y-233235500D01*
X272796000Y-232537000D02*
X272669000Y-232410000D01*
X272669000Y-232410000D02*
X272999200Y-230327200D01*
X234315000Y-230632000D02*
X231648000Y-233299000D01*
X231648000Y-233299000D02*
X231648000Y-233235500D01*
X231648000Y-233235500D02*
X231648000Y-233299000D01*
X231648000Y-233299000D02*
X231775000Y-233299000D01*
X231775000Y-233299000D02*
X232664000Y-234188000D01*
X232664000Y-234188000D02*
X232791000Y-234188000D01*
X232791000Y-234188000D02*
X232791000Y-236093000D01*
X232791000Y-236093000D02*
X231775000Y-237109000D01*
X231775000Y-237109000D02*
X231775000Y-240284000D01*
X231775000Y-240284000D02*
X231802940Y-240284000D01*
X278511000Y-238252000D02*
X278638000Y-238379000D01*
X278638000Y-238379000D02*
X280416000Y-238379000D01*
X280416000Y-238379000D02*
X281432000Y-238963200D01*
X281432000Y-238963200D02*
X281813000Y-238963200D01*
X284480000Y-243713000D02*
X283718000Y-244475000D01*
X283718000Y-244475000D02*
X283718000Y-245745000D01*
X283718000Y-245745000D02*
X283730700Y-245795800D01*
X275971000Y-232537000D02*
X275971000Y-230886000D01*
X275945600Y-228803200D02*
X275971000Y-230886000D01*
X238887000Y-227711000D02*
X238887000Y-227330000D01*
X233680000Y-232918000D02*
X238887000Y-227711000D01*
X223139000Y-234950000D02*
X212445600Y-245643400D01*
X205740000Y-244094000D02*
X196596000Y-234950000D01*
X160909000Y-218186000D02*
X158623000Y-215900000D01*
X151130000Y-199263000D02*
X152146000Y-198247000D01*
X152146000Y-198247000D02*
X152146000Y-196977000D01*
X152146000Y-196977000D02*
X152273000Y-196850000D01*
X152273000Y-196850000D02*
X152273000Y-196596000D01*
X152273000Y-196596000D02*
X152400000Y-196469000D01*
X152400000Y-196469000D02*
X152400000Y-196342000D01*
X152400000Y-196342000D02*
X162433000Y-186309000D01*
X162433000Y-186309000D02*
X162433000Y-185166000D01*
X165608000Y-181991000D02*
X166497000Y-181102000D01*
X166497000Y-181102000D02*
X166497000Y-177673000D01*
X166497000Y-177673000D02*
X166624000Y-177546000D01*
X166624000Y-177546000D02*
X166624000Y-177419000D01*
X166624000Y-177419000D02*
X170688000Y-173355000D01*
X170688000Y-173355000D02*
X170688000Y-171958000D01*
X170688000Y-171958000D02*
X170637200Y-171907200D01*
X275971000Y-232537000D02*
X275996400Y-232537000D01*
X264261600Y-191998600D02*
X247599200Y-191998600D01*
X256159000Y-210210400D02*
X264261600Y-202107800D01*
X264261600Y-202107800D02*
X264261600Y-191998600D01*
X254355600Y-210210400D02*
X256159000Y-210210400D01*
X120650000Y-186156600D02*
X120650000Y-175844200D01*
X120827800Y-186334400D02*
X120650000Y-186156600D01*
X276910800Y-239852200D02*
X276656800Y-239598200D01*
X278511000Y-239852200D02*
X276910800Y-239852200D01*
X254355600Y-213309200D02*
X254355600Y-210210400D01*
X254355600Y-210210400D02*
X254355600Y-210159600D01*
X249707400Y-217957400D02*
X254355600Y-213309200D01*
X249707400Y-220370400D02*
X249707400Y-217957400D01*
X251536200Y-222199200D02*
X249707400Y-220370400D01*
X251536200Y-228092000D02*
X251536200Y-222199200D01*
X260883400Y-237439200D02*
X251536200Y-228092000D01*
X121793000Y-178308000D02*
X122682000Y-179197000D01*
X122682000Y-179197000D02*
X122682000Y-180594000D01*
X126619000Y-184531000D02*
X135763000Y-193675000D01*
X135763000Y-193675000D02*
X135763000Y-195961000D01*
X135763000Y-195961000D02*
X135890000Y-196088000D01*
X135890000Y-196088000D02*
X135890000Y-196215000D01*
X135890000Y-196215000D02*
X136017000Y-196342000D01*
X136017000Y-196342000D02*
X136017000Y-196469000D01*
X136017000Y-196469000D02*
X138684000Y-199136000D01*
X138684000Y-199136000D02*
X140208000Y-199136000D01*
X140208000Y-199136000D02*
X140335000Y-199263000D01*
X140335000Y-199263000D02*
X140716000Y-199263000D01*
X140716000Y-199263000D02*
X146685000Y-205232000D01*
X146685000Y-205232000D02*
X146685000Y-205359000D01*
X146685000Y-205359000D02*
X146812000Y-205486000D01*
X146812000Y-205486000D02*
X146812000Y-205613000D01*
X146812000Y-205613000D02*
X152400000Y-211201000D01*
X152400000Y-211201000D02*
X152400000Y-211455000D01*
X154686000Y-213741000D02*
X159131000Y-218186000D01*
X182499000Y-233172000D02*
X197358000Y-248031000D01*
X197358000Y-248031000D02*
X273685000Y-248031000D01*
X273685000Y-248031000D02*
X273812000Y-247904000D01*
X273812000Y-247904000D02*
X273939000Y-247904000D01*
X273939000Y-247904000D02*
X274066000Y-247777000D01*
X274066000Y-247777000D02*
X274193000Y-247777000D01*
X274193000Y-247777000D02*
X274955000Y-247015000D01*
X274955000Y-247015000D02*
X277749000Y-247015000D01*
X281051000Y-241808000D02*
X280543000Y-241300000D01*
X280543000Y-241300000D02*
X280543000Y-240919000D01*
X280543000Y-240919000D02*
X280289000Y-240665000D01*
X280289000Y-240665000D02*
X278511000Y-240665000D01*
X278511000Y-240665000D02*
X278511000Y-240652300D01*
X267081000Y-242252500D02*
X265468100Y-242252500D01*
X262534400Y-242849400D02*
X262559800Y-240588800D01*
X243332000Y-220345000D02*
X262559800Y-240588800D01*
X262712200Y-242849400D02*
X264845800Y-242874800D01*
X180848000Y-176657000D02*
X200152000Y-195961000D01*
X200152000Y-195961000D02*
X200152000Y-196215000D01*
X200152000Y-196215000D02*
X200279000Y-196342000D01*
X200279000Y-196342000D02*
X200279000Y-196469000D01*
X200279000Y-196469000D02*
X202946000Y-199136000D01*
X232410000Y-213995000D02*
X236601000Y-218186000D01*
X262712200Y-242849400D02*
X262534400Y-242849400D01*
X265468100Y-242252500D02*
X264845800Y-242874800D01*
X136931400Y-171526200D02*
X136931400Y-164058600D01*
X136931400Y-171526200D02*
X136550400Y-171907200D01*
X132080000Y-167005000D02*
X136271000Y-162814000D01*
X136271000Y-162814000D02*
X136271000Y-161417000D01*
M02*
