M48
INCH,TZ
T1C0.016
T2C0.032
T3C0.032
T4C0.035
T5C0.039
T6C0.059
%
G90
G05
T1
X4.75Y-6.923
X4.757Y-7.336
X4.795Y-7.02
X4.83Y-7.11
X4.985Y-7.265
X5.2Y-6.575
X5.365Y-6.355
X5.38Y-6.185
X5.391Y-6.459
X5.6Y-6.61
X5.64Y-6.45
X5.795Y-6.54
X5.81Y-8.065
X5.95Y-7.845
X5.975Y-6.325
X6.Y-8.325
X6.09Y-8.415
X6.245Y-8.5
X6.265Y-8.59
X6.335Y-8.59
X6.395Y-7.29
X6.51Y-7.095
X6.52Y-7.165
X6.68Y-7.265
X6.9Y-8.425
X7.065Y-8.59
X7.12Y-6.955
X7.185Y-9.18
X7.47Y-8.225
X7.71Y-8.465
X7.74Y-9.25
X7.835Y-8.59
X7.99Y-7.84
X8.Y-8.72
X8.1Y-9.61
X8.4Y-9.34
X8.58Y-9.52
X8.66Y-9.575
X8.775Y-9.47
X8.785Y-9.25
X8.92Y-9.325
X8.925Y-8.885
X8.985Y-9.05
X8.985Y-9.325
X8.99Y-9.115
X9.055Y-9.325
X9.105Y-9.115
X9.15Y-8.425
X9.2Y-8.72
X9.2Y-9.17
X9.225Y-9.08
X9.315Y-8.59
X9.365Y-9.53
X9.405Y-8.95
X9.5Y-9.665
X9.58Y-8.675
X9.66Y-8.84
X9.68Y-9.405
X9.68Y-9.545
X9.748Y-7.559
X9.83Y-9.215
X9.97Y-8.995
X10.16Y-9.34
X10.205Y-8.97
X10.26Y-8.97
X10.271Y-9.348
X10.315Y-9.125
X10.35Y-9.432
X10.38Y-9.515
X10.405Y-8.955
X10.405Y-9.135
X10.44Y-9.26
X10.44Y-9.405
X10.47Y-9.18
X10.48Y-9.125
X10.52Y-8.84
X10.54Y-9.62
X10.562Y-9.703
X10.57Y-8.59
X10.57Y-8.82
X10.59Y-9.23
X10.59Y-9.285
X10.59Y-9.395
X10.595Y-9.34
X10.61Y-9.53
X10.64Y-9.68
X10.66Y-8.955
X10.675Y-8.815
X10.685Y-6.71
X10.689Y-9.412
X10.736Y-9.332
X10.748Y-9.068
X10.752Y-9.479
X10.765Y-9.724
X10.78Y-8.61
X10.78Y-8.675
X10.78Y-9.23
X10.785Y-9.285
X10.794Y-9.043
X10.8Y-6.595
X10.809Y-9.456
X10.824Y-9.353
X10.826Y-9.08
X10.83Y-9.53
X10.84Y-9.68
X10.845Y-8.733
X10.845Y-8.85
X10.855Y-8.93
X10.864Y-9.008
X10.89Y-9.26
X10.892Y-9.433
X10.935Y-9.725
X10.968Y-8.979
X11.023Y-9.628
X11.04Y-9.26
X11.065Y-9.52
X11.093Y-9.354
X11.094Y-9.456
X11.095Y-9.408
X11.102Y-9.16
X11.166Y-9.551
X11.2Y-9.595
X11.26Y-9.372
X11.293Y-9.14
X11.36Y-8.885
X11.36Y-8.955
X11.46Y-8.72
X11.655Y-8.895
X11.745Y-8.955
X11.835Y-8.655
X11.965Y-8.5
X12.22Y-9.135
X14.925Y-8.52
T2
X8.9339Y-9.46
X9.1261Y-9.46
T3
X4.482Y-6.768
X4.782Y-6.768
X5.076Y-6.768
X5.376Y-6.768
X5.794Y-6.768
X6.094Y-6.768
X6.418Y-6.768
X6.718Y-6.768
T4
X8.138Y-9.671
X8.251Y-9.671
X8.364Y-9.671
X8.477Y-9.671
X8.59Y-9.672
X8.703Y-9.672
T5
X4.58Y-6.27
X4.58Y-6.57
X4.5875Y-7.765
X4.5875Y-8.065
X4.59Y-7.015
X4.59Y-7.315
X4.59Y-8.52
X4.59Y-8.82
X4.59Y-9.265
X4.59Y-9.565
X4.73Y-6.27
X4.73Y-6.57
X4.79Y-8.52
X4.79Y-8.82
X4.815Y-9.265
X4.815Y-9.565
X4.915Y-7.015
X4.915Y-7.315
X5.0125Y-7.765
X5.0125Y-8.065
X5.7525Y-9.265
X5.7525Y-9.565
X5.855Y-7.015
X5.855Y-7.315
X6.0425Y-7.765
X6.0425Y-8.065
X6.09Y-6.266
X6.09Y-6.566
X6.23Y-6.265
X6.23Y-6.565
X6.4175Y-8.515
X6.4175Y-8.815
X6.605Y-7.015
X6.605Y-7.315
X6.69Y-9.265
X6.69Y-9.565
X6.7925Y-7.765
X6.7925Y-8.065
X6.98Y-6.265
X6.98Y-6.565
X7.1675Y-8.515
X7.1675Y-8.815
X7.355Y-7.015
X7.355Y-7.315
X7.5425Y-7.765
X7.5425Y-8.065
X7.73Y-6.265
X7.73Y-6.565
X7.9175Y-8.515
X7.9175Y-8.815
X8.105Y-7.015
X8.105Y-7.315
X8.2925Y-7.765
X8.2925Y-8.065
X8.48Y-6.265
X8.48Y-6.565
X8.6675Y-8.515
X8.6675Y-8.815
X8.855Y-7.015
X8.855Y-7.315
X9.0425Y-7.765
X9.0425Y-8.065
X9.23Y-6.265
X9.23Y-6.565
X9.4175Y-8.515
X9.4175Y-8.815
X9.45Y-9.24
X9.45Y-9.54
X9.605Y-7.015
X9.605Y-7.315
X9.7925Y-7.765
X9.7925Y-8.065
X9.98Y-6.265
X9.98Y-6.565
X10.1675Y-8.515
X10.1675Y-8.815
X10.355Y-7.015
X10.355Y-7.315
X10.5425Y-7.765
X10.5425Y-8.065
X10.73Y-6.265
X10.73Y-6.565
X10.9175Y-8.515
X10.9175Y-8.815
X11.105Y-7.015
X11.105Y-7.315
X11.2925Y-7.765
X11.2925Y-8.065
X11.48Y-6.265
X11.48Y-6.565
X11.6675Y-8.515
X11.6675Y-8.815
X11.855Y-7.015
X11.855Y-7.315
X12.0425Y-7.765
X12.0425Y-8.065
X12.2275Y-9.265
X12.2275Y-9.565
X12.23Y-6.265
X12.23Y-6.565
X12.4175Y-8.515
X12.4175Y-8.815
X12.605Y-7.015
X12.605Y-7.315
X12.7925Y-7.765
X12.7925Y-8.065
X12.975Y-9.265
X12.975Y-9.565
X12.98Y-6.265
X12.98Y-6.565
X13.16Y-8.515
X13.16Y-8.815
X13.355Y-7.015
X13.355Y-7.315
X13.54Y-7.765
X13.54Y-8.065
X13.72Y-6.265
X13.72Y-6.565
X13.7225Y-9.265
X13.7225Y-9.565
X14.09Y-7.015
X14.09Y-7.315
X14.19Y-8.51
X14.19Y-8.81
X14.31Y-7.77
X14.31Y-8.07
X14.45Y-6.25
X14.45Y-6.55
X14.47Y-9.265
X14.47Y-9.565
X15.04Y-7.015
X15.04Y-7.315
X15.22Y-8.515
X15.22Y-8.815
X15.22Y-9.265
X15.22Y-9.565
X15.97Y-6.265
X15.97Y-6.565
X15.97Y-7.015
X15.97Y-7.315
X15.97Y-7.765
X15.97Y-8.065
X15.97Y-8.515
X15.97Y-8.815
X15.97Y-9.265
X15.97Y-9.565
T6
X4.132Y-6.294
X4.132Y-7.044
X4.132Y-7.794
X4.132Y-8.544
X4.132Y-9.294
X4.382Y-6.194
X4.382Y-6.944
X4.382Y-7.694
X4.382Y-8.444
X4.382Y-9.194
X4.932Y-6.594
X4.976Y-9.295
X5.069Y-7.044
X5.163Y-7.794
X5.182Y-6.494
X5.226Y-9.195
X5.319Y-6.944
X5.351Y-8.544
X5.413Y-7.694
X5.601Y-8.444
X5.682Y-6.594
X5.913Y-9.294
X5.932Y-6.494
X6.007Y-7.044
X6.163Y-9.194
X6.194Y-7.794
X6.257Y-6.944
X6.382Y-6.294
X6.444Y-7.694
X6.569Y-8.544
X6.632Y-6.194
X6.757Y-7.044
X6.819Y-8.444
X6.851Y-9.294
X6.944Y-7.794
X7.007Y-6.944
X7.101Y-9.194
X7.132Y-6.294
X7.194Y-7.694
X7.319Y-8.544
X7.382Y-6.194
X7.507Y-7.044
X7.569Y-8.444
X7.694Y-7.794
X7.757Y-6.944
X7.882Y-6.294
X7.944Y-7.694
X8.069Y-8.544
X8.132Y-6.194
X8.257Y-7.044
X8.319Y-8.444
X8.444Y-7.794
X8.507Y-6.944
X8.632Y-6.294
X8.694Y-7.694
X8.819Y-8.544
X8.882Y-6.194
X9.007Y-7.044
X9.069Y-8.444
X9.194Y-7.794
X9.257Y-6.944
X9.382Y-6.294
X9.444Y-7.694
X9.569Y-8.544
X9.632Y-6.194
X9.663Y-9.294
X9.757Y-7.044
X9.819Y-8.444
X9.913Y-9.194
X9.944Y-7.794
X10.007Y-6.944
X10.132Y-6.294
X10.194Y-7.694
X10.319Y-8.544
X10.382Y-6.194
X10.507Y-7.044
X10.569Y-8.444
X10.694Y-7.794
X10.757Y-6.944
X10.882Y-6.294
X10.944Y-7.694
X11.069Y-8.544
X11.132Y-6.194
X11.257Y-7.044
X11.319Y-8.444
X11.444Y-7.794
X11.507Y-6.944
X11.632Y-6.294
X11.694Y-7.694
X11.819Y-8.544
X11.882Y-6.194
X12.007Y-7.044
X12.069Y-8.444
X12.194Y-7.794
X12.257Y-6.944
X12.382Y-6.294
X12.382Y-9.294
X12.444Y-7.694
X12.569Y-8.544
X12.632Y-6.194
X12.632Y-9.194
X12.757Y-7.044
X12.819Y-8.444
X12.944Y-7.794
X13.007Y-6.944
X13.132Y-6.294
X13.132Y-9.294
X13.194Y-7.694
X13.319Y-8.544
X13.382Y-6.194
X13.382Y-9.194
X13.507Y-7.044
X13.569Y-8.444
X13.694Y-7.794
X13.757Y-6.944
X13.882Y-6.294
X13.882Y-9.294
X13.944Y-7.694
X14.132Y-6.194
X14.132Y-9.194
X14.257Y-7.044
X14.35Y-8.544
X14.507Y-6.944
X14.6Y-8.444
X14.632Y-9.294
X14.882Y-9.194
X14.913Y-7.794
X15.007Y-6.294
X15.163Y-7.694
X15.194Y-7.044
X15.257Y-6.194
X15.382Y-8.544
X15.382Y-9.294
X15.444Y-6.944
X15.632Y-8.444
X15.632Y-9.194
X16.131Y-7.794
X16.132Y-6.294
X16.132Y-7.044
X16.132Y-8.544
X16.132Y-9.294
X16.381Y-7.694
X16.382Y-6.194
X16.382Y-6.944
X16.382Y-8.444
X16.382Y-9.194
T0
M30
